M48
; DRILL file {KiCad (6.0.5)} date Thu Feb  2 15:20:19 2023
; FORMAT={-:-/ absolute / inch / decimal}
; #@! TF.CreationDate,2023-02-02T15:20:19+08:00
; #@! TF.GenerationSoftware,Kicad,Pcbnew,(6.0.5)
; #@! TF.FileFunction,Plated,1,2,PTH
FMAT,2
INCH
; #@! TA.AperFunction,Plated,PTH,ViaDrill
T1C0.0098
; #@! TA.AperFunction,Plated,PTH,ViaDrill
T2C0.0118
; #@! TA.AperFunction,Plated,PTH,ViaDrill
T3C0.0157
; #@! TA.AperFunction,Plated,PTH,ViaDrill
T4C0.0197
%
G90
G05
T1
X4.5157Y-3.9488
X4.5157Y-3.9764
X4.5157Y-4.0039
X4.5157Y-4.0315
X4.5177Y-4.1339
X4.5177Y-4.1634
X4.5177Y-4.1929
X4.5433Y-3.9488
X4.5433Y-3.9764
X4.5433Y-4.0039
X4.5433Y-4.0315
X4.5472Y-4.1339
X4.5472Y-4.1634
X4.5472Y-4.1929
X4.5709Y-3.9488
X4.5709Y-3.9764
X4.5768Y-4.1339
X4.5768Y-4.1634
X4.5768Y-4.1929
X4.5984Y-3.9488
X4.5984Y-3.9764
X4.6063Y-4.1339
X4.6063Y-4.1634
X4.6063Y-4.1929
X4.622Y-3.4961
X4.626Y-3.9488
X4.626Y-3.9764
X4.6358Y-4.1339
X4.6358Y-4.1634
X4.6358Y-4.1929
X4.6378Y-3.5394
X4.6378Y-3.6024
X4.6575Y-3.9764
X4.6693Y-3.4882
X4.6929Y-3.4134
X4.6929Y-3.7677
X4.6929Y-3.7953
X4.6929Y-4.4961
X4.6929Y-4.5433
X4.6969Y-3.4449
X4.7087Y-3.378
X4.7087Y-3.4724
X4.7165Y-4.4843
X4.7165Y-4.5551
X4.7244Y-3.3307
X4.7283Y-3.4252
X4.7323Y-3.6929
X4.7441Y-3.3937
X4.7441Y-4.4843
X4.7441Y-4.5551
X4.752Y-3.3583
X4.7559Y-3.3228
X4.7677Y-3.6929
X4.7717Y-3.7677
X4.7717Y-3.7992
X4.7717Y-4.4843
X4.7717Y-4.5551
X4.7835Y-3.6535
X4.7992Y-3.5709
X4.7992Y-3.6299
X4.8031Y-3.1732
X4.8031Y-3.2008
X4.8031Y-3.2283
X4.8031Y-3.4843
X4.811Y-3.5118
X4.8228Y-3.4606
X4.8307Y-3.1732
X4.8346Y-3.4291
X4.8386Y-4.4843
X4.8386Y-4.5551
X4.8425Y-3.4803
X4.8425Y-4.1772
X4.8465Y-4.248
X4.8583Y-3.1732
X4.8583Y-3.4488
X4.8661Y-4.4843
X4.8661Y-4.5551
X4.8701Y-4.1772
X4.874Y-3.563
X4.874Y-4.248
X4.8937Y-4.4843
X4.8937Y-4.5551
X4.9016Y-4.248
X4.9213Y-3.7598
X4.9213Y-3.7913
X4.9213Y-3.8228
X4.9213Y-4.4843
X4.9213Y-4.5551
X4.9291Y-4.248
X4.937Y-4.1535
X4.9409Y-3.7402
X4.9409Y-4.1024
X4.9449Y-3.7756
X4.9449Y-3.8071
X4.9488Y-4.4843
X4.9488Y-4.5551
X4.9724Y-3.1693
X4.9764Y-4.315
X4.9764Y-4.3406
X4.9764Y-4.3661
X4.9764Y-4.4843
X4.9764Y-4.5551
X4.9882Y-3.4606
X5.0Y-3.1693
X5.0039Y-3.6024
X5.0039Y-4.0315
X5.0039Y-4.0591
X5.0039Y-4.315
X5.0039Y-4.3406
X5.0039Y-4.3661
X5.0039Y-4.4843
X5.0039Y-4.5551
X5.0079Y-3.4409
X5.0169Y-3.4991
X5.0236Y-3.4724
X5.0276Y-3.1693
X5.0315Y-4.0315
X5.0315Y-4.0591
X5.0315Y-4.315
X5.0315Y-4.3406
X5.0315Y-4.3661
X5.0315Y-4.4843
X5.0315Y-4.5551
X5.0433Y-3.6024
X5.0551Y-3.1693
X5.0591Y-4.0315
X5.0591Y-4.0591
X5.0591Y-4.315
X5.0591Y-4.3406
X5.0591Y-4.3661
X5.0591Y-4.4843
X5.0591Y-4.5551
X5.0709Y-4.5984
X5.0709Y-4.6457
X5.0748Y-3.6063
X5.0827Y-3.1693
X5.0866Y-4.0315
X5.0866Y-4.0591
X5.0866Y-4.4843
X5.0866Y-4.5551
X5.0866Y-4.6811
X5.1063Y-3.5394
X5.1102Y-3.1693
X5.1102Y-4.626
X5.1299Y-4.5827
X5.1299Y-4.6614
X5.1339Y-3.563
X5.1417Y-3.3189
X5.1496Y-4.6102
X5.1535Y-4.4134
X5.1575Y-3.4528
X5.1811Y-3.5118
X5.185Y-3.1693
X5.189Y-4.5748
X5.2008Y-3.6024
X5.2126Y-3.1693
X5.2126Y-3.4843
X5.2126Y-3.5118
X5.2126Y-3.5394
X5.2126Y-3.5669
X5.2205Y-3.6614
X5.2244Y-3.622
X5.2283Y-3.4427
X5.2441Y-3.1693
X5.2441Y-3.1969
X5.2441Y-4.5748
X5.2795Y-4.6378
X5.2835Y-3.9921
X5.2913Y-4.6063
X5.3031Y-4.6575
X5.3071Y-3.9409
X5.315Y-3.5827
X5.3228Y-3.5236
X5.3228Y-3.5512
X5.3228Y-3.626
X5.3268Y-4.2402
X5.3268Y-4.5906
X5.3307Y-4.0433
X5.3425Y-3.6063
X5.3504Y-3.5236
X5.3504Y-3.5512
X5.3622Y-3.3465
X5.3622Y-3.374
X5.3622Y-3.4016
X5.3622Y-3.4291
X5.3661Y-3.9252
X5.3661Y-3.9528
X5.3661Y-3.9803
X5.3661Y-4.0079
X5.378Y-4.122
X5.378Y-4.1496
X5.378Y-4.1772
X5.378Y-4.2047
X5.378Y-4.2323
X5.3819Y-3.5512
X5.3898Y-3.3465
X5.3898Y-3.374
X5.3898Y-3.4016
X5.3898Y-3.4291
X5.3937Y-3.9252
X5.3937Y-3.9528
X5.3937Y-3.9803
X5.3937Y-4.0079
X5.3976Y-4.0512
X5.4055Y-4.122
X5.4055Y-4.1496
X5.4055Y-4.1772
X5.4055Y-4.2047
X5.4055Y-4.2323
X5.4134Y-4.0748
X5.4173Y-3.1024
X5.4173Y-3.3465
X5.4173Y-3.374
X5.4173Y-3.4016
X5.4173Y-3.4291
X5.4213Y-3.9252
X5.4213Y-3.9528
X5.4213Y-3.9803
X5.4213Y-4.0079
X5.4331Y-4.122
X5.4331Y-4.1496
X5.4331Y-4.1772
X5.4331Y-4.2047
X5.4331Y-4.2323
X5.4409Y-3.1575
X5.4409Y-4.0748
X5.4528Y-3.1181
X5.4606Y-3.1969
X5.4606Y-4.4409
X5.4724Y-3.4409
X5.4724Y-3.4685
X5.4724Y-3.4961
X5.4803Y-3.1575
X5.4843Y-4.0315
X5.4843Y-4.063
X5.4882Y-3.1102
X5.5Y-3.1969
X5.5Y-3.2323
X5.5Y-3.4409
X5.5Y-3.4685
X5.5Y-3.4961
X5.5118Y-4.0315
X5.5118Y-4.063
X5.5118Y-4.2559
X5.5118Y-4.2835
X5.5118Y-4.311
X5.5157Y-4.4134
X5.5157Y-4.4409
X5.5276Y-3.4409
X5.5276Y-3.4685
X5.5276Y-3.4961
X5.5394Y-4.0315
X5.5394Y-4.2559
X5.5394Y-4.2835
X5.5394Y-4.311
X5.5433Y-4.4134
X5.5551Y-3.4409
X5.5551Y-3.4685
X5.5551Y-3.4961
X5.5787Y-4.3504
X5.5787Y-4.378
X5.6063Y-4.3504
X5.7638Y-3.4685
X5.7953Y-3.5118
X5.7953Y-3.5787
X5.8031Y-3.6299
X5.8071Y-3.4685
X5.811Y-3.7126
X5.8228Y-3.4213
X5.8228Y-3.563
X5.8228Y-3.6732
X5.8386Y-3.5276
X5.8425Y-3.6102
X5.8465Y-3.4488
X5.8504Y-3.7205
X5.8543Y-3.4843
X5.8543Y-3.6417
X5.8583Y-3.4173
X5.8583Y-3.5591
X5.878Y-3.6811
X5.8819Y-3.6024
X5.8937Y-3.4252
X5.8937Y-3.7205
X5.8976Y-3.4843
X5.9016Y-3.6457
X5.9055Y-3.5354
T2
X4.9764Y-3.7165
T3
X4.5364Y-3.7821
X4.5364Y-3.8321
X4.6063Y-3.7244
X5.3661Y-3.7165
X5.5118Y-4.1575
X5.5197Y-3.9409
X5.5591Y-3.7126
T4
X4.8017Y-3.2781
T0
M30
