%TF.GenerationSoftware,KiCad,Pcbnew,(6.0.5)*%
%TF.CreationDate,2023-02-02T15:23:46+08:00*%
%TF.ProjectId,Step_Ctrl_V2,53746570-5f43-4747-926c-5f56322e6b69,rev?*%
%TF.SameCoordinates,Original*%
%TF.FileFunction,Legend,Top*%
%TF.FilePolarity,Positive*%
%FSLAX46Y46*%
G04 Gerber Fmt 4.6, Leading zero omitted, Abs format (unit mm)*
G04 Created by KiCad (PCBNEW (6.0.5)) date 2023-02-02 15:23:46*
%MOMM*%
%LPD*%
G01*
G04 APERTURE LIST*
%ADD10C,0.150000*%
%ADD11C,0.130000*%
%ADD12C,0.160000*%
%ADD13C,0.300000*%
%TA.AperFunction,Profile*%
%ADD14C,0.250000*%
%TD*%
%ADD15C,0.120000*%
%ADD16C,0.360000*%
G04 APERTURE END LIST*
D10*
X135261904Y-84400000D02*
X135166666Y-84352380D01*
X135023809Y-84352380D01*
X134880952Y-84400000D01*
X134785714Y-84495238D01*
X134738095Y-84590476D01*
X134690476Y-84780952D01*
X134690476Y-84923809D01*
X134738095Y-85114285D01*
X134785714Y-85209523D01*
X134880952Y-85304761D01*
X135023809Y-85352380D01*
X135119047Y-85352380D01*
X135261904Y-85304761D01*
X135309523Y-85257142D01*
X135309523Y-84923809D01*
X135119047Y-84923809D01*
X133714285Y-84352380D02*
X134285714Y-84352380D01*
X134000000Y-85352380D02*
X134000000Y-84352380D01*
X133309523Y-85352380D02*
X132976190Y-84876190D01*
X132738095Y-85352380D02*
X132738095Y-84352380D01*
X133119047Y-84352380D01*
X133214285Y-84400000D01*
X133261904Y-84447619D01*
X133309523Y-84542857D01*
X133309523Y-84685714D01*
X133261904Y-84780952D01*
X133214285Y-84828571D01*
X133119047Y-84876190D01*
X132738095Y-84876190D01*
X127161904Y-84400000D02*
X127066666Y-84352380D01*
X126923809Y-84352380D01*
X126780952Y-84400000D01*
X126685714Y-84495238D01*
X126638095Y-84590476D01*
X126590476Y-84780952D01*
X126590476Y-84923809D01*
X126638095Y-85114285D01*
X126685714Y-85209523D01*
X126780952Y-85304761D01*
X126923809Y-85352380D01*
X127019047Y-85352380D01*
X127161904Y-85304761D01*
X127209523Y-85257142D01*
X127209523Y-84923809D01*
X127019047Y-84923809D01*
X125638095Y-85352380D02*
X125638095Y-84352380D01*
X125876190Y-84352380D01*
X126019047Y-84400000D01*
X126114285Y-84495238D01*
X126161904Y-84590476D01*
X126209523Y-84780952D01*
X126209523Y-84923809D01*
X126161904Y-85114285D01*
X126114285Y-85209523D01*
X126019047Y-85304761D01*
X125876190Y-85352380D01*
X125638095Y-85352380D01*
X125209523Y-85257142D02*
X125161904Y-85304761D01*
X125019047Y-85352380D01*
X124923809Y-85352380D01*
X124780952Y-85304761D01*
X124685714Y-85209523D01*
X124638095Y-85114285D01*
X124590476Y-84923809D01*
X124590476Y-84780952D01*
X124638095Y-84590476D01*
X124685714Y-84495238D01*
X124780952Y-84400000D01*
X124923809Y-84352380D01*
X125019047Y-84352380D01*
X125161904Y-84400000D01*
X125209523Y-84447619D01*
X123566666Y-84352380D02*
X123900000Y-85352380D01*
X124233333Y-84352380D01*
G36*
X138000000Y-93400000D02*
G01*
X137200000Y-93400000D01*
X137200000Y-89500000D01*
X138000000Y-89500000D01*
X138000000Y-93400000D01*
G37*
X138000000Y-93400000D02*
X137200000Y-93400000D01*
X137200000Y-89500000D01*
X138000000Y-89500000D01*
X138000000Y-93400000D01*
D11*
X138333333Y-93216666D02*
X138333333Y-92516666D01*
X138500000Y-92516666D01*
X138600000Y-92550000D01*
X138666666Y-92616666D01*
X138700000Y-92683333D01*
X138733333Y-92816666D01*
X138733333Y-92916666D01*
X138700000Y-93050000D01*
X138666666Y-93116666D01*
X138600000Y-93183333D01*
X138500000Y-93216666D01*
X138333333Y-93216666D01*
X139300000Y-93183333D02*
X139233333Y-93216666D01*
X139100000Y-93216666D01*
X139033333Y-93183333D01*
X139000000Y-93116666D01*
X139000000Y-92850000D01*
X139033333Y-92783333D01*
X139100000Y-92750000D01*
X139233333Y-92750000D01*
X139300000Y-92783333D01*
X139333333Y-92850000D01*
X139333333Y-92916666D01*
X139000000Y-92983333D01*
X139600000Y-93183333D02*
X139666666Y-93216666D01*
X139800000Y-93216666D01*
X139866666Y-93183333D01*
X139900000Y-93116666D01*
X139900000Y-93083333D01*
X139866666Y-93016666D01*
X139800000Y-92983333D01*
X139700000Y-92983333D01*
X139633333Y-92950000D01*
X139600000Y-92883333D01*
X139600000Y-92850000D01*
X139633333Y-92783333D01*
X139700000Y-92750000D01*
X139800000Y-92750000D01*
X139866666Y-92783333D01*
X140200000Y-93216666D02*
X140200000Y-92750000D01*
X140200000Y-92516666D02*
X140166666Y-92550000D01*
X140200000Y-92583333D01*
X140233333Y-92550000D01*
X140200000Y-92516666D01*
X140200000Y-92583333D01*
X140833333Y-92750000D02*
X140833333Y-93316666D01*
X140800000Y-93383333D01*
X140766666Y-93416666D01*
X140700000Y-93450000D01*
X140600000Y-93450000D01*
X140533333Y-93416666D01*
X140833333Y-93183333D02*
X140766666Y-93216666D01*
X140633333Y-93216666D01*
X140566666Y-93183333D01*
X140533333Y-93150000D01*
X140500000Y-93083333D01*
X140500000Y-92883333D01*
X140533333Y-92816666D01*
X140566666Y-92783333D01*
X140633333Y-92750000D01*
X140766666Y-92750000D01*
X140833333Y-92783333D01*
X141166666Y-92750000D02*
X141166666Y-93216666D01*
X141166666Y-92816666D02*
X141200000Y-92783333D01*
X141266666Y-92750000D01*
X141366666Y-92750000D01*
X141433333Y-92783333D01*
X141466666Y-92850000D01*
X141466666Y-93216666D01*
X142066666Y-93183333D02*
X142000000Y-93216666D01*
X141866666Y-93216666D01*
X141800000Y-93183333D01*
X141766666Y-93116666D01*
X141766666Y-92850000D01*
X141800000Y-92783333D01*
X141866666Y-92750000D01*
X142000000Y-92750000D01*
X142066666Y-92783333D01*
X142100000Y-92850000D01*
X142100000Y-92916666D01*
X141766666Y-92983333D01*
X142700000Y-93216666D02*
X142700000Y-92516666D01*
X142700000Y-93183333D02*
X142633333Y-93216666D01*
X142500000Y-93216666D01*
X142433333Y-93183333D01*
X142400000Y-93150000D01*
X142366666Y-93083333D01*
X142366666Y-92883333D01*
X142400000Y-92816666D01*
X142433333Y-92783333D01*
X142500000Y-92750000D01*
X142633333Y-92750000D01*
X142700000Y-92783333D01*
X143800000Y-92850000D02*
X143900000Y-92883333D01*
X143933333Y-92916666D01*
X143966666Y-92983333D01*
X143966666Y-93083333D01*
X143933333Y-93150000D01*
X143900000Y-93183333D01*
X143833333Y-93216666D01*
X143566666Y-93216666D01*
X143566666Y-92516666D01*
X143800000Y-92516666D01*
X143866666Y-92550000D01*
X143900000Y-92583333D01*
X143933333Y-92650000D01*
X143933333Y-92716666D01*
X143900000Y-92783333D01*
X143866666Y-92816666D01*
X143800000Y-92850000D01*
X143566666Y-92850000D01*
X144200000Y-92750000D02*
X144366666Y-93216666D01*
X144533333Y-92750000D02*
X144366666Y-93216666D01*
X144300000Y-93383333D01*
X144266666Y-93416666D01*
X144200000Y-93450000D01*
X145333333Y-93216666D02*
X145333333Y-92516666D01*
X145500000Y-92516666D01*
X145600000Y-92550000D01*
X145666666Y-92616666D01*
X145700000Y-92683333D01*
X145733333Y-92816666D01*
X145733333Y-92916666D01*
X145700000Y-93050000D01*
X145666666Y-93116666D01*
X145600000Y-93183333D01*
X145500000Y-93216666D01*
X145333333Y-93216666D01*
X146300000Y-93183333D02*
X146233333Y-93216666D01*
X146100000Y-93216666D01*
X146033333Y-93183333D01*
X146000000Y-93116666D01*
X146000000Y-92850000D01*
X146033333Y-92783333D01*
X146100000Y-92750000D01*
X146233333Y-92750000D01*
X146300000Y-92783333D01*
X146333333Y-92850000D01*
X146333333Y-92916666D01*
X146000000Y-92983333D01*
X146733333Y-93216666D02*
X146666666Y-93183333D01*
X146633333Y-93116666D01*
X146633333Y-92516666D01*
X138266666Y-91316666D02*
X138500000Y-92016666D01*
X138733333Y-91316666D01*
X139233333Y-91983333D02*
X139166666Y-92016666D01*
X139033333Y-92016666D01*
X138966666Y-91983333D01*
X138933333Y-91916666D01*
X138933333Y-91650000D01*
X138966666Y-91583333D01*
X139033333Y-91550000D01*
X139166666Y-91550000D01*
X139233333Y-91583333D01*
X139266666Y-91650000D01*
X139266666Y-91716666D01*
X138933333Y-91783333D01*
X139566666Y-92016666D02*
X139566666Y-91550000D01*
X139566666Y-91683333D02*
X139600000Y-91616666D01*
X139633333Y-91583333D01*
X139700000Y-91550000D01*
X139766666Y-91550000D01*
X139966666Y-91983333D02*
X140033333Y-92016666D01*
X140166666Y-92016666D01*
X140233333Y-91983333D01*
X140266666Y-91916666D01*
X140266666Y-91883333D01*
X140233333Y-91816666D01*
X140166666Y-91783333D01*
X140066666Y-91783333D01*
X140000000Y-91750000D01*
X139966666Y-91683333D01*
X139966666Y-91650000D01*
X140000000Y-91583333D01*
X140066666Y-91550000D01*
X140166666Y-91550000D01*
X140233333Y-91583333D01*
X140566666Y-92016666D02*
X140566666Y-91550000D01*
X140566666Y-91316666D02*
X140533333Y-91350000D01*
X140566666Y-91383333D01*
X140600000Y-91350000D01*
X140566666Y-91316666D01*
X140566666Y-91383333D01*
X141000000Y-92016666D02*
X140933333Y-91983333D01*
X140900000Y-91950000D01*
X140866666Y-91883333D01*
X140866666Y-91683333D01*
X140900000Y-91616666D01*
X140933333Y-91583333D01*
X141000000Y-91550000D01*
X141100000Y-91550000D01*
X141166666Y-91583333D01*
X141200000Y-91616666D01*
X141233333Y-91683333D01*
X141233333Y-91883333D01*
X141200000Y-91950000D01*
X141166666Y-91983333D01*
X141100000Y-92016666D01*
X141000000Y-92016666D01*
X141533333Y-91550000D02*
X141533333Y-92016666D01*
X141533333Y-91616666D02*
X141566666Y-91583333D01*
X141633333Y-91550000D01*
X141733333Y-91550000D01*
X141800000Y-91583333D01*
X141833333Y-91650000D01*
X141833333Y-92016666D01*
X142166666Y-91950000D02*
X142200000Y-91983333D01*
X142166666Y-92016666D01*
X142133333Y-91983333D01*
X142166666Y-91950000D01*
X142166666Y-92016666D01*
X142166666Y-91583333D02*
X142200000Y-91616666D01*
X142166666Y-91650000D01*
X142133333Y-91616666D01*
X142166666Y-91583333D01*
X142166666Y-91650000D01*
X142866666Y-92016666D02*
X142466666Y-92016666D01*
X142666666Y-92016666D02*
X142666666Y-91316666D01*
X142600000Y-91416666D01*
X142533333Y-91483333D01*
X142466666Y-91516666D01*
X143166666Y-91950000D02*
X143200000Y-91983333D01*
X143166666Y-92016666D01*
X143133333Y-91983333D01*
X143166666Y-91950000D01*
X143166666Y-92016666D01*
X143866666Y-92016666D02*
X143466666Y-92016666D01*
X143666666Y-92016666D02*
X143666666Y-91316666D01*
X143600000Y-91416666D01*
X143533333Y-91483333D01*
X143466666Y-91516666D01*
D12*
X138271428Y-90604761D02*
X138414285Y-90652380D01*
X138652380Y-90652380D01*
X138747619Y-90604761D01*
X138795238Y-90557142D01*
X138842857Y-90461904D01*
X138842857Y-90366666D01*
X138795238Y-90271428D01*
X138747619Y-90223809D01*
X138652380Y-90176190D01*
X138461904Y-90128571D01*
X138366666Y-90080952D01*
X138319047Y-90033333D01*
X138271428Y-89938095D01*
X138271428Y-89842857D01*
X138319047Y-89747619D01*
X138366666Y-89700000D01*
X138461904Y-89652380D01*
X138700000Y-89652380D01*
X138842857Y-89700000D01*
X139128571Y-89985714D02*
X139509523Y-89985714D01*
X139271428Y-89652380D02*
X139271428Y-90509523D01*
X139319047Y-90604761D01*
X139414285Y-90652380D01*
X139509523Y-90652380D01*
X140223809Y-90604761D02*
X140128571Y-90652380D01*
X139938095Y-90652380D01*
X139842857Y-90604761D01*
X139795238Y-90509523D01*
X139795238Y-90128571D01*
X139842857Y-90033333D01*
X139938095Y-89985714D01*
X140128571Y-89985714D01*
X140223809Y-90033333D01*
X140271428Y-90128571D01*
X140271428Y-90223809D01*
X139795238Y-90319047D01*
X140700000Y-89985714D02*
X140700000Y-90985714D01*
X140700000Y-90033333D02*
X140795238Y-89985714D01*
X140985714Y-89985714D01*
X141080952Y-90033333D01*
X141128571Y-90080952D01*
X141176190Y-90176190D01*
X141176190Y-90461904D01*
X141128571Y-90557142D01*
X141080952Y-90604761D01*
X140985714Y-90652380D01*
X140795238Y-90652380D01*
X140700000Y-90604761D01*
X141604761Y-90271428D02*
X142366666Y-90271428D01*
X143414285Y-90557142D02*
X143366666Y-90604761D01*
X143223809Y-90652380D01*
X143128571Y-90652380D01*
X142985714Y-90604761D01*
X142890476Y-90509523D01*
X142842857Y-90414285D01*
X142795238Y-90223809D01*
X142795238Y-90080952D01*
X142842857Y-89890476D01*
X142890476Y-89795238D01*
X142985714Y-89700000D01*
X143128571Y-89652380D01*
X143223809Y-89652380D01*
X143366666Y-89700000D01*
X143414285Y-89747619D01*
X143700000Y-89985714D02*
X144080952Y-89985714D01*
X143842857Y-89652380D02*
X143842857Y-90509523D01*
X143890476Y-90604761D01*
X143985714Y-90652380D01*
X144080952Y-90652380D01*
X144414285Y-90652380D02*
X144414285Y-89985714D01*
X144414285Y-90176190D02*
X144461904Y-90080952D01*
X144509523Y-90033333D01*
X144604761Y-89985714D01*
X144700000Y-89985714D01*
X145176190Y-90652380D02*
X145080952Y-90604761D01*
X145033333Y-90509523D01*
X145033333Y-89652380D01*
D10*
G36*
X117200000Y-98300000D02*
G01*
X116800000Y-98300000D01*
X117000000Y-97900000D01*
X117200000Y-98300000D01*
G37*
X117200000Y-98300000D02*
X116800000Y-98300000D01*
X117000000Y-97900000D01*
X117200000Y-98300000D01*
G36*
X117000000Y-95700000D02*
G01*
X116800000Y-95300000D01*
X117200000Y-95300000D01*
X117000000Y-95700000D01*
G37*
X117000000Y-95700000D02*
X116800000Y-95300000D01*
X117200000Y-95300000D01*
X117000000Y-95700000D01*
X114147619Y-98409523D02*
X114147619Y-97933333D01*
X115147619Y-97933333D01*
X114147619Y-94914285D02*
X115147619Y-94914285D01*
X114671428Y-94914285D02*
X114671428Y-95485714D01*
X114147619Y-95485714D02*
X115147619Y-95485714D01*
X111957142Y-93557142D02*
X111909523Y-93604761D01*
X111766666Y-93652380D01*
X111671428Y-93652380D01*
X111528571Y-93604761D01*
X111433333Y-93509523D01*
X111385714Y-93414285D01*
X111338095Y-93223809D01*
X111338095Y-93080952D01*
X111385714Y-92890476D01*
X111433333Y-92795238D01*
X111528571Y-92700000D01*
X111671428Y-92652380D01*
X111766666Y-92652380D01*
X111909523Y-92700000D01*
X111957142Y-92747619D01*
X112338095Y-93366666D02*
X112814285Y-93366666D01*
X112242857Y-93652380D02*
X112576190Y-92652380D01*
X112909523Y-93652380D01*
X113242857Y-93652380D02*
X113242857Y-92652380D01*
X113814285Y-93652380D01*
X113814285Y-92652380D01*
D13*
X119442857Y-103461904D02*
X119442857Y-101938095D01*
X119442857Y-106561904D02*
X119442857Y-105038095D01*
X120204761Y-105800000D02*
X118680952Y-105800000D01*
D10*
X112442857Y-110252380D02*
X112442857Y-109252380D01*
X112776190Y-109966666D01*
X113109523Y-109252380D01*
X113109523Y-110252380D01*
X113538095Y-109966666D02*
X114014285Y-109966666D01*
X113442857Y-110252380D02*
X113776190Y-109252380D01*
X114109523Y-110252380D01*
X114347619Y-109252380D02*
X115014285Y-110252380D01*
X115014285Y-109252380D02*
X114347619Y-110252380D01*
X115395238Y-110157142D02*
X115442857Y-110204761D01*
X115395238Y-110252380D01*
X115347619Y-110204761D01*
X115395238Y-110157142D01*
X115395238Y-110252380D01*
X115395238Y-109633333D02*
X115442857Y-109680952D01*
X115395238Y-109728571D01*
X115347619Y-109680952D01*
X115395238Y-109633333D01*
X115395238Y-109728571D01*
X115823809Y-109347619D02*
X115871428Y-109300000D01*
X115966666Y-109252380D01*
X116204761Y-109252380D01*
X116300000Y-109300000D01*
X116347619Y-109347619D01*
X116395238Y-109442857D01*
X116395238Y-109538095D01*
X116347619Y-109680952D01*
X115776190Y-110252380D01*
X116395238Y-110252380D01*
X117252380Y-109585714D02*
X117252380Y-110252380D01*
X117014285Y-109204761D02*
X116776190Y-109919047D01*
X117395238Y-109919047D01*
X117633333Y-109252380D02*
X117966666Y-110252380D01*
X118300000Y-109252380D01*
D14*
X146761000Y-114300000D02*
G75*
G03*
X146761000Y-114300000I-1600000J0D01*
G01*
X145661000Y-119800000D02*
X150661000Y-114800000D01*
X113661000Y-119800000D02*
X145661000Y-119800000D01*
X150661000Y-114800000D02*
X150661000Y-82800000D01*
X145661000Y-77800000D02*
X150661000Y-82800000D01*
X115761000Y-83300000D02*
G75*
G03*
X115761000Y-83300000I-1600000J0D01*
G01*
X146761000Y-83300000D02*
G75*
G03*
X146761000Y-83300000I-1600000J0D01*
G01*
X115761000Y-114300000D02*
G75*
G03*
X115761000Y-114300000I-1600000J0D01*
G01*
X145661000Y-77800000D02*
X113661000Y-77800000D01*
X108661000Y-82800000D02*
X108661000Y-114800000D01*
X108661000Y-82800000D02*
X113661000Y-77800000D01*
X113661000Y-119800000D02*
X108661000Y-114800000D01*
D15*
%TO.C,J2*%
X127340000Y-78215000D02*
X123460000Y-78215000D01*
X128510000Y-80185000D02*
X128510000Y-82685000D01*
X122290000Y-80185000D02*
X122290000Y-82685000D01*
X128510000Y-82685000D02*
X127460000Y-82685000D01*
X122290000Y-82685000D02*
X123340000Y-82685000D01*
X127460000Y-82685000D02*
X127460000Y-83675000D01*
%TO.C,J1*%
X118250000Y-108970000D02*
X108750000Y-108970000D01*
X118250000Y-99570000D02*
X118250000Y-108970000D01*
X108750000Y-99570000D02*
X118250000Y-99570000D01*
X108750000Y-108970000D02*
X108750000Y-99570000D01*
%TO.C,U6*%
X138678000Y-108830500D02*
X135122000Y-108830500D01*
X135135000Y-103750500D02*
X138678000Y-103750500D01*
D16*
X134286000Y-103577500D02*
G75*
G03*
X134286000Y-103577500I-180000J0D01*
G01*
D15*
%TO.C,U5*%
X138678000Y-103330500D02*
X135122000Y-103330500D01*
X135135000Y-98250500D02*
X138678000Y-98250500D01*
D16*
X134286000Y-98077500D02*
G75*
G03*
X134286000Y-98077500I-180000J0D01*
G01*
D15*
%TO.C,SW2*%
X136819000Y-119524000D02*
X136819000Y-119143000D01*
X136819000Y-116476000D02*
X136819000Y-116857000D01*
X132501000Y-116857000D02*
X132501000Y-116476000D01*
X132501000Y-119143000D02*
X132501000Y-119524000D01*
X132501000Y-119524000D02*
X136819000Y-119524000D01*
X132501000Y-116476000D02*
X136819000Y-116476000D01*
%TO.C,SW1*%
X122501000Y-116476000D02*
X122501000Y-116857000D01*
X122501000Y-119524000D02*
X122501000Y-119143000D01*
X126819000Y-119143000D02*
X126819000Y-119524000D01*
X126819000Y-116857000D02*
X126819000Y-116476000D01*
X126819000Y-116476000D02*
X122501000Y-116476000D01*
X126819000Y-119524000D02*
X122501000Y-119524000D01*
%TO.C,R10*%
X117380000Y-96646359D02*
X117380000Y-96953641D01*
X116620000Y-96646359D02*
X116620000Y-96953641D01*
%TO.C,J5*%
X150650000Y-108800000D02*
X141150000Y-108800000D01*
X141150000Y-95400000D02*
X150650000Y-95400000D01*
X141150000Y-108800000D02*
X141150000Y-95400000D01*
X150650000Y-95400000D02*
X150650000Y-108800000D01*
%TO.C,J4*%
X113870000Y-94160000D02*
X108790000Y-94160000D01*
X113870000Y-99240000D02*
X113870000Y-97589000D01*
X108790000Y-94160000D02*
X108790000Y-99240000D01*
X108790000Y-99240000D02*
X113870000Y-99240000D01*
X113870000Y-95811000D02*
X113870000Y-94160000D01*
%TO.C,J3*%
X131390000Y-80185000D02*
X131390000Y-82685000D01*
X135560000Y-82685000D02*
X135560000Y-83675000D01*
X136610000Y-80185000D02*
X136610000Y-82685000D01*
X136610000Y-82685000D02*
X135560000Y-82685000D01*
X131390000Y-82685000D02*
X132440000Y-82685000D01*
X135440000Y-78215000D02*
X132560000Y-78215000D01*
%TO.C,D3*%
X119000000Y-92235000D02*
X121460000Y-92235000D01*
X121460000Y-90765000D02*
X119000000Y-90765000D01*
X121460000Y-92235000D02*
X121460000Y-90765000D01*
%TO.C,D2*%
X119000000Y-90635000D02*
X121460000Y-90635000D01*
X121460000Y-89165000D02*
X119000000Y-89165000D01*
X121460000Y-90635000D02*
X121460000Y-89165000D01*
%TD*%
M02*
