%TF.GenerationSoftware,KiCad,Pcbnew,(6.0.5)*%
%TF.CreationDate,2023-02-02T15:23:46+08:00*%
%TF.ProjectId,Step_Ctrl_V2,53746570-5f43-4747-926c-5f56322e6b69,rev?*%
%TF.SameCoordinates,Original*%
%TF.FileFunction,Soldermask,Top*%
%TF.FilePolarity,Negative*%
%FSLAX46Y46*%
G04 Gerber Fmt 4.6, Leading zero omitted, Abs format (unit mm)*
G04 Created by KiCad (PCBNEW (6.0.5)) date 2023-02-02 15:23:46*
%MOMM*%
%LPD*%
G01*
G04 APERTURE LIST*
G04 Aperture macros list*
%AMRoundRect*
0 Rectangle with rounded corners*
0 $1 Rounding radius*
0 $2 $3 $4 $5 $6 $7 $8 $9 X,Y pos of 4 corners*
0 Add a 4 corners polygon primitive as box body*
4,1,4,$2,$3,$4,$5,$6,$7,$8,$9,$2,$3,0*
0 Add four circle primitives for the rounded corners*
1,1,$1+$1,$2,$3*
1,1,$1+$1,$4,$5*
1,1,$1+$1,$6,$7*
1,1,$1+$1,$8,$9*
0 Add four rect primitives between the rounded corners*
20,1,$1+$1,$2,$3,$4,$5,0*
20,1,$1+$1,$4,$5,$6,$7,0*
20,1,$1+$1,$6,$7,$8,$9,0*
20,1,$1+$1,$8,$9,$2,$3,0*%
G04 Aperture macros list end*
%TA.AperFunction,Profile*%
%ADD10C,0.250000*%
%TD*%
%ADD11RoundRect,0.150000X0.150000X0.625000X-0.150000X0.625000X-0.150000X-0.625000X0.150000X-0.625000X0*%
%ADD12RoundRect,0.250000X0.350000X0.650000X-0.350000X0.650000X-0.350000X-0.650000X0.350000X-0.650000X0*%
%ADD13RoundRect,0.250000X1.650000X-0.250000X1.650000X0.250000X-1.650000X0.250000X-1.650000X-0.250000X0*%
%ADD14RoundRect,0.375000X1.325000X-0.375000X1.325000X0.375000X-1.325000X0.375000X-1.325000X-0.375000X0*%
%ADD15RoundRect,0.175000X-0.825000X-0.175000X0.825000X-0.175000X0.825000X0.175000X-0.825000X0.175000X0*%
%ADD16RoundRect,0.552500X-0.552500X-0.997500X0.552500X-0.997500X0.552500X0.997500X-0.552500X0.997500X0*%
%ADD17RoundRect,0.450000X-0.450000X-0.550000X0.450000X-0.550000X0.450000X0.550000X-0.450000X0.550000X0*%
%ADD18RoundRect,0.450000X0.450000X0.550000X-0.450000X0.550000X-0.450000X-0.550000X0.450000X-0.550000X0*%
%ADD19RoundRect,0.135000X-0.185000X0.135000X-0.185000X-0.135000X0.185000X-0.135000X0.185000X0.135000X0*%
%ADD20RoundRect,0.250000X-1.650000X0.250000X-1.650000X-0.250000X1.650000X-0.250000X1.650000X0.250000X0*%
%ADD21RoundRect,0.375000X-1.325000X0.375000X-1.325000X-0.375000X1.325000X-0.375000X1.325000X0.375000X0*%
%ADD22RoundRect,0.150000X-0.650000X0.150000X-0.650000X-0.150000X0.650000X-0.150000X0.650000X0.150000X0*%
%ADD23RoundRect,0.300000X-0.700000X0.300000X-0.700000X-0.300000X0.700000X-0.300000X0.700000X0.300000X0*%
%ADD24RoundRect,0.237500X0.287500X0.237500X-0.287500X0.237500X-0.287500X-0.237500X0.287500X-0.237500X0*%
G04 APERTURE END LIST*
D10*
X146761000Y-114300000D02*
G75*
G03*
X146761000Y-114300000I-1600000J0D01*
G01*
X145661000Y-119800000D02*
X150661000Y-114800000D01*
X113661000Y-119800000D02*
X145661000Y-119800000D01*
X150661000Y-114800000D02*
X150661000Y-82800000D01*
X145661000Y-77800000D02*
X150661000Y-82800000D01*
X115761000Y-83300000D02*
G75*
G03*
X115761000Y-83300000I-1600000J0D01*
G01*
X146761000Y-83300000D02*
G75*
G03*
X146761000Y-83300000I-1600000J0D01*
G01*
X115761000Y-114300000D02*
G75*
G03*
X115761000Y-114300000I-1600000J0D01*
G01*
X145661000Y-77800000D02*
X113661000Y-77800000D01*
X108661000Y-82800000D02*
X108661000Y-114800000D01*
X108661000Y-82800000D02*
X113661000Y-77800000D01*
X113661000Y-119800000D02*
X108661000Y-114800000D01*
D11*
%TO.C,J2*%
X126900000Y-82900000D03*
X125900000Y-82900000D03*
X124900000Y-82900000D03*
X123900000Y-82900000D03*
D12*
X122600000Y-79025000D03*
X128200000Y-79025000D03*
%TD*%
D13*
%TO.C,J1*%
X116250000Y-103270000D03*
X116250000Y-105270000D03*
D14*
X110550000Y-100420000D03*
X110550000Y-108120000D03*
%TD*%
D15*
%TO.C,U6*%
X134100000Y-104385500D03*
X134100000Y-105655500D03*
X134100000Y-106925500D03*
X134100000Y-108195500D03*
X139700000Y-108195500D03*
X139700000Y-106925500D03*
X139700000Y-105655500D03*
X139700000Y-104385500D03*
D16*
X136900000Y-106290500D03*
%TD*%
D15*
%TO.C,U5*%
X134100000Y-98885500D03*
X134100000Y-100155500D03*
X134100000Y-101425500D03*
X134100000Y-102695500D03*
X139700000Y-102695500D03*
X139700000Y-101425500D03*
X139700000Y-100155500D03*
X139700000Y-98885500D03*
D16*
X136900000Y-100790500D03*
%TD*%
D17*
%TO.C,SW2*%
X132360000Y-118000000D03*
X136960000Y-118000000D03*
%TD*%
D18*
%TO.C,SW1*%
X126960000Y-118000000D03*
X122360000Y-118000000D03*
%TD*%
D19*
%TO.C,R10*%
X117000000Y-96290000D03*
X117000000Y-97310000D03*
%TD*%
D20*
%TO.C,J5*%
X143150000Y-105100000D03*
X143150000Y-103100000D03*
X143150000Y-101100000D03*
X143150000Y-99100000D03*
D21*
X148850000Y-107950000D03*
X148850000Y-96250000D03*
%TD*%
D22*
%TO.C,J4*%
X113870000Y-96200000D03*
X113870000Y-97200000D03*
D23*
X109970000Y-95000000D03*
X109970000Y-98400000D03*
%TD*%
D12*
%TO.C,J3*%
X136300000Y-79025000D03*
X131700000Y-79025000D03*
D11*
X133000000Y-82900000D03*
X134000000Y-82900000D03*
X135000000Y-82900000D03*
%TD*%
D24*
%TO.C,D3*%
X120675000Y-91500000D03*
X118925000Y-91500000D03*
%TD*%
%TO.C,D2*%
X120675000Y-89900000D03*
X118925000Y-89900000D03*
%TD*%
M02*
