%TF.GenerationSoftware,KiCad,Pcbnew,(6.0.5)*%
%TF.CreationDate,2023-02-02T15:23:46+08:00*%
%TF.ProjectId,Step_Ctrl_V2,53746570-5f43-4747-926c-5f56322e6b69,rev?*%
%TF.SameCoordinates,Original*%
%TF.FileFunction,Legend,Bot*%
%TF.FilePolarity,Positive*%
%FSLAX46Y46*%
G04 Gerber Fmt 4.6, Leading zero omitted, Abs format (unit mm)*
G04 Created by KiCad (PCBNEW (6.0.5)) date 2023-02-02 15:23:46*
%MOMM*%
%LPD*%
G01*
G04 APERTURE LIST*
%ADD10C,0.150000*%
%TA.AperFunction,Profile*%
%ADD11C,0.250000*%
%TD*%
%ADD12C,0.120000*%
G04 APERTURE END LIST*
D10*
G36*
X133510000Y-112130000D02*
G01*
X132910000Y-111930000D01*
X133510000Y-111730000D01*
X133510000Y-112130000D01*
G37*
X133510000Y-112130000D02*
X132910000Y-111930000D01*
X133510000Y-111730000D01*
X133510000Y-112130000D01*
G36*
X122300000Y-95100000D02*
G01*
X121700000Y-94800000D01*
X122300000Y-94500000D01*
X122300000Y-95100000D01*
G37*
X122300000Y-95100000D02*
X121700000Y-94800000D01*
X122300000Y-94500000D01*
X122300000Y-95100000D01*
G36*
X126300000Y-85400000D02*
G01*
X125500000Y-85800000D01*
X125500000Y-85000000D01*
X126300000Y-85400000D01*
G37*
X126300000Y-85400000D02*
X125500000Y-85800000D01*
X125500000Y-85000000D01*
X126300000Y-85400000D01*
D11*
X146761000Y-114300000D02*
G75*
G03*
X146761000Y-114300000I-1600000J0D01*
G01*
X145661000Y-119800000D02*
X150661000Y-114800000D01*
X113661000Y-119800000D02*
X145661000Y-119800000D01*
X150661000Y-114800000D02*
X150661000Y-82800000D01*
X145661000Y-77800000D02*
X150661000Y-82800000D01*
X115761000Y-83300000D02*
G75*
G03*
X115761000Y-83300000I-1600000J0D01*
G01*
X146761000Y-83300000D02*
G75*
G03*
X146761000Y-83300000I-1600000J0D01*
G01*
X115761000Y-114300000D02*
G75*
G03*
X115761000Y-114300000I-1600000J0D01*
G01*
X145661000Y-77800000D02*
X113661000Y-77800000D01*
X108661000Y-82800000D02*
X108661000Y-114800000D01*
X108661000Y-82800000D02*
X113661000Y-77800000D01*
X113661000Y-119800000D02*
X108661000Y-114800000D01*
D12*
%TO.C,U1*%
X129540000Y-110000000D02*
X129540000Y-110800000D01*
X132660000Y-110000000D02*
X132660000Y-109200000D01*
X129540000Y-110000000D02*
X129540000Y-109200000D01*
X132660000Y-110000000D02*
X132660000Y-111800000D01*
%TO.C,D4*%
X115500000Y-103750000D02*
X120900000Y-103750000D01*
X115500000Y-100450000D02*
X120900000Y-100450000D01*
X115500000Y-103750000D02*
X115500000Y-100450000D01*
%TO.C,Y1*%
X124050000Y-80750000D02*
X128050000Y-80750000D01*
X124050000Y-84050000D02*
X124050000Y-80750000D01*
%TO.C,U4*%
X117700000Y-94140000D02*
X115750000Y-94140000D01*
X117700000Y-99260000D02*
X115750000Y-99260000D01*
X117700000Y-94140000D02*
X121150000Y-94140000D01*
X117700000Y-99260000D02*
X119650000Y-99260000D01*
%TO.C,U3*%
X132200000Y-101340000D02*
X127120000Y-101340000D01*
X129152000Y-96260000D02*
X126993000Y-96260000D01*
X132200000Y-96260000D02*
X130168000Y-96260000D01*
X129152000Y-96260000D02*
G75*
G03*
X130168000Y-96260000I508000J0D01*
G01*
%TO.C,U2*%
X126090000Y-93360000D02*
X126090000Y-93810000D01*
X133310000Y-86590000D02*
X132860000Y-86590000D01*
X126090000Y-86590000D02*
X126540000Y-86590000D01*
X133310000Y-93360000D02*
X133310000Y-93810000D01*
X133310000Y-93810000D02*
X132860000Y-93810000D01*
X126090000Y-87040000D02*
X126090000Y-86590000D01*
X133310000Y-87040000D02*
X133310000Y-86590000D01*
X126540000Y-86590000D02*
X126540000Y-85300000D01*
X126090000Y-93810000D02*
X126540000Y-93810000D01*
%TO.C,R14*%
X139327064Y-106510000D02*
X137872936Y-106510000D01*
X139327064Y-104690000D02*
X137872936Y-104690000D01*
%TO.C,R13*%
X139327064Y-101010000D02*
X137872936Y-101010000D01*
X139327064Y-99190000D02*
X137872936Y-99190000D01*
%TO.C,R12*%
X134854724Y-108022500D02*
X134345276Y-108022500D01*
X134854724Y-106977500D02*
X134345276Y-106977500D01*
%TO.C,R11*%
X134854724Y-102177500D02*
X134345276Y-102177500D01*
X134854724Y-103222500D02*
X134345276Y-103222500D01*
%TO.C,R9*%
X127854724Y-106277500D02*
X127345276Y-106277500D01*
X127854724Y-107322500D02*
X127345276Y-107322500D01*
%TO.C,R8*%
X127854724Y-104577500D02*
X127345276Y-104577500D01*
X127854724Y-105622500D02*
X127345276Y-105622500D01*
%TO.C,R7*%
X115345276Y-93622500D02*
X115854724Y-93622500D01*
X115345276Y-92577500D02*
X115854724Y-92577500D01*
%TO.C,R6*%
X131177500Y-113645276D02*
X131177500Y-114154724D01*
X132222500Y-113645276D02*
X132222500Y-114154724D01*
%TO.C,R5*%
X130622500Y-114154724D02*
X130622500Y-113645276D01*
X129577500Y-114154724D02*
X129577500Y-113645276D01*
%TO.C,R3*%
X131222500Y-82145276D02*
X131222500Y-82654724D01*
X130177500Y-82145276D02*
X130177500Y-82654724D01*
%TO.C,R2*%
X119545276Y-92022500D02*
X120054724Y-92022500D01*
X119545276Y-90977500D02*
X120054724Y-90977500D01*
%TO.C,R1*%
X119545276Y-90422500D02*
X120054724Y-90422500D01*
X119545276Y-89377500D02*
X120054724Y-89377500D01*
%TO.C,L1*%
X138300000Y-112300000D02*
X138300000Y-113100000D01*
X134700000Y-112300000D02*
X134700000Y-113100000D01*
%TO.C,D5*%
X134700000Y-110150000D02*
X134700000Y-108450000D01*
X134700000Y-108450000D02*
X137250000Y-108450000D01*
X134700000Y-110150000D02*
X137250000Y-110150000D01*
%TO.C,D1*%
X122300000Y-104050000D02*
X116900000Y-104050000D01*
X122300000Y-107350000D02*
X116900000Y-107350000D01*
X122300000Y-104050000D02*
X122300000Y-107350000D01*
%TO.C,C25*%
X138890000Y-109653733D02*
X138890000Y-109946267D01*
X139910000Y-109653733D02*
X139910000Y-109946267D01*
%TO.C,C24*%
X139146267Y-102190000D02*
X138853733Y-102190000D01*
X139146267Y-103210000D02*
X138853733Y-103210000D01*
%TO.C,C23*%
X131246267Y-102190000D02*
X130953733Y-102190000D01*
X131246267Y-103210000D02*
X130953733Y-103210000D01*
%TO.C,C22*%
X134746267Y-105390000D02*
X134453733Y-105390000D01*
X134746267Y-106410000D02*
X134453733Y-106410000D01*
%TO.C,C21*%
X134746267Y-103790000D02*
X134453733Y-103790000D01*
X134746267Y-104810000D02*
X134453733Y-104810000D01*
%TO.C,C20*%
X130953733Y-107310000D02*
X131246267Y-107310000D01*
X130953733Y-106290000D02*
X131246267Y-106290000D01*
%TO.C,C19*%
X130953733Y-105610000D02*
X131246267Y-105610000D01*
X130953733Y-104590000D02*
X131246267Y-104590000D01*
%TO.C,C17*%
X123410000Y-82546267D02*
X123410000Y-82253733D01*
X122390000Y-82546267D02*
X122390000Y-82253733D01*
%TO.C,C14*%
X135790000Y-91946267D02*
X135790000Y-91653733D01*
X136810000Y-91946267D02*
X136810000Y-91653733D01*
%TO.C,C13*%
X119653733Y-92590000D02*
X119946267Y-92590000D01*
X119653733Y-93610000D02*
X119946267Y-93610000D01*
%TO.C,C12*%
X131790000Y-82546267D02*
X131790000Y-82253733D01*
X132810000Y-82546267D02*
X132810000Y-82253733D01*
%TO.C,C11*%
X139910000Y-113346267D02*
X139910000Y-113053733D01*
X138890000Y-113346267D02*
X138890000Y-113053733D01*
%TO.C,C10*%
X127746267Y-108910000D02*
X127453733Y-108910000D01*
X127746267Y-107890000D02*
X127453733Y-107890000D01*
%TO.C,C9*%
X126140000Y-112588748D02*
X126140000Y-114011252D01*
X128860000Y-112588748D02*
X128860000Y-114011252D01*
%TO.C,C8*%
X125560000Y-109211252D02*
X125560000Y-107788748D01*
X122840000Y-109211252D02*
X122840000Y-107788748D01*
%TO.C,C7*%
X122160000Y-112588748D02*
X122160000Y-114011252D01*
X119440000Y-112588748D02*
X119440000Y-114011252D01*
%TO.C,C6*%
X133190000Y-109853733D02*
X133190000Y-110146267D01*
X134210000Y-109853733D02*
X134210000Y-110146267D01*
%TO.C,C5*%
X132790000Y-113753733D02*
X132790000Y-114046267D01*
X133810000Y-113753733D02*
X133810000Y-114046267D01*
%TO.C,C4*%
X122840000Y-112588748D02*
X122840000Y-114011252D01*
X125560000Y-112588748D02*
X125560000Y-114011252D01*
%TO.C,C3*%
X128590000Y-82546267D02*
X128590000Y-82253733D01*
X129610000Y-82546267D02*
X129610000Y-82253733D01*
%TO.C,C2*%
X120811252Y-107840000D02*
X119388748Y-107840000D01*
X120811252Y-110560000D02*
X119388748Y-110560000D01*
%TD*%
M02*
