%TF.GenerationSoftware,KiCad,Pcbnew,(6.0.5)*%
%TF.CreationDate,2023-01-06T15:20:20+08:00*%
%TF.ProjectId,Step_Ctrl_V1,53746570-5f43-4747-926c-5f56312e6b69,rev?*%
%TF.SameCoordinates,Original*%
%TF.FileFunction,Copper,L3,Inr*%
%TF.FilePolarity,Positive*%
%FSLAX46Y46*%
G04 Gerber Fmt 4.6, Leading zero omitted, Abs format (unit mm)*
G04 Created by KiCad (PCBNEW (6.0.5)) date 2023-01-06 15:20:20*
%MOMM*%
%LPD*%
G01*
G04 APERTURE LIST*
%TA.AperFunction,ViaPad*%
%ADD10C,0.500000*%
%TD*%
%TA.AperFunction,ViaPad*%
%ADD11C,0.600000*%
%TD*%
%TA.AperFunction,ViaPad*%
%ADD12C,1.000000*%
%TD*%
%TA.AperFunction,Conductor*%
%ADD13C,0.600000*%
%TD*%
%TA.AperFunction,Conductor*%
%ADD14C,0.300000*%
%TD*%
G04 APERTURE END LIST*
D10*
%TO.N,GND*%
X118872000Y-100330000D03*
X117221000Y-100076000D03*
X117094000Y-101600000D03*
X136906000Y-84074000D03*
X137033000Y-83439000D03*
X133604000Y-84963000D03*
X133223000Y-86741000D03*
X115189000Y-103886000D03*
X114046000Y-109093000D03*
X113030000Y-108585000D03*
X112014000Y-108077000D03*
X111125000Y-107315000D03*
X110490000Y-106426000D03*
X109855000Y-105283000D03*
X114300000Y-108077000D03*
X113284000Y-107569000D03*
X112395000Y-107061000D03*
X111633000Y-106426000D03*
X111125000Y-105664000D03*
X110744000Y-104775000D03*
X114808000Y-107569000D03*
X113157000Y-106807000D03*
X112776000Y-106045000D03*
X112014000Y-105283000D03*
X111633000Y-104521000D03*
X118745000Y-105410000D03*
X117983000Y-105410000D03*
X122682000Y-106045000D03*
X123063000Y-104648000D03*
X120904000Y-109474000D03*
X121666000Y-109474000D03*
X121666000Y-108712000D03*
X120904000Y-108712000D03*
X120142000Y-108712000D03*
X119380000Y-108712000D03*
X118618000Y-108712000D03*
X122428000Y-107950000D03*
X121666000Y-107950000D03*
X120904000Y-107950000D03*
X120142000Y-107950000D03*
X119380000Y-107950000D03*
X118618000Y-107950000D03*
X123190000Y-107188000D03*
X122428000Y-107188000D03*
X121666000Y-107188000D03*
X120904000Y-107188000D03*
X120142000Y-107188000D03*
X119380000Y-107188000D03*
X118618000Y-107188000D03*
X133858000Y-118364000D03*
X133858000Y-117475000D03*
X132842000Y-118364000D03*
X132842000Y-117475000D03*
X130048000Y-118364000D03*
X130048000Y-117475000D03*
X125730000Y-118364000D03*
X125730000Y-117602000D03*
X124841000Y-118364000D03*
X124841000Y-117602000D03*
X122047000Y-118364000D03*
X122047000Y-117602000D03*
X122555000Y-113157000D03*
X121793000Y-113157000D03*
X121031000Y-113157000D03*
X125603000Y-113157000D03*
X131572000Y-113665000D03*
X132080000Y-113157000D03*
X130175000Y-111379000D03*
X131572000Y-111379000D03*
X130175000Y-106172000D03*
X130302000Y-104648000D03*
X131445000Y-104648000D03*
X137414000Y-112395000D03*
X138684000Y-113792000D03*
X137541000Y-113792000D03*
X137160000Y-109855000D03*
X136525000Y-109474000D03*
X135763000Y-109474000D03*
X136525000Y-108712000D03*
X135763000Y-108712000D03*
X137287000Y-107950000D03*
X136525000Y-107950000D03*
X135763000Y-107950000D03*
X137287000Y-107188000D03*
X136525000Y-107188000D03*
X135763000Y-107188000D03*
X137287000Y-106426000D03*
X136525000Y-106426000D03*
X135763000Y-106426000D03*
X137287000Y-105664000D03*
X136525000Y-105664000D03*
X135763000Y-105664000D03*
X137160000Y-104775000D03*
X137160000Y-104013000D03*
X136398000Y-104775000D03*
X136398000Y-104013000D03*
X136398000Y-103251000D03*
X137160000Y-102489000D03*
X136398000Y-102489000D03*
X137160000Y-101727000D03*
X136398000Y-101727000D03*
X135636000Y-101727000D03*
X137160000Y-100965000D03*
X136398000Y-100965000D03*
X135636000Y-100965000D03*
X137160000Y-100203000D03*
X136398000Y-100203000D03*
X135636000Y-100203000D03*
X121031000Y-86995000D03*
X119888000Y-86995000D03*
X120396000Y-86360000D03*
X120904000Y-85725000D03*
X119761000Y-85725000D03*
X117856000Y-85725000D03*
X120269000Y-85090000D03*
X119126000Y-85090000D03*
X118110000Y-85090000D03*
X121031000Y-84328000D03*
X120269000Y-84328000D03*
X119507000Y-84328000D03*
X118745000Y-84328000D03*
X125984000Y-86868000D03*
X125984000Y-86106000D03*
X126365000Y-85471000D03*
X125603000Y-85471000D03*
X124841000Y-85471000D03*
X127889000Y-84709000D03*
X127127000Y-84709000D03*
X126365000Y-84709000D03*
X125603000Y-84709000D03*
X124841000Y-84709000D03*
X147066000Y-85725000D03*
X147828000Y-85725000D03*
X148336000Y-86233000D03*
X148336000Y-86995000D03*
X148336000Y-87757000D03*
X142240000Y-85979000D03*
X141351000Y-85979000D03*
X140589000Y-85979000D03*
X139700000Y-85979000D03*
X138938000Y-85979000D03*
X138176000Y-85979000D03*
X137414000Y-85979000D03*
X136525000Y-86995000D03*
%TO.N,/TEMP*%
X123571000Y-110109000D03*
D11*
%TO.N,/CAN_H*%
X142265400Y-93345000D03*
%TO.N,/CAN_L*%
X141122400Y-93345000D03*
D10*
%TO.N,Net-(D3-Pad2)*%
X140792200Y-82423000D03*
%TO.N,Net-(D2-Pad2)*%
X135102600Y-82423000D03*
D12*
%TO.N,+3V3*%
X125120400Y-83134200D03*
D10*
%TO.N,/CAN_TX*%
X121386600Y-106197400D03*
X115392200Y-87528400D03*
D12*
%TO.N,+3V3*%
X126285700Y-103279500D03*
D11*
X138176000Y-110617000D03*
X131699000Y-112268000D03*
D12*
X127254000Y-113157000D03*
X118618000Y-116459000D03*
X114173000Y-101092000D03*
D10*
%TO.N,/UART1_RX*%
X124675298Y-102032602D03*
%TO.N,/UART1_TX*%
X125095000Y-101473000D03*
%TO.N,/TEMP*%
X136271000Y-110617000D03*
%TO.N,Net-(D2-Pad1)*%
X123444000Y-105537000D03*
%TO.N,Net-(D3-Pad1)*%
X123571000Y-106426000D03*
%TO.N,/KEY_DOWN*%
X119888000Y-109982000D03*
%TO.N,/KEY_UP*%
X117856000Y-109601000D03*
%TO.N,/IN_PWM_B*%
X119430800Y-112776000D03*
X132080000Y-114554000D03*
%TO.N,Net-(C26-Pad1)*%
X131876800Y-109956600D03*
%TO.N,/IN_PWM_A*%
X118872000Y-110363000D03*
X131876800Y-108458000D03*
%TO.N,Net-(C25-Pad1)*%
X131876800Y-103657400D03*
%TO.N,/IN_BP*%
X124104400Y-111607600D03*
%TO.N,/IN_BM*%
X124841000Y-110617000D03*
%TO.N,/IN_AP*%
X122301000Y-109982000D03*
%TO.N,/IN_AM*%
X122885200Y-108585000D03*
D12*
%TO.N,VCC*%
X139420600Y-108839000D03*
%TO.N,Net-(R15-Pad1)*%
X139369800Y-106273600D03*
%TO.N,Net-(R14-Pad1)*%
X139395200Y-100711000D03*
%TO.N,VCC*%
X139446000Y-103251000D03*
D10*
%TO.N,/SWDIO*%
X115062000Y-105664000D03*
%TO.N,/SWCLK*%
X117850500Y-101981000D03*
%TO.N,/CAN_RX*%
X121081800Y-105308400D03*
X115062000Y-100076000D03*
%TO.N,/MT6812_CS*%
X128270000Y-100203000D03*
X119880444Y-100195444D03*
D11*
%TO.N,Net-(R11-Pad1)*%
X116078000Y-86741000D03*
D10*
%TO.N,GND*%
X148336000Y-88595200D03*
X149098000Y-90119200D03*
X147574000Y-90119200D03*
X149860000Y-90119200D03*
X148336000Y-90119200D03*
X149098000Y-88595200D03*
X149098000Y-89357200D03*
X149860000Y-88595200D03*
X147574000Y-88595200D03*
X147574000Y-89357200D03*
X148336000Y-89357200D03*
X149860000Y-89357200D03*
%TO.N,Net-(D1-Pad2)*%
X149098000Y-97485200D03*
X149098000Y-98247200D03*
X147574000Y-98247200D03*
X147574000Y-99009200D03*
X147574000Y-97485200D03*
X149860000Y-98247200D03*
X149860000Y-99009200D03*
X149860000Y-97485200D03*
X148336000Y-99009200D03*
X148336000Y-97485200D03*
X149098000Y-99009200D03*
X148336000Y-98247200D03*
X110998000Y-97485200D03*
X111760000Y-98247200D03*
X111760000Y-99009200D03*
X110998000Y-99009200D03*
X109474000Y-99009200D03*
X110998000Y-98247200D03*
X110236000Y-99009200D03*
X109474000Y-98247200D03*
X110236000Y-98247200D03*
X109474000Y-97485200D03*
X110236000Y-97485200D03*
X111760000Y-97485200D03*
%TO.N,GND*%
X110236000Y-89357200D03*
X111760000Y-89357200D03*
X109474000Y-89357200D03*
X110998000Y-89357200D03*
X110998000Y-88595200D03*
X109474000Y-88595200D03*
X111760000Y-88595200D03*
X110236000Y-88595200D03*
X110236000Y-90119200D03*
X111760000Y-90119200D03*
X109474000Y-90119200D03*
X110998000Y-90119200D03*
%TO.N,Net-(D1-Pad2)*%
X149098000Y-94437200D03*
X149098000Y-95199200D03*
X149860000Y-95961200D03*
X149860000Y-96723200D03*
X149098000Y-96723200D03*
X147574000Y-96723200D03*
X149098000Y-95961200D03*
X148336000Y-96723200D03*
X147574000Y-95961200D03*
X148336000Y-95961200D03*
X147574000Y-95199200D03*
X148336000Y-95199200D03*
X149860000Y-95199200D03*
X147574000Y-94437200D03*
X148336000Y-94437200D03*
X149860000Y-94437200D03*
%TO.N,GND*%
X148336000Y-90881200D03*
X149098000Y-92405200D03*
X147574000Y-92405200D03*
X148336000Y-92405200D03*
X149860000Y-92405200D03*
X149860000Y-90881200D03*
X147574000Y-90881200D03*
X149098000Y-90881200D03*
X148336000Y-91643200D03*
X147574000Y-91643200D03*
X149860000Y-91643200D03*
X149098000Y-91643200D03*
%TO.N,Net-(D1-Pad2)*%
X111760000Y-96723200D03*
X110998000Y-96723200D03*
X109474000Y-96723200D03*
X110236000Y-96723200D03*
X110998000Y-95961200D03*
X109474000Y-95961200D03*
X110236000Y-95961200D03*
X111760000Y-95961200D03*
X110998000Y-95199200D03*
X109474000Y-95199200D03*
X110236000Y-95199200D03*
X111760000Y-95199200D03*
X111760000Y-94437200D03*
X110998000Y-94437200D03*
X110236000Y-94437200D03*
X109474000Y-94437200D03*
%TO.N,GND*%
X110236000Y-92405200D03*
X109474000Y-92405200D03*
X111760000Y-92405200D03*
X110998000Y-92405200D03*
X110236000Y-91643200D03*
X111760000Y-91643200D03*
X109474000Y-91643200D03*
X110998000Y-91643200D03*
X111760000Y-90881200D03*
X110998000Y-90881200D03*
X110236000Y-90881200D03*
X109474000Y-90881200D03*
D11*
%TO.N,/CAN_H*%
X118872000Y-87757000D03*
%TO.N,/CAN_L*%
X117590725Y-87757000D03*
%TD*%
D13*
%TO.N,/CAN_H*%
X121666000Y-92456000D02*
X118872000Y-89662000D01*
X118872000Y-89662000D02*
X118872000Y-87757000D01*
X141376400Y-92456000D02*
X121666000Y-92456000D01*
X142265400Y-93345000D02*
X141376400Y-92456000D01*
%TO.N,/CAN_L*%
X120650000Y-93345000D02*
X117590725Y-90285725D01*
X117590725Y-90285725D02*
X117590725Y-87757000D01*
X141122400Y-93345000D02*
X120650000Y-93345000D01*
D14*
%TO.N,/TEMP*%
X123662511Y-110017489D02*
X123571000Y-110109000D01*
X128559489Y-110017489D02*
X123662511Y-110017489D01*
X129159000Y-110617000D02*
X128559489Y-110017489D01*
X136271000Y-110617000D02*
X129159000Y-110617000D01*
%TD*%
%TA.AperFunction,Conductor*%
%TO.N,GND*%
G36*
X145595133Y-78019407D02*
G01*
X145606946Y-78029496D01*
X150431504Y-82854054D01*
X150459281Y-82908571D01*
X150460500Y-82924058D01*
X150460500Y-94212485D01*
X150441593Y-94270676D01*
X150392093Y-94306640D01*
X150330907Y-94306640D01*
X150281407Y-94270676D01*
X150271378Y-94253461D01*
X150246349Y-94198412D01*
X150246348Y-94198411D01*
X150243428Y-94191988D01*
X150159193Y-94094228D01*
X150153276Y-94090393D01*
X150153274Y-94090391D01*
X150056824Y-94027877D01*
X150050906Y-94024041D01*
X150044150Y-94022021D01*
X150044149Y-94022020D01*
X150001335Y-94009216D01*
X149927273Y-93987066D01*
X149850644Y-93986598D01*
X149805282Y-93986321D01*
X149798231Y-93986278D01*
X149791454Y-93988215D01*
X149791453Y-93988215D01*
X149680935Y-94019801D01*
X149680933Y-94019802D01*
X149674155Y-94021739D01*
X149565019Y-94090599D01*
X149554419Y-94102601D01*
X149553612Y-94103515D01*
X149500920Y-94134615D01*
X149440011Y-94128803D01*
X149404409Y-94102602D01*
X149397193Y-94094228D01*
X149391276Y-94090393D01*
X149391274Y-94090391D01*
X149294824Y-94027877D01*
X149288906Y-94024041D01*
X149282150Y-94022021D01*
X149282149Y-94022020D01*
X149239335Y-94009216D01*
X149165273Y-93987066D01*
X149088644Y-93986598D01*
X149043282Y-93986321D01*
X149036231Y-93986278D01*
X149029454Y-93988215D01*
X149029453Y-93988215D01*
X148918935Y-94019801D01*
X148918933Y-94019802D01*
X148912155Y-94021739D01*
X148803019Y-94090599D01*
X148792419Y-94102601D01*
X148791612Y-94103515D01*
X148738920Y-94134615D01*
X148678011Y-94128803D01*
X148642409Y-94102602D01*
X148635193Y-94094228D01*
X148629276Y-94090393D01*
X148629274Y-94090391D01*
X148532824Y-94027877D01*
X148526906Y-94024041D01*
X148520150Y-94022021D01*
X148520149Y-94022020D01*
X148477335Y-94009216D01*
X148403273Y-93987066D01*
X148326644Y-93986598D01*
X148281282Y-93986321D01*
X148274231Y-93986278D01*
X148267454Y-93988215D01*
X148267453Y-93988215D01*
X148156935Y-94019801D01*
X148156933Y-94019802D01*
X148150155Y-94021739D01*
X148041019Y-94090599D01*
X148030419Y-94102601D01*
X148029612Y-94103515D01*
X147976920Y-94134615D01*
X147916011Y-94128803D01*
X147880409Y-94102602D01*
X147873193Y-94094228D01*
X147867276Y-94090393D01*
X147867274Y-94090391D01*
X147770824Y-94027877D01*
X147764906Y-94024041D01*
X147758150Y-94022021D01*
X147758149Y-94022020D01*
X147715335Y-94009216D01*
X147641273Y-93987066D01*
X147564644Y-93986598D01*
X147519282Y-93986321D01*
X147512231Y-93986278D01*
X147505454Y-93988215D01*
X147505453Y-93988215D01*
X147394935Y-94019801D01*
X147394933Y-94019802D01*
X147388155Y-94021739D01*
X147279019Y-94090599D01*
X147193596Y-94187322D01*
X147138754Y-94304132D01*
X147118901Y-94431640D01*
X147119816Y-94438637D01*
X147119816Y-94438638D01*
X147121082Y-94448320D01*
X147135633Y-94559594D01*
X147138471Y-94566045D01*
X147138472Y-94566047D01*
X147143055Y-94576463D01*
X147187605Y-94677710D01*
X147234027Y-94732936D01*
X147252614Y-94755048D01*
X147275584Y-94811758D01*
X147260833Y-94871139D01*
X147251036Y-94884284D01*
X147193596Y-94949322D01*
X147138754Y-95066132D01*
X147118901Y-95193640D01*
X147119816Y-95200637D01*
X147119816Y-95200638D01*
X147121082Y-95210320D01*
X147135633Y-95321594D01*
X147138471Y-95328045D01*
X147138472Y-95328047D01*
X147143055Y-95338463D01*
X147187605Y-95439710D01*
X147234027Y-95494936D01*
X147252614Y-95517048D01*
X147275584Y-95573758D01*
X147260833Y-95633139D01*
X147251036Y-95646284D01*
X147193596Y-95711322D01*
X147138754Y-95828132D01*
X147118901Y-95955640D01*
X147119816Y-95962637D01*
X147119816Y-95962638D01*
X147121082Y-95972320D01*
X147135633Y-96083594D01*
X147138471Y-96090045D01*
X147138472Y-96090047D01*
X147143055Y-96100463D01*
X147187605Y-96201710D01*
X147234027Y-96256936D01*
X147252614Y-96279048D01*
X147275584Y-96335758D01*
X147260833Y-96395139D01*
X147251036Y-96408284D01*
X147193596Y-96473322D01*
X147138754Y-96590132D01*
X147118901Y-96717640D01*
X147119816Y-96724637D01*
X147119816Y-96724638D01*
X147121082Y-96734320D01*
X147135633Y-96845594D01*
X147138471Y-96852045D01*
X147138472Y-96852047D01*
X147143055Y-96862463D01*
X147187605Y-96963710D01*
X147234027Y-97018936D01*
X147252614Y-97041048D01*
X147275584Y-97097758D01*
X147260833Y-97157139D01*
X147251036Y-97170284D01*
X147193596Y-97235322D01*
X147138754Y-97352132D01*
X147118901Y-97479640D01*
X147119816Y-97486637D01*
X147119816Y-97486638D01*
X147121082Y-97496320D01*
X147135633Y-97607594D01*
X147138471Y-97614045D01*
X147138472Y-97614047D01*
X147143055Y-97624463D01*
X147187605Y-97725710D01*
X147234027Y-97780936D01*
X147252614Y-97803048D01*
X147275584Y-97859758D01*
X147260833Y-97919139D01*
X147251036Y-97932284D01*
X147193596Y-97997322D01*
X147138754Y-98114132D01*
X147118901Y-98241640D01*
X147119816Y-98248637D01*
X147119816Y-98248638D01*
X147121082Y-98258320D01*
X147135633Y-98369594D01*
X147138471Y-98376045D01*
X147138472Y-98376047D01*
X147143055Y-98386463D01*
X147187605Y-98487710D01*
X147234027Y-98542936D01*
X147252614Y-98565048D01*
X147275584Y-98621758D01*
X147260833Y-98681139D01*
X147251036Y-98694284D01*
X147193596Y-98759322D01*
X147138754Y-98876132D01*
X147118901Y-99003640D01*
X147119816Y-99010637D01*
X147119816Y-99010638D01*
X147121082Y-99020320D01*
X147135633Y-99131594D01*
X147138471Y-99138045D01*
X147138472Y-99138047D01*
X147143055Y-99148463D01*
X147187605Y-99249710D01*
X147229122Y-99299100D01*
X147266100Y-99343092D01*
X147266103Y-99343094D01*
X147270639Y-99348491D01*
X147378060Y-99419996D01*
X147384788Y-99422098D01*
X147384790Y-99422099D01*
X147439646Y-99439237D01*
X147501233Y-99458478D01*
X147565744Y-99459660D01*
X147623202Y-99460714D01*
X147623204Y-99460714D01*
X147630255Y-99460843D01*
X147637058Y-99458988D01*
X147637060Y-99458988D01*
X147678828Y-99447600D01*
X147754755Y-99426900D01*
X147864724Y-99359379D01*
X147880374Y-99342089D01*
X147933442Y-99311635D01*
X147994275Y-99318190D01*
X148022116Y-99339205D01*
X148022843Y-99338391D01*
X148028099Y-99343090D01*
X148032639Y-99348491D01*
X148140060Y-99419996D01*
X148146788Y-99422098D01*
X148146790Y-99422099D01*
X148201646Y-99439237D01*
X148263233Y-99458478D01*
X148327744Y-99459660D01*
X148385202Y-99460714D01*
X148385204Y-99460714D01*
X148392255Y-99460843D01*
X148399058Y-99458988D01*
X148399060Y-99458988D01*
X148440828Y-99447600D01*
X148516755Y-99426900D01*
X148626724Y-99359379D01*
X148642374Y-99342089D01*
X148695442Y-99311635D01*
X148756275Y-99318190D01*
X148784116Y-99339205D01*
X148784843Y-99338391D01*
X148790099Y-99343090D01*
X148794639Y-99348491D01*
X148902060Y-99419996D01*
X148908788Y-99422098D01*
X148908790Y-99422099D01*
X148963646Y-99439237D01*
X149025233Y-99458478D01*
X149089744Y-99459660D01*
X149147202Y-99460714D01*
X149147204Y-99460714D01*
X149154255Y-99460843D01*
X149161058Y-99458988D01*
X149161060Y-99458988D01*
X149202828Y-99447600D01*
X149278755Y-99426900D01*
X149388724Y-99359379D01*
X149404374Y-99342089D01*
X149457442Y-99311635D01*
X149518275Y-99318190D01*
X149546116Y-99339205D01*
X149546843Y-99338391D01*
X149552099Y-99343090D01*
X149556639Y-99348491D01*
X149664060Y-99419996D01*
X149670788Y-99422098D01*
X149670790Y-99422099D01*
X149725646Y-99439237D01*
X149787233Y-99458478D01*
X149851744Y-99459660D01*
X149909202Y-99460714D01*
X149909204Y-99460714D01*
X149916255Y-99460843D01*
X149923058Y-99458988D01*
X149923060Y-99458988D01*
X149964828Y-99447600D01*
X150040755Y-99426900D01*
X150150724Y-99359379D01*
X150168985Y-99339205D01*
X150232590Y-99268935D01*
X150232590Y-99268934D01*
X150237322Y-99263707D01*
X150272406Y-99191294D01*
X150314794Y-99147170D01*
X150375022Y-99136388D01*
X150430085Y-99163066D01*
X150458951Y-99217014D01*
X150460500Y-99234460D01*
X150460500Y-114675942D01*
X150441593Y-114734133D01*
X150431504Y-114745946D01*
X145606946Y-119570504D01*
X145552429Y-119598281D01*
X145536942Y-119599500D01*
X113785058Y-119599500D01*
X113726867Y-119580593D01*
X113715054Y-119570504D01*
X110596161Y-116451611D01*
X117912394Y-116451611D01*
X117913049Y-116457544D01*
X117913049Y-116457548D01*
X117913566Y-116462231D01*
X117930999Y-116620135D01*
X117989266Y-116779356D01*
X117992591Y-116784305D01*
X117992592Y-116784306D01*
X118005689Y-116803796D01*
X118083830Y-116920083D01*
X118209233Y-117034191D01*
X118358235Y-117115092D01*
X118393189Y-117124262D01*
X118516464Y-117156603D01*
X118516468Y-117156604D01*
X118522233Y-117158116D01*
X118528194Y-117158210D01*
X118528197Y-117158210D01*
X118606996Y-117159447D01*
X118691760Y-117160779D01*
X118697575Y-117159447D01*
X118697577Y-117159447D01*
X118851206Y-117124262D01*
X118851209Y-117124261D01*
X118857029Y-117122928D01*
X118872610Y-117115092D01*
X119003165Y-117049429D01*
X119008498Y-117046747D01*
X119013035Y-117042872D01*
X119013038Y-117042870D01*
X119132888Y-116940508D01*
X119132891Y-116940505D01*
X119137423Y-116936634D01*
X119236361Y-116798947D01*
X119299601Y-116641634D01*
X119323490Y-116473778D01*
X119323645Y-116459000D01*
X119303276Y-116290680D01*
X119243345Y-116132077D01*
X119216666Y-116093258D01*
X119150692Y-115997267D01*
X119147312Y-115992349D01*
X119020721Y-115879560D01*
X118870881Y-115800224D01*
X118788661Y-115779571D01*
X118712231Y-115760373D01*
X118712228Y-115760373D01*
X118706441Y-115758919D01*
X118620841Y-115758471D01*
X118542861Y-115758062D01*
X118542859Y-115758062D01*
X118536895Y-115758031D01*
X118531099Y-115759423D01*
X118531095Y-115759423D01*
X118423703Y-115785207D01*
X118372032Y-115797612D01*
X118311176Y-115829022D01*
X118226675Y-115872636D01*
X118226673Y-115872638D01*
X118221369Y-115875375D01*
X118093604Y-115986831D01*
X118090173Y-115991713D01*
X118090172Y-115991714D01*
X118018223Y-116094087D01*
X117996113Y-116125547D01*
X117934524Y-116283513D01*
X117912394Y-116451611D01*
X110596161Y-116451611D01*
X108890496Y-114745946D01*
X108862719Y-114691429D01*
X108861500Y-114675942D01*
X108861500Y-114252736D01*
X112356070Y-114252736D01*
X112356698Y-114265807D01*
X112368909Y-114520041D01*
X112421118Y-114782512D01*
X112422358Y-114785967D01*
X112422359Y-114785969D01*
X112486982Y-114965957D01*
X112511549Y-115034383D01*
X112638215Y-115270121D01*
X112798335Y-115484547D01*
X112800953Y-115487142D01*
X112984323Y-115668918D01*
X112988390Y-115672950D01*
X113204205Y-115831192D01*
X113441039Y-115955797D01*
X113444510Y-115957009D01*
X113444512Y-115957010D01*
X113529907Y-115986831D01*
X113693690Y-116044026D01*
X113956606Y-116093943D01*
X114090310Y-116099196D01*
X114220343Y-116104305D01*
X114220346Y-116104305D01*
X114224013Y-116104449D01*
X114360669Y-116089483D01*
X114486394Y-116075714D01*
X114486397Y-116075713D01*
X114490035Y-116075315D01*
X114748829Y-116007180D01*
X114752204Y-116005730D01*
X114752207Y-116005729D01*
X114872412Y-115954085D01*
X114994710Y-115901542D01*
X114997827Y-115899613D01*
X114997833Y-115899610D01*
X115219149Y-115762655D01*
X115219154Y-115762651D01*
X115222275Y-115760720D01*
X115225452Y-115758031D01*
X115325953Y-115672950D01*
X115426526Y-115587809D01*
X115517085Y-115484547D01*
X115600550Y-115389374D01*
X115600554Y-115389369D01*
X115602976Y-115386607D01*
X115747747Y-115161534D01*
X115805025Y-115034383D01*
X115856153Y-114920882D01*
X115856154Y-114920880D01*
X115857661Y-114917534D01*
X115884384Y-114822781D01*
X115929305Y-114663505D01*
X115929306Y-114663502D01*
X115930302Y-114659969D01*
X115944490Y-114548440D01*
X131624901Y-114548440D01*
X131625816Y-114555437D01*
X131625816Y-114555438D01*
X131627082Y-114565120D01*
X131641633Y-114676394D01*
X131644471Y-114682845D01*
X131644472Y-114682847D01*
X131689847Y-114785969D01*
X131693605Y-114794510D01*
X131726372Y-114833491D01*
X131772100Y-114887892D01*
X131772103Y-114887894D01*
X131776639Y-114893291D01*
X131884060Y-114964796D01*
X131890788Y-114966898D01*
X131890790Y-114966899D01*
X131945646Y-114984037D01*
X132007233Y-115003278D01*
X132071744Y-115004460D01*
X132129202Y-115005514D01*
X132129204Y-115005514D01*
X132136255Y-115005643D01*
X132143058Y-115003788D01*
X132143060Y-115003788D01*
X132184828Y-114992400D01*
X132260755Y-114971700D01*
X132370724Y-114904179D01*
X132394434Y-114877985D01*
X132452590Y-114813735D01*
X132452590Y-114813734D01*
X132457322Y-114808507D01*
X132513588Y-114692375D01*
X132534997Y-114565120D01*
X132535133Y-114554000D01*
X132516839Y-114426259D01*
X132463428Y-114308788D01*
X132415131Y-114252736D01*
X143356070Y-114252736D01*
X143356698Y-114265807D01*
X143368909Y-114520041D01*
X143421118Y-114782512D01*
X143422358Y-114785967D01*
X143422359Y-114785969D01*
X143486982Y-114965957D01*
X143511549Y-115034383D01*
X143638215Y-115270121D01*
X143798335Y-115484547D01*
X143800953Y-115487142D01*
X143984323Y-115668918D01*
X143988390Y-115672950D01*
X144204205Y-115831192D01*
X144441039Y-115955797D01*
X144444510Y-115957009D01*
X144444512Y-115957010D01*
X144529907Y-115986831D01*
X144693690Y-116044026D01*
X144956606Y-116093943D01*
X145090310Y-116099196D01*
X145220343Y-116104305D01*
X145220346Y-116104305D01*
X145224013Y-116104449D01*
X145360669Y-116089483D01*
X145486394Y-116075714D01*
X145486397Y-116075713D01*
X145490035Y-116075315D01*
X145748829Y-116007180D01*
X145752204Y-116005730D01*
X145752207Y-116005729D01*
X145872412Y-115954085D01*
X145994710Y-115901542D01*
X145997827Y-115899613D01*
X145997833Y-115899610D01*
X146219149Y-115762655D01*
X146219154Y-115762651D01*
X146222275Y-115760720D01*
X146225452Y-115758031D01*
X146325953Y-115672950D01*
X146426526Y-115587809D01*
X146517085Y-115484547D01*
X146600550Y-115389374D01*
X146600554Y-115389369D01*
X146602976Y-115386607D01*
X146747747Y-115161534D01*
X146805025Y-115034383D01*
X146856153Y-114920882D01*
X146856154Y-114920880D01*
X146857661Y-114917534D01*
X146884384Y-114822781D01*
X146929305Y-114663505D01*
X146929306Y-114663502D01*
X146930302Y-114659969D01*
X146964075Y-114394495D01*
X146966549Y-114300000D01*
X146964009Y-114265807D01*
X146946989Y-114036777D01*
X146946988Y-114036771D01*
X146946717Y-114033123D01*
X146887655Y-113772109D01*
X146868831Y-113723701D01*
X146791992Y-113526111D01*
X146790662Y-113522691D01*
X146657868Y-113290350D01*
X146629728Y-113254654D01*
X146494469Y-113083080D01*
X146492190Y-113080189D01*
X146489517Y-113077675D01*
X146489512Y-113077669D01*
X146315925Y-112914375D01*
X146297269Y-112896825D01*
X146077385Y-112744286D01*
X146041303Y-112726492D01*
X145896824Y-112655243D01*
X145837371Y-112625924D01*
X145677563Y-112574769D01*
X145585993Y-112545457D01*
X145585992Y-112545457D01*
X145582497Y-112544338D01*
X145578880Y-112543749D01*
X145578876Y-112543748D01*
X145321983Y-112501911D01*
X145321978Y-112501911D01*
X145318364Y-112501322D01*
X145314699Y-112501274D01*
X145214651Y-112499964D01*
X145050774Y-112497819D01*
X145047146Y-112498313D01*
X145047142Y-112498313D01*
X144918189Y-112515863D01*
X144785605Y-112533907D01*
X144528683Y-112608792D01*
X144285652Y-112720831D01*
X144282585Y-112722842D01*
X144282581Y-112722844D01*
X144119025Y-112830077D01*
X144061851Y-112867562D01*
X144059119Y-112870001D01*
X144059117Y-112870002D01*
X143873429Y-113035735D01*
X143862197Y-113045760D01*
X143859850Y-113048582D01*
X143859849Y-113048583D01*
X143760078Y-113168545D01*
X143691075Y-113251512D01*
X143552244Y-113480298D01*
X143448755Y-113727091D01*
X143447850Y-113730653D01*
X143447850Y-113730654D01*
X143444271Y-113744747D01*
X143382881Y-113986470D01*
X143356070Y-114252736D01*
X132415131Y-114252736D01*
X132379193Y-114211028D01*
X132373276Y-114207193D01*
X132373274Y-114207191D01*
X132276824Y-114144677D01*
X132270906Y-114140841D01*
X132264150Y-114138821D01*
X132264149Y-114138820D01*
X132221335Y-114126016D01*
X132147273Y-114103866D01*
X132070644Y-114103398D01*
X132025282Y-114103121D01*
X132018231Y-114103078D01*
X132011454Y-114105015D01*
X132011453Y-114105015D01*
X131900935Y-114136601D01*
X131900933Y-114136602D01*
X131894155Y-114138539D01*
X131785019Y-114207399D01*
X131699596Y-114304122D01*
X131644754Y-114420932D01*
X131624901Y-114548440D01*
X115944490Y-114548440D01*
X115964075Y-114394495D01*
X115966549Y-114300000D01*
X115964009Y-114265807D01*
X115946989Y-114036777D01*
X115946988Y-114036771D01*
X115946717Y-114033123D01*
X115887655Y-113772109D01*
X115868831Y-113723701D01*
X115791992Y-113526111D01*
X115790662Y-113522691D01*
X115657868Y-113290350D01*
X115629728Y-113254654D01*
X115494469Y-113083080D01*
X115492190Y-113080189D01*
X115489517Y-113077675D01*
X115489512Y-113077669D01*
X115315925Y-112914375D01*
X115297269Y-112896825D01*
X115115086Y-112770440D01*
X118975701Y-112770440D01*
X118976616Y-112777437D01*
X118976616Y-112777438D01*
X118977882Y-112787120D01*
X118992433Y-112898394D01*
X118995271Y-112904845D01*
X118995272Y-112904847D01*
X119034765Y-112994602D01*
X119044405Y-113016510D01*
X119066939Y-113043317D01*
X119122900Y-113109892D01*
X119122903Y-113109894D01*
X119127439Y-113115291D01*
X119234860Y-113186796D01*
X119241588Y-113188898D01*
X119241590Y-113188899D01*
X119296447Y-113206037D01*
X119358033Y-113225278D01*
X119422544Y-113226460D01*
X119480002Y-113227514D01*
X119480004Y-113227514D01*
X119487055Y-113227643D01*
X119493858Y-113225788D01*
X119493860Y-113225788D01*
X119535628Y-113214400D01*
X119611555Y-113193700D01*
X119683361Y-113149611D01*
X126548394Y-113149611D01*
X126549049Y-113155544D01*
X126549049Y-113155548D01*
X126564284Y-113293543D01*
X126566999Y-113318135D01*
X126625266Y-113477356D01*
X126628591Y-113482305D01*
X126628592Y-113482306D01*
X126641689Y-113501796D01*
X126719830Y-113618083D01*
X126845233Y-113732191D01*
X126994235Y-113813092D01*
X127029189Y-113822262D01*
X127152464Y-113854603D01*
X127152468Y-113854604D01*
X127158233Y-113856116D01*
X127164194Y-113856210D01*
X127164197Y-113856210D01*
X127242965Y-113857447D01*
X127327760Y-113858779D01*
X127333575Y-113857447D01*
X127333577Y-113857447D01*
X127487206Y-113822262D01*
X127487209Y-113822261D01*
X127493029Y-113820928D01*
X127501327Y-113816755D01*
X127590095Y-113772109D01*
X127644498Y-113744747D01*
X127649035Y-113740872D01*
X127649038Y-113740870D01*
X127768888Y-113638508D01*
X127768891Y-113638505D01*
X127773423Y-113634634D01*
X127788875Y-113613130D01*
X127868877Y-113501796D01*
X127868878Y-113501794D01*
X127872361Y-113496947D01*
X127877691Y-113483690D01*
X127933377Y-113345167D01*
X127933378Y-113345165D01*
X127935601Y-113339634D01*
X127942615Y-113290350D01*
X127959034Y-113174985D01*
X127959034Y-113174979D01*
X127959490Y-113171778D01*
X127959645Y-113157000D01*
X127946525Y-113048583D01*
X127939993Y-112994602D01*
X127939992Y-112994599D01*
X127939276Y-112988680D01*
X127879345Y-112830077D01*
X127849822Y-112787120D01*
X127786692Y-112695267D01*
X127783312Y-112690349D01*
X127656721Y-112577560D01*
X127506881Y-112498224D01*
X127424661Y-112477572D01*
X127348231Y-112458373D01*
X127348228Y-112458373D01*
X127342441Y-112456919D01*
X127256841Y-112456471D01*
X127178861Y-112456062D01*
X127178859Y-112456062D01*
X127172895Y-112456031D01*
X127167099Y-112457423D01*
X127167095Y-112457423D01*
X127059703Y-112483207D01*
X127008032Y-112495612D01*
X126948920Y-112526122D01*
X126862675Y-112570636D01*
X126862673Y-112570638D01*
X126857369Y-112573375D01*
X126729604Y-112684831D01*
X126726173Y-112689713D01*
X126726172Y-112689714D01*
X126664519Y-112777438D01*
X126632113Y-112823547D01*
X126570524Y-112981513D01*
X126548394Y-113149611D01*
X119683361Y-113149611D01*
X119721524Y-113126179D01*
X119765433Y-113077669D01*
X119803390Y-113035735D01*
X119803390Y-113035734D01*
X119808122Y-113030507D01*
X119864388Y-112914375D01*
X119885797Y-112787120D01*
X119885933Y-112776000D01*
X119867639Y-112648259D01*
X119814228Y-112530788D01*
X119729993Y-112433028D01*
X119724076Y-112429193D01*
X119724074Y-112429191D01*
X119627624Y-112366677D01*
X119621706Y-112362841D01*
X119614950Y-112360821D01*
X119614949Y-112360820D01*
X119572135Y-112348016D01*
X119498073Y-112325866D01*
X119421444Y-112325398D01*
X119376082Y-112325121D01*
X119369031Y-112325078D01*
X119362254Y-112327015D01*
X119362253Y-112327015D01*
X119251735Y-112358601D01*
X119251733Y-112358602D01*
X119244955Y-112360539D01*
X119135819Y-112429399D01*
X119050396Y-112526122D01*
X118995554Y-112642932D01*
X118975701Y-112770440D01*
X115115086Y-112770440D01*
X115077385Y-112744286D01*
X115041303Y-112726492D01*
X114896824Y-112655243D01*
X114837371Y-112625924D01*
X114677563Y-112574769D01*
X114585993Y-112545457D01*
X114585992Y-112545457D01*
X114582497Y-112544338D01*
X114578880Y-112543749D01*
X114578876Y-112543748D01*
X114321983Y-112501911D01*
X114321978Y-112501911D01*
X114318364Y-112501322D01*
X114314699Y-112501274D01*
X114214651Y-112499964D01*
X114050774Y-112497819D01*
X114047146Y-112498313D01*
X114047142Y-112498313D01*
X113918189Y-112515863D01*
X113785605Y-112533907D01*
X113528683Y-112608792D01*
X113285652Y-112720831D01*
X113282585Y-112722842D01*
X113282581Y-112722844D01*
X113119025Y-112830077D01*
X113061851Y-112867562D01*
X113059119Y-112870001D01*
X113059117Y-112870002D01*
X112873429Y-113035735D01*
X112862197Y-113045760D01*
X112859850Y-113048582D01*
X112859849Y-113048583D01*
X112760078Y-113168545D01*
X112691075Y-113251512D01*
X112552244Y-113480298D01*
X112448755Y-113727091D01*
X112447850Y-113730653D01*
X112447850Y-113730654D01*
X112444271Y-113744747D01*
X112382881Y-113986470D01*
X112356070Y-114252736D01*
X108861500Y-114252736D01*
X108861500Y-112261823D01*
X131193391Y-112261823D01*
X131194306Y-112268820D01*
X131194306Y-112268821D01*
X131201668Y-112325121D01*
X131211980Y-112403979D01*
X131214821Y-112410435D01*
X131214821Y-112410436D01*
X131253505Y-112498351D01*
X131269720Y-112535203D01*
X131301807Y-112573375D01*
X131357431Y-112639549D01*
X131357434Y-112639551D01*
X131361970Y-112644948D01*
X131367841Y-112648856D01*
X131367842Y-112648857D01*
X131377436Y-112655243D01*
X131481313Y-112724390D01*
X131581920Y-112755821D01*
X131611425Y-112765039D01*
X131611426Y-112765039D01*
X131618157Y-112767142D01*
X131689828Y-112768456D01*
X131754445Y-112769641D01*
X131754447Y-112769641D01*
X131761499Y-112769770D01*
X131768302Y-112767915D01*
X131768304Y-112767915D01*
X131860933Y-112742661D01*
X131899817Y-112732060D01*
X132021991Y-112657045D01*
X132028457Y-112649902D01*
X132113468Y-112555982D01*
X132118200Y-112550754D01*
X132164093Y-112456031D01*
X132177634Y-112428082D01*
X132180710Y-112421733D01*
X132184875Y-112396982D01*
X132203862Y-112284124D01*
X132203862Y-112284120D01*
X132204496Y-112280354D01*
X132204647Y-112268000D01*
X132184323Y-112126082D01*
X132151902Y-112054775D01*
X132127905Y-112001996D01*
X132127904Y-112001995D01*
X132124984Y-111995572D01*
X132031400Y-111886963D01*
X131911095Y-111808985D01*
X131773739Y-111767907D01*
X131690497Y-111767398D01*
X131637427Y-111767074D01*
X131637426Y-111767074D01*
X131630376Y-111767031D01*
X131623599Y-111768968D01*
X131623598Y-111768968D01*
X131499309Y-111804490D01*
X131499307Y-111804491D01*
X131492529Y-111806428D01*
X131371280Y-111882930D01*
X131366613Y-111888214D01*
X131366611Y-111888216D01*
X131281044Y-111985103D01*
X131281042Y-111985105D01*
X131276377Y-111990388D01*
X131215447Y-112120163D01*
X131193391Y-112261823D01*
X108861500Y-112261823D01*
X108861500Y-111602040D01*
X123649301Y-111602040D01*
X123650216Y-111609037D01*
X123650216Y-111609038D01*
X123651482Y-111618720D01*
X123666033Y-111729994D01*
X123668871Y-111736445D01*
X123668872Y-111736447D01*
X123701320Y-111810191D01*
X123718005Y-111848110D01*
X123744111Y-111879167D01*
X123796500Y-111941492D01*
X123796503Y-111941494D01*
X123801039Y-111946891D01*
X123908460Y-112018396D01*
X123915188Y-112020498D01*
X123915190Y-112020499D01*
X123970047Y-112037637D01*
X124031633Y-112056878D01*
X124096144Y-112058060D01*
X124153602Y-112059114D01*
X124153604Y-112059114D01*
X124160655Y-112059243D01*
X124167458Y-112057388D01*
X124167460Y-112057388D01*
X124209228Y-112046000D01*
X124285155Y-112025300D01*
X124395124Y-111957779D01*
X124458089Y-111888216D01*
X124476990Y-111867335D01*
X124476990Y-111867334D01*
X124481722Y-111862107D01*
X124537988Y-111745975D01*
X124559397Y-111618720D01*
X124559533Y-111607600D01*
X124541239Y-111479859D01*
X124487828Y-111362388D01*
X124403593Y-111264628D01*
X124397676Y-111260793D01*
X124397674Y-111260791D01*
X124301224Y-111198277D01*
X124295306Y-111194441D01*
X124288550Y-111192421D01*
X124288549Y-111192420D01*
X124245735Y-111179616D01*
X124171673Y-111157466D01*
X124095044Y-111156998D01*
X124049682Y-111156721D01*
X124042631Y-111156678D01*
X124035854Y-111158615D01*
X124035853Y-111158615D01*
X123925335Y-111190201D01*
X123925333Y-111190202D01*
X123918555Y-111192139D01*
X123809419Y-111260999D01*
X123723996Y-111357722D01*
X123669154Y-111474532D01*
X123649301Y-111602040D01*
X108861500Y-111602040D01*
X108861500Y-110357440D01*
X118416901Y-110357440D01*
X118417816Y-110364437D01*
X118417816Y-110364438D01*
X118419299Y-110375776D01*
X118433633Y-110485394D01*
X118436471Y-110491845D01*
X118436472Y-110491847D01*
X118465759Y-110558407D01*
X118485605Y-110603510D01*
X118506292Y-110628120D01*
X118564100Y-110696892D01*
X118564103Y-110696894D01*
X118568639Y-110702291D01*
X118676060Y-110773796D01*
X118682788Y-110775898D01*
X118682790Y-110775899D01*
X118737646Y-110793037D01*
X118799233Y-110812278D01*
X118863744Y-110813460D01*
X118921202Y-110814514D01*
X118921204Y-110814514D01*
X118928255Y-110814643D01*
X118935058Y-110812788D01*
X118935060Y-110812788D01*
X118976828Y-110801400D01*
X119052755Y-110780700D01*
X119162724Y-110713179D01*
X119249322Y-110617507D01*
X119296663Y-110519796D01*
X119302512Y-110507724D01*
X119302512Y-110507723D01*
X119305588Y-110501375D01*
X119319844Y-110416638D01*
X119326363Y-110377891D01*
X119326363Y-110377886D01*
X119326997Y-110374120D01*
X119327133Y-110363000D01*
X119324277Y-110343054D01*
X119315255Y-110280056D01*
X119325722Y-110219773D01*
X119369624Y-110177155D01*
X119430191Y-110168481D01*
X119484290Y-110197065D01*
X119497304Y-110213707D01*
X119498763Y-110216051D01*
X119501605Y-110222510D01*
X119506145Y-110227911D01*
X119580100Y-110315892D01*
X119580103Y-110315894D01*
X119584639Y-110321291D01*
X119669891Y-110378039D01*
X119683197Y-110386896D01*
X119692060Y-110392796D01*
X119698788Y-110394898D01*
X119698790Y-110394899D01*
X119753647Y-110412037D01*
X119815233Y-110431278D01*
X119879744Y-110432460D01*
X119937202Y-110433514D01*
X119937204Y-110433514D01*
X119944255Y-110433643D01*
X119951058Y-110431788D01*
X119951060Y-110431788D01*
X120006628Y-110416638D01*
X120068755Y-110399700D01*
X120178724Y-110332179D01*
X120193466Y-110315892D01*
X120260590Y-110241735D01*
X120260590Y-110241734D01*
X120265322Y-110236507D01*
X120317107Y-110129624D01*
X120318512Y-110126724D01*
X120318512Y-110126723D01*
X120321588Y-110120375D01*
X120337571Y-110025372D01*
X120342363Y-109996891D01*
X120342363Y-109996886D01*
X120342997Y-109993120D01*
X120343133Y-109982000D01*
X120342337Y-109976440D01*
X121845901Y-109976440D01*
X121846816Y-109983437D01*
X121846816Y-109983438D01*
X121848082Y-109993120D01*
X121862633Y-110104394D01*
X121865471Y-110110845D01*
X121865472Y-110110847D01*
X121911764Y-110216054D01*
X121914605Y-110222510D01*
X121947047Y-110261104D01*
X121993100Y-110315892D01*
X121993103Y-110315894D01*
X121997639Y-110321291D01*
X122082891Y-110378039D01*
X122096197Y-110386896D01*
X122105060Y-110392796D01*
X122111788Y-110394898D01*
X122111790Y-110394899D01*
X122166647Y-110412037D01*
X122228233Y-110431278D01*
X122292744Y-110432460D01*
X122350202Y-110433514D01*
X122350204Y-110433514D01*
X122357255Y-110433643D01*
X122364058Y-110431788D01*
X122364060Y-110431788D01*
X122419628Y-110416638D01*
X122481755Y-110399700D01*
X122591724Y-110332179D01*
X122606466Y-110315892D01*
X122673590Y-110241735D01*
X122673590Y-110241734D01*
X122678322Y-110236507D01*
X122730107Y-110129624D01*
X122731512Y-110126724D01*
X122731512Y-110126723D01*
X122734588Y-110120375D01*
X122737437Y-110103440D01*
X123115901Y-110103440D01*
X123116816Y-110110437D01*
X123116816Y-110110438D01*
X123118633Y-110124335D01*
X123132633Y-110231394D01*
X123135471Y-110237845D01*
X123135472Y-110237847D01*
X123180080Y-110339226D01*
X123184605Y-110349510D01*
X123216031Y-110386896D01*
X123263100Y-110442892D01*
X123263103Y-110442894D01*
X123267639Y-110448291D01*
X123375060Y-110519796D01*
X123381788Y-110521898D01*
X123381790Y-110521899D01*
X123436647Y-110539037D01*
X123498233Y-110558278D01*
X123562744Y-110559460D01*
X123620202Y-110560514D01*
X123620204Y-110560514D01*
X123627255Y-110560643D01*
X123634058Y-110558788D01*
X123634060Y-110558788D01*
X123675828Y-110547400D01*
X123751755Y-110526700D01*
X123801359Y-110496243D01*
X123855715Y-110462869D01*
X123855717Y-110462867D01*
X123861724Y-110459179D01*
X123878408Y-110440747D01*
X123896582Y-110425018D01*
X123899877Y-110422803D01*
X123899882Y-110422799D01*
X123903920Y-110420085D01*
X123916154Y-110407786D01*
X123920898Y-110403321D01*
X123923049Y-110401426D01*
X123976734Y-110377411D01*
X123990422Y-110375774D01*
X123996329Y-110375248D01*
X124019288Y-110373897D01*
X124021590Y-110373762D01*
X124025817Y-110373604D01*
X124054291Y-110373148D01*
X124058948Y-110372163D01*
X124058951Y-110372163D01*
X124068565Y-110370130D01*
X124089044Y-110367989D01*
X124308456Y-110367989D01*
X124366647Y-110386896D01*
X124402611Y-110436396D01*
X124403027Y-110483507D01*
X124405754Y-110483932D01*
X124385901Y-110611440D01*
X124386816Y-110618437D01*
X124386816Y-110618438D01*
X124392031Y-110658317D01*
X124402633Y-110739394D01*
X124405471Y-110745845D01*
X124405472Y-110745847D01*
X124446190Y-110838385D01*
X124454605Y-110857510D01*
X124480065Y-110887798D01*
X124533100Y-110950892D01*
X124533103Y-110950894D01*
X124537639Y-110956291D01*
X124645060Y-111027796D01*
X124651788Y-111029898D01*
X124651790Y-111029899D01*
X124689103Y-111041556D01*
X124768233Y-111066278D01*
X124832744Y-111067461D01*
X124890202Y-111068514D01*
X124890204Y-111068514D01*
X124897255Y-111068643D01*
X124904058Y-111066788D01*
X124904060Y-111066788D01*
X124945828Y-111055400D01*
X125021755Y-111034700D01*
X125131724Y-110967179D01*
X125146466Y-110950892D01*
X125213590Y-110876735D01*
X125213590Y-110876734D01*
X125218322Y-110871507D01*
X125267147Y-110770733D01*
X125271512Y-110761724D01*
X125271512Y-110761723D01*
X125274588Y-110755375D01*
X125285596Y-110689941D01*
X125295363Y-110631891D01*
X125295363Y-110631886D01*
X125295997Y-110628120D01*
X125296133Y-110617000D01*
X125277839Y-110489259D01*
X125278577Y-110489153D01*
X125280226Y-110433616D01*
X125317643Y-110385205D01*
X125373431Y-110367989D01*
X128373299Y-110367989D01*
X128431490Y-110386896D01*
X128443303Y-110396985D01*
X128877255Y-110830937D01*
X128890420Y-110847240D01*
X128891733Y-110849274D01*
X128891736Y-110849278D01*
X128896175Y-110856152D01*
X128921332Y-110875984D01*
X128925738Y-110879900D01*
X128925739Y-110879899D01*
X128928868Y-110882550D01*
X128931747Y-110885429D01*
X128935061Y-110887797D01*
X128935062Y-110887798D01*
X128946591Y-110896037D01*
X128950319Y-110898836D01*
X128964061Y-110909669D01*
X128987811Y-110928392D01*
X128995114Y-110930957D01*
X128996369Y-110931609D01*
X129002670Y-110936111D01*
X129040476Y-110947417D01*
X129048412Y-110949791D01*
X129052846Y-110951232D01*
X129092030Y-110964992D01*
X129092034Y-110964993D01*
X129097906Y-110967055D01*
X129103044Y-110967500D01*
X129105182Y-110967500D01*
X129106901Y-110967574D01*
X129108262Y-110967689D01*
X129114464Y-110969544D01*
X129122635Y-110969223D01*
X129164554Y-110967576D01*
X129168441Y-110967500D01*
X135756444Y-110967500D01*
X135776441Y-110969541D01*
X135791159Y-110972578D01*
X135816710Y-110972759D01*
X135830641Y-110972858D01*
X135832698Y-110972894D01*
X135872004Y-110973990D01*
X135875181Y-110974130D01*
X135904963Y-110975919D01*
X135909418Y-110976288D01*
X135915306Y-110976909D01*
X135930923Y-110978558D01*
X135936593Y-110979323D01*
X135951851Y-110981832D01*
X135958294Y-110983112D01*
X135970396Y-110985939D01*
X135976873Y-110987686D01*
X135989521Y-110991562D01*
X135995240Y-110993507D01*
X136011790Y-110999706D01*
X136016199Y-111001480D01*
X136038894Y-111011247D01*
X136041838Y-111012571D01*
X136067307Y-111024546D01*
X136073315Y-111026635D01*
X136072784Y-111028161D01*
X136074796Y-111028638D01*
X136075059Y-111027795D01*
X136075060Y-111027796D01*
X136089363Y-111032264D01*
X136092251Y-111033217D01*
X136107971Y-111038682D01*
X136110508Y-111039275D01*
X136112115Y-111039651D01*
X136119103Y-111041556D01*
X136198233Y-111066278D01*
X136262744Y-111067461D01*
X136320202Y-111068514D01*
X136320204Y-111068514D01*
X136327255Y-111068643D01*
X136334058Y-111066788D01*
X136334060Y-111066788D01*
X136375828Y-111055400D01*
X136451755Y-111034700D01*
X136561724Y-110967179D01*
X136576466Y-110950892D01*
X136643590Y-110876735D01*
X136643590Y-110876734D01*
X136648322Y-110871507D01*
X136697147Y-110770733D01*
X136701512Y-110761724D01*
X136701512Y-110761723D01*
X136704588Y-110755375D01*
X136715596Y-110689941D01*
X136725363Y-110631891D01*
X136725363Y-110631886D01*
X136725997Y-110628120D01*
X136726133Y-110617000D01*
X136725248Y-110610823D01*
X137670391Y-110610823D01*
X137671306Y-110617820D01*
X137671306Y-110617821D01*
X137683776Y-110713179D01*
X137688980Y-110752979D01*
X137691821Y-110759435D01*
X137691821Y-110759436D01*
X137741134Y-110871507D01*
X137746720Y-110884203D01*
X137786220Y-110931194D01*
X137834431Y-110988549D01*
X137834434Y-110988551D01*
X137838970Y-110993948D01*
X137844841Y-110997856D01*
X137844842Y-110997857D01*
X137850285Y-111001480D01*
X137958313Y-111073390D01*
X138058920Y-111104821D01*
X138088425Y-111114039D01*
X138088426Y-111114039D01*
X138095157Y-111116142D01*
X138166828Y-111117456D01*
X138231445Y-111118641D01*
X138231447Y-111118641D01*
X138238499Y-111118770D01*
X138245302Y-111116915D01*
X138245304Y-111116915D01*
X138320503Y-111096413D01*
X138376817Y-111081060D01*
X138498991Y-111006045D01*
X138503979Y-111000535D01*
X138590468Y-110904982D01*
X138595200Y-110899754D01*
X138657710Y-110770733D01*
X138661465Y-110748418D01*
X138680862Y-110633124D01*
X138680862Y-110633120D01*
X138681496Y-110629354D01*
X138681647Y-110617000D01*
X138661323Y-110475082D01*
X138622046Y-110388696D01*
X138604905Y-110350996D01*
X138604904Y-110350995D01*
X138601984Y-110344572D01*
X138527342Y-110257946D01*
X138513005Y-110241307D01*
X138513004Y-110241306D01*
X138508400Y-110235963D01*
X138388095Y-110157985D01*
X138250739Y-110116907D01*
X138167497Y-110116398D01*
X138114427Y-110116074D01*
X138114426Y-110116074D01*
X138107376Y-110116031D01*
X138100599Y-110117968D01*
X138100598Y-110117968D01*
X137976309Y-110153490D01*
X137976307Y-110153491D01*
X137969529Y-110155428D01*
X137848280Y-110231930D01*
X137843613Y-110237214D01*
X137843611Y-110237216D01*
X137758044Y-110334103D01*
X137758042Y-110334105D01*
X137753377Y-110339388D01*
X137750381Y-110345770D01*
X137750380Y-110345771D01*
X137737491Y-110373224D01*
X137692447Y-110469163D01*
X137691362Y-110476132D01*
X137691361Y-110476135D01*
X137678572Y-110558278D01*
X137670391Y-110610823D01*
X136725248Y-110610823D01*
X136707839Y-110489259D01*
X136667119Y-110399700D01*
X136657349Y-110378212D01*
X136657348Y-110378211D01*
X136654428Y-110371788D01*
X136570193Y-110274028D01*
X136564276Y-110270193D01*
X136564274Y-110270191D01*
X136486486Y-110219773D01*
X136461906Y-110203841D01*
X136455150Y-110201821D01*
X136455149Y-110201820D01*
X136372676Y-110177155D01*
X136338273Y-110166866D01*
X136261644Y-110166398D01*
X136216282Y-110166121D01*
X136209231Y-110166078D01*
X136202454Y-110168015D01*
X136202453Y-110168015D01*
X136097212Y-110198093D01*
X136085155Y-110201539D01*
X136079185Y-110205306D01*
X136078056Y-110205811D01*
X136071659Y-110208373D01*
X136067312Y-110209451D01*
X136041821Y-110221435D01*
X136038893Y-110222753D01*
X136022213Y-110229932D01*
X136016223Y-110232510D01*
X136011813Y-110234284D01*
X135995232Y-110240495D01*
X135989510Y-110242441D01*
X135976891Y-110246308D01*
X135970399Y-110248059D01*
X135958285Y-110250888D01*
X135951836Y-110252170D01*
X135943306Y-110253573D01*
X135936604Y-110254675D01*
X135930940Y-110255439D01*
X135909397Y-110257713D01*
X135904975Y-110258079D01*
X135875199Y-110259868D01*
X135872036Y-110260007D01*
X135866235Y-110260169D01*
X135832751Y-110261104D01*
X135830693Y-110261140D01*
X135813704Y-110261261D01*
X135791153Y-110261422D01*
X135786426Y-110262389D01*
X135786424Y-110262389D01*
X135776142Y-110264492D01*
X135756305Y-110266500D01*
X132385258Y-110266500D01*
X132327067Y-110247593D01*
X132291103Y-110198093D01*
X132291103Y-110136907D01*
X132296164Y-110124335D01*
X132307311Y-110101327D01*
X132307312Y-110101324D01*
X132310388Y-110094975D01*
X132324028Y-110013899D01*
X132331163Y-109971491D01*
X132331163Y-109971486D01*
X132331797Y-109967720D01*
X132331933Y-109956600D01*
X132313639Y-109828859D01*
X132283421Y-109762399D01*
X132263149Y-109717812D01*
X132263148Y-109717811D01*
X132260228Y-109711388D01*
X132175993Y-109613628D01*
X132170076Y-109609793D01*
X132170074Y-109609791D01*
X132073624Y-109547277D01*
X132067706Y-109543441D01*
X132060950Y-109541421D01*
X132060949Y-109541420D01*
X132018135Y-109528616D01*
X131944073Y-109506466D01*
X131867444Y-109505998D01*
X131822082Y-109505721D01*
X131815031Y-109505678D01*
X131808254Y-109507615D01*
X131808253Y-109507615D01*
X131697735Y-109539201D01*
X131697733Y-109539202D01*
X131690955Y-109541139D01*
X131581819Y-109609999D01*
X131496396Y-109706722D01*
X131441554Y-109823532D01*
X131421701Y-109951040D01*
X131422616Y-109958037D01*
X131422616Y-109958038D01*
X131425867Y-109982902D01*
X131438433Y-110078994D01*
X131441272Y-110085446D01*
X131441273Y-110085450D01*
X131459832Y-110127629D01*
X131465962Y-110188506D01*
X131435138Y-110241360D01*
X131379134Y-110266002D01*
X131369216Y-110266500D01*
X129345190Y-110266500D01*
X129286999Y-110247593D01*
X129275186Y-110237504D01*
X128841234Y-109803552D01*
X128828069Y-109787249D01*
X128826756Y-109785215D01*
X128826753Y-109785211D01*
X128822314Y-109778337D01*
X128797157Y-109758504D01*
X128792752Y-109754590D01*
X128792751Y-109754591D01*
X128789620Y-109751938D01*
X128786743Y-109749061D01*
X128771888Y-109738445D01*
X128768170Y-109735654D01*
X128764066Y-109732418D01*
X128730678Y-109706097D01*
X128723371Y-109703531D01*
X128722126Y-109702884D01*
X128715820Y-109698378D01*
X128684031Y-109688871D01*
X128670074Y-109684697D01*
X128665638Y-109683256D01*
X128626456Y-109669496D01*
X128626453Y-109669495D01*
X128620583Y-109667434D01*
X128615445Y-109666989D01*
X128613307Y-109666989D01*
X128611588Y-109666915D01*
X128610227Y-109666800D01*
X128604025Y-109664945D01*
X128595854Y-109665266D01*
X128553935Y-109666913D01*
X128550048Y-109666989D01*
X124085070Y-109666989D01*
X124066070Y-109665149D01*
X124054877Y-109662960D01*
X124054875Y-109662960D01*
X124050110Y-109662028D01*
X123996476Y-109662201D01*
X123996404Y-109662201D01*
X123995928Y-109662204D01*
X123995303Y-109662208D01*
X123938572Y-109662715D01*
X123938570Y-109662502D01*
X123937831Y-109662492D01*
X123937834Y-109662723D01*
X123888389Y-109663333D01*
X123888333Y-109663330D01*
X123888333Y-109663333D01*
X123844676Y-109663850D01*
X123844198Y-109663855D01*
X123806075Y-109664086D01*
X123805049Y-109664086D01*
X123770290Y-109663890D01*
X123768635Y-109663867D01*
X123759190Y-109663654D01*
X123735167Y-109663112D01*
X123733199Y-109663048D01*
X123698566Y-109661577D01*
X123696570Y-109661472D01*
X123658287Y-109659071D01*
X123656489Y-109658942D01*
X123648864Y-109658324D01*
X123633161Y-109657052D01*
X123633158Y-109657052D01*
X123617826Y-109655810D01*
X123574407Y-109656897D01*
X123569680Y-109657519D01*
X123556154Y-109658365D01*
X123524243Y-109658170D01*
X123516282Y-109658121D01*
X123516281Y-109658121D01*
X123509231Y-109658078D01*
X123502454Y-109660015D01*
X123502453Y-109660015D01*
X123391935Y-109691601D01*
X123391933Y-109691602D01*
X123385155Y-109693539D01*
X123276019Y-109762399D01*
X123190596Y-109859122D01*
X123135754Y-109975932D01*
X123115901Y-110103440D01*
X122737437Y-110103440D01*
X122750571Y-110025372D01*
X122755363Y-109996891D01*
X122755363Y-109996886D01*
X122755997Y-109993120D01*
X122756133Y-109982000D01*
X122737839Y-109854259D01*
X122707371Y-109787249D01*
X122687349Y-109743212D01*
X122687348Y-109743211D01*
X122684428Y-109736788D01*
X122624669Y-109667434D01*
X122604798Y-109644372D01*
X122604797Y-109644371D01*
X122600193Y-109639028D01*
X122594276Y-109635193D01*
X122594274Y-109635191D01*
X122497824Y-109572677D01*
X122491906Y-109568841D01*
X122485150Y-109566821D01*
X122485149Y-109566820D01*
X122442335Y-109554016D01*
X122368273Y-109531866D01*
X122291644Y-109531398D01*
X122246282Y-109531121D01*
X122239231Y-109531078D01*
X122232454Y-109533015D01*
X122232453Y-109533015D01*
X122121935Y-109564601D01*
X122121933Y-109564602D01*
X122115155Y-109566539D01*
X122006019Y-109635399D01*
X121920596Y-109732122D01*
X121865754Y-109848932D01*
X121845901Y-109976440D01*
X120342337Y-109976440D01*
X120324839Y-109854259D01*
X120294371Y-109787249D01*
X120274349Y-109743212D01*
X120274348Y-109743211D01*
X120271428Y-109736788D01*
X120211669Y-109667434D01*
X120191798Y-109644372D01*
X120191797Y-109644371D01*
X120187193Y-109639028D01*
X120181276Y-109635193D01*
X120181274Y-109635191D01*
X120084824Y-109572677D01*
X120078906Y-109568841D01*
X120072150Y-109566821D01*
X120072149Y-109566820D01*
X120029335Y-109554016D01*
X119955273Y-109531866D01*
X119878644Y-109531398D01*
X119833282Y-109531121D01*
X119826231Y-109531078D01*
X119819454Y-109533015D01*
X119819453Y-109533015D01*
X119708935Y-109564601D01*
X119708933Y-109564602D01*
X119702155Y-109566539D01*
X119593019Y-109635399D01*
X119507596Y-109732122D01*
X119452754Y-109848932D01*
X119432901Y-109976440D01*
X119433816Y-109983437D01*
X119433816Y-109983439D01*
X119444603Y-110065932D01*
X119433400Y-110126083D01*
X119388981Y-110168161D01*
X119328312Y-110176094D01*
X119274567Y-110146852D01*
X119262971Y-110129624D01*
X119262147Y-110130151D01*
X119258349Y-110124213D01*
X119255428Y-110117788D01*
X119171193Y-110020028D01*
X119165276Y-110016193D01*
X119165274Y-110016191D01*
X119079235Y-109960425D01*
X119062906Y-109949841D01*
X119056150Y-109947821D01*
X119056149Y-109947820D01*
X119012921Y-109934892D01*
X118939273Y-109912866D01*
X118862644Y-109912398D01*
X118817282Y-109912121D01*
X118810231Y-109912078D01*
X118803454Y-109914015D01*
X118803453Y-109914015D01*
X118692935Y-109945601D01*
X118692933Y-109945602D01*
X118686155Y-109947539D01*
X118577019Y-110016399D01*
X118491596Y-110113122D01*
X118436754Y-110229932D01*
X118416901Y-110357440D01*
X108861500Y-110357440D01*
X108861500Y-109595440D01*
X117400901Y-109595440D01*
X117401816Y-109602437D01*
X117401816Y-109602438D01*
X117402778Y-109609791D01*
X117417633Y-109723394D01*
X117420471Y-109729845D01*
X117420472Y-109729847D01*
X117464038Y-109828859D01*
X117469605Y-109841510D01*
X117489774Y-109865504D01*
X117548100Y-109934892D01*
X117548103Y-109934894D01*
X117552639Y-109940291D01*
X117660060Y-110011796D01*
X117666788Y-110013898D01*
X117666790Y-110013899D01*
X117691709Y-110021684D01*
X117783233Y-110050278D01*
X117847744Y-110051460D01*
X117905202Y-110052514D01*
X117905204Y-110052514D01*
X117912255Y-110052643D01*
X117919058Y-110050788D01*
X117919060Y-110050788D01*
X117960828Y-110039400D01*
X118036755Y-110018700D01*
X118146724Y-109951179D01*
X118153042Y-109944199D01*
X118228590Y-109860735D01*
X118228590Y-109860734D01*
X118233322Y-109855507D01*
X118280317Y-109758511D01*
X118286512Y-109745724D01*
X118286512Y-109745723D01*
X118289588Y-109739375D01*
X118301766Y-109666989D01*
X118310363Y-109615891D01*
X118310363Y-109615886D01*
X118310997Y-109612120D01*
X118311133Y-109601000D01*
X118292839Y-109473259D01*
X118239428Y-109355788D01*
X118155193Y-109258028D01*
X118149276Y-109254193D01*
X118149274Y-109254191D01*
X118052824Y-109191677D01*
X118046906Y-109187841D01*
X118040150Y-109185821D01*
X118040149Y-109185820D01*
X117968212Y-109164306D01*
X117923273Y-109150866D01*
X117846644Y-109150398D01*
X117801282Y-109150121D01*
X117794231Y-109150078D01*
X117787454Y-109152015D01*
X117787453Y-109152015D01*
X117676935Y-109183601D01*
X117676933Y-109183602D01*
X117670155Y-109185539D01*
X117561019Y-109254399D01*
X117475596Y-109351122D01*
X117420754Y-109467932D01*
X117400901Y-109595440D01*
X108861500Y-109595440D01*
X108861500Y-108579440D01*
X122430101Y-108579440D01*
X122431016Y-108586437D01*
X122431016Y-108586438D01*
X122432775Y-108599891D01*
X122446833Y-108707394D01*
X122449671Y-108713845D01*
X122449672Y-108713847D01*
X122495964Y-108819054D01*
X122498805Y-108825510D01*
X122531906Y-108864888D01*
X122577300Y-108918892D01*
X122577303Y-108918894D01*
X122581839Y-108924291D01*
X122689260Y-108995796D01*
X122695988Y-108997898D01*
X122695990Y-108997899D01*
X122750847Y-109015037D01*
X122812433Y-109034278D01*
X122876944Y-109035460D01*
X122934402Y-109036514D01*
X122934404Y-109036514D01*
X122941455Y-109036643D01*
X122948258Y-109034788D01*
X122948260Y-109034788D01*
X122996507Y-109021634D01*
X123065955Y-109002700D01*
X123175924Y-108935179D01*
X123233101Y-108872011D01*
X123257790Y-108844735D01*
X123257790Y-108844734D01*
X123262522Y-108839507D01*
X123318788Y-108723375D01*
X123340197Y-108596120D01*
X123340333Y-108585000D01*
X123322039Y-108457259D01*
X123319848Y-108452440D01*
X131421701Y-108452440D01*
X131422616Y-108459437D01*
X131422616Y-108459438D01*
X131423882Y-108469120D01*
X131438433Y-108580394D01*
X131441271Y-108586845D01*
X131441272Y-108586847D01*
X131480765Y-108676602D01*
X131490405Y-108698510D01*
X131516643Y-108729724D01*
X131568900Y-108791892D01*
X131568903Y-108791894D01*
X131573439Y-108797291D01*
X131680860Y-108868796D01*
X131687588Y-108870898D01*
X131687590Y-108870899D01*
X131742447Y-108888037D01*
X131804033Y-108907278D01*
X131868544Y-108908460D01*
X131926002Y-108909514D01*
X131926004Y-108909514D01*
X131933055Y-108909643D01*
X131939858Y-108907788D01*
X131939860Y-108907788D01*
X131981628Y-108896400D01*
X132057555Y-108875700D01*
X132129361Y-108831611D01*
X138714994Y-108831611D01*
X138715649Y-108837544D01*
X138715649Y-108837548D01*
X138732944Y-108994204D01*
X138733599Y-109000135D01*
X138791866Y-109159356D01*
X138795191Y-109164305D01*
X138795192Y-109164306D01*
X138808158Y-109183601D01*
X138886430Y-109300083D01*
X139011833Y-109414191D01*
X139160835Y-109495092D01*
X139204190Y-109506466D01*
X139319064Y-109536603D01*
X139319068Y-109536604D01*
X139324833Y-109538116D01*
X139330794Y-109538210D01*
X139330797Y-109538210D01*
X139409596Y-109539447D01*
X139494360Y-109540779D01*
X139500175Y-109539447D01*
X139500177Y-109539447D01*
X139653806Y-109504262D01*
X139653809Y-109504261D01*
X139659629Y-109502928D01*
X139675210Y-109495092D01*
X139805765Y-109429429D01*
X139811098Y-109426747D01*
X139815635Y-109422872D01*
X139815638Y-109422870D01*
X139935488Y-109320508D01*
X139935491Y-109320505D01*
X139940023Y-109316634D01*
X139982136Y-109258028D01*
X140035477Y-109183796D01*
X140035478Y-109183794D01*
X140038961Y-109178947D01*
X140050567Y-109150078D01*
X140099977Y-109027167D01*
X140099978Y-109027165D01*
X140102201Y-109021634D01*
X140105579Y-108997899D01*
X140125634Y-108856985D01*
X140125634Y-108856979D01*
X140126090Y-108853778D01*
X140126245Y-108839000D01*
X140105876Y-108670680D01*
X140045945Y-108512077D01*
X140016422Y-108469120D01*
X139953292Y-108377267D01*
X139949912Y-108372349D01*
X139823321Y-108259560D01*
X139673481Y-108180224D01*
X139591261Y-108159571D01*
X139514831Y-108140373D01*
X139514828Y-108140373D01*
X139509041Y-108138919D01*
X139423441Y-108138471D01*
X139345461Y-108138062D01*
X139345459Y-108138062D01*
X139339495Y-108138031D01*
X139333699Y-108139423D01*
X139333695Y-108139423D01*
X139226303Y-108165207D01*
X139174632Y-108177612D01*
X139115520Y-108208122D01*
X139029275Y-108252636D01*
X139029273Y-108252638D01*
X139023969Y-108255375D01*
X138896204Y-108366831D01*
X138892773Y-108371713D01*
X138892772Y-108371714D01*
X138831119Y-108459438D01*
X138798713Y-108505547D01*
X138737124Y-108663513D01*
X138714994Y-108831611D01*
X132129361Y-108831611D01*
X132167524Y-108808179D01*
X132254122Y-108712507D01*
X132310388Y-108596375D01*
X132331797Y-108469120D01*
X132331933Y-108458000D01*
X132313639Y-108330259D01*
X132278346Y-108252636D01*
X132263149Y-108219212D01*
X132263148Y-108219211D01*
X132260228Y-108212788D01*
X132194829Y-108136888D01*
X132180598Y-108120372D01*
X132180597Y-108120371D01*
X132175993Y-108115028D01*
X132170076Y-108111193D01*
X132170074Y-108111191D01*
X132073624Y-108048677D01*
X132067706Y-108044841D01*
X132060950Y-108042821D01*
X132060949Y-108042820D01*
X132018135Y-108030016D01*
X131944073Y-108007866D01*
X131867444Y-108007398D01*
X131822082Y-108007121D01*
X131815031Y-108007078D01*
X131808254Y-108009015D01*
X131808253Y-108009015D01*
X131697735Y-108040601D01*
X131697733Y-108040602D01*
X131690955Y-108042539D01*
X131581819Y-108111399D01*
X131496396Y-108208122D01*
X131441554Y-108324932D01*
X131421701Y-108452440D01*
X123319848Y-108452440D01*
X123283144Y-108371714D01*
X123271549Y-108346212D01*
X123271548Y-108346211D01*
X123268628Y-108339788D01*
X123215595Y-108278240D01*
X123188998Y-108247372D01*
X123188997Y-108247371D01*
X123184393Y-108242028D01*
X123178476Y-108238193D01*
X123178474Y-108238191D01*
X123093349Y-108183017D01*
X123076106Y-108171841D01*
X123069350Y-108169821D01*
X123069349Y-108169820D01*
X123026535Y-108157016D01*
X122952473Y-108134866D01*
X122875844Y-108134398D01*
X122830482Y-108134121D01*
X122823431Y-108134078D01*
X122816654Y-108136015D01*
X122816653Y-108136015D01*
X122706135Y-108167601D01*
X122706133Y-108167602D01*
X122699355Y-108169539D01*
X122590219Y-108238399D01*
X122504796Y-108335122D01*
X122449954Y-108451932D01*
X122430101Y-108579440D01*
X108861500Y-108579440D01*
X108861500Y-105658440D01*
X114606901Y-105658440D01*
X114607816Y-105665437D01*
X114607816Y-105665438D01*
X114611025Y-105689975D01*
X114623633Y-105786394D01*
X114626471Y-105792845D01*
X114626472Y-105792847D01*
X114663188Y-105876291D01*
X114675605Y-105904510D01*
X114715742Y-105952259D01*
X114754100Y-105997892D01*
X114754103Y-105997894D01*
X114758639Y-106003291D01*
X114866060Y-106074796D01*
X114872788Y-106076898D01*
X114872790Y-106076899D01*
X114909514Y-106088372D01*
X114989233Y-106113278D01*
X115053744Y-106114460D01*
X115111202Y-106115514D01*
X115111204Y-106115514D01*
X115118255Y-106115643D01*
X115125058Y-106113788D01*
X115125060Y-106113788D01*
X115176736Y-106099699D01*
X115242755Y-106081700D01*
X115352724Y-106014179D01*
X115367466Y-105997892D01*
X115434590Y-105923735D01*
X115434590Y-105923734D01*
X115439322Y-105918507D01*
X115495588Y-105802375D01*
X115513838Y-105693899D01*
X115516363Y-105678891D01*
X115516363Y-105678886D01*
X115516997Y-105675120D01*
X115517133Y-105664000D01*
X115498839Y-105536259D01*
X115445428Y-105418788D01*
X115361193Y-105321028D01*
X115355276Y-105317193D01*
X115355274Y-105317191D01*
X115333132Y-105302840D01*
X120626701Y-105302840D01*
X120627616Y-105309837D01*
X120627616Y-105309838D01*
X120628578Y-105317191D01*
X120643433Y-105430794D01*
X120646271Y-105437245D01*
X120646272Y-105437247D01*
X120692564Y-105542454D01*
X120695405Y-105548910D01*
X120732381Y-105592898D01*
X120773900Y-105642292D01*
X120773903Y-105642294D01*
X120778439Y-105647691D01*
X120885860Y-105719196D01*
X120892588Y-105721298D01*
X120892590Y-105721299D01*
X120992427Y-105752490D01*
X121042331Y-105787890D01*
X121061898Y-105845863D01*
X121043652Y-105904264D01*
X121037109Y-105912520D01*
X121006196Y-105947522D01*
X120951354Y-106064332D01*
X120931501Y-106191840D01*
X120932416Y-106198837D01*
X120932416Y-106198838D01*
X120933682Y-106208520D01*
X120948233Y-106319794D01*
X120951071Y-106326245D01*
X120951072Y-106326247D01*
X120997364Y-106431454D01*
X121000205Y-106437910D01*
X121020259Y-106461767D01*
X121078700Y-106531292D01*
X121078703Y-106531294D01*
X121083239Y-106536691D01*
X121190660Y-106608196D01*
X121197388Y-106610298D01*
X121197390Y-106610299D01*
X121252246Y-106627437D01*
X121313833Y-106646678D01*
X121378344Y-106647860D01*
X121435802Y-106648914D01*
X121435804Y-106648914D01*
X121442855Y-106649043D01*
X121449658Y-106647188D01*
X121449660Y-106647188D01*
X121491428Y-106635800D01*
X121567355Y-106615100D01*
X121677324Y-106547579D01*
X121763922Y-106451907D01*
X121820188Y-106335775D01*
X121841597Y-106208520D01*
X121841733Y-106197400D01*
X121823439Y-106069659D01*
X121780794Y-105975866D01*
X121772949Y-105958612D01*
X121772948Y-105958611D01*
X121770028Y-105952188D01*
X121685793Y-105854428D01*
X121679876Y-105850593D01*
X121679874Y-105850591D01*
X121594750Y-105795418D01*
X121577506Y-105784241D01*
X121570750Y-105782221D01*
X121570749Y-105782220D01*
X121477005Y-105754184D01*
X121426672Y-105719396D01*
X121406399Y-105661667D01*
X121423931Y-105603047D01*
X121431975Y-105592898D01*
X121454390Y-105568135D01*
X121454390Y-105568134D01*
X121459122Y-105562907D01*
X121474368Y-105531440D01*
X122988901Y-105531440D01*
X122989816Y-105538437D01*
X122989816Y-105538438D01*
X122991082Y-105548120D01*
X123005633Y-105659394D01*
X123008471Y-105665845D01*
X123008472Y-105665847D01*
X123049919Y-105760043D01*
X123057605Y-105777510D01*
X123082351Y-105806949D01*
X123136100Y-105870892D01*
X123136103Y-105870894D01*
X123140639Y-105876291D01*
X123229235Y-105935265D01*
X123244393Y-105945355D01*
X123282357Y-105993339D01*
X123284866Y-106054473D01*
X123263740Y-106093302D01*
X123247955Y-106111175D01*
X123190596Y-106176122D01*
X123135754Y-106292932D01*
X123115901Y-106420440D01*
X123116816Y-106427437D01*
X123116816Y-106427438D01*
X123117770Y-106434735D01*
X123132633Y-106548394D01*
X123135471Y-106554845D01*
X123135472Y-106554847D01*
X123176919Y-106649043D01*
X123184605Y-106666510D01*
X123226122Y-106715901D01*
X123263100Y-106759892D01*
X123263103Y-106759894D01*
X123267639Y-106765291D01*
X123375060Y-106836796D01*
X123381788Y-106838898D01*
X123381790Y-106838899D01*
X123436646Y-106856037D01*
X123498233Y-106875278D01*
X123562744Y-106876461D01*
X123620202Y-106877514D01*
X123620204Y-106877514D01*
X123627255Y-106877643D01*
X123634058Y-106875788D01*
X123634060Y-106875788D01*
X123687027Y-106861347D01*
X123751755Y-106843700D01*
X123861724Y-106776179D01*
X123948322Y-106680507D01*
X124004588Y-106564375D01*
X124015596Y-106498941D01*
X124025363Y-106440891D01*
X124025363Y-106440886D01*
X124025997Y-106437120D01*
X124026133Y-106426000D01*
X124007839Y-106298259D01*
X123993268Y-106266211D01*
X138664194Y-106266211D01*
X138664849Y-106272144D01*
X138664849Y-106272148D01*
X138681993Y-106427438D01*
X138682799Y-106434735D01*
X138741066Y-106593956D01*
X138744391Y-106598905D01*
X138744392Y-106598906D01*
X138755274Y-106615100D01*
X138835630Y-106734683D01*
X138961033Y-106848791D01*
X139110035Y-106929692D01*
X139144989Y-106938862D01*
X139268264Y-106971203D01*
X139268268Y-106971204D01*
X139274033Y-106972716D01*
X139279994Y-106972810D01*
X139279997Y-106972810D01*
X139358796Y-106974047D01*
X139443560Y-106975379D01*
X139449375Y-106974047D01*
X139449377Y-106974047D01*
X139603006Y-106938862D01*
X139603009Y-106938861D01*
X139608829Y-106937528D01*
X139624410Y-106929692D01*
X139727897Y-106877643D01*
X139760298Y-106861347D01*
X139764835Y-106857472D01*
X139764838Y-106857470D01*
X139884688Y-106755108D01*
X139884691Y-106755105D01*
X139889223Y-106751234D01*
X139936289Y-106685735D01*
X139984677Y-106618396D01*
X139984678Y-106618394D01*
X139988161Y-106613547D01*
X140007929Y-106564375D01*
X140049177Y-106461767D01*
X140049178Y-106461765D01*
X140051401Y-106456234D01*
X140052920Y-106445562D01*
X140074834Y-106291585D01*
X140074834Y-106291579D01*
X140075290Y-106288378D01*
X140075445Y-106273600D01*
X140064421Y-106182504D01*
X140055793Y-106111202D01*
X140055792Y-106111199D01*
X140055076Y-106105280D01*
X139995145Y-105946677D01*
X139979378Y-105923735D01*
X139902492Y-105811867D01*
X139899112Y-105806949D01*
X139772521Y-105694160D01*
X139749034Y-105681724D01*
X139718274Y-105665438D01*
X139622681Y-105614824D01*
X139535391Y-105592898D01*
X139464031Y-105574973D01*
X139464028Y-105574973D01*
X139458241Y-105573519D01*
X139372641Y-105573071D01*
X139294661Y-105572662D01*
X139294659Y-105572662D01*
X139288695Y-105572631D01*
X139282899Y-105574023D01*
X139282895Y-105574023D01*
X139175503Y-105599807D01*
X139123832Y-105612212D01*
X139065553Y-105642292D01*
X138978475Y-105687236D01*
X138978473Y-105687238D01*
X138973169Y-105689975D01*
X138845404Y-105801431D01*
X138841973Y-105806313D01*
X138841972Y-105806314D01*
X138751344Y-105935265D01*
X138747913Y-105940147D01*
X138743191Y-105952259D01*
X138694162Y-106078011D01*
X138686324Y-106098113D01*
X138685545Y-106104028D01*
X138685545Y-106104029D01*
X138684260Y-106113788D01*
X138664194Y-106266211D01*
X123993268Y-106266211D01*
X123954428Y-106180788D01*
X123894446Y-106111175D01*
X123874798Y-106088372D01*
X123874797Y-106088371D01*
X123870193Y-106083028D01*
X123770703Y-106018543D01*
X123732156Y-105971027D01*
X123728900Y-105909928D01*
X123751151Y-105869031D01*
X123816590Y-105796735D01*
X123816590Y-105796734D01*
X123821322Y-105791507D01*
X123877588Y-105675375D01*
X123891464Y-105592898D01*
X123898363Y-105551891D01*
X123898363Y-105551886D01*
X123898997Y-105548120D01*
X123899133Y-105537000D01*
X123880839Y-105409259D01*
X123862464Y-105368846D01*
X123830349Y-105298212D01*
X123830348Y-105298211D01*
X123827428Y-105291788D01*
X123762029Y-105215888D01*
X123747798Y-105199372D01*
X123747797Y-105199371D01*
X123743193Y-105194028D01*
X123737276Y-105190193D01*
X123737274Y-105190191D01*
X123640824Y-105127677D01*
X123634906Y-105123841D01*
X123628150Y-105121821D01*
X123628149Y-105121820D01*
X123585335Y-105109016D01*
X123511273Y-105086866D01*
X123434644Y-105086398D01*
X123389282Y-105086121D01*
X123382231Y-105086078D01*
X123375454Y-105088015D01*
X123375453Y-105088015D01*
X123264935Y-105119601D01*
X123264933Y-105119602D01*
X123258155Y-105121539D01*
X123149019Y-105190399D01*
X123063596Y-105287122D01*
X123008754Y-105403932D01*
X122988901Y-105531440D01*
X121474368Y-105531440D01*
X121515388Y-105446775D01*
X121526396Y-105381341D01*
X121536163Y-105323291D01*
X121536163Y-105323286D01*
X121536797Y-105319520D01*
X121536933Y-105308400D01*
X121518639Y-105180659D01*
X121475655Y-105086121D01*
X121468149Y-105069612D01*
X121468148Y-105069611D01*
X121465228Y-105063188D01*
X121380993Y-104965428D01*
X121375076Y-104961593D01*
X121375074Y-104961591D01*
X121278624Y-104899077D01*
X121272706Y-104895241D01*
X121265950Y-104893221D01*
X121265949Y-104893220D01*
X121223135Y-104880416D01*
X121149073Y-104858266D01*
X121072444Y-104857798D01*
X121027082Y-104857521D01*
X121020031Y-104857478D01*
X121013254Y-104859415D01*
X121013253Y-104859415D01*
X120902735Y-104891001D01*
X120902733Y-104891002D01*
X120895955Y-104892939D01*
X120786819Y-104961799D01*
X120701396Y-105058522D01*
X120646554Y-105175332D01*
X120626701Y-105302840D01*
X115333132Y-105302840D01*
X115258824Y-105254677D01*
X115252906Y-105250841D01*
X115246150Y-105248821D01*
X115246149Y-105248820D01*
X115203335Y-105236016D01*
X115129273Y-105213866D01*
X115052644Y-105213398D01*
X115007282Y-105213121D01*
X115000231Y-105213078D01*
X114993454Y-105215015D01*
X114993453Y-105215015D01*
X114882935Y-105246601D01*
X114882933Y-105246602D01*
X114876155Y-105248539D01*
X114767019Y-105317399D01*
X114681596Y-105414122D01*
X114626754Y-105530932D01*
X114606901Y-105658440D01*
X108861500Y-105658440D01*
X108861500Y-103272111D01*
X125580094Y-103272111D01*
X125580749Y-103278044D01*
X125580749Y-103278048D01*
X125597274Y-103427727D01*
X125598699Y-103440635D01*
X125656966Y-103599856D01*
X125660291Y-103604805D01*
X125660292Y-103604806D01*
X125673389Y-103624296D01*
X125751530Y-103740583D01*
X125876933Y-103854691D01*
X126025935Y-103935592D01*
X126060889Y-103944762D01*
X126184164Y-103977103D01*
X126184168Y-103977104D01*
X126189933Y-103978616D01*
X126195894Y-103978710D01*
X126195897Y-103978710D01*
X126274665Y-103979947D01*
X126359460Y-103981279D01*
X126365275Y-103979947D01*
X126365277Y-103979947D01*
X126518906Y-103944762D01*
X126518909Y-103944761D01*
X126524729Y-103943428D01*
X126540310Y-103935592D01*
X126670865Y-103869929D01*
X126676198Y-103867247D01*
X126680735Y-103863372D01*
X126680738Y-103863370D01*
X126800588Y-103761008D01*
X126800591Y-103761005D01*
X126805123Y-103757134D01*
X126822819Y-103732508D01*
X126880785Y-103651840D01*
X131421701Y-103651840D01*
X131422616Y-103658837D01*
X131422616Y-103658838D01*
X131423882Y-103668520D01*
X131438433Y-103779794D01*
X131441271Y-103786245D01*
X131441272Y-103786247D01*
X131465553Y-103841429D01*
X131490405Y-103897910D01*
X131519685Y-103932743D01*
X131568900Y-103991292D01*
X131568903Y-103991294D01*
X131573439Y-103996691D01*
X131680860Y-104068196D01*
X131687588Y-104070298D01*
X131687590Y-104070299D01*
X131742447Y-104087437D01*
X131804033Y-104106678D01*
X131868544Y-104107860D01*
X131926002Y-104108914D01*
X131926004Y-104108914D01*
X131933055Y-104109043D01*
X131939858Y-104107188D01*
X131939860Y-104107188D01*
X131981628Y-104095800D01*
X132057555Y-104075100D01*
X132167524Y-104007579D01*
X132219537Y-103950116D01*
X132249390Y-103917135D01*
X132249390Y-103917134D01*
X132254122Y-103911907D01*
X132310388Y-103795775D01*
X132324468Y-103712083D01*
X132331163Y-103672291D01*
X132331163Y-103672286D01*
X132331797Y-103668520D01*
X132331933Y-103657400D01*
X132313639Y-103529659D01*
X132272495Y-103439167D01*
X132263149Y-103418612D01*
X132263148Y-103418611D01*
X132260228Y-103412188D01*
X132175993Y-103314428D01*
X132170076Y-103310593D01*
X132170074Y-103310591D01*
X132073624Y-103248077D01*
X132067706Y-103244241D01*
X132065599Y-103243611D01*
X138740394Y-103243611D01*
X138741049Y-103249544D01*
X138741049Y-103249548D01*
X138748212Y-103314428D01*
X138758999Y-103412135D01*
X138817266Y-103571356D01*
X138820591Y-103576305D01*
X138820592Y-103576306D01*
X138849582Y-103619447D01*
X138911830Y-103712083D01*
X139037233Y-103826191D01*
X139186235Y-103907092D01*
X139221189Y-103916262D01*
X139344464Y-103948603D01*
X139344468Y-103948604D01*
X139350233Y-103950116D01*
X139356194Y-103950210D01*
X139356197Y-103950210D01*
X139434996Y-103951447D01*
X139519760Y-103952779D01*
X139525575Y-103951447D01*
X139525577Y-103951447D01*
X139679206Y-103916262D01*
X139679209Y-103916261D01*
X139685029Y-103914928D01*
X139700610Y-103907092D01*
X139760764Y-103876837D01*
X139836498Y-103838747D01*
X139841035Y-103834872D01*
X139841038Y-103834870D01*
X139960888Y-103732508D01*
X139960891Y-103732505D01*
X139965423Y-103728634D01*
X139980875Y-103707130D01*
X140060877Y-103595796D01*
X140060878Y-103595794D01*
X140064361Y-103590947D01*
X140086192Y-103536643D01*
X140125377Y-103439167D01*
X140125378Y-103439165D01*
X140127601Y-103433634D01*
X140130661Y-103412135D01*
X140151034Y-103268985D01*
X140151034Y-103268979D01*
X140151490Y-103265778D01*
X140151645Y-103251000D01*
X140134725Y-103111180D01*
X140131993Y-103088602D01*
X140131992Y-103088599D01*
X140131276Y-103082680D01*
X140071345Y-102924077D01*
X139975312Y-102784349D01*
X139848721Y-102671560D01*
X139698881Y-102592224D01*
X139616661Y-102571572D01*
X139540231Y-102552373D01*
X139540228Y-102552373D01*
X139534441Y-102550919D01*
X139448841Y-102550471D01*
X139370861Y-102550062D01*
X139370859Y-102550062D01*
X139364895Y-102550031D01*
X139359099Y-102551423D01*
X139359095Y-102551423D01*
X139251703Y-102577207D01*
X139200032Y-102589612D01*
X139147513Y-102616719D01*
X139054675Y-102664636D01*
X139054673Y-102664638D01*
X139049369Y-102667375D01*
X138921604Y-102778831D01*
X138918173Y-102783713D01*
X138918172Y-102783714D01*
X138898142Y-102812214D01*
X138824113Y-102917547D01*
X138762524Y-103075513D01*
X138740394Y-103243611D01*
X132065599Y-103243611D01*
X132060950Y-103242221D01*
X132060949Y-103242220D01*
X132018135Y-103229416D01*
X131944073Y-103207266D01*
X131867444Y-103206798D01*
X131822082Y-103206521D01*
X131815031Y-103206478D01*
X131808254Y-103208415D01*
X131808253Y-103208415D01*
X131697735Y-103240001D01*
X131697733Y-103240002D01*
X131690955Y-103241939D01*
X131684991Y-103245702D01*
X131676594Y-103251000D01*
X131581819Y-103310799D01*
X131496396Y-103407522D01*
X131441554Y-103524332D01*
X131421701Y-103651840D01*
X126880785Y-103651840D01*
X126900577Y-103624296D01*
X126900578Y-103624294D01*
X126904061Y-103619447D01*
X126937349Y-103536643D01*
X126965077Y-103467667D01*
X126965078Y-103467665D01*
X126967301Y-103462134D01*
X126973495Y-103418612D01*
X126990734Y-103297485D01*
X126990734Y-103297479D01*
X126991190Y-103294278D01*
X126991345Y-103279500D01*
X126970976Y-103111180D01*
X126911045Y-102952577D01*
X126891458Y-102924077D01*
X126818392Y-102817767D01*
X126815012Y-102812849D01*
X126688421Y-102700060D01*
X126538581Y-102620724D01*
X126456361Y-102600071D01*
X126379931Y-102580873D01*
X126379928Y-102580873D01*
X126374141Y-102579419D01*
X126288541Y-102578971D01*
X126210561Y-102578562D01*
X126210559Y-102578562D01*
X126204595Y-102578531D01*
X126198799Y-102579923D01*
X126198795Y-102579923D01*
X126135927Y-102595017D01*
X126039732Y-102618112D01*
X125964400Y-102656994D01*
X125894375Y-102693136D01*
X125894373Y-102693138D01*
X125889069Y-102695875D01*
X125761304Y-102807331D01*
X125757873Y-102812213D01*
X125757872Y-102812214D01*
X125679935Y-102923108D01*
X125663813Y-102946047D01*
X125661645Y-102951608D01*
X125608233Y-103088602D01*
X125602224Y-103104013D01*
X125580094Y-103272111D01*
X108861500Y-103272111D01*
X108861500Y-101975440D01*
X117395401Y-101975440D01*
X117396316Y-101982437D01*
X117396316Y-101982438D01*
X117397582Y-101992120D01*
X117412133Y-102103394D01*
X117414971Y-102109845D01*
X117414972Y-102109847D01*
X117461264Y-102215054D01*
X117464105Y-102221510D01*
X117502054Y-102266656D01*
X117542600Y-102314892D01*
X117542603Y-102314894D01*
X117547139Y-102320291D01*
X117654560Y-102391796D01*
X117661288Y-102393898D01*
X117661290Y-102393899D01*
X117716146Y-102411037D01*
X117777733Y-102430278D01*
X117842244Y-102431460D01*
X117899702Y-102432514D01*
X117899704Y-102432514D01*
X117906755Y-102432643D01*
X117913558Y-102430788D01*
X117913560Y-102430788D01*
X117955328Y-102419400D01*
X118031255Y-102398700D01*
X118141224Y-102331179D01*
X118181114Y-102287109D01*
X118223090Y-102240735D01*
X118223090Y-102240734D01*
X118227822Y-102235507D01*
X118284088Y-102119375D01*
X118296816Y-102043722D01*
X118299622Y-102027042D01*
X124220199Y-102027042D01*
X124221114Y-102034039D01*
X124221114Y-102034040D01*
X124222380Y-102043722D01*
X124236931Y-102154996D01*
X124239769Y-102161447D01*
X124239770Y-102161449D01*
X124272356Y-102235507D01*
X124288903Y-102273112D01*
X124324023Y-102314892D01*
X124367398Y-102366494D01*
X124367401Y-102366496D01*
X124371937Y-102371893D01*
X124479358Y-102443398D01*
X124486086Y-102445500D01*
X124486088Y-102445501D01*
X124540945Y-102462639D01*
X124602531Y-102481880D01*
X124667042Y-102483062D01*
X124724500Y-102484116D01*
X124724502Y-102484116D01*
X124731553Y-102484245D01*
X124738356Y-102482390D01*
X124738358Y-102482390D01*
X124780126Y-102471002D01*
X124856053Y-102450302D01*
X124966022Y-102382781D01*
X125052620Y-102287109D01*
X125108886Y-102170977D01*
X125130295Y-102043722D01*
X125130431Y-102032602D01*
X125128728Y-102020711D01*
X125139198Y-101960428D01*
X125183101Y-101917812D01*
X125200688Y-101911166D01*
X125268955Y-101892554D01*
X125268956Y-101892554D01*
X125275755Y-101890700D01*
X125385724Y-101823179D01*
X125414746Y-101791116D01*
X125467590Y-101732735D01*
X125467590Y-101732734D01*
X125472322Y-101727507D01*
X125528588Y-101611375D01*
X125539609Y-101545864D01*
X125549363Y-101487891D01*
X125549363Y-101487886D01*
X125549997Y-101484120D01*
X125550133Y-101473000D01*
X125531839Y-101345259D01*
X125478428Y-101227788D01*
X125394193Y-101130028D01*
X125388276Y-101126193D01*
X125388274Y-101126191D01*
X125291824Y-101063677D01*
X125285906Y-101059841D01*
X125279150Y-101057821D01*
X125279149Y-101057820D01*
X125207212Y-101036306D01*
X125162273Y-101022866D01*
X125085644Y-101022398D01*
X125040282Y-101022121D01*
X125033231Y-101022078D01*
X125026454Y-101024015D01*
X125026453Y-101024015D01*
X124915935Y-101055601D01*
X124915933Y-101055602D01*
X124909155Y-101057539D01*
X124800019Y-101126399D01*
X124714596Y-101223122D01*
X124659754Y-101339932D01*
X124639901Y-101467440D01*
X124642291Y-101485714D01*
X124631090Y-101545864D01*
X124586672Y-101587943D01*
X124571332Y-101593740D01*
X124496233Y-101615203D01*
X124496231Y-101615204D01*
X124489453Y-101617141D01*
X124483489Y-101620904D01*
X124462101Y-101634399D01*
X124380317Y-101686001D01*
X124294894Y-101782724D01*
X124240052Y-101899534D01*
X124220199Y-102027042D01*
X118299622Y-102027042D01*
X118304863Y-101995891D01*
X118304863Y-101995886D01*
X118305497Y-101992120D01*
X118305633Y-101981000D01*
X118287339Y-101853259D01*
X118233928Y-101735788D01*
X118174821Y-101667191D01*
X118154298Y-101643372D01*
X118154297Y-101643371D01*
X118149693Y-101638028D01*
X118143776Y-101634193D01*
X118143774Y-101634191D01*
X118047324Y-101571677D01*
X118041406Y-101567841D01*
X118034650Y-101565821D01*
X118034649Y-101565820D01*
X117975498Y-101548130D01*
X117917773Y-101530866D01*
X117841144Y-101530398D01*
X117795782Y-101530121D01*
X117788731Y-101530078D01*
X117781954Y-101532015D01*
X117781953Y-101532015D01*
X117671435Y-101563601D01*
X117671433Y-101563602D01*
X117664655Y-101565539D01*
X117555519Y-101634399D01*
X117470096Y-101731122D01*
X117415254Y-101847932D01*
X117395401Y-101975440D01*
X108861500Y-101975440D01*
X108861500Y-101084611D01*
X113467394Y-101084611D01*
X113468049Y-101090544D01*
X113468049Y-101090548D01*
X113483390Y-101229504D01*
X113485999Y-101253135D01*
X113544266Y-101412356D01*
X113547591Y-101417305D01*
X113547592Y-101417306D01*
X113560689Y-101436796D01*
X113638830Y-101553083D01*
X113764233Y-101667191D01*
X113913235Y-101748092D01*
X113948189Y-101757262D01*
X114071464Y-101789603D01*
X114071468Y-101789604D01*
X114077233Y-101791116D01*
X114083194Y-101791210D01*
X114083197Y-101791210D01*
X114161996Y-101792447D01*
X114246760Y-101793779D01*
X114252575Y-101792447D01*
X114252577Y-101792447D01*
X114406206Y-101757262D01*
X114406209Y-101757261D01*
X114412029Y-101755928D01*
X114427610Y-101748092D01*
X114558165Y-101682429D01*
X114563498Y-101679747D01*
X114568035Y-101675872D01*
X114568038Y-101675870D01*
X114687888Y-101573508D01*
X114687891Y-101573505D01*
X114692423Y-101569634D01*
X114707875Y-101548130D01*
X114787877Y-101436796D01*
X114787878Y-101436794D01*
X114791361Y-101431947D01*
X114799105Y-101412685D01*
X114852377Y-101280167D01*
X114852378Y-101280165D01*
X114854601Y-101274634D01*
X114866289Y-101192508D01*
X114878034Y-101109985D01*
X114878034Y-101109979D01*
X114878490Y-101106778D01*
X114878645Y-101092000D01*
X114858276Y-100923680D01*
X114798345Y-100765077D01*
X114773540Y-100728985D01*
X114756101Y-100703611D01*
X138689594Y-100703611D01*
X138690249Y-100709544D01*
X138690249Y-100709548D01*
X138696996Y-100770659D01*
X138708199Y-100872135D01*
X138766466Y-101031356D01*
X138769791Y-101036305D01*
X138769792Y-101036306D01*
X138782758Y-101055601D01*
X138861030Y-101172083D01*
X138986433Y-101286191D01*
X139135435Y-101367092D01*
X139170389Y-101376262D01*
X139293664Y-101408603D01*
X139293668Y-101408604D01*
X139299433Y-101410116D01*
X139305394Y-101410210D01*
X139305397Y-101410210D01*
X139384165Y-101411447D01*
X139468960Y-101412779D01*
X139474775Y-101411447D01*
X139474777Y-101411447D01*
X139628406Y-101376262D01*
X139628409Y-101376261D01*
X139634229Y-101374928D01*
X139649810Y-101367092D01*
X139780365Y-101301429D01*
X139785698Y-101298747D01*
X139790235Y-101294872D01*
X139790238Y-101294870D01*
X139910088Y-101192508D01*
X139910091Y-101192505D01*
X139914623Y-101188634D01*
X139956736Y-101130028D01*
X140010077Y-101055796D01*
X140010078Y-101055794D01*
X140013561Y-101050947D01*
X140025167Y-101022078D01*
X140074577Y-100899167D01*
X140074578Y-100899165D01*
X140076801Y-100893634D01*
X140095235Y-100764108D01*
X140100234Y-100728985D01*
X140100234Y-100728979D01*
X140100690Y-100725778D01*
X140100845Y-100711000D01*
X140089338Y-100615908D01*
X140081193Y-100548602D01*
X140081192Y-100548599D01*
X140080476Y-100542680D01*
X140020545Y-100384077D01*
X139987321Y-100335735D01*
X139927892Y-100249267D01*
X139924512Y-100244349D01*
X139797921Y-100131560D01*
X139648081Y-100052224D01*
X139565861Y-100031572D01*
X139489431Y-100012373D01*
X139489428Y-100012373D01*
X139483641Y-100010919D01*
X139398041Y-100010471D01*
X139320061Y-100010062D01*
X139320059Y-100010062D01*
X139314095Y-100010031D01*
X139308299Y-100011423D01*
X139308295Y-100011423D01*
X139200903Y-100037207D01*
X139149232Y-100049612D01*
X139086011Y-100082243D01*
X139003875Y-100124636D01*
X139003873Y-100124638D01*
X138998569Y-100127375D01*
X138870804Y-100238831D01*
X138867373Y-100243713D01*
X138867372Y-100243714D01*
X138810742Y-100324291D01*
X138773313Y-100377547D01*
X138754405Y-100426042D01*
X138715715Y-100525278D01*
X138711724Y-100535513D01*
X138689594Y-100703611D01*
X114756101Y-100703611D01*
X114705692Y-100630267D01*
X114702312Y-100625349D01*
X114654074Y-100582370D01*
X114639025Y-100556617D01*
X114605034Y-100538677D01*
X114594550Y-100529336D01*
X114575721Y-100512560D01*
X114425881Y-100433224D01*
X114343661Y-100412572D01*
X114267231Y-100393373D01*
X114267228Y-100393373D01*
X114261441Y-100391919D01*
X114175841Y-100391471D01*
X114097861Y-100391062D01*
X114097859Y-100391062D01*
X114091895Y-100391031D01*
X114086099Y-100392423D01*
X114086095Y-100392423D01*
X113990847Y-100415291D01*
X113927032Y-100430612D01*
X113874924Y-100457507D01*
X113781675Y-100505636D01*
X113781673Y-100505638D01*
X113776369Y-100508375D01*
X113648604Y-100619831D01*
X113645173Y-100624713D01*
X113645172Y-100624714D01*
X113574143Y-100725778D01*
X113551113Y-100758547D01*
X113548945Y-100764108D01*
X113504642Y-100877739D01*
X113489524Y-100916513D01*
X113467394Y-101084611D01*
X108861500Y-101084611D01*
X108861500Y-100070440D01*
X114606901Y-100070440D01*
X114607816Y-100077437D01*
X114607816Y-100077438D01*
X114609082Y-100087120D01*
X114623633Y-100198394D01*
X114626471Y-100204845D01*
X114626472Y-100204847D01*
X114672764Y-100310054D01*
X114675605Y-100316510D01*
X114740215Y-100393373D01*
X114746675Y-100401058D01*
X114753747Y-100418518D01*
X114774790Y-100426042D01*
X114785770Y-100433351D01*
X114866060Y-100486796D01*
X114872788Y-100488898D01*
X114872790Y-100488899D01*
X114926363Y-100505636D01*
X114989233Y-100525278D01*
X115053744Y-100526460D01*
X115111202Y-100527514D01*
X115111204Y-100527514D01*
X115118255Y-100527643D01*
X115125058Y-100525788D01*
X115125060Y-100525788D01*
X115188928Y-100508375D01*
X115242755Y-100493700D01*
X115352724Y-100426179D01*
X115357459Y-100420948D01*
X115434590Y-100335735D01*
X115434590Y-100335734D01*
X115439322Y-100330507D01*
X115495588Y-100214375D01*
X115499708Y-100189884D01*
X119425345Y-100189884D01*
X119426260Y-100196881D01*
X119426260Y-100196882D01*
X119427060Y-100203000D01*
X119442077Y-100317838D01*
X119444915Y-100324289D01*
X119444916Y-100324291D01*
X119491208Y-100429498D01*
X119494049Y-100435954D01*
X119516561Y-100462735D01*
X119572544Y-100529336D01*
X119572547Y-100529338D01*
X119577083Y-100534735D01*
X119684504Y-100606240D01*
X119691232Y-100608342D01*
X119691234Y-100608343D01*
X119728006Y-100619831D01*
X119807677Y-100644722D01*
X119872188Y-100645905D01*
X119929646Y-100646958D01*
X119929648Y-100646958D01*
X119936699Y-100647087D01*
X119943502Y-100645232D01*
X119943504Y-100645232D01*
X119998393Y-100630267D01*
X120061199Y-100613144D01*
X120171168Y-100545623D01*
X120187443Y-100527643D01*
X120253034Y-100455179D01*
X120253034Y-100455178D01*
X120257766Y-100449951D01*
X120314032Y-100333819D01*
X120329752Y-100240381D01*
X120334807Y-100210335D01*
X120334807Y-100210330D01*
X120335441Y-100206564D01*
X120335553Y-100197440D01*
X127814901Y-100197440D01*
X127815816Y-100204437D01*
X127815816Y-100204438D01*
X127817575Y-100217891D01*
X127831633Y-100325394D01*
X127834471Y-100331845D01*
X127834472Y-100331847D01*
X127878439Y-100431770D01*
X127883605Y-100443510D01*
X127916705Y-100482887D01*
X127962100Y-100536892D01*
X127962103Y-100536894D01*
X127966639Y-100542291D01*
X128074060Y-100613796D01*
X128080788Y-100615898D01*
X128080790Y-100615899D01*
X128126780Y-100630267D01*
X128197233Y-100652278D01*
X128261744Y-100653460D01*
X128319202Y-100654514D01*
X128319204Y-100654514D01*
X128326255Y-100654643D01*
X128333058Y-100652788D01*
X128333060Y-100652788D01*
X128374828Y-100641400D01*
X128450755Y-100620700D01*
X128560724Y-100553179D01*
X128575466Y-100536892D01*
X128642590Y-100462735D01*
X128642590Y-100462734D01*
X128647322Y-100457507D01*
X128703588Y-100341375D01*
X128719084Y-100249267D01*
X128724363Y-100217891D01*
X128724363Y-100217886D01*
X128724997Y-100214120D01*
X128725133Y-100203000D01*
X128706839Y-100075259D01*
X128653428Y-99957788D01*
X128569193Y-99860028D01*
X128563276Y-99856193D01*
X128563274Y-99856191D01*
X128466824Y-99793677D01*
X128460906Y-99789841D01*
X128454150Y-99787821D01*
X128454149Y-99787820D01*
X128411335Y-99775016D01*
X128337273Y-99752866D01*
X128260644Y-99752398D01*
X128215282Y-99752121D01*
X128208231Y-99752078D01*
X128201454Y-99754015D01*
X128201453Y-99754015D01*
X128090935Y-99785601D01*
X128090933Y-99785602D01*
X128084155Y-99787539D01*
X127975019Y-99856399D01*
X127889596Y-99953122D01*
X127834754Y-100069932D01*
X127814901Y-100197440D01*
X120335553Y-100197440D01*
X120335577Y-100195444D01*
X120317283Y-100067703D01*
X120263872Y-99950232D01*
X120210839Y-99888684D01*
X120184242Y-99857816D01*
X120184241Y-99857815D01*
X120179637Y-99852472D01*
X120173720Y-99848637D01*
X120173718Y-99848635D01*
X120085262Y-99791302D01*
X120071350Y-99782285D01*
X120064594Y-99780265D01*
X120064593Y-99780264D01*
X120021779Y-99767460D01*
X119947717Y-99745310D01*
X119871088Y-99744842D01*
X119825726Y-99744565D01*
X119818675Y-99744522D01*
X119811898Y-99746459D01*
X119811897Y-99746459D01*
X119701379Y-99778045D01*
X119701377Y-99778046D01*
X119694599Y-99779983D01*
X119688635Y-99783746D01*
X119682178Y-99787820D01*
X119585463Y-99848843D01*
X119500040Y-99945566D01*
X119445198Y-100062376D01*
X119425345Y-100189884D01*
X115499708Y-100189884D01*
X115509521Y-100131560D01*
X115516363Y-100090891D01*
X115516363Y-100090886D01*
X115516997Y-100087120D01*
X115517133Y-100076000D01*
X115498839Y-99948259D01*
X115480464Y-99907846D01*
X115448349Y-99837212D01*
X115448348Y-99837211D01*
X115445428Y-99830788D01*
X115380029Y-99754888D01*
X115365798Y-99738372D01*
X115365797Y-99738371D01*
X115361193Y-99733028D01*
X115355276Y-99729193D01*
X115355274Y-99729191D01*
X115258824Y-99666677D01*
X115252906Y-99662841D01*
X115246150Y-99660821D01*
X115246149Y-99660820D01*
X115203335Y-99648016D01*
X115129273Y-99625866D01*
X115052644Y-99625398D01*
X115007282Y-99625121D01*
X115000231Y-99625078D01*
X114993454Y-99627015D01*
X114993453Y-99627015D01*
X114882935Y-99658601D01*
X114882933Y-99658602D01*
X114876155Y-99660539D01*
X114767019Y-99729399D01*
X114681596Y-99826122D01*
X114626754Y-99942932D01*
X114606901Y-100070440D01*
X108861500Y-100070440D01*
X108861500Y-99206654D01*
X108880407Y-99148463D01*
X108929907Y-99112499D01*
X108991093Y-99112499D01*
X109040593Y-99148463D01*
X109051116Y-99166782D01*
X109087605Y-99249710D01*
X109129122Y-99299100D01*
X109166100Y-99343092D01*
X109166103Y-99343094D01*
X109170639Y-99348491D01*
X109278060Y-99419996D01*
X109284788Y-99422098D01*
X109284790Y-99422099D01*
X109339646Y-99439237D01*
X109401233Y-99458478D01*
X109465744Y-99459660D01*
X109523202Y-99460714D01*
X109523204Y-99460714D01*
X109530255Y-99460843D01*
X109537058Y-99458988D01*
X109537060Y-99458988D01*
X109578828Y-99447600D01*
X109654755Y-99426900D01*
X109764724Y-99359379D01*
X109780374Y-99342089D01*
X109833442Y-99311635D01*
X109894275Y-99318190D01*
X109922116Y-99339205D01*
X109922843Y-99338391D01*
X109928099Y-99343090D01*
X109932639Y-99348491D01*
X110040060Y-99419996D01*
X110046788Y-99422098D01*
X110046790Y-99422099D01*
X110101646Y-99439237D01*
X110163233Y-99458478D01*
X110227744Y-99459660D01*
X110285202Y-99460714D01*
X110285204Y-99460714D01*
X110292255Y-99460843D01*
X110299058Y-99458988D01*
X110299060Y-99458988D01*
X110340828Y-99447600D01*
X110416755Y-99426900D01*
X110526724Y-99359379D01*
X110542374Y-99342089D01*
X110595442Y-99311635D01*
X110656275Y-99318190D01*
X110684116Y-99339205D01*
X110684843Y-99338391D01*
X110690099Y-99343090D01*
X110694639Y-99348491D01*
X110802060Y-99419996D01*
X110808788Y-99422098D01*
X110808790Y-99422099D01*
X110863646Y-99439237D01*
X110925233Y-99458478D01*
X110989744Y-99459660D01*
X111047202Y-99460714D01*
X111047204Y-99460714D01*
X111054255Y-99460843D01*
X111061058Y-99458988D01*
X111061060Y-99458988D01*
X111102828Y-99447600D01*
X111178755Y-99426900D01*
X111288724Y-99359379D01*
X111304374Y-99342089D01*
X111357442Y-99311635D01*
X111418275Y-99318190D01*
X111446116Y-99339205D01*
X111446843Y-99338391D01*
X111452099Y-99343090D01*
X111456639Y-99348491D01*
X111564060Y-99419996D01*
X111570788Y-99422098D01*
X111570790Y-99422099D01*
X111625646Y-99439237D01*
X111687233Y-99458478D01*
X111751744Y-99459660D01*
X111809202Y-99460714D01*
X111809204Y-99460714D01*
X111816255Y-99460843D01*
X111823058Y-99458988D01*
X111823060Y-99458988D01*
X111864828Y-99447600D01*
X111940755Y-99426900D01*
X112050724Y-99359379D01*
X112068985Y-99339205D01*
X112132590Y-99268935D01*
X112132590Y-99268934D01*
X112137322Y-99263707D01*
X112193588Y-99147575D01*
X112214997Y-99020320D01*
X112215133Y-99009200D01*
X112196839Y-98881459D01*
X112164285Y-98809860D01*
X112146349Y-98770412D01*
X112146348Y-98770411D01*
X112143428Y-98763988D01*
X112134855Y-98754038D01*
X112081744Y-98692399D01*
X112058083Y-98635973D01*
X112072107Y-98576417D01*
X112083345Y-98561340D01*
X112132590Y-98506935D01*
X112132590Y-98506934D01*
X112137322Y-98501707D01*
X112193588Y-98385575D01*
X112214997Y-98258320D01*
X112215133Y-98247200D01*
X112196839Y-98119459D01*
X112164285Y-98047860D01*
X112146349Y-98008412D01*
X112146348Y-98008411D01*
X112143428Y-98001988D01*
X112134855Y-97992038D01*
X112081744Y-97930399D01*
X112058083Y-97873973D01*
X112072107Y-97814417D01*
X112083345Y-97799340D01*
X112132590Y-97744935D01*
X112132590Y-97744934D01*
X112137322Y-97739707D01*
X112193588Y-97623575D01*
X112214997Y-97496320D01*
X112215133Y-97485200D01*
X112196839Y-97357459D01*
X112164285Y-97285860D01*
X112146349Y-97246412D01*
X112146348Y-97246411D01*
X112143428Y-97239988D01*
X112134855Y-97230038D01*
X112081744Y-97168399D01*
X112058083Y-97111973D01*
X112072107Y-97052417D01*
X112083345Y-97037340D01*
X112132590Y-96982935D01*
X112132590Y-96982934D01*
X112137322Y-96977707D01*
X112193588Y-96861575D01*
X112214997Y-96734320D01*
X112215133Y-96723200D01*
X112196839Y-96595459D01*
X112164285Y-96523860D01*
X112146349Y-96484412D01*
X112146348Y-96484411D01*
X112143428Y-96477988D01*
X112134855Y-96468038D01*
X112081744Y-96406399D01*
X112058083Y-96349973D01*
X112072107Y-96290417D01*
X112083345Y-96275340D01*
X112132590Y-96220935D01*
X112132590Y-96220934D01*
X112137322Y-96215707D01*
X112193588Y-96099575D01*
X112214997Y-95972320D01*
X112215133Y-95961200D01*
X112196839Y-95833459D01*
X112164285Y-95761860D01*
X112146349Y-95722412D01*
X112146348Y-95722411D01*
X112143428Y-95715988D01*
X112134855Y-95706038D01*
X112081744Y-95644399D01*
X112058083Y-95587973D01*
X112072107Y-95528417D01*
X112083345Y-95513340D01*
X112132590Y-95458935D01*
X112132590Y-95458934D01*
X112137322Y-95453707D01*
X112193588Y-95337575D01*
X112214997Y-95210320D01*
X112215133Y-95199200D01*
X112196839Y-95071459D01*
X112164285Y-94999860D01*
X112146349Y-94960412D01*
X112146348Y-94960411D01*
X112143428Y-94953988D01*
X112134855Y-94944038D01*
X112081744Y-94882399D01*
X112058083Y-94825973D01*
X112072107Y-94766417D01*
X112083345Y-94751340D01*
X112132590Y-94696935D01*
X112132590Y-94696934D01*
X112137322Y-94691707D01*
X112193588Y-94575575D01*
X112214997Y-94448320D01*
X112215133Y-94437200D01*
X112196839Y-94309459D01*
X112164285Y-94237860D01*
X112146349Y-94198412D01*
X112146348Y-94198411D01*
X112143428Y-94191988D01*
X112059193Y-94094228D01*
X112053276Y-94090393D01*
X112053274Y-94090391D01*
X111956824Y-94027877D01*
X111950906Y-94024041D01*
X111944150Y-94022021D01*
X111944149Y-94022020D01*
X111901335Y-94009216D01*
X111827273Y-93987066D01*
X111750644Y-93986598D01*
X111705282Y-93986321D01*
X111698231Y-93986278D01*
X111691454Y-93988215D01*
X111691453Y-93988215D01*
X111580935Y-94019801D01*
X111580933Y-94019802D01*
X111574155Y-94021739D01*
X111465019Y-94090599D01*
X111454419Y-94102601D01*
X111453612Y-94103515D01*
X111400920Y-94134615D01*
X111340011Y-94128803D01*
X111304409Y-94102602D01*
X111297193Y-94094228D01*
X111291276Y-94090393D01*
X111291274Y-94090391D01*
X111194824Y-94027877D01*
X111188906Y-94024041D01*
X111182150Y-94022021D01*
X111182149Y-94022020D01*
X111139335Y-94009216D01*
X111065273Y-93987066D01*
X110988644Y-93986598D01*
X110943282Y-93986321D01*
X110936231Y-93986278D01*
X110929454Y-93988215D01*
X110929453Y-93988215D01*
X110818935Y-94019801D01*
X110818933Y-94019802D01*
X110812155Y-94021739D01*
X110703019Y-94090599D01*
X110692419Y-94102601D01*
X110691612Y-94103515D01*
X110638920Y-94134615D01*
X110578011Y-94128803D01*
X110542409Y-94102602D01*
X110535193Y-94094228D01*
X110529276Y-94090393D01*
X110529274Y-94090391D01*
X110432824Y-94027877D01*
X110426906Y-94024041D01*
X110420150Y-94022021D01*
X110420149Y-94022020D01*
X110377335Y-94009216D01*
X110303273Y-93987066D01*
X110226644Y-93986598D01*
X110181282Y-93986321D01*
X110174231Y-93986278D01*
X110167454Y-93988215D01*
X110167453Y-93988215D01*
X110056935Y-94019801D01*
X110056933Y-94019802D01*
X110050155Y-94021739D01*
X109941019Y-94090599D01*
X109930419Y-94102601D01*
X109929612Y-94103515D01*
X109876920Y-94134615D01*
X109816011Y-94128803D01*
X109780409Y-94102602D01*
X109773193Y-94094228D01*
X109767276Y-94090393D01*
X109767274Y-94090391D01*
X109670824Y-94027877D01*
X109664906Y-94024041D01*
X109658150Y-94022021D01*
X109658149Y-94022020D01*
X109615335Y-94009216D01*
X109541273Y-93987066D01*
X109464644Y-93986598D01*
X109419282Y-93986321D01*
X109412231Y-93986278D01*
X109405454Y-93988215D01*
X109405453Y-93988215D01*
X109294935Y-94019801D01*
X109294933Y-94019802D01*
X109288155Y-94021739D01*
X109179019Y-94090599D01*
X109093596Y-94187322D01*
X109081782Y-94212485D01*
X109050115Y-94279934D01*
X109008269Y-94324573D01*
X108948178Y-94336090D01*
X108892793Y-94310087D01*
X108863270Y-94256496D01*
X108861500Y-94237860D01*
X108861500Y-87522840D01*
X114937101Y-87522840D01*
X114938016Y-87529837D01*
X114938016Y-87529838D01*
X114939282Y-87539520D01*
X114953833Y-87650794D01*
X114956671Y-87657245D01*
X114956672Y-87657247D01*
X115002248Y-87760826D01*
X115005805Y-87768910D01*
X115038091Y-87807319D01*
X115084300Y-87862292D01*
X115084303Y-87862294D01*
X115088839Y-87867691D01*
X115196260Y-87939196D01*
X115202988Y-87941298D01*
X115202990Y-87941299D01*
X115257847Y-87958437D01*
X115319433Y-87977678D01*
X115383944Y-87978861D01*
X115441402Y-87979914D01*
X115441404Y-87979914D01*
X115448455Y-87980043D01*
X115455258Y-87978188D01*
X115455260Y-87978188D01*
X115497028Y-87966800D01*
X115572955Y-87946100D01*
X115682924Y-87878579D01*
X115697666Y-87862292D01*
X115764790Y-87788135D01*
X115764790Y-87788134D01*
X115769522Y-87782907D01*
X115785067Y-87750823D01*
X117085116Y-87750823D01*
X117086031Y-87757820D01*
X117086031Y-87757821D01*
X117089389Y-87783500D01*
X117090225Y-87796336D01*
X117090225Y-90218559D01*
X117088806Y-90231260D01*
X117088828Y-90231262D01*
X117088262Y-90238294D01*
X117086706Y-90245172D01*
X117087143Y-90252210D01*
X117090035Y-90298827D01*
X117090225Y-90304958D01*
X117090225Y-90321665D01*
X117090724Y-90325152D01*
X117090725Y-90325160D01*
X117091826Y-90332846D01*
X117092636Y-90340749D01*
X117095584Y-90388263D01*
X117097977Y-90394892D01*
X117097978Y-90394896D01*
X117099067Y-90397912D01*
X117103948Y-90417488D01*
X117105402Y-90427643D01*
X117108321Y-90434062D01*
X117108322Y-90434067D01*
X117125106Y-90470982D01*
X117128102Y-90478340D01*
X117144265Y-90523112D01*
X117150317Y-90531397D01*
X117160493Y-90548811D01*
X117164741Y-90558153D01*
X117169346Y-90563497D01*
X117195818Y-90594220D01*
X117200758Y-90600441D01*
X117209247Y-90612061D01*
X117220711Y-90623525D01*
X117225706Y-90628906D01*
X117258325Y-90666762D01*
X117264245Y-90670599D01*
X117265536Y-90671436D01*
X117281693Y-90684507D01*
X120248605Y-93651419D01*
X120256579Y-93661399D01*
X120256596Y-93661384D01*
X120261166Y-93666754D01*
X120264930Y-93672720D01*
X120270215Y-93677388D01*
X120270218Y-93677391D01*
X120305208Y-93708292D01*
X120309678Y-93712492D01*
X120321506Y-93724320D01*
X120330550Y-93731098D01*
X120336699Y-93736104D01*
X120372388Y-93767623D01*
X120381671Y-93771982D01*
X120398966Y-93782373D01*
X120407176Y-93788526D01*
X120413782Y-93791002D01*
X120413783Y-93791003D01*
X120451752Y-93805237D01*
X120459074Y-93808323D01*
X120495775Y-93825554D01*
X120495776Y-93825554D01*
X120502163Y-93828553D01*
X120512300Y-93830131D01*
X120531816Y-93835252D01*
X120534816Y-93836377D01*
X120534818Y-93836377D01*
X120541419Y-93838852D01*
X120588904Y-93842381D01*
X120596792Y-93843287D01*
X120607228Y-93844912D01*
X120607236Y-93844913D01*
X120611009Y-93845500D01*
X120627208Y-93845500D01*
X120634545Y-93845772D01*
X120684391Y-93849476D01*
X120691286Y-93848004D01*
X120691288Y-93848004D01*
X120692800Y-93847681D01*
X120713467Y-93845500D01*
X141114740Y-93845500D01*
X141116555Y-93845517D01*
X141177845Y-93846641D01*
X141177847Y-93846641D01*
X141184899Y-93846770D01*
X141191702Y-93844915D01*
X141191705Y-93844915D01*
X141218173Y-93837699D01*
X141230176Y-93835213D01*
X141239458Y-93833884D01*
X141264318Y-93830323D01*
X141285661Y-93820619D01*
X141300597Y-93815227D01*
X141306139Y-93813716D01*
X141323217Y-93809060D01*
X141352609Y-93791013D01*
X141363430Y-93785260D01*
X141388404Y-93773905D01*
X141388405Y-93773904D01*
X141394828Y-93770984D01*
X141412590Y-93755679D01*
X141425412Y-93746312D01*
X141432043Y-93742241D01*
X141445391Y-93734045D01*
X141454194Y-93724320D01*
X141468534Y-93708476D01*
X141477311Y-93699911D01*
X141498093Y-93682005D01*
X141498094Y-93682003D01*
X141503437Y-93677400D01*
X141516194Y-93657719D01*
X141525866Y-93645137D01*
X141536865Y-93632985D01*
X141541600Y-93627754D01*
X141556637Y-93596718D01*
X141562653Y-93586041D01*
X141570832Y-93573422D01*
X141581415Y-93557095D01*
X141582094Y-93554824D01*
X141622202Y-93511508D01*
X141682222Y-93499621D01*
X141740508Y-93527921D01*
X141892842Y-93680255D01*
X141898621Y-93686557D01*
X141923831Y-93716549D01*
X141923834Y-93716552D01*
X141928370Y-93721948D01*
X141934241Y-93725856D01*
X141934242Y-93725857D01*
X141945694Y-93733480D01*
X141972717Y-93751468D01*
X141974099Y-93752388D01*
X141978614Y-93755579D01*
X142016928Y-93784294D01*
X142016932Y-93784296D01*
X142022576Y-93788526D01*
X142029180Y-93791002D01*
X142035365Y-93794388D01*
X142035228Y-93794638D01*
X142035354Y-93794702D01*
X142035476Y-93794446D01*
X142041843Y-93797483D01*
X142047713Y-93801390D01*
X142072264Y-93809060D01*
X142100152Y-93817773D01*
X142105381Y-93819569D01*
X142150210Y-93836375D01*
X142150217Y-93836376D01*
X142156820Y-93838852D01*
X142163855Y-93839375D01*
X142170744Y-93840889D01*
X142170683Y-93841165D01*
X142170817Y-93841191D01*
X142170862Y-93840911D01*
X142177825Y-93842039D01*
X142184557Y-93844142D01*
X142239472Y-93845149D01*
X142244985Y-93845404D01*
X142299792Y-93849476D01*
X142306693Y-93848003D01*
X142313727Y-93847523D01*
X142313746Y-93847806D01*
X142313883Y-93847793D01*
X142313848Y-93847512D01*
X142320846Y-93846640D01*
X142327899Y-93846770D01*
X142380911Y-93832317D01*
X142386267Y-93831016D01*
X142403200Y-93827402D01*
X142433105Y-93821019D01*
X142433108Y-93821018D01*
X142439999Y-93819547D01*
X142446202Y-93816201D01*
X142452824Y-93813764D01*
X142452921Y-93814029D01*
X142453054Y-93813976D01*
X142452941Y-93813716D01*
X142459413Y-93810915D01*
X142466217Y-93809060D01*
X142472444Y-93805237D01*
X142506549Y-93784296D01*
X142513033Y-93780315D01*
X142517818Y-93777558D01*
X142566171Y-93751468D01*
X142571191Y-93746509D01*
X142576858Y-93742315D01*
X142577028Y-93742544D01*
X142577134Y-93742461D01*
X142576952Y-93742241D01*
X142582377Y-93737737D01*
X142588391Y-93734045D01*
X142595803Y-93725857D01*
X142625258Y-93693315D01*
X142629081Y-93689322D01*
X142663143Y-93655673D01*
X142668163Y-93650714D01*
X142671588Y-93644548D01*
X142675854Y-93638928D01*
X142676079Y-93639099D01*
X142676157Y-93638989D01*
X142675922Y-93638831D01*
X142679865Y-93632985D01*
X142684600Y-93627754D01*
X142708547Y-93578326D01*
X142711095Y-93573422D01*
X142734351Y-93531554D01*
X142734351Y-93531553D01*
X142737778Y-93525384D01*
X142739335Y-93518500D01*
X142741850Y-93511915D01*
X142742115Y-93512016D01*
X142742161Y-93511886D01*
X142741890Y-93511799D01*
X142744034Y-93505081D01*
X142747110Y-93498733D01*
X142748280Y-93491780D01*
X142748281Y-93491776D01*
X142756220Y-93444582D01*
X142757285Y-93439176D01*
X142769419Y-93385553D01*
X142768982Y-93378514D01*
X142769548Y-93371485D01*
X142769829Y-93371508D01*
X142770172Y-93364954D01*
X142769920Y-93364931D01*
X142770262Y-93361126D01*
X142770896Y-93357354D01*
X142771047Y-93345000D01*
X142764299Y-93297879D01*
X142763489Y-93289976D01*
X142760978Y-93249500D01*
X142760978Y-93249498D01*
X142760541Y-93242462D01*
X142757058Y-93232813D01*
X142752177Y-93213236D01*
X142751723Y-93210064D01*
X142751723Y-93210063D01*
X142750723Y-93203082D01*
X142747804Y-93196663D01*
X142747803Y-93196658D01*
X142731019Y-93159743D01*
X142728023Y-93152385D01*
X142714255Y-93114248D01*
X142711860Y-93107613D01*
X142705808Y-93099328D01*
X142695632Y-93081914D01*
X142691384Y-93072572D01*
X142677672Y-93056659D01*
X142660307Y-93036505D01*
X142655367Y-93030284D01*
X142655053Y-93029854D01*
X142646878Y-93018664D01*
X142635414Y-93007200D01*
X142630419Y-93001819D01*
X142602405Y-92969307D01*
X142602404Y-92969306D01*
X142597800Y-92963963D01*
X142590589Y-92959289D01*
X142574432Y-92946218D01*
X141777795Y-92149581D01*
X141769821Y-92139601D01*
X141769804Y-92139616D01*
X141765234Y-92134246D01*
X141761470Y-92128280D01*
X141756185Y-92123612D01*
X141756182Y-92123609D01*
X141721192Y-92092708D01*
X141716722Y-92088508D01*
X141704894Y-92076680D01*
X141695847Y-92069900D01*
X141689701Y-92064896D01*
X141654012Y-92033377D01*
X141644729Y-92029018D01*
X141627434Y-92018627D01*
X141619224Y-92012474D01*
X141597447Y-92004310D01*
X141574654Y-91995765D01*
X141567334Y-91992680D01*
X141530626Y-91975446D01*
X141530622Y-91975445D01*
X141524237Y-91972447D01*
X141517269Y-91971362D01*
X141517265Y-91971361D01*
X141514108Y-91970870D01*
X141494580Y-91965747D01*
X141491580Y-91964622D01*
X141491578Y-91964622D01*
X141484980Y-91962148D01*
X141437492Y-91958619D01*
X141429607Y-91957713D01*
X141419172Y-91956088D01*
X141419164Y-91956087D01*
X141415391Y-91955500D01*
X141399191Y-91955500D01*
X141391855Y-91955228D01*
X141388565Y-91954984D01*
X141342008Y-91951524D01*
X141335113Y-91952996D01*
X141335111Y-91952996D01*
X141333599Y-91953319D01*
X141312932Y-91955500D01*
X121914322Y-91955500D01*
X121856131Y-91936593D01*
X121844318Y-91926504D01*
X119401496Y-89483682D01*
X119373719Y-89429165D01*
X119372500Y-89413678D01*
X119372500Y-87807319D01*
X119373872Y-87790894D01*
X119376862Y-87773124D01*
X119376862Y-87773120D01*
X119377496Y-87769354D01*
X119377647Y-87757000D01*
X119357323Y-87615082D01*
X119315383Y-87522840D01*
X119300905Y-87490996D01*
X119300904Y-87490995D01*
X119297984Y-87484572D01*
X119225680Y-87400659D01*
X119209005Y-87381307D01*
X119209004Y-87381306D01*
X119204400Y-87375963D01*
X119084095Y-87297985D01*
X118946739Y-87256907D01*
X118863497Y-87256398D01*
X118810427Y-87256074D01*
X118810426Y-87256074D01*
X118803376Y-87256031D01*
X118796599Y-87257968D01*
X118796598Y-87257968D01*
X118672309Y-87293490D01*
X118672307Y-87293491D01*
X118665529Y-87295428D01*
X118544280Y-87371930D01*
X118539613Y-87377214D01*
X118539611Y-87377216D01*
X118454044Y-87474103D01*
X118454042Y-87474105D01*
X118449377Y-87479388D01*
X118388447Y-87609163D01*
X118387362Y-87616132D01*
X118387361Y-87616135D01*
X118381965Y-87650794D01*
X118366391Y-87750823D01*
X118367306Y-87757820D01*
X118367306Y-87757821D01*
X118370664Y-87783500D01*
X118371500Y-87796336D01*
X118371500Y-89594834D01*
X118370081Y-89607535D01*
X118370103Y-89607537D01*
X118369537Y-89614569D01*
X118367981Y-89621447D01*
X118368418Y-89628485D01*
X118371310Y-89675102D01*
X118371500Y-89681233D01*
X118371500Y-89697940D01*
X118371999Y-89701427D01*
X118372000Y-89701435D01*
X118373101Y-89709121D01*
X118373911Y-89717024D01*
X118376859Y-89764538D01*
X118379252Y-89771167D01*
X118379253Y-89771171D01*
X118380342Y-89774187D01*
X118385223Y-89793763D01*
X118386677Y-89803918D01*
X118389596Y-89810337D01*
X118389597Y-89810342D01*
X118406381Y-89847257D01*
X118409377Y-89854615D01*
X118425540Y-89899387D01*
X118431592Y-89907672D01*
X118441768Y-89925086D01*
X118446016Y-89934428D01*
X118450621Y-89939772D01*
X118477093Y-89970495D01*
X118482033Y-89976716D01*
X118490522Y-89988336D01*
X118501986Y-89999800D01*
X118506981Y-90005181D01*
X118539600Y-90043037D01*
X118545520Y-90046874D01*
X118546811Y-90047711D01*
X118562968Y-90060782D01*
X121177682Y-92675496D01*
X121205459Y-92730013D01*
X121195888Y-92790445D01*
X121152623Y-92833710D01*
X121107678Y-92844500D01*
X120898322Y-92844500D01*
X120840131Y-92825593D01*
X120828318Y-92815504D01*
X118120221Y-90107407D01*
X118092444Y-90052890D01*
X118091225Y-90037403D01*
X118091225Y-87807319D01*
X118092597Y-87790894D01*
X118095587Y-87773124D01*
X118095587Y-87773120D01*
X118096221Y-87769354D01*
X118096372Y-87757000D01*
X118076048Y-87615082D01*
X118034108Y-87522840D01*
X118019630Y-87490996D01*
X118019629Y-87490995D01*
X118016709Y-87484572D01*
X117944405Y-87400659D01*
X117927730Y-87381307D01*
X117927729Y-87381306D01*
X117923125Y-87375963D01*
X117802820Y-87297985D01*
X117665464Y-87256907D01*
X117582222Y-87256398D01*
X117529152Y-87256074D01*
X117529151Y-87256074D01*
X117522101Y-87256031D01*
X117515324Y-87257968D01*
X117515323Y-87257968D01*
X117391034Y-87293490D01*
X117391032Y-87293491D01*
X117384254Y-87295428D01*
X117263005Y-87371930D01*
X117258338Y-87377214D01*
X117258336Y-87377216D01*
X117172769Y-87474103D01*
X117172767Y-87474105D01*
X117168102Y-87479388D01*
X117107172Y-87609163D01*
X117106087Y-87616132D01*
X117106086Y-87616135D01*
X117100690Y-87650794D01*
X117085116Y-87750823D01*
X115785067Y-87750823D01*
X115825788Y-87666775D01*
X115847197Y-87539520D01*
X115847333Y-87528400D01*
X115829039Y-87400659D01*
X115807741Y-87353816D01*
X115800868Y-87293018D01*
X115831044Y-87239791D01*
X115886742Y-87214467D01*
X115927384Y-87218344D01*
X115964169Y-87229836D01*
X115990425Y-87238039D01*
X115990426Y-87238039D01*
X115997157Y-87240142D01*
X116068828Y-87241456D01*
X116133445Y-87242641D01*
X116133447Y-87242641D01*
X116140499Y-87242770D01*
X116147302Y-87240915D01*
X116147304Y-87240915D01*
X116230092Y-87218344D01*
X116278817Y-87205060D01*
X116400991Y-87130045D01*
X116413069Y-87116702D01*
X116492468Y-87028982D01*
X116497200Y-87023754D01*
X116559710Y-86894733D01*
X116563875Y-86869982D01*
X116582862Y-86757124D01*
X116582862Y-86757120D01*
X116583496Y-86753354D01*
X116583647Y-86741000D01*
X116563323Y-86599082D01*
X116503984Y-86468572D01*
X116410400Y-86359963D01*
X116290095Y-86281985D01*
X116152739Y-86240907D01*
X116069497Y-86240398D01*
X116016427Y-86240074D01*
X116016426Y-86240074D01*
X116009376Y-86240031D01*
X116002599Y-86241968D01*
X116002598Y-86241968D01*
X115878309Y-86277490D01*
X115878307Y-86277491D01*
X115871529Y-86279428D01*
X115750280Y-86355930D01*
X115745613Y-86361214D01*
X115745611Y-86361216D01*
X115660044Y-86458103D01*
X115660042Y-86458105D01*
X115655377Y-86463388D01*
X115594447Y-86593163D01*
X115572391Y-86734823D01*
X115573306Y-86741820D01*
X115573306Y-86741821D01*
X115574814Y-86753354D01*
X115590980Y-86876979D01*
X115593821Y-86883435D01*
X115593821Y-86883436D01*
X115626606Y-86957945D01*
X115632736Y-87018822D01*
X115601912Y-87071677D01*
X115545909Y-87096319D01*
X115507624Y-87092666D01*
X115466235Y-87080288D01*
X115466233Y-87080288D01*
X115459473Y-87078266D01*
X115382844Y-87077798D01*
X115337482Y-87077521D01*
X115330431Y-87077478D01*
X115323654Y-87079415D01*
X115323653Y-87079415D01*
X115213135Y-87111001D01*
X115213133Y-87111002D01*
X115206355Y-87112939D01*
X115097219Y-87181799D01*
X115011796Y-87278522D01*
X114956954Y-87395332D01*
X114937101Y-87522840D01*
X108861500Y-87522840D01*
X108861500Y-83252736D01*
X112356070Y-83252736D01*
X112356698Y-83265807D01*
X112368909Y-83520041D01*
X112421118Y-83782512D01*
X112422358Y-83785967D01*
X112422359Y-83785969D01*
X112440315Y-83835979D01*
X112511549Y-84034383D01*
X112638215Y-84270121D01*
X112798335Y-84484547D01*
X112800953Y-84487142D01*
X112984323Y-84668918D01*
X112988390Y-84672950D01*
X113204205Y-84831192D01*
X113441039Y-84955797D01*
X113444510Y-84957009D01*
X113444512Y-84957010D01*
X113532927Y-84987886D01*
X113693690Y-85044026D01*
X113956606Y-85093943D01*
X114090309Y-85099196D01*
X114220343Y-85104305D01*
X114220346Y-85104305D01*
X114224013Y-85104449D01*
X114360669Y-85089483D01*
X114486394Y-85075714D01*
X114486397Y-85075713D01*
X114490035Y-85075315D01*
X114748829Y-85007180D01*
X114752204Y-85005730D01*
X114752207Y-85005729D01*
X114872412Y-84954085D01*
X114994710Y-84901542D01*
X114997827Y-84899613D01*
X114997833Y-84899610D01*
X115219149Y-84762655D01*
X115219154Y-84762651D01*
X115222275Y-84760720D01*
X115306221Y-84689655D01*
X115325953Y-84672950D01*
X115426526Y-84587809D01*
X115517085Y-84484547D01*
X115600550Y-84389374D01*
X115600554Y-84389369D01*
X115602976Y-84386607D01*
X115747747Y-84161534D01*
X115805025Y-84034383D01*
X115856153Y-83920882D01*
X115856154Y-83920880D01*
X115857661Y-83917534D01*
X115880662Y-83835979D01*
X115929305Y-83663505D01*
X115929306Y-83663502D01*
X115930302Y-83659969D01*
X115964075Y-83394495D01*
X115964759Y-83368365D01*
X115966484Y-83302492D01*
X115966484Y-83302487D01*
X115966549Y-83300000D01*
X115953679Y-83126811D01*
X124414794Y-83126811D01*
X124415449Y-83132744D01*
X124415449Y-83132748D01*
X124415966Y-83137431D01*
X124433399Y-83295335D01*
X124491666Y-83454556D01*
X124494991Y-83459505D01*
X124494992Y-83459506D01*
X124533207Y-83516376D01*
X124586230Y-83595283D01*
X124711633Y-83709391D01*
X124716882Y-83712241D01*
X124734758Y-83721947D01*
X124860635Y-83790292D01*
X124895589Y-83799462D01*
X125018864Y-83831803D01*
X125018868Y-83831804D01*
X125024633Y-83833316D01*
X125030594Y-83833410D01*
X125030597Y-83833410D01*
X125109396Y-83834647D01*
X125194160Y-83835979D01*
X125199975Y-83834647D01*
X125199977Y-83834647D01*
X125353606Y-83799462D01*
X125353609Y-83799461D01*
X125359429Y-83798128D01*
X125375010Y-83790292D01*
X125505565Y-83724629D01*
X125510898Y-83721947D01*
X125515435Y-83718072D01*
X125515438Y-83718070D01*
X125635288Y-83615708D01*
X125635291Y-83615705D01*
X125639823Y-83611834D01*
X125705783Y-83520041D01*
X125735277Y-83478996D01*
X125735278Y-83478994D01*
X125738761Y-83474147D01*
X125769790Y-83396962D01*
X125799777Y-83322367D01*
X125799778Y-83322365D01*
X125802001Y-83316834D01*
X125809263Y-83265807D01*
X125811123Y-83252736D01*
X143356070Y-83252736D01*
X143356698Y-83265807D01*
X143368909Y-83520041D01*
X143421118Y-83782512D01*
X143422358Y-83785967D01*
X143422359Y-83785969D01*
X143440315Y-83835979D01*
X143511549Y-84034383D01*
X143638215Y-84270121D01*
X143798335Y-84484547D01*
X143800953Y-84487142D01*
X143984323Y-84668918D01*
X143988390Y-84672950D01*
X144204205Y-84831192D01*
X144441039Y-84955797D01*
X144444510Y-84957009D01*
X144444512Y-84957010D01*
X144532927Y-84987886D01*
X144693690Y-85044026D01*
X144956606Y-85093943D01*
X145090309Y-85099196D01*
X145220343Y-85104305D01*
X145220346Y-85104305D01*
X145224013Y-85104449D01*
X145360669Y-85089483D01*
X145486394Y-85075714D01*
X145486397Y-85075713D01*
X145490035Y-85075315D01*
X145748829Y-85007180D01*
X145752204Y-85005730D01*
X145752207Y-85005729D01*
X145872412Y-84954085D01*
X145994710Y-84901542D01*
X145997827Y-84899613D01*
X145997833Y-84899610D01*
X146219149Y-84762655D01*
X146219154Y-84762651D01*
X146222275Y-84760720D01*
X146306221Y-84689655D01*
X146325953Y-84672950D01*
X146426526Y-84587809D01*
X146517085Y-84484547D01*
X146600550Y-84389374D01*
X146600554Y-84389369D01*
X146602976Y-84386607D01*
X146747747Y-84161534D01*
X146805025Y-84034383D01*
X146856153Y-83920882D01*
X146856154Y-83920880D01*
X146857661Y-83917534D01*
X146880662Y-83835979D01*
X146929305Y-83663505D01*
X146929306Y-83663502D01*
X146930302Y-83659969D01*
X146964075Y-83394495D01*
X146964759Y-83368365D01*
X146966484Y-83302492D01*
X146966484Y-83302487D01*
X146966549Y-83300000D01*
X146953239Y-83120890D01*
X146946989Y-83036777D01*
X146946988Y-83036771D01*
X146946717Y-83033123D01*
X146887655Y-82772109D01*
X146885478Y-82766509D01*
X146791992Y-82526111D01*
X146790662Y-82522691D01*
X146657868Y-82290350D01*
X146629728Y-82254654D01*
X146494469Y-82083080D01*
X146492190Y-82080189D01*
X146489517Y-82077675D01*
X146489512Y-82077669D01*
X146299941Y-81899339D01*
X146297269Y-81896825D01*
X146077385Y-81744286D01*
X145837371Y-81625924D01*
X145582497Y-81544338D01*
X145578880Y-81543749D01*
X145578876Y-81543748D01*
X145321983Y-81501911D01*
X145321978Y-81501911D01*
X145318364Y-81501322D01*
X145314699Y-81501274D01*
X145214651Y-81499964D01*
X145050774Y-81497819D01*
X145047146Y-81498313D01*
X145047142Y-81498313D01*
X144918189Y-81515863D01*
X144785605Y-81533907D01*
X144528683Y-81608792D01*
X144285652Y-81720831D01*
X144282585Y-81722842D01*
X144282581Y-81722844D01*
X144064918Y-81865551D01*
X144061851Y-81867562D01*
X144059119Y-81870001D01*
X144059117Y-81870002D01*
X143943916Y-81972823D01*
X143862197Y-82045760D01*
X143859850Y-82048582D01*
X143859849Y-82048583D01*
X143750963Y-82179504D01*
X143691075Y-82251512D01*
X143552244Y-82480298D01*
X143448755Y-82727091D01*
X143382881Y-82986470D01*
X143356070Y-83252736D01*
X125811123Y-83252736D01*
X125825434Y-83152185D01*
X125825434Y-83152179D01*
X125825890Y-83148978D01*
X125826045Y-83134200D01*
X125814374Y-83037760D01*
X125806393Y-82971802D01*
X125806392Y-82971799D01*
X125805676Y-82965880D01*
X125745745Y-82807277D01*
X125733066Y-82788828D01*
X125653092Y-82672467D01*
X125649712Y-82667549D01*
X125523121Y-82554760D01*
X125517620Y-82551847D01*
X125462553Y-82522691D01*
X125373281Y-82475424D01*
X125256547Y-82446102D01*
X125214631Y-82435573D01*
X125214628Y-82435573D01*
X125208841Y-82434119D01*
X125123241Y-82433671D01*
X125045261Y-82433262D01*
X125045259Y-82433262D01*
X125039295Y-82433231D01*
X125033499Y-82434623D01*
X125033495Y-82434623D01*
X124926103Y-82460407D01*
X124874432Y-82472812D01*
X124799100Y-82511694D01*
X124729075Y-82547836D01*
X124729073Y-82547838D01*
X124723769Y-82550575D01*
X124596004Y-82662031D01*
X124592573Y-82666913D01*
X124592572Y-82666914D01*
X124507013Y-82788653D01*
X124498513Y-82800747D01*
X124484808Y-82835899D01*
X124450436Y-82924058D01*
X124436924Y-82958713D01*
X124414794Y-83126811D01*
X115953679Y-83126811D01*
X115953239Y-83120890D01*
X115946989Y-83036777D01*
X115946988Y-83036771D01*
X115946717Y-83033123D01*
X115887655Y-82772109D01*
X115885478Y-82766509D01*
X115791992Y-82526111D01*
X115790662Y-82522691D01*
X115730506Y-82417440D01*
X134647501Y-82417440D01*
X134648416Y-82424437D01*
X134648416Y-82424438D01*
X134649566Y-82433231D01*
X134664233Y-82545394D01*
X134667071Y-82551845D01*
X134667072Y-82551847D01*
X134705273Y-82638665D01*
X134716205Y-82663510D01*
X134755697Y-82710492D01*
X134794700Y-82756892D01*
X134794703Y-82756894D01*
X134799239Y-82762291D01*
X134906660Y-82833796D01*
X134913388Y-82835898D01*
X134913390Y-82835899D01*
X134968246Y-82853037D01*
X135029833Y-82872278D01*
X135094344Y-82873461D01*
X135151802Y-82874514D01*
X135151804Y-82874514D01*
X135158855Y-82874643D01*
X135165658Y-82872788D01*
X135165660Y-82872788D01*
X135207428Y-82861400D01*
X135283355Y-82840700D01*
X135393324Y-82773179D01*
X135398059Y-82767948D01*
X135475190Y-82682735D01*
X135475190Y-82682734D01*
X135479922Y-82677507D01*
X135536188Y-82561375D01*
X135547196Y-82495941D01*
X135556963Y-82437891D01*
X135556963Y-82437886D01*
X135557597Y-82434120D01*
X135557733Y-82423000D01*
X135556937Y-82417440D01*
X140337101Y-82417440D01*
X140338016Y-82424437D01*
X140338016Y-82424438D01*
X140339166Y-82433231D01*
X140353833Y-82545394D01*
X140356671Y-82551845D01*
X140356672Y-82551847D01*
X140394873Y-82638665D01*
X140405805Y-82663510D01*
X140445297Y-82710492D01*
X140484300Y-82756892D01*
X140484303Y-82756894D01*
X140488839Y-82762291D01*
X140596260Y-82833796D01*
X140602988Y-82835898D01*
X140602990Y-82835899D01*
X140657846Y-82853037D01*
X140719433Y-82872278D01*
X140783944Y-82873461D01*
X140841402Y-82874514D01*
X140841404Y-82874514D01*
X140848455Y-82874643D01*
X140855258Y-82872788D01*
X140855260Y-82872788D01*
X140897028Y-82861400D01*
X140972955Y-82840700D01*
X141082924Y-82773179D01*
X141087659Y-82767948D01*
X141164790Y-82682735D01*
X141164790Y-82682734D01*
X141169522Y-82677507D01*
X141225788Y-82561375D01*
X141236796Y-82495941D01*
X141246563Y-82437891D01*
X141246563Y-82437886D01*
X141247197Y-82434120D01*
X141247333Y-82423000D01*
X141229039Y-82295259D01*
X141175628Y-82177788D01*
X141091393Y-82080028D01*
X141085476Y-82076193D01*
X141085474Y-82076191D01*
X140989024Y-82013677D01*
X140983106Y-82009841D01*
X140976350Y-82007821D01*
X140976349Y-82007820D01*
X140933535Y-81995016D01*
X140859473Y-81972866D01*
X140782844Y-81972398D01*
X140737482Y-81972121D01*
X140730431Y-81972078D01*
X140723654Y-81974015D01*
X140723653Y-81974015D01*
X140613135Y-82005601D01*
X140613133Y-82005602D01*
X140606355Y-82007539D01*
X140497219Y-82076399D01*
X140411796Y-82173122D01*
X140356954Y-82289932D01*
X140337101Y-82417440D01*
X135556937Y-82417440D01*
X135539439Y-82295259D01*
X135486028Y-82177788D01*
X135401793Y-82080028D01*
X135395876Y-82076193D01*
X135395874Y-82076191D01*
X135299424Y-82013677D01*
X135293506Y-82009841D01*
X135286750Y-82007821D01*
X135286749Y-82007820D01*
X135243935Y-81995016D01*
X135169873Y-81972866D01*
X135093244Y-81972398D01*
X135047882Y-81972121D01*
X135040831Y-81972078D01*
X135034054Y-81974015D01*
X135034053Y-81974015D01*
X134923535Y-82005601D01*
X134923533Y-82005602D01*
X134916755Y-82007539D01*
X134807619Y-82076399D01*
X134722196Y-82173122D01*
X134667354Y-82289932D01*
X134647501Y-82417440D01*
X115730506Y-82417440D01*
X115657868Y-82290350D01*
X115629728Y-82254654D01*
X115494469Y-82083080D01*
X115492190Y-82080189D01*
X115489517Y-82077675D01*
X115489512Y-82077669D01*
X115299941Y-81899339D01*
X115297269Y-81896825D01*
X115077385Y-81744286D01*
X114837371Y-81625924D01*
X114582497Y-81544338D01*
X114578880Y-81543749D01*
X114578876Y-81543748D01*
X114321983Y-81501911D01*
X114321978Y-81501911D01*
X114318364Y-81501322D01*
X114314699Y-81501274D01*
X114214651Y-81499964D01*
X114050774Y-81497819D01*
X114047146Y-81498313D01*
X114047142Y-81498313D01*
X113918189Y-81515863D01*
X113785605Y-81533907D01*
X113528683Y-81608792D01*
X113285652Y-81720831D01*
X113282585Y-81722842D01*
X113282581Y-81722844D01*
X113064918Y-81865551D01*
X113061851Y-81867562D01*
X113059119Y-81870001D01*
X113059117Y-81870002D01*
X112943916Y-81972823D01*
X112862197Y-82045760D01*
X112859850Y-82048582D01*
X112859849Y-82048583D01*
X112750963Y-82179504D01*
X112691075Y-82251512D01*
X112552244Y-82480298D01*
X112448755Y-82727091D01*
X112382881Y-82986470D01*
X112356070Y-83252736D01*
X108861500Y-83252736D01*
X108861500Y-82924058D01*
X108880407Y-82865867D01*
X108890496Y-82854054D01*
X113715054Y-78029496D01*
X113769571Y-78001719D01*
X113785058Y-78000500D01*
X145536942Y-78000500D01*
X145595133Y-78019407D01*
G37*
%TD.AperFunction*%
%TD*%
%TA.AperFunction,Conductor*%
%TO.N,/TEMP*%
G36*
X123616565Y-109861881D02*
G01*
X123642587Y-109863990D01*
X123642616Y-109863992D01*
X123642631Y-109863993D01*
X123686700Y-109866757D01*
X123686716Y-109866758D01*
X123686783Y-109866762D01*
X123727515Y-109868492D01*
X123766532Y-109869372D01*
X123805581Y-109869593D01*
X123846411Y-109869345D01*
X123890770Y-109868819D01*
X123940370Y-109868207D01*
X123940408Y-109868223D01*
X123940408Y-109868207D01*
X123997072Y-109867700D01*
X123997139Y-109867700D01*
X124050773Y-109867527D01*
X124059057Y-109870927D01*
X124062511Y-109879227D01*
X124062511Y-110155976D01*
X124059084Y-110164249D01*
X124050999Y-110167674D01*
X124018321Y-110168197D01*
X124016164Y-110168232D01*
X124016163Y-110168232D01*
X124016041Y-110168234D01*
X124015946Y-110168240D01*
X124015934Y-110168240D01*
X123975264Y-110170632D01*
X123975262Y-110170632D01*
X123975095Y-110170642D01*
X123938891Y-110174972D01*
X123906649Y-110181482D01*
X123906386Y-110181563D01*
X123906378Y-110181565D01*
X123877907Y-110190331D01*
X123877904Y-110190332D01*
X123877586Y-110190430D01*
X123877286Y-110190561D01*
X123877278Y-110190564D01*
X123856615Y-110199589D01*
X123850922Y-110202075D01*
X123825876Y-110216675D01*
X123801665Y-110234488D01*
X123777508Y-110255774D01*
X123777379Y-110255904D01*
X123758221Y-110275165D01*
X123749957Y-110278614D01*
X123745331Y-110277674D01*
X123465299Y-110158069D01*
X123459037Y-110151668D01*
X123459323Y-110142296D01*
X123589716Y-109867288D01*
X123596357Y-109861281D01*
X123601233Y-109860639D01*
X123616565Y-109861881D01*
G37*
%TD.AperFunction*%
%TD*%
%TA.AperFunction,Conductor*%
%TO.N,/TEMP*%
G36*
X136167830Y-110397579D02*
G01*
X136240019Y-110467000D01*
X136387231Y-110608567D01*
X136390819Y-110616771D01*
X136387231Y-110625433D01*
X136195488Y-110809824D01*
X136167831Y-110836420D01*
X136159492Y-110839685D01*
X136154743Y-110838575D01*
X136124858Y-110824524D01*
X136124840Y-110824516D01*
X136124753Y-110824475D01*
X136124661Y-110824436D01*
X136124649Y-110824430D01*
X136090852Y-110809884D01*
X136090843Y-110809880D01*
X136090712Y-110809824D01*
X136078257Y-110805159D01*
X136058793Y-110797869D01*
X136058785Y-110797866D01*
X136058624Y-110797806D01*
X136058449Y-110797752D01*
X136058442Y-110797750D01*
X136027410Y-110788239D01*
X136027404Y-110788237D01*
X136027207Y-110788177D01*
X136027003Y-110788129D01*
X136026998Y-110788128D01*
X136018283Y-110786093D01*
X135995178Y-110780696D01*
X135966972Y-110776058D01*
X135961433Y-110775147D01*
X135961429Y-110775147D01*
X135961256Y-110775118D01*
X135961087Y-110775100D01*
X135961071Y-110775098D01*
X135940771Y-110772956D01*
X135924159Y-110771202D01*
X135909529Y-110770323D01*
X135882678Y-110768710D01*
X135882661Y-110768709D01*
X135882605Y-110768706D01*
X135857316Y-110768000D01*
X135835398Y-110767388D01*
X135835313Y-110767386D01*
X135835242Y-110767385D01*
X135835220Y-110767385D01*
X135816643Y-110767253D01*
X135792616Y-110767083D01*
X135784368Y-110763597D01*
X135781000Y-110755383D01*
X135781000Y-110478617D01*
X135784427Y-110470344D01*
X135792616Y-110466917D01*
X135809646Y-110466796D01*
X135835220Y-110466614D01*
X135835242Y-110466614D01*
X135835313Y-110466613D01*
X135835398Y-110466611D01*
X135857316Y-110465999D01*
X135882605Y-110465293D01*
X135882661Y-110465290D01*
X135882678Y-110465289D01*
X135909529Y-110463676D01*
X135924159Y-110462797D01*
X135940771Y-110461043D01*
X135961071Y-110458901D01*
X135961087Y-110458899D01*
X135961256Y-110458881D01*
X135961429Y-110458852D01*
X135961433Y-110458852D01*
X135966972Y-110457941D01*
X135995178Y-110453303D01*
X136018283Y-110447906D01*
X136026998Y-110445871D01*
X136027003Y-110445870D01*
X136027207Y-110445822D01*
X136027404Y-110445762D01*
X136027410Y-110445760D01*
X136058442Y-110436249D01*
X136058449Y-110436247D01*
X136058624Y-110436193D01*
X136058785Y-110436133D01*
X136058793Y-110436130D01*
X136078257Y-110428840D01*
X136090712Y-110424175D01*
X136090843Y-110424119D01*
X136090852Y-110424115D01*
X136124649Y-110409569D01*
X136124659Y-110409564D01*
X136124753Y-110409524D01*
X136154743Y-110395425D01*
X136163688Y-110395006D01*
X136167830Y-110397579D01*
G37*
%TD.AperFunction*%
%TD*%
M02*
