M48
; DRILL file {KiCad (6.0.5)} date Fri Jan  6 15:20:16 2023
; FORMAT={-:-/ absolute / inch / decimal}
; #@! TF.CreationDate,2023-01-06T15:20:16+08:00
; #@! TF.GenerationSoftware,Kicad,Pcbnew,(6.0.5)
; #@! TF.FileFunction,Plated,1,4,PTH
FMAT,2
INCH
; #@! TA.AperFunction,Plated,PTH,ViaDrill
T1C0.0098
; #@! TA.AperFunction,Plated,PTH,ViaDrill
T2C0.0118
; #@! TA.AperFunction,Plated,PTH,ViaDrill
T3C0.0197
%
G90
G05
T1
X4.31Y-3.488
X4.31Y-3.518
X4.31Y-3.548
X4.31Y-3.578
X4.31Y-3.608
X4.31Y-3.638
X4.31Y-3.718
X4.31Y-3.748
X4.31Y-3.778
X4.31Y-3.808
X4.31Y-3.838
X4.31Y-3.868
X4.31Y-3.898
X4.325Y-4.145
X4.34Y-3.488
X4.34Y-3.518
X4.34Y-3.548
X4.34Y-3.578
X4.34Y-3.608
X4.34Y-3.638
X4.34Y-3.718
X4.34Y-3.748
X4.34Y-3.778
X4.34Y-3.808
X4.34Y-3.838
X4.34Y-3.868
X4.34Y-3.898
X4.35Y-4.19
X4.36Y-4.125
X4.37Y-3.488
X4.37Y-3.518
X4.37Y-3.548
X4.37Y-3.578
X4.37Y-3.608
X4.37Y-3.638
X4.37Y-3.718
X4.37Y-3.748
X4.37Y-3.778
X4.37Y-3.808
X4.37Y-3.838
X4.37Y-3.868
X4.37Y-3.898
X4.375Y-4.16
X4.375Y-4.225
X4.395Y-4.115
X4.395Y-4.19
X4.4Y-3.488
X4.4Y-3.518
X4.4Y-3.548
X4.4Y-3.578
X4.4Y-3.608
X4.4Y-3.638
X4.4Y-3.718
X4.4Y-3.748
X4.4Y-3.778
X4.4Y-3.808
X4.4Y-3.838
X4.4Y-3.868
X4.4Y-3.898
X4.41Y-4.145
X4.41Y-4.255
X4.425Y-4.215
X4.44Y-4.175
X4.45Y-4.275
X4.455Y-4.205
X4.46Y-4.235
X4.49Y-4.295
X4.5Y-4.255
X4.52Y-4.235
X4.53Y-3.94
X4.53Y-4.16
X4.535Y-4.09
X4.543Y-3.446
X4.61Y-4.0
X4.615Y-3.94
X4.6398Y-4.015
X4.64Y-3.375
X4.64Y-4.315
X4.645Y-4.15
X4.65Y-3.35
X4.67Y-4.22
X4.67Y-4.25
X4.67Y-4.28
X4.675Y-3.32
X4.675Y-4.15
X4.68Y-3.95
X4.68Y-4.345
X4.69Y-3.35
X4.7Y-4.22
X4.7Y-4.25
X4.7Y-4.28
X4.702Y-4.44
X4.705Y-3.32
X4.715Y-3.375
X4.7197Y-3.9447
X4.72Y-3.425
X4.72Y-4.33
X4.73Y-4.22
X4.73Y-4.25
X4.73Y-4.28
X4.735Y-3.32
X4.735Y-3.35
X4.74Y-3.4
X4.76Y-3.375
X4.76Y-4.22
X4.76Y-4.25
X4.76Y-4.28
X4.76Y-4.31
X4.765Y-3.32
X4.765Y-3.425
X4.765Y-4.455
X4.767Y-4.146
X4.779Y-4.181
X4.79Y-4.22
X4.79Y-4.25
X4.79Y-4.28
X4.79Y-4.31
X4.795Y-4.455
X4.805Y-4.63
X4.805Y-4.66
X4.815Y-4.33
X4.82Y-4.22
X4.82Y-4.25
X4.825Y-4.455
X4.83Y-4.175
X4.838Y-4.275
X4.845Y-4.12
X4.85Y-4.22
X4.86Y-4.155
X4.865Y-4.19
X4.865Y-4.335
X4.886Y-4.394
X4.9085Y-4.017
X4.915Y-3.335
X4.915Y-3.365
X4.915Y-4.355
X4.915Y-4.63
X4.915Y-4.66
X4.925Y-3.995
X4.945Y-3.335
X4.945Y-3.365
X4.945Y-4.455
X4.95Y-4.63
X4.95Y-4.66
X4.96Y-3.39
X4.96Y-3.42
X4.975Y-3.335
X4.975Y-3.365
X5.005Y-3.335
X5.035Y-3.335
X5.05Y-3.945
X5.12Y-4.625
X5.12Y-4.66
X5.125Y-4.18
X5.125Y-4.385
X5.13Y-4.12
X5.175Y-4.12
X5.18Y-4.385
X5.18Y-4.475
X5.192Y-4.081
X5.192Y-4.27
X5.192Y-4.329
X5.2Y-4.455
X5.2Y-4.51
X5.23Y-4.625
X5.23Y-4.66
X5.245Y-3.415
X5.26Y-3.345
X5.27Y-4.625
X5.27Y-4.66
X5.319Y-3.245
X5.34Y-3.945
X5.34Y-3.975
X5.34Y-4.005
X5.345Y-4.16
X5.345Y-4.19
X5.345Y-4.22
X5.345Y-4.25
X5.345Y-4.28
X5.345Y-4.31
X5.365Y-4.355
X5.37Y-3.945
X5.37Y-3.975
X5.37Y-4.005
X5.37Y-4.035
X5.37Y-4.065
X5.37Y-4.095
X5.37Y-4.125
X5.375Y-3.425
X5.375Y-4.16
X5.375Y-4.19
X5.375Y-4.22
X5.375Y-4.25
X5.375Y-4.28
X5.375Y-4.31
X5.39Y-3.31
X5.395Y-3.285
X5.4Y-3.945
X5.4Y-3.975
X5.4Y-4.005
X5.4Y-4.035
X5.4Y-4.095
X5.4Y-4.125
X5.4Y-4.325
X5.405Y-4.16
X5.405Y-4.19
X5.405Y-4.22
X5.405Y-4.25
X5.41Y-3.385
X5.41Y-4.425
X5.415Y-4.48
X5.44Y-3.385
X5.46Y-4.48
X5.47Y-3.385
X5.5Y-3.385
X5.535Y-3.385
X5.543Y-3.245
X5.565Y-3.385
X5.6Y-3.385
X5.79Y-3.375
X5.81Y-3.488
X5.81Y-3.518
X5.81Y-3.548
X5.81Y-3.578
X5.81Y-3.608
X5.81Y-3.638
X5.81Y-3.718
X5.81Y-3.748
X5.81Y-3.778
X5.81Y-3.808
X5.81Y-3.838
X5.81Y-3.868
X5.81Y-3.898
X5.82Y-3.375
X5.84Y-3.395
X5.84Y-3.425
X5.84Y-3.455
X5.84Y-3.488
X5.84Y-3.518
X5.84Y-3.548
X5.84Y-3.578
X5.84Y-3.608
X5.84Y-3.638
X5.84Y-3.718
X5.84Y-3.748
X5.84Y-3.778
X5.84Y-3.808
X5.84Y-3.838
X5.84Y-3.868
X5.84Y-3.898
X5.87Y-3.488
X5.87Y-3.518
X5.87Y-3.548
X5.87Y-3.578
X5.87Y-3.608
X5.87Y-3.638
X5.87Y-3.718
X5.87Y-3.748
X5.87Y-3.778
X5.87Y-3.808
X5.87Y-3.838
X5.87Y-3.868
X5.87Y-3.898
X5.9Y-3.488
X5.9Y-3.518
X5.9Y-3.548
X5.9Y-3.578
X5.9Y-3.608
X5.9Y-3.638
X5.9Y-3.718
X5.9Y-3.748
X5.9Y-3.778
X5.9Y-3.808
X5.9Y-3.838
X5.9Y-3.868
X5.9Y-3.898
T2
X4.57Y-3.415
X4.6296Y-3.455
X4.68Y-3.455
X5.185Y-4.42
X5.44Y-4.355
X5.556Y-3.675
X5.601Y-3.675
T3
X4.495Y-3.98
X4.67Y-4.585
X4.926Y-3.273
X4.9719Y-4.0661
X5.01Y-4.455
X5.487Y-4.184
X5.488Y-3.965
X5.489Y-4.285
X5.49Y-4.065
T0
M30
