  0
SECTION
  2
HEADER
  9
$ANGBASE
  50
0.0
  9
$ANGDIR
  70
1
  9
$MEASUREMENT
  70
1
  0
ENDSEC
  0
SECTION
  2
TABLES
  0
TABLE
  2
LTYPE
  70
4
  0
LTYPE
  5
40F
  2
CONTINUOUS
  70
0
  3
Solid line
  72
65
  73
0
  40
0.0
  0
LTYPE
  5
410
  2
DASHDOT
 70
0
  3
Dash Dot ____ _ ____ _
 72
65
 73
4
 40
2.0
 49
1.25
 49
-0.25
 49
0.25
 49
-0.25
  0
LTYPE
  5
411
  2
DASHED
 70
0
  3
Dashed __ __ __ __ __
 72
65
 73
2
 40
0.75
 49
0.5
 49
-0.25
  0
LTYPE
  5
43B
  2
DOTTED
 70
0
  3
Dotted .  .  .  .
 72
65
 73
2
 40
0.2
 49
0.0
 49
-0.2
  0
ENDTAB
  0
TABLE
  2
STYLE
  70
4
  0
STYLE
  2
KICAD
  70
0
  40
0
  41
1
  42
1
  50
0
  71
0
  3
isocp.shx
  0
STYLE
  2
KICADB
  70
0
  40
0
  41
1
  42
1
  50
0
  71
0
  3
isocp.shx
  0
STYLE
  2
KICADI
  70
0
  40
0
  41
1
  42
1
  50
15
  71
0
  3
isocp.shx
  0
STYLE
  2
KICADBI
  70
0
  40
0
  41
1
  42
1
  50
15
  71
0
  3
isocp.shx
  0
ENDTAB
  0
TABLE
  2
LAYER
  70
1
  0
LAYER
  2
BLACK
  70
0
  62
7
  6
CONTINUOUS
  0
ENDTAB
  0
ENDSEC
  0
SECTION
  2
ENTITIES
0
LINE
8
BLACK
6
CONTINUOUS
10
123.978
20
-116.991
11
124.104
21
-117.035
0
LINE
8
BLACK
6
CONTINUOUS
10
124.104
20
-117.035
11
124.211
21
-117.115
0
LINE
8
BLACK
6
CONTINUOUS
10
124.211
20
-117.115
11
124.291
21
-117.222
0
LINE
8
BLACK
6
CONTINUOUS
10
124.291
20
-117.222
11
124.335
21
-117.349
0
LINE
8
BLACK
6
CONTINUOUS
10
124.335
20
-117.349
11
124.343
21
-117.433
0
LINE
8
BLACK
6
CONTINUOUS
10
124.343
20
-117.433
11
124.343
21
-118.533
0
LINE
8
BLACK
6
CONTINUOUS
10
124.343
20
-118.533
11
124.335
21
-118.617
0
LINE
8
BLACK
6
CONTINUOUS
10
124.335
20
-118.617
11
124.291
21
-118.744
0
LINE
8
BLACK
6
CONTINUOUS
10
124.291
20
-118.744
11
124.211
21
-118.851
0
LINE
8
BLACK
6
CONTINUOUS
10
124.211
20
-118.851
11
124.104
21
-118.931
0
LINE
8
BLACK
6
CONTINUOUS
10
124.104
20
-118.931
11
123.978
21
-118.975
0
LINE
8
BLACK
6
CONTINUOUS
10
123.978
20
-118.975
11
123.893
21
-118.983
0
LINE
8
BLACK
6
CONTINUOUS
10
123.893
20
-118.983
11
122.993
21
-118.983
0
LINE
8
BLACK
6
CONTINUOUS
10
122.993
20
-118.983
11
122.909
21
-118.975
0
LINE
8
BLACK
6
CONTINUOUS
10
122.909
20
-118.975
11
122.783
21
-118.931
0
LINE
8
BLACK
6
CONTINUOUS
10
122.783
20
-118.931
11
122.675
21
-118.851
0
LINE
8
BLACK
6
CONTINUOUS
10
122.675
20
-118.851
11
122.596
21
-118.744
0
LINE
8
BLACK
6
CONTINUOUS
10
122.596
20
-118.744
11
122.551
21
-118.617
0
LINE
8
BLACK
6
CONTINUOUS
10
122.551
20
-118.617
11
122.543
21
-118.533
0
LINE
8
BLACK
6
CONTINUOUS
10
122.543
20
-118.533
11
122.543
21
-117.433
0
LINE
8
BLACK
6
CONTINUOUS
10
122.543
20
-117.433
11
122.551
21
-117.349
0
LINE
8
BLACK
6
CONTINUOUS
10
122.551
20
-117.349
11
122.596
21
-117.222
0
LINE
8
BLACK
6
CONTINUOUS
10
122.596
20
-117.222
11
122.675
21
-117.115
0
LINE
8
BLACK
6
CONTINUOUS
10
122.675
20
-117.115
11
122.783
21
-117.035
0
LINE
8
BLACK
6
CONTINUOUS
10
122.783
20
-117.035
11
122.909
21
-116.991
0
LINE
8
BLACK
6
CONTINUOUS
10
122.909
20
-116.991
11
122.993
21
-116.983
0
LINE
8
BLACK
6
CONTINUOUS
10
122.993
20
-116.983
11
123.893
21
-116.983
0
LINE
8
BLACK
6
CONTINUOUS
10
123.893
20
-116.983
11
123.978
21
-116.991
0
LINE
8
BLACK
6
CONTINUOUS
10
128.578
20
-116.991
11
128.704
21
-117.035
0
LINE
8
BLACK
6
CONTINUOUS
10
128.704
20
-117.035
11
128.811
21
-117.115
0
LINE
8
BLACK
6
CONTINUOUS
10
128.811
20
-117.115
11
128.891
21
-117.222
0
LINE
8
BLACK
6
CONTINUOUS
10
128.891
20
-117.222
11
128.935
21
-117.349
0
LINE
8
BLACK
6
CONTINUOUS
10
128.935
20
-117.349
11
128.943
21
-117.433
0
LINE
8
BLACK
6
CONTINUOUS
10
128.943
20
-117.433
11
128.943
21
-118.533
0
LINE
8
BLACK
6
CONTINUOUS
10
128.943
20
-118.533
11
128.935
21
-118.617
0
LINE
8
BLACK
6
CONTINUOUS
10
128.935
20
-118.617
11
128.891
21
-118.744
0
LINE
8
BLACK
6
CONTINUOUS
10
128.891
20
-118.744
11
128.811
21
-118.851
0
LINE
8
BLACK
6
CONTINUOUS
10
128.811
20
-118.851
11
128.704
21
-118.931
0
LINE
8
BLACK
6
CONTINUOUS
10
128.704
20
-118.931
11
128.578
21
-118.975
0
LINE
8
BLACK
6
CONTINUOUS
10
128.578
20
-118.975
11
128.493
21
-118.983
0
LINE
8
BLACK
6
CONTINUOUS
10
128.493
20
-118.983
11
127.593
21
-118.983
0
LINE
8
BLACK
6
CONTINUOUS
10
127.593
20
-118.983
11
127.509
21
-118.975
0
LINE
8
BLACK
6
CONTINUOUS
10
127.509
20
-118.975
11
127.383
21
-118.931
0
LINE
8
BLACK
6
CONTINUOUS
10
127.383
20
-118.931
11
127.275
21
-118.851
0
LINE
8
BLACK
6
CONTINUOUS
10
127.275
20
-118.851
11
127.196
21
-118.744
0
LINE
8
BLACK
6
CONTINUOUS
10
127.196
20
-118.744
11
127.151
21
-118.617
0
LINE
8
BLACK
6
CONTINUOUS
10
127.151
20
-118.617
11
127.143
21
-118.533
0
LINE
8
BLACK
6
CONTINUOUS
10
127.143
20
-118.533
11
127.143
21
-117.433
0
LINE
8
BLACK
6
CONTINUOUS
10
127.143
20
-117.433
11
127.151
21
-117.349
0
LINE
8
BLACK
6
CONTINUOUS
10
127.151
20
-117.349
11
127.196
21
-117.222
0
LINE
8
BLACK
6
CONTINUOUS
10
127.196
20
-117.222
11
127.275
21
-117.115
0
LINE
8
BLACK
6
CONTINUOUS
10
127.275
20
-117.115
11
127.383
21
-117.035
0
LINE
8
BLACK
6
CONTINUOUS
10
127.383
20
-117.035
11
127.509
21
-116.991
0
LINE
8
BLACK
6
CONTINUOUS
10
127.509
20
-116.991
11
127.593
21
-116.983
0
LINE
8
BLACK
6
CONTINUOUS
10
127.593
20
-116.983
11
128.493
21
-116.983
0
LINE
8
BLACK
6
CONTINUOUS
10
128.493
20
-116.983
11
128.578
21
-116.991
0
LINE
8
BLACK
6
CONTINUOUS
10
131.978
20
-116.991
11
132.104
21
-117.035
0
LINE
8
BLACK
6
CONTINUOUS
10
132.104
20
-117.035
11
132.211
21
-117.115
0
LINE
8
BLACK
6
CONTINUOUS
10
132.211
20
-117.115
11
132.291
21
-117.222
0
LINE
8
BLACK
6
CONTINUOUS
10
132.291
20
-117.222
11
132.335
21
-117.349
0
LINE
8
BLACK
6
CONTINUOUS
10
132.335
20
-117.349
11
132.343
21
-117.433
0
LINE
8
BLACK
6
CONTINUOUS
10
132.343
20
-117.433
11
132.343
21
-118.533
0
LINE
8
BLACK
6
CONTINUOUS
10
132.343
20
-118.533
11
132.335
21
-118.617
0
LINE
8
BLACK
6
CONTINUOUS
10
132.335
20
-118.617
11
132.291
21
-118.744
0
LINE
8
BLACK
6
CONTINUOUS
10
132.291
20
-118.744
11
132.211
21
-118.851
0
LINE
8
BLACK
6
CONTINUOUS
10
132.211
20
-118.851
11
132.104
21
-118.931
0
LINE
8
BLACK
6
CONTINUOUS
10
132.104
20
-118.931
11
131.978
21
-118.975
0
LINE
8
BLACK
6
CONTINUOUS
10
131.978
20
-118.975
11
131.893
21
-118.983
0
LINE
8
BLACK
6
CONTINUOUS
10
131.893
20
-118.983
11
130.993
21
-118.983
0
LINE
8
BLACK
6
CONTINUOUS
10
130.993
20
-118.983
11
130.909
21
-118.975
0
LINE
8
BLACK
6
CONTINUOUS
10
130.909
20
-118.975
11
130.783
21
-118.931
0
LINE
8
BLACK
6
CONTINUOUS
10
130.783
20
-118.931
11
130.675
21
-118.851
0
LINE
8
BLACK
6
CONTINUOUS
10
130.675
20
-118.851
11
130.596
21
-118.744
0
LINE
8
BLACK
6
CONTINUOUS
10
130.596
20
-118.744
11
130.551
21
-118.617
0
LINE
8
BLACK
6
CONTINUOUS
10
130.551
20
-118.617
11
130.543
21
-118.533
0
LINE
8
BLACK
6
CONTINUOUS
10
130.543
20
-118.533
11
130.543
21
-117.433
0
LINE
8
BLACK
6
CONTINUOUS
10
130.543
20
-117.433
11
130.551
21
-117.349
0
LINE
8
BLACK
6
CONTINUOUS
10
130.551
20
-117.349
11
130.596
21
-117.222
0
LINE
8
BLACK
6
CONTINUOUS
10
130.596
20
-117.222
11
130.675
21
-117.115
0
LINE
8
BLACK
6
CONTINUOUS
10
130.675
20
-117.115
11
130.783
21
-117.035
0
LINE
8
BLACK
6
CONTINUOUS
10
130.783
20
-117.035
11
130.909
21
-116.991
0
LINE
8
BLACK
6
CONTINUOUS
10
130.909
20
-116.991
11
130.993
21
-116.983
0
LINE
8
BLACK
6
CONTINUOUS
10
130.993
20
-116.983
11
131.893
21
-116.983
0
LINE
8
BLACK
6
CONTINUOUS
10
131.893
20
-116.983
11
131.978
21
-116.991
0
LINE
8
BLACK
6
CONTINUOUS
10
136.578
20
-116.991
11
136.704
21
-117.035
0
LINE
8
BLACK
6
CONTINUOUS
10
136.704
20
-117.035
11
136.811
21
-117.115
0
LINE
8
BLACK
6
CONTINUOUS
10
136.811
20
-117.115
11
136.891
21
-117.222
0
LINE
8
BLACK
6
CONTINUOUS
10
136.891
20
-117.222
11
136.935
21
-117.349
0
LINE
8
BLACK
6
CONTINUOUS
10
136.935
20
-117.349
11
136.943
21
-117.433
0
LINE
8
BLACK
6
CONTINUOUS
10
136.943
20
-117.433
11
136.943
21
-118.533
0
LINE
8
BLACK
6
CONTINUOUS
10
136.943
20
-118.533
11
136.935
21
-118.617
0
LINE
8
BLACK
6
CONTINUOUS
10
136.935
20
-118.617
11
136.891
21
-118.744
0
LINE
8
BLACK
6
CONTINUOUS
10
136.891
20
-118.744
11
136.811
21
-118.851
0
LINE
8
BLACK
6
CONTINUOUS
10
136.811
20
-118.851
11
136.704
21
-118.931
0
LINE
8
BLACK
6
CONTINUOUS
10
136.704
20
-118.931
11
136.578
21
-118.975
0
LINE
8
BLACK
6
CONTINUOUS
10
136.578
20
-118.975
11
136.493
21
-118.983
0
LINE
8
BLACK
6
CONTINUOUS
10
136.493
20
-118.983
11
135.593
21
-118.983
0
LINE
8
BLACK
6
CONTINUOUS
10
135.593
20
-118.983
11
135.509
21
-118.975
0
LINE
8
BLACK
6
CONTINUOUS
10
135.509
20
-118.975
11
135.383
21
-118.931
0
LINE
8
BLACK
6
CONTINUOUS
10
135.383
20
-118.931
11
135.275
21
-118.851
0
LINE
8
BLACK
6
CONTINUOUS
10
135.275
20
-118.851
11
135.196
21
-118.744
0
LINE
8
BLACK
6
CONTINUOUS
10
135.196
20
-118.744
11
135.151
21
-118.617
0
LINE
8
BLACK
6
CONTINUOUS
10
135.151
20
-118.617
11
135.143
21
-118.533
0
LINE
8
BLACK
6
CONTINUOUS
10
135.143
20
-118.533
11
135.143
21
-117.433
0
LINE
8
BLACK
6
CONTINUOUS
10
135.143
20
-117.433
11
135.151
21
-117.349
0
LINE
8
BLACK
6
CONTINUOUS
10
135.151
20
-117.349
11
135.196
21
-117.222
0
LINE
8
BLACK
6
CONTINUOUS
10
135.196
20
-117.222
11
135.275
21
-117.115
0
LINE
8
BLACK
6
CONTINUOUS
10
135.275
20
-117.115
11
135.383
21
-117.035
0
LINE
8
BLACK
6
CONTINUOUS
10
135.383
20
-117.035
11
135.509
21
-116.991
0
LINE
8
BLACK
6
CONTINUOUS
10
135.509
20
-116.991
11
135.593
21
-116.983
0
LINE
8
BLACK
6
CONTINUOUS
10
135.593
20
-116.983
11
136.493
21
-116.983
0
LINE
8
BLACK
6
CONTINUOUS
10
136.493
20
-116.983
11
136.578
21
-116.991
0
LINE
8
BLACK
6
CONTINUOUS
10
150.178
20
-108.621
11
150.289
21
-108.675
0
LINE
8
BLACK
6
CONTINUOUS
10
150.289
20
-108.675
11
150.376
21
-108.762
0
LINE
8
BLACK
6
CONTINUOUS
10
150.376
20
-108.762
11
150.43
21
-108.872
0
LINE
8
BLACK
6
CONTINUOUS
10
150.43
20
-108.872
11
150.446
21
-108.98
0
LINE
8
BLACK
6
CONTINUOUS
10
150.446
20
-108.98
11
150.446
21
-109.73
0
LINE
8
BLACK
6
CONTINUOUS
10
150.446
20
-109.73
11
150.43
21
-109.837
0
LINE
8
BLACK
6
CONTINUOUS
10
150.43
20
-109.837
11
150.376
21
-109.948
0
LINE
8
BLACK
6
CONTINUOUS
10
150.376
20
-109.948
11
150.289
21
-110.035
0
LINE
8
BLACK
6
CONTINUOUS
10
150.289
20
-110.035
11
150.179
21
-110.089
0
LINE
8
BLACK
6
CONTINUOUS
10
150.179
20
-110.089
11
150.071
21
-110.105
0
LINE
8
BLACK
6
CONTINUOUS
10
150.071
20
-110.105
11
147.421
21
-110.105
0
LINE
8
BLACK
6
CONTINUOUS
10
147.421
20
-110.105
11
147.314
21
-110.089
0
LINE
8
BLACK
6
CONTINUOUS
10
147.314
20
-110.089
11
147.203
21
-110.035
0
LINE
8
BLACK
6
CONTINUOUS
10
147.203
20
-110.035
11
147.116
21
-109.948
0
LINE
8
BLACK
6
CONTINUOUS
10
147.116
20
-109.948
11
147.062
21
-109.838
0
LINE
8
BLACK
6
CONTINUOUS
10
147.062
20
-109.838
11
147.046
21
-109.73
0
LINE
8
BLACK
6
CONTINUOUS
10
147.046
20
-109.73
11
147.046
21
-108.98
0
LINE
8
BLACK
6
CONTINUOUS
10
147.046
20
-108.98
11
147.062
21
-108.873
0
LINE
8
BLACK
6
CONTINUOUS
10
147.062
20
-108.873
11
147.116
21
-108.762
0
LINE
8
BLACK
6
CONTINUOUS
10
147.116
20
-108.762
11
147.203
21
-108.675
0
LINE
8
BLACK
6
CONTINUOUS
10
147.203
20
-108.675
11
147.313
21
-108.621
0
LINE
8
BLACK
6
CONTINUOUS
10
147.313
20
-108.621
11
147.421
21
-108.605
0
LINE
8
BLACK
6
CONTINUOUS
10
147.421
20
-108.605
11
150.071
21
-108.605
0
LINE
8
BLACK
6
CONTINUOUS
10
150.071
20
-108.605
11
150.178
21
-108.621
0
LINE
8
BLACK
6
CONTINUOUS
10
139.836
20
-108.439
11
139.893
21
-108.477
0
LINE
8
BLACK
6
CONTINUOUS
10
139.893
20
-108.477
11
139.931
21
-108.534
0
LINE
8
BLACK
6
CONTINUOUS
10
139.931
20
-108.534
11
139.944
21
-108.6
0
LINE
8
BLACK
6
CONTINUOUS
10
139.944
20
-108.6
11
139.944
21
-108.95
0
LINE
8
BLACK
6
CONTINUOUS
10
139.944
20
-108.95
11
139.931
21
-109.017
0
LINE
8
BLACK
6
CONTINUOUS
10
139.931
20
-109.017
11
139.893
21
-109.074
0
LINE
8
BLACK
6
CONTINUOUS
10
139.893
20
-109.074
11
139.836
21
-109.112
0
LINE
8
BLACK
6
CONTINUOUS
10
139.836
20
-109.112
11
139.769
21
-109.125
0
LINE
8
BLACK
6
CONTINUOUS
10
139.769
20
-109.125
11
138.119
21
-109.125
0
LINE
8
BLACK
6
CONTINUOUS
10
138.119
20
-109.125
11
138.052
21
-109.112
0
LINE
8
BLACK
6
CONTINUOUS
10
138.052
20
-109.112
11
137.995
21
-109.074
0
LINE
8
BLACK
6
CONTINUOUS
10
137.995
20
-109.074
11
137.957
21
-109.017
0
LINE
8
BLACK
6
CONTINUOUS
10
137.957
20
-109.017
11
137.944
21
-108.95
0
LINE
8
BLACK
6
CONTINUOUS
10
137.944
20
-108.95
11
137.944
21
-108.6
0
LINE
8
BLACK
6
CONTINUOUS
10
137.944
20
-108.6
11
137.957
21
-108.534
0
LINE
8
BLACK
6
CONTINUOUS
10
137.957
20
-108.534
11
137.995
21
-108.477
0
LINE
8
BLACK
6
CONTINUOUS
10
137.995
20
-108.477
11
138.052
21
-108.439
0
LINE
8
BLACK
6
CONTINUOUS
10
138.052
20
-108.439
11
138.119
21
-108.425
0
LINE
8
BLACK
6
CONTINUOUS
10
138.119
20
-108.425
11
139.769
21
-108.425
0
LINE
8
BLACK
6
CONTINUOUS
10
139.769
20
-108.425
11
139.836
21
-108.439
0
LINE
8
BLACK
6
CONTINUOUS
10
134.236
20
-108.439
11
134.293
21
-108.477
0
LINE
8
BLACK
6
CONTINUOUS
10
134.293
20
-108.477
11
134.331
21
-108.534
0
LINE
8
BLACK
6
CONTINUOUS
10
134.331
20
-108.534
11
134.344
21
-108.6
0
LINE
8
BLACK
6
CONTINUOUS
10
134.344
20
-108.6
11
134.344
21
-108.95
0
LINE
8
BLACK
6
CONTINUOUS
10
134.344
20
-108.95
11
134.331
21
-109.017
0
LINE
8
BLACK
6
CONTINUOUS
10
134.331
20
-109.017
11
134.293
21
-109.074
0
LINE
8
BLACK
6
CONTINUOUS
10
134.293
20
-109.074
11
134.236
21
-109.112
0
LINE
8
BLACK
6
CONTINUOUS
10
134.236
20
-109.112
11
134.169
21
-109.125
0
LINE
8
BLACK
6
CONTINUOUS
10
134.169
20
-109.125
11
132.519
21
-109.125
0
LINE
8
BLACK
6
CONTINUOUS
10
132.519
20
-109.125
11
132.452
21
-109.112
0
LINE
8
BLACK
6
CONTINUOUS
10
132.452
20
-109.112
11
132.395
21
-109.074
0
LINE
8
BLACK
6
CONTINUOUS
10
132.395
20
-109.074
11
132.357
21
-109.017
0
LINE
8
BLACK
6
CONTINUOUS
10
132.357
20
-109.017
11
132.344
21
-108.95
0
LINE
8
BLACK
6
CONTINUOUS
10
132.344
20
-108.95
11
132.344
21
-108.6
0
LINE
8
BLACK
6
CONTINUOUS
10
132.344
20
-108.6
11
132.357
21
-108.534
0
LINE
8
BLACK
6
CONTINUOUS
10
132.357
20
-108.534
11
132.395
21
-108.477
0
LINE
8
BLACK
6
CONTINUOUS
10
132.395
20
-108.477
11
132.452
21
-108.439
0
LINE
8
BLACK
6
CONTINUOUS
10
132.452
20
-108.439
11
132.519
21
-108.425
0
LINE
8
BLACK
6
CONTINUOUS
10
132.519
20
-108.425
11
134.169
21
-108.425
0
LINE
8
BLACK
6
CONTINUOUS
10
134.169
20
-108.425
11
134.236
21
-108.439
0
LINE
8
BLACK
6
CONTINUOUS
10
136.828
20
-105.336
11
136.968
21
-105.392
0
LINE
8
BLACK
6
CONTINUOUS
10
136.968
20
-105.392
11
137.087
21
-105.482
0
LINE
8
BLACK
6
CONTINUOUS
10
137.087
20
-105.482
11
137.178
21
-105.602
0
LINE
8
BLACK
6
CONTINUOUS
10
137.178
20
-105.602
11
137.233
21
-105.741
0
LINE
8
BLACK
6
CONTINUOUS
10
137.233
20
-105.741
11
137.249
21
-105.873
0
LINE
8
BLACK
6
CONTINUOUS
10
137.249
20
-105.873
11
137.249
21
-107.868
0
LINE
8
BLACK
6
CONTINUOUS
10
137.249
20
-107.868
11
137.233
21
-108
0
LINE
8
BLACK
6
CONTINUOUS
10
137.233
20
-108
11
137.178
21
-108.139
0
LINE
8
BLACK
6
CONTINUOUS
10
137.178
20
-108.139
11
137.087
21
-108.259
0
LINE
8
BLACK
6
CONTINUOUS
10
137.087
20
-108.259
11
136.968
21
-108.349
0
LINE
8
BLACK
6
CONTINUOUS
10
136.968
20
-108.349
11
136.828
21
-108.405
0
LINE
8
BLACK
6
CONTINUOUS
10
136.828
20
-108.405
11
136.696
21
-108.42
0
LINE
8
BLACK
6
CONTINUOUS
10
136.696
20
-108.42
11
135.591
21
-108.42
0
LINE
8
BLACK
6
CONTINUOUS
10
135.591
20
-108.42
11
135.46
21
-108.405
0
LINE
8
BLACK
6
CONTINUOUS
10
135.46
20
-108.405
11
135.32
21
-108.349
0
LINE
8
BLACK
6
CONTINUOUS
10
135.32
20
-108.349
11
135.201
21
-108.259
0
LINE
8
BLACK
6
CONTINUOUS
10
135.201
20
-108.259
11
135.11
21
-108.139
0
LINE
8
BLACK
6
CONTINUOUS
10
135.11
20
-108.139
11
135.055
21
-108
0
LINE
8
BLACK
6
CONTINUOUS
10
135.055
20
-108
11
135.039
21
-107.868
0
LINE
8
BLACK
6
CONTINUOUS
10
135.039
20
-107.868
11
135.039
21
-105.873
0
LINE
8
BLACK
6
CONTINUOUS
10
135.039
20
-105.873
11
135.055
21
-105.741
0
LINE
8
BLACK
6
CONTINUOUS
10
135.055
20
-105.741
11
135.11
21
-105.602
0
LINE
8
BLACK
6
CONTINUOUS
10
135.11
20
-105.602
11
135.201
21
-105.482
0
LINE
8
BLACK
6
CONTINUOUS
10
135.201
20
-105.482
11
135.32
21
-105.392
0
LINE
8
BLACK
6
CONTINUOUS
10
135.32
20
-105.392
11
135.46
21
-105.336
0
LINE
8
BLACK
6
CONTINUOUS
10
135.46
20
-105.336
11
135.591
21
-105.32
0
LINE
8
BLACK
6
CONTINUOUS
10
135.591
20
-105.32
11
136.696
21
-105.32
0
LINE
8
BLACK
6
CONTINUOUS
10
136.696
20
-105.32
11
136.828
21
-105.336
0
LINE
8
BLACK
6
CONTINUOUS
10
139.836
20
-107.169
11
139.893
21
-107.207
0
LINE
8
BLACK
6
CONTINUOUS
10
139.893
20
-107.207
11
139.931
21
-107.264
0
LINE
8
BLACK
6
CONTINUOUS
10
139.931
20
-107.264
11
139.944
21
-107.331
0
LINE
8
BLACK
6
CONTINUOUS
10
139.944
20
-107.331
11
139.944
21
-107.68
0
LINE
8
BLACK
6
CONTINUOUS
10
139.944
20
-107.68
11
139.931
21
-107.747
0
LINE
8
BLACK
6
CONTINUOUS
10
139.931
20
-107.747
11
139.893
21
-107.804
0
LINE
8
BLACK
6
CONTINUOUS
10
139.893
20
-107.804
11
139.836
21
-107.842
0
LINE
8
BLACK
6
CONTINUOUS
10
139.836
20
-107.842
11
139.769
21
-107.855
0
LINE
8
BLACK
6
CONTINUOUS
10
139.769
20
-107.855
11
138.119
21
-107.855
0
LINE
8
BLACK
6
CONTINUOUS
10
138.119
20
-107.855
11
138.052
21
-107.842
0
LINE
8
BLACK
6
CONTINUOUS
10
138.052
20
-107.842
11
137.995
21
-107.804
0
LINE
8
BLACK
6
CONTINUOUS
10
137.995
20
-107.804
11
137.957
21
-107.747
0
LINE
8
BLACK
6
CONTINUOUS
10
137.957
20
-107.747
11
137.944
21
-107.68
0
LINE
8
BLACK
6
CONTINUOUS
10
137.944
20
-107.68
11
137.944
21
-107.331
0
LINE
8
BLACK
6
CONTINUOUS
10
137.944
20
-107.331
11
137.957
21
-107.264
0
LINE
8
BLACK
6
CONTINUOUS
10
137.957
20
-107.264
11
137.995
21
-107.207
0
LINE
8
BLACK
6
CONTINUOUS
10
137.995
20
-107.207
11
138.052
21
-107.169
0
LINE
8
BLACK
6
CONTINUOUS
10
138.052
20
-107.169
11
138.119
21
-107.155
0
LINE
8
BLACK
6
CONTINUOUS
10
138.119
20
-107.155
11
139.769
21
-107.155
0
LINE
8
BLACK
6
CONTINUOUS
10
139.769
20
-107.155
11
139.836
21
-107.169
0
LINE
8
BLACK
6
CONTINUOUS
10
134.236
20
-107.169
11
134.293
21
-107.207
0
LINE
8
BLACK
6
CONTINUOUS
10
134.293
20
-107.207
11
134.331
21
-107.264
0
LINE
8
BLACK
6
CONTINUOUS
10
134.331
20
-107.264
11
134.344
21
-107.331
0
LINE
8
BLACK
6
CONTINUOUS
10
134.344
20
-107.331
11
134.344
21
-107.68
0
LINE
8
BLACK
6
CONTINUOUS
10
134.344
20
-107.68
11
134.331
21
-107.747
0
LINE
8
BLACK
6
CONTINUOUS
10
134.331
20
-107.747
11
134.293
21
-107.804
0
LINE
8
BLACK
6
CONTINUOUS
10
134.293
20
-107.804
11
134.236
21
-107.842
0
LINE
8
BLACK
6
CONTINUOUS
10
134.236
20
-107.842
11
134.169
21
-107.855
0
LINE
8
BLACK
6
CONTINUOUS
10
134.169
20
-107.855
11
132.519
21
-107.855
0
LINE
8
BLACK
6
CONTINUOUS
10
132.519
20
-107.855
11
132.452
21
-107.842
0
LINE
8
BLACK
6
CONTINUOUS
10
132.452
20
-107.842
11
132.395
21
-107.804
0
LINE
8
BLACK
6
CONTINUOUS
10
132.395
20
-107.804
11
132.357
21
-107.747
0
LINE
8
BLACK
6
CONTINUOUS
10
132.357
20
-107.747
11
132.344
21
-107.68
0
LINE
8
BLACK
6
CONTINUOUS
10
132.344
20
-107.68
11
132.344
21
-107.331
0
LINE
8
BLACK
6
CONTINUOUS
10
132.344
20
-107.331
11
132.357
21
-107.264
0
LINE
8
BLACK
6
CONTINUOUS
10
132.357
20
-107.264
11
132.395
21
-107.207
0
LINE
8
BLACK
6
CONTINUOUS
10
132.395
20
-107.207
11
132.452
21
-107.169
0
LINE
8
BLACK
6
CONTINUOUS
10
132.452
20
-107.169
11
132.519
21
-107.155
0
LINE
8
BLACK
6
CONTINUOUS
10
132.519
20
-107.155
11
134.169
21
-107.155
0
LINE
8
BLACK
6
CONTINUOUS
10
134.169
20
-107.155
11
134.236
21
-107.169
0
LINE
8
BLACK
6
CONTINUOUS
10
144.792
20
-106.024
11
144.873
21
-106.078
0
LINE
8
BLACK
6
CONTINUOUS
10
144.873
20
-106.078
11
144.927
21
-106.159
0
LINE
8
BLACK
6
CONTINUOUS
10
144.927
20
-106.159
11
144.946
21
-106.255
0
LINE
8
BLACK
6
CONTINUOUS
10
144.946
20
-106.255
11
144.946
21
-106.755
0
LINE
8
BLACK
6
CONTINUOUS
10
144.946
20
-106.755
11
144.927
21
-106.851
0
LINE
8
BLACK
6
CONTINUOUS
10
144.927
20
-106.851
11
144.873
21
-106.932
0
LINE
8
BLACK
6
CONTINUOUS
10
144.873
20
-106.932
11
144.792
21
-106.986
0
LINE
8
BLACK
6
CONTINUOUS
10
144.792
20
-106.986
11
144.696
21
-107.005
0
LINE
8
BLACK
6
CONTINUOUS
10
144.696
20
-107.005
11
141.396
21
-107.005
0
LINE
8
BLACK
6
CONTINUOUS
10
141.396
20
-107.005
11
141.3
21
-106.986
0
LINE
8
BLACK
6
CONTINUOUS
10
141.3
20
-106.986
11
141.219
21
-106.932
0
LINE
8
BLACK
6
CONTINUOUS
10
141.219
20
-106.932
11
141.165
21
-106.851
0
LINE
8
BLACK
6
CONTINUOUS
10
141.165
20
-106.851
11
141.146
21
-106.755
0
LINE
8
BLACK
6
CONTINUOUS
10
141.146
20
-106.755
11
141.146
21
-106.255
0
LINE
8
BLACK
6
CONTINUOUS
10
141.146
20
-106.255
11
141.165
21
-106.159
0
LINE
8
BLACK
6
CONTINUOUS
10
141.165
20
-106.159
11
141.219
21
-106.078
0
LINE
8
BLACK
6
CONTINUOUS
10
141.219
20
-106.078
11
141.3
21
-106.024
0
LINE
8
BLACK
6
CONTINUOUS
10
141.3
20
-106.024
11
141.396
21
-106.005
0
LINE
8
BLACK
6
CONTINUOUS
10
141.396
20
-106.005
11
144.696
21
-106.005
0
LINE
8
BLACK
6
CONTINUOUS
10
144.696
20
-106.005
11
144.792
21
-106.024
0
LINE
8
BLACK
6
CONTINUOUS
10
134.236
20
-105.899
11
134.293
21
-105.937
0
LINE
8
BLACK
6
CONTINUOUS
10
134.293
20
-105.937
11
134.331
21
-105.994
0
LINE
8
BLACK
6
CONTINUOUS
10
134.331
20
-105.994
11
134.344
21
-106.06
0
LINE
8
BLACK
6
CONTINUOUS
10
134.344
20
-106.06
11
134.344
21
-106.41
0
LINE
8
BLACK
6
CONTINUOUS
10
134.344
20
-106.41
11
134.331
21
-106.477
0
LINE
8
BLACK
6
CONTINUOUS
10
134.331
20
-106.477
11
134.293
21
-106.534
0
LINE
8
BLACK
6
CONTINUOUS
10
134.293
20
-106.534
11
134.236
21
-106.572
0
LINE
8
BLACK
6
CONTINUOUS
10
134.236
20
-106.572
11
134.169
21
-106.585
0
LINE
8
BLACK
6
CONTINUOUS
10
134.169
20
-106.585
11
132.519
21
-106.585
0
LINE
8
BLACK
6
CONTINUOUS
10
132.519
20
-106.585
11
132.452
21
-106.572
0
LINE
8
BLACK
6
CONTINUOUS
10
132.452
20
-106.572
11
132.395
21
-106.534
0
LINE
8
BLACK
6
CONTINUOUS
10
132.395
20
-106.534
11
132.357
21
-106.477
0
LINE
8
BLACK
6
CONTINUOUS
10
132.357
20
-106.477
11
132.344
21
-106.41
0
LINE
8
BLACK
6
CONTINUOUS
10
132.344
20
-106.41
11
132.344
21
-106.06
0
LINE
8
BLACK
6
CONTINUOUS
10
132.344
20
-106.06
11
132.357
21
-105.994
0
LINE
8
BLACK
6
CONTINUOUS
10
132.357
20
-105.994
11
132.395
21
-105.937
0
LINE
8
BLACK
6
CONTINUOUS
10
132.395
20
-105.937
11
132.452
21
-105.899
0
LINE
8
BLACK
6
CONTINUOUS
10
132.452
20
-105.899
11
132.519
21
-105.885
0
LINE
8
BLACK
6
CONTINUOUS
10
132.519
20
-105.885
11
134.169
21
-105.885
0
LINE
8
BLACK
6
CONTINUOUS
10
134.169
20
-105.885
11
134.236
21
-105.899
0
LINE
8
BLACK
6
CONTINUOUS
10
139.836
20
-105.899
11
139.893
21
-105.937
0
LINE
8
BLACK
6
CONTINUOUS
10
139.893
20
-105.937
11
139.931
21
-105.994
0
LINE
8
BLACK
6
CONTINUOUS
10
139.931
20
-105.994
11
139.944
21
-106.06
0
LINE
8
BLACK
6
CONTINUOUS
10
139.944
20
-106.06
11
139.944
21
-106.41
0
LINE
8
BLACK
6
CONTINUOUS
10
139.944
20
-106.41
11
139.931
21
-106.477
0
LINE
8
BLACK
6
CONTINUOUS
10
139.931
20
-106.477
11
139.893
21
-106.534
0
LINE
8
BLACK
6
CONTINUOUS
10
139.893
20
-106.534
11
139.836
21
-106.572
0
LINE
8
BLACK
6
CONTINUOUS
10
139.836
20
-106.572
11
139.769
21
-106.585
0
LINE
8
BLACK
6
CONTINUOUS
10
139.769
20
-106.585
11
138.119
21
-106.585
0
LINE
8
BLACK
6
CONTINUOUS
10
138.119
20
-106.585
11
138.052
21
-106.572
0
LINE
8
BLACK
6
CONTINUOUS
10
138.052
20
-106.572
11
137.995
21
-106.534
0
LINE
8
BLACK
6
CONTINUOUS
10
137.995
20
-106.534
11
137.957
21
-106.477
0
LINE
8
BLACK
6
CONTINUOUS
10
137.957
20
-106.477
11
137.944
21
-106.41
0
LINE
8
BLACK
6
CONTINUOUS
10
137.944
20
-106.41
11
137.944
21
-106.06
0
LINE
8
BLACK
6
CONTINUOUS
10
137.944
20
-106.06
11
137.957
21
-105.994
0
LINE
8
BLACK
6
CONTINUOUS
10
137.957
20
-105.994
11
137.995
21
-105.937
0
LINE
8
BLACK
6
CONTINUOUS
10
137.995
20
-105.937
11
138.052
21
-105.899
0
LINE
8
BLACK
6
CONTINUOUS
10
138.052
20
-105.899
11
138.119
21
-105.885
0
LINE
8
BLACK
6
CONTINUOUS
10
138.119
20
-105.885
11
139.769
21
-105.885
0
LINE
8
BLACK
6
CONTINUOUS
10
139.769
20
-105.885
11
139.836
21
-105.899
0
LINE
8
BLACK
6
CONTINUOUS
10
134.236
20
-104.629
11
134.293
21
-104.667
0
LINE
8
BLACK
6
CONTINUOUS
10
134.293
20
-104.667
11
134.331
21
-104.724
0
LINE
8
BLACK
6
CONTINUOUS
10
134.331
20
-104.724
11
134.344
21
-104.79
0
LINE
8
BLACK
6
CONTINUOUS
10
134.344
20
-104.79
11
134.344
21
-105.14
0
LINE
8
BLACK
6
CONTINUOUS
10
134.344
20
-105.14
11
134.331
21
-105.207
0
LINE
8
BLACK
6
CONTINUOUS
10
134.331
20
-105.207
11
134.293
21
-105.264
0
LINE
8
BLACK
6
CONTINUOUS
10
134.293
20
-105.264
11
134.236
21
-105.302
0
LINE
8
BLACK
6
CONTINUOUS
10
134.236
20
-105.302
11
134.169
21
-105.316
0
LINE
8
BLACK
6
CONTINUOUS
10
134.169
20
-105.316
11
132.519
21
-105.316
0
LINE
8
BLACK
6
CONTINUOUS
10
132.519
20
-105.316
11
132.452
21
-105.302
0
LINE
8
BLACK
6
CONTINUOUS
10
132.452
20
-105.302
11
132.395
21
-105.264
0
LINE
8
BLACK
6
CONTINUOUS
10
132.395
20
-105.264
11
132.357
21
-105.207
0
LINE
8
BLACK
6
CONTINUOUS
10
132.357
20
-105.207
11
132.344
21
-105.14
0
LINE
8
BLACK
6
CONTINUOUS
10
132.344
20
-105.14
11
132.344
21
-104.79
0
LINE
8
BLACK
6
CONTINUOUS
10
132.344
20
-104.79
11
132.357
21
-104.724
0
LINE
8
BLACK
6
CONTINUOUS
10
132.357
20
-104.724
11
132.395
21
-104.667
0
LINE
8
BLACK
6
CONTINUOUS
10
132.395
20
-104.667
11
132.452
21
-104.629
0
LINE
8
BLACK
6
CONTINUOUS
10
132.452
20
-104.629
11
132.519
21
-104.615
0
LINE
8
BLACK
6
CONTINUOUS
10
132.519
20
-104.615
11
134.169
21
-104.615
0
LINE
8
BLACK
6
CONTINUOUS
10
134.169
20
-104.615
11
134.236
21
-104.629
0
LINE
8
BLACK
6
CONTINUOUS
10
139.836
20
-104.629
11
139.893
21
-104.667
0
LINE
8
BLACK
6
CONTINUOUS
10
139.893
20
-104.667
11
139.931
21
-104.724
0
LINE
8
BLACK
6
CONTINUOUS
10
139.931
20
-104.724
11
139.944
21
-104.79
0
LINE
8
BLACK
6
CONTINUOUS
10
139.944
20
-104.79
11
139.944
21
-105.14
0
LINE
8
BLACK
6
CONTINUOUS
10
139.944
20
-105.14
11
139.931
21
-105.207
0
LINE
8
BLACK
6
CONTINUOUS
10
139.931
20
-105.207
11
139.893
21
-105.264
0
LINE
8
BLACK
6
CONTINUOUS
10
139.893
20
-105.264
11
139.836
21
-105.302
0
LINE
8
BLACK
6
CONTINUOUS
10
139.836
20
-105.302
11
139.769
21
-105.316
0
LINE
8
BLACK
6
CONTINUOUS
10
139.769
20
-105.316
11
138.119
21
-105.316
0
LINE
8
BLACK
6
CONTINUOUS
10
138.119
20
-105.316
11
138.052
21
-105.302
0
LINE
8
BLACK
6
CONTINUOUS
10
138.052
20
-105.302
11
137.995
21
-105.264
0
LINE
8
BLACK
6
CONTINUOUS
10
137.995
20
-105.264
11
137.957
21
-105.207
0
LINE
8
BLACK
6
CONTINUOUS
10
137.957
20
-105.207
11
137.944
21
-105.14
0
LINE
8
BLACK
6
CONTINUOUS
10
137.944
20
-105.14
11
137.944
21
-104.79
0
LINE
8
BLACK
6
CONTINUOUS
10
137.944
20
-104.79
11
137.957
21
-104.724
0
LINE
8
BLACK
6
CONTINUOUS
10
137.957
20
-104.724
11
137.995
21
-104.667
0
LINE
8
BLACK
6
CONTINUOUS
10
137.995
20
-104.667
11
138.052
21
-104.629
0
LINE
8
BLACK
6
CONTINUOUS
10
138.052
20
-104.629
11
138.119
21
-104.615
0
LINE
8
BLACK
6
CONTINUOUS
10
138.119
20
-104.615
11
139.769
21
-104.615
0
LINE
8
BLACK
6
CONTINUOUS
10
139.769
20
-104.615
11
139.836
21
-104.629
0
LINE
8
BLACK
6
CONTINUOUS
10
144.792
20
-104.024
11
144.873
21
-104.078
0
LINE
8
BLACK
6
CONTINUOUS
10
144.873
20
-104.078
11
144.927
21
-104.159
0
LINE
8
BLACK
6
CONTINUOUS
10
144.927
20
-104.159
11
144.946
21
-104.255
0
LINE
8
BLACK
6
CONTINUOUS
10
144.946
20
-104.255
11
144.946
21
-104.755
0
LINE
8
BLACK
6
CONTINUOUS
10
144.946
20
-104.755
11
144.927
21
-104.851
0
LINE
8
BLACK
6
CONTINUOUS
10
144.927
20
-104.851
11
144.873
21
-104.932
0
LINE
8
BLACK
6
CONTINUOUS
10
144.873
20
-104.932
11
144.792
21
-104.986
0
LINE
8
BLACK
6
CONTINUOUS
10
144.792
20
-104.986
11
144.696
21
-105.005
0
LINE
8
BLACK
6
CONTINUOUS
10
144.696
20
-105.005
11
141.396
21
-105.005
0
LINE
8
BLACK
6
CONTINUOUS
10
141.396
20
-105.005
11
141.3
21
-104.986
0
LINE
8
BLACK
6
CONTINUOUS
10
141.3
20
-104.986
11
141.219
21
-104.932
0
LINE
8
BLACK
6
CONTINUOUS
10
141.219
20
-104.932
11
141.165
21
-104.851
0
LINE
8
BLACK
6
CONTINUOUS
10
141.165
20
-104.851
11
141.146
21
-104.755
0
LINE
8
BLACK
6
CONTINUOUS
10
141.146
20
-104.755
11
141.146
21
-104.255
0
LINE
8
BLACK
6
CONTINUOUS
10
141.146
20
-104.255
11
141.165
21
-104.159
0
LINE
8
BLACK
6
CONTINUOUS
10
141.165
20
-104.159
11
141.219
21
-104.078
0
LINE
8
BLACK
6
CONTINUOUS
10
141.219
20
-104.078
11
141.3
21
-104.024
0
LINE
8
BLACK
6
CONTINUOUS
10
141.3
20
-104.024
11
141.396
21
-104.005
0
LINE
8
BLACK
6
CONTINUOUS
10
141.396
20
-104.005
11
144.696
21
-104.005
0
LINE
8
BLACK
6
CONTINUOUS
10
144.696
20
-104.005
11
144.792
21
-104.024
0
LINE
8
BLACK
6
CONTINUOUS
10
139.836
20
-102.914
11
139.893
21
-102.952
0
LINE
8
BLACK
6
CONTINUOUS
10
139.893
20
-102.952
11
139.931
21
-103.009
0
LINE
8
BLACK
6
CONTINUOUS
10
139.931
20
-103.009
11
139.944
21
-103.076
0
LINE
8
BLACK
6
CONTINUOUS
10
139.944
20
-103.076
11
139.944
21
-103.426
0
LINE
8
BLACK
6
CONTINUOUS
10
139.944
20
-103.426
11
139.931
21
-103.493
0
LINE
8
BLACK
6
CONTINUOUS
10
139.931
20
-103.493
11
139.893
21
-103.55
0
LINE
8
BLACK
6
CONTINUOUS
10
139.893
20
-103.55
11
139.836
21
-103.588
0
LINE
8
BLACK
6
CONTINUOUS
10
139.836
20
-103.588
11
139.769
21
-103.601
0
LINE
8
BLACK
6
CONTINUOUS
10
139.769
20
-103.601
11
138.119
21
-103.601
0
LINE
8
BLACK
6
CONTINUOUS
10
138.119
20
-103.601
11
138.052
21
-103.588
0
LINE
8
BLACK
6
CONTINUOUS
10
138.052
20
-103.588
11
137.995
21
-103.55
0
LINE
8
BLACK
6
CONTINUOUS
10
137.995
20
-103.55
11
137.957
21
-103.493
0
LINE
8
BLACK
6
CONTINUOUS
10
137.957
20
-103.493
11
137.944
21
-103.426
0
LINE
8
BLACK
6
CONTINUOUS
10
137.944
20
-103.426
11
137.944
21
-103.076
0
LINE
8
BLACK
6
CONTINUOUS
10
137.944
20
-103.076
11
137.957
21
-103.009
0
LINE
8
BLACK
6
CONTINUOUS
10
137.957
20
-103.009
11
137.995
21
-102.952
0
LINE
8
BLACK
6
CONTINUOUS
10
137.995
20
-102.952
11
138.052
21
-102.914
0
LINE
8
BLACK
6
CONTINUOUS
10
138.052
20
-102.914
11
138.119
21
-102.901
0
LINE
8
BLACK
6
CONTINUOUS
10
138.119
20
-102.901
11
139.769
21
-102.901
0
LINE
8
BLACK
6
CONTINUOUS
10
139.769
20
-102.901
11
139.836
21
-102.914
0
LINE
8
BLACK
6
CONTINUOUS
10
134.236
20
-102.914
11
134.293
21
-102.952
0
LINE
8
BLACK
6
CONTINUOUS
10
134.293
20
-102.952
11
134.331
21
-103.009
0
LINE
8
BLACK
6
CONTINUOUS
10
134.331
20
-103.009
11
134.344
21
-103.076
0
LINE
8
BLACK
6
CONTINUOUS
10
134.344
20
-103.076
11
134.344
21
-103.426
0
LINE
8
BLACK
6
CONTINUOUS
10
134.344
20
-103.426
11
134.331
21
-103.493
0
LINE
8
BLACK
6
CONTINUOUS
10
134.331
20
-103.493
11
134.293
21
-103.55
0
LINE
8
BLACK
6
CONTINUOUS
10
134.293
20
-103.55
11
134.236
21
-103.588
0
LINE
8
BLACK
6
CONTINUOUS
10
134.236
20
-103.588
11
134.169
21
-103.601
0
LINE
8
BLACK
6
CONTINUOUS
10
134.169
20
-103.601
11
132.519
21
-103.601
0
LINE
8
BLACK
6
CONTINUOUS
10
132.519
20
-103.601
11
132.452
21
-103.588
0
LINE
8
BLACK
6
CONTINUOUS
10
132.452
20
-103.588
11
132.395
21
-103.55
0
LINE
8
BLACK
6
CONTINUOUS
10
132.395
20
-103.55
11
132.357
21
-103.493
0
LINE
8
BLACK
6
CONTINUOUS
10
132.357
20
-103.493
11
132.344
21
-103.426
0
LINE
8
BLACK
6
CONTINUOUS
10
132.344
20
-103.426
11
132.344
21
-103.076
0
LINE
8
BLACK
6
CONTINUOUS
10
132.344
20
-103.076
11
132.357
21
-103.009
0
LINE
8
BLACK
6
CONTINUOUS
10
132.357
20
-103.009
11
132.395
21
-102.952
0
LINE
8
BLACK
6
CONTINUOUS
10
132.395
20
-102.952
11
132.452
21
-102.914
0
LINE
8
BLACK
6
CONTINUOUS
10
132.452
20
-102.914
11
132.519
21
-102.901
0
LINE
8
BLACK
6
CONTINUOUS
10
132.519
20
-102.901
11
134.169
21
-102.901
0
LINE
8
BLACK
6
CONTINUOUS
10
134.169
20
-102.901
11
134.236
21
-102.914
0
LINE
8
BLACK
6
CONTINUOUS
10
144.792
20
-102.024
11
144.873
21
-102.078
0
LINE
8
BLACK
6
CONTINUOUS
10
144.873
20
-102.078
11
144.927
21
-102.159
0
LINE
8
BLACK
6
CONTINUOUS
10
144.927
20
-102.159
11
144.946
21
-102.255
0
LINE
8
BLACK
6
CONTINUOUS
10
144.946
20
-102.255
11
144.946
21
-102.755
0
LINE
8
BLACK
6
CONTINUOUS
10
144.946
20
-102.755
11
144.927
21
-102.851
0
LINE
8
BLACK
6
CONTINUOUS
10
144.927
20
-102.851
11
144.873
21
-102.932
0
LINE
8
BLACK
6
CONTINUOUS
10
144.873
20
-102.932
11
144.792
21
-102.986
0
LINE
8
BLACK
6
CONTINUOUS
10
144.792
20
-102.986
11
144.696
21
-103.005
0
LINE
8
BLACK
6
CONTINUOUS
10
144.696
20
-103.005
11
141.396
21
-103.005
0
LINE
8
BLACK
6
CONTINUOUS
10
141.396
20
-103.005
11
141.3
21
-102.986
0
LINE
8
BLACK
6
CONTINUOUS
10
141.3
20
-102.986
11
141.219
21
-102.932
0
LINE
8
BLACK
6
CONTINUOUS
10
141.219
20
-102.932
11
141.165
21
-102.851
0
LINE
8
BLACK
6
CONTINUOUS
10
141.165
20
-102.851
11
141.146
21
-102.755
0
LINE
8
BLACK
6
CONTINUOUS
10
141.146
20
-102.755
11
141.146
21
-102.255
0
LINE
8
BLACK
6
CONTINUOUS
10
141.146
20
-102.255
11
141.165
21
-102.159
0
LINE
8
BLACK
6
CONTINUOUS
10
141.165
20
-102.159
11
141.219
21
-102.078
0
LINE
8
BLACK
6
CONTINUOUS
10
141.219
20
-102.078
11
141.3
21
-102.024
0
LINE
8
BLACK
6
CONTINUOUS
10
141.3
20
-102.024
11
141.396
21
-102.005
0
LINE
8
BLACK
6
CONTINUOUS
10
141.396
20
-102.005
11
144.696
21
-102.005
0
LINE
8
BLACK
6
CONTINUOUS
10
144.696
20
-102.005
11
144.792
21
-102.024
0
LINE
8
BLACK
6
CONTINUOUS
10
136.828
20
-99.8119
11
136.968
21
-99.8672
0
LINE
8
BLACK
6
CONTINUOUS
10
136.968
20
-99.8672
11
137.087
21
-99.9578
0
LINE
8
BLACK
6
CONTINUOUS
10
137.087
20
-99.9578
11
137.178
21
-100.077
0
LINE
8
BLACK
6
CONTINUOUS
10
137.178
20
-100.077
11
137.233
21
-100.217
0
LINE
8
BLACK
6
CONTINUOUS
10
137.233
20
-100.217
11
137.249
21
-100.349
0
LINE
8
BLACK
6
CONTINUOUS
10
137.249
20
-100.349
11
137.249
21
-102.343
0
LINE
8
BLACK
6
CONTINUOUS
10
137.249
20
-102.343
11
137.233
21
-102.475
0
LINE
8
BLACK
6
CONTINUOUS
10
137.233
20
-102.475
11
137.178
21
-102.615
0
LINE
8
BLACK
6
CONTINUOUS
10
137.178
20
-102.615
11
137.087
21
-102.734
0
LINE
8
BLACK
6
CONTINUOUS
10
137.087
20
-102.734
11
136.968
21
-102.825
0
LINE
8
BLACK
6
CONTINUOUS
10
136.968
20
-102.825
11
136.828
21
-102.88
0
LINE
8
BLACK
6
CONTINUOUS
10
136.828
20
-102.88
11
136.696
21
-102.896
0
LINE
8
BLACK
6
CONTINUOUS
10
136.696
20
-102.896
11
135.591
21
-102.896
0
LINE
8
BLACK
6
CONTINUOUS
10
135.591
20
-102.896
11
135.46
21
-102.88
0
LINE
8
BLACK
6
CONTINUOUS
10
135.46
20
-102.88
11
135.32
21
-102.825
0
LINE
8
BLACK
6
CONTINUOUS
10
135.32
20
-102.825
11
135.201
21
-102.734
0
LINE
8
BLACK
6
CONTINUOUS
10
135.201
20
-102.734
11
135.11
21
-102.615
0
LINE
8
BLACK
6
CONTINUOUS
10
135.11
20
-102.615
11
135.055
21
-102.475
0
LINE
8
BLACK
6
CONTINUOUS
10
135.055
20
-102.475
11
135.039
21
-102.343
0
LINE
8
BLACK
6
CONTINUOUS
10
135.039
20
-102.343
11
135.039
21
-100.349
0
LINE
8
BLACK
6
CONTINUOUS
10
135.039
20
-100.349
11
135.055
21
-100.217
0
LINE
8
BLACK
6
CONTINUOUS
10
135.055
20
-100.217
11
135.11
21
-100.077
0
LINE
8
BLACK
6
CONTINUOUS
10
135.11
20
-100.077
11
135.201
21
-99.9578
0
LINE
8
BLACK
6
CONTINUOUS
10
135.201
20
-99.9578
11
135.32
21
-99.8672
0
LINE
8
BLACK
6
CONTINUOUS
10
135.32
20
-99.8672
11
135.46
21
-99.8119
0
LINE
8
BLACK
6
CONTINUOUS
10
135.46
20
-99.8119
11
135.591
21
-99.796
0
LINE
8
BLACK
6
CONTINUOUS
10
135.591
20
-99.796
11
136.696
21
-99.796
0
LINE
8
BLACK
6
CONTINUOUS
10
136.696
20
-99.796
11
136.828
21
-99.8119
0
LINE
8
BLACK
6
CONTINUOUS
10
134.236
20
-101.644
11
134.293
21
-101.682
0
LINE
8
BLACK
6
CONTINUOUS
10
134.293
20
-101.682
11
134.331
21
-101.739
0
LINE
8
BLACK
6
CONTINUOUS
10
134.331
20
-101.739
11
134.344
21
-101.806
0
LINE
8
BLACK
6
CONTINUOUS
10
134.344
20
-101.806
11
134.344
21
-102.156
0
LINE
8
BLACK
6
CONTINUOUS
10
134.344
20
-102.156
11
134.331
21
-102.223
0
LINE
8
BLACK
6
CONTINUOUS
10
134.331
20
-102.223
11
134.293
21
-102.28
0
LINE
8
BLACK
6
CONTINUOUS
10
134.293
20
-102.28
11
134.236
21
-102.318
0
LINE
8
BLACK
6
CONTINUOUS
10
134.236
20
-102.318
11
134.169
21
-102.331
0
LINE
8
BLACK
6
CONTINUOUS
10
134.169
20
-102.331
11
132.519
21
-102.331
0
LINE
8
BLACK
6
CONTINUOUS
10
132.519
20
-102.331
11
132.452
21
-102.318
0
LINE
8
BLACK
6
CONTINUOUS
10
132.452
20
-102.318
11
132.395
21
-102.28
0
LINE
8
BLACK
6
CONTINUOUS
10
132.395
20
-102.28
11
132.357
21
-102.223
0
LINE
8
BLACK
6
CONTINUOUS
10
132.357
20
-102.223
11
132.344
21
-102.156
0
LINE
8
BLACK
6
CONTINUOUS
10
132.344
20
-102.156
11
132.344
21
-101.806
0
LINE
8
BLACK
6
CONTINUOUS
10
132.344
20
-101.806
11
132.357
21
-101.739
0
LINE
8
BLACK
6
CONTINUOUS
10
132.357
20
-101.739
11
132.395
21
-101.682
0
LINE
8
BLACK
6
CONTINUOUS
10
132.395
20
-101.682
11
132.452
21
-101.644
0
LINE
8
BLACK
6
CONTINUOUS
10
132.452
20
-101.644
11
132.519
21
-101.631
0
LINE
8
BLACK
6
CONTINUOUS
10
132.519
20
-101.631
11
134.169
21
-101.631
0
LINE
8
BLACK
6
CONTINUOUS
10
134.169
20
-101.631
11
134.236
21
-101.644
0
LINE
8
BLACK
6
CONTINUOUS
10
139.836
20
-101.644
11
139.893
21
-101.682
0
LINE
8
BLACK
6
CONTINUOUS
10
139.893
20
-101.682
11
139.931
21
-101.739
0
LINE
8
BLACK
6
CONTINUOUS
10
139.931
20
-101.739
11
139.944
21
-101.806
0
LINE
8
BLACK
6
CONTINUOUS
10
139.944
20
-101.806
11
139.944
21
-102.156
0
LINE
8
BLACK
6
CONTINUOUS
10
139.944
20
-102.156
11
139.931
21
-102.223
0
LINE
8
BLACK
6
CONTINUOUS
10
139.931
20
-102.223
11
139.893
21
-102.28
0
LINE
8
BLACK
6
CONTINUOUS
10
139.893
20
-102.28
11
139.836
21
-102.318
0
LINE
8
BLACK
6
CONTINUOUS
10
139.836
20
-102.318
11
139.769
21
-102.331
0
LINE
8
BLACK
6
CONTINUOUS
10
139.769
20
-102.331
11
138.119
21
-102.331
0
LINE
8
BLACK
6
CONTINUOUS
10
138.119
20
-102.331
11
138.052
21
-102.318
0
LINE
8
BLACK
6
CONTINUOUS
10
138.052
20
-102.318
11
137.995
21
-102.28
0
LINE
8
BLACK
6
CONTINUOUS
10
137.995
20
-102.28
11
137.957
21
-102.223
0
LINE
8
BLACK
6
CONTINUOUS
10
137.957
20
-102.223
11
137.944
21
-102.156
0
LINE
8
BLACK
6
CONTINUOUS
10
137.944
20
-102.156
11
137.944
21
-101.806
0
LINE
8
BLACK
6
CONTINUOUS
10
137.944
20
-101.806
11
137.957
21
-101.739
0
LINE
8
BLACK
6
CONTINUOUS
10
137.957
20
-101.739
11
137.995
21
-101.682
0
LINE
8
BLACK
6
CONTINUOUS
10
137.995
20
-101.682
11
138.052
21
-101.644
0
LINE
8
BLACK
6
CONTINUOUS
10
138.052
20
-101.644
11
138.119
21
-101.631
0
LINE
8
BLACK
6
CONTINUOUS
10
138.119
20
-101.631
11
139.769
21
-101.631
0
LINE
8
BLACK
6
CONTINUOUS
10
139.769
20
-101.631
11
139.836
21
-101.644
0
LINE
8
BLACK
6
CONTINUOUS
10
134.236
20
-100.374
11
134.293
21
-100.412
0
LINE
8
BLACK
6
CONTINUOUS
10
134.293
20
-100.412
11
134.331
21
-100.469
0
LINE
8
BLACK
6
CONTINUOUS
10
134.331
20
-100.469
11
134.344
21
-100.536
0
LINE
8
BLACK
6
CONTINUOUS
10
134.344
20
-100.536
11
134.344
21
-100.886
0
LINE
8
BLACK
6
CONTINUOUS
10
134.344
20
-100.886
11
134.331
21
-100.953
0
LINE
8
BLACK
6
CONTINUOUS
10
134.331
20
-100.953
11
134.293
21
-101.01
0
LINE
8
BLACK
6
CONTINUOUS
10
134.293
20
-101.01
11
134.236
21
-101.048
0
LINE
8
BLACK
6
CONTINUOUS
10
134.236
20
-101.048
11
134.169
21
-101.061
0
LINE
8
BLACK
6
CONTINUOUS
10
134.169
20
-101.061
11
132.519
21
-101.061
0
LINE
8
BLACK
6
CONTINUOUS
10
132.519
20
-101.061
11
132.452
21
-101.048
0
LINE
8
BLACK
6
CONTINUOUS
10
132.452
20
-101.048
11
132.395
21
-101.01
0
LINE
8
BLACK
6
CONTINUOUS
10
132.395
20
-101.01
11
132.357
21
-100.953
0
LINE
8
BLACK
6
CONTINUOUS
10
132.357
20
-100.953
11
132.344
21
-100.886
0
LINE
8
BLACK
6
CONTINUOUS
10
132.344
20
-100.886
11
132.344
21
-100.536
0
LINE
8
BLACK
6
CONTINUOUS
10
132.344
20
-100.536
11
132.357
21
-100.469
0
LINE
8
BLACK
6
CONTINUOUS
10
132.357
20
-100.469
11
132.395
21
-100.412
0
LINE
8
BLACK
6
CONTINUOUS
10
132.395
20
-100.412
11
132.452
21
-100.374
0
LINE
8
BLACK
6
CONTINUOUS
10
132.452
20
-100.374
11
132.519
21
-100.361
0
LINE
8
BLACK
6
CONTINUOUS
10
132.519
20
-100.361
11
134.169
21
-100.361
0
LINE
8
BLACK
6
CONTINUOUS
10
134.169
20
-100.361
11
134.236
21
-100.374
0
LINE
8
BLACK
6
CONTINUOUS
10
139.836
20
-100.374
11
139.893
21
-100.412
0
LINE
8
BLACK
6
CONTINUOUS
10
139.893
20
-100.412
11
139.931
21
-100.469
0
LINE
8
BLACK
6
CONTINUOUS
10
139.931
20
-100.469
11
139.944
21
-100.536
0
LINE
8
BLACK
6
CONTINUOUS
10
139.944
20
-100.536
11
139.944
21
-100.886
0
LINE
8
BLACK
6
CONTINUOUS
10
139.944
20
-100.886
11
139.931
21
-100.953
0
LINE
8
BLACK
6
CONTINUOUS
10
139.931
20
-100.953
11
139.893
21
-101.01
0
LINE
8
BLACK
6
CONTINUOUS
10
139.893
20
-101.01
11
139.836
21
-101.048
0
LINE
8
BLACK
6
CONTINUOUS
10
139.836
20
-101.048
11
139.769
21
-101.061
0
LINE
8
BLACK
6
CONTINUOUS
10
139.769
20
-101.061
11
138.119
21
-101.061
0
LINE
8
BLACK
6
CONTINUOUS
10
138.119
20
-101.061
11
138.052
21
-101.048
0
LINE
8
BLACK
6
CONTINUOUS
10
138.052
20
-101.048
11
137.995
21
-101.01
0
LINE
8
BLACK
6
CONTINUOUS
10
137.995
20
-101.01
11
137.957
21
-100.953
0
LINE
8
BLACK
6
CONTINUOUS
10
137.957
20
-100.953
11
137.944
21
-100.886
0
LINE
8
BLACK
6
CONTINUOUS
10
137.944
20
-100.886
11
137.944
21
-100.536
0
LINE
8
BLACK
6
CONTINUOUS
10
137.944
20
-100.536
11
137.957
21
-100.469
0
LINE
8
BLACK
6
CONTINUOUS
10
137.957
20
-100.469
11
137.995
21
-100.412
0
LINE
8
BLACK
6
CONTINUOUS
10
137.995
20
-100.412
11
138.052
21
-100.374
0
LINE
8
BLACK
6
CONTINUOUS
10
138.052
20
-100.374
11
138.119
21
-100.361
0
LINE
8
BLACK
6
CONTINUOUS
10
138.119
20
-100.361
11
139.769
21
-100.361
0
LINE
8
BLACK
6
CONTINUOUS
10
139.769
20
-100.361
11
139.836
21
-100.374
0
LINE
8
BLACK
6
CONTINUOUS
10
144.792
20
-100.024
11
144.873
21
-100.078
0
LINE
8
BLACK
6
CONTINUOUS
10
144.873
20
-100.078
11
144.927
21
-100.159
0
LINE
8
BLACK
6
CONTINUOUS
10
144.927
20
-100.159
11
144.946
21
-100.255
0
LINE
8
BLACK
6
CONTINUOUS
10
144.946
20
-100.255
11
144.946
21
-100.755
0
LINE
8
BLACK
6
CONTINUOUS
10
144.946
20
-100.755
11
144.927
21
-100.851
0
LINE
8
BLACK
6
CONTINUOUS
10
144.927
20
-100.851
11
144.873
21
-100.932
0
LINE
8
BLACK
6
CONTINUOUS
10
144.873
20
-100.932
11
144.792
21
-100.986
0
LINE
8
BLACK
6
CONTINUOUS
10
144.792
20
-100.986
11
144.696
21
-101.005
0
LINE
8
BLACK
6
CONTINUOUS
10
144.696
20
-101.005
11
141.396
21
-101.005
0
LINE
8
BLACK
6
CONTINUOUS
10
141.396
20
-101.005
11
141.3
21
-100.986
0
LINE
8
BLACK
6
CONTINUOUS
10
141.3
20
-100.986
11
141.219
21
-100.932
0
LINE
8
BLACK
6
CONTINUOUS
10
141.219
20
-100.932
11
141.165
21
-100.851
0
LINE
8
BLACK
6
CONTINUOUS
10
141.165
20
-100.851
11
141.146
21
-100.755
0
LINE
8
BLACK
6
CONTINUOUS
10
141.146
20
-100.755
11
141.146
21
-100.255
0
LINE
8
BLACK
6
CONTINUOUS
10
141.146
20
-100.255
11
141.165
21
-100.159
0
LINE
8
BLACK
6
CONTINUOUS
10
141.165
20
-100.159
11
141.219
21
-100.078
0
LINE
8
BLACK
6
CONTINUOUS
10
141.219
20
-100.078
11
141.3
21
-100.024
0
LINE
8
BLACK
6
CONTINUOUS
10
141.3
20
-100.024
11
141.396
21
-100.005
0
LINE
8
BLACK
6
CONTINUOUS
10
141.396
20
-100.005
11
144.696
21
-100.005
0
LINE
8
BLACK
6
CONTINUOUS
10
144.696
20
-100.005
11
144.792
21
-100.024
0
LINE
8
BLACK
6
CONTINUOUS
10
134.236
20
-99.1043
11
134.293
21
-99.1423
0
LINE
8
BLACK
6
CONTINUOUS
10
134.293
20
-99.1423
11
134.331
21
-99.199
0
LINE
8
BLACK
6
CONTINUOUS
10
134.331
20
-99.199
11
134.344
21
-99.266
0
LINE
8
BLACK
6
CONTINUOUS
10
134.344
20
-99.266
11
134.344
21
-99.616
0
LINE
8
BLACK
6
CONTINUOUS
10
134.344
20
-99.616
11
134.331
21
-99.683
0
LINE
8
BLACK
6
CONTINUOUS
10
134.331
20
-99.683
11
134.293
21
-99.7397
0
LINE
8
BLACK
6
CONTINUOUS
10
134.293
20
-99.7397
11
134.236
21
-99.7777
0
LINE
8
BLACK
6
CONTINUOUS
10
134.236
20
-99.7777
11
134.169
21
-99.791
0
LINE
8
BLACK
6
CONTINUOUS
10
134.169
20
-99.791
11
132.519
21
-99.791
0
LINE
8
BLACK
6
CONTINUOUS
10
132.519
20
-99.791
11
132.452
21
-99.7777
0
LINE
8
BLACK
6
CONTINUOUS
10
132.452
20
-99.7777
11
132.395
21
-99.7397
0
LINE
8
BLACK
6
CONTINUOUS
10
132.395
20
-99.7397
11
132.357
21
-99.683
0
LINE
8
BLACK
6
CONTINUOUS
10
132.357
20
-99.683
11
132.344
21
-99.616
0
LINE
8
BLACK
6
CONTINUOUS
10
132.344
20
-99.616
11
132.344
21
-99.266
0
LINE
8
BLACK
6
CONTINUOUS
10
132.344
20
-99.266
11
132.357
21
-99.199
0
LINE
8
BLACK
6
CONTINUOUS
10
132.357
20
-99.199
11
132.395
21
-99.1423
0
LINE
8
BLACK
6
CONTINUOUS
10
132.395
20
-99.1423
11
132.452
21
-99.1043
0
LINE
8
BLACK
6
CONTINUOUS
10
132.452
20
-99.1043
11
132.519
21
-99.091
0
LINE
8
BLACK
6
CONTINUOUS
10
132.519
20
-99.091
11
134.169
21
-99.091
0
LINE
8
BLACK
6
CONTINUOUS
10
134.169
20
-99.091
11
134.236
21
-99.1043
0
LINE
8
BLACK
6
CONTINUOUS
10
139.836
20
-99.1043
11
139.893
21
-99.1423
0
LINE
8
BLACK
6
CONTINUOUS
10
139.893
20
-99.1423
11
139.931
21
-99.199
0
LINE
8
BLACK
6
CONTINUOUS
10
139.931
20
-99.199
11
139.944
21
-99.266
0
LINE
8
BLACK
6
CONTINUOUS
10
139.944
20
-99.266
11
139.944
21
-99.616
0
LINE
8
BLACK
6
CONTINUOUS
10
139.944
20
-99.616
11
139.931
21
-99.683
0
LINE
8
BLACK
6
CONTINUOUS
10
139.931
20
-99.683
11
139.893
21
-99.7397
0
LINE
8
BLACK
6
CONTINUOUS
10
139.893
20
-99.7397
11
139.836
21
-99.7777
0
LINE
8
BLACK
6
CONTINUOUS
10
139.836
20
-99.7777
11
139.769
21
-99.791
0
LINE
8
BLACK
6
CONTINUOUS
10
139.769
20
-99.791
11
138.119
21
-99.791
0
LINE
8
BLACK
6
CONTINUOUS
10
138.119
20
-99.791
11
138.052
21
-99.7777
0
LINE
8
BLACK
6
CONTINUOUS
10
138.052
20
-99.7777
11
137.995
21
-99.7397
0
LINE
8
BLACK
6
CONTINUOUS
10
137.995
20
-99.7397
11
137.957
21
-99.683
0
LINE
8
BLACK
6
CONTINUOUS
10
137.957
20
-99.683
11
137.944
21
-99.616
0
LINE
8
BLACK
6
CONTINUOUS
10
137.944
20
-99.616
11
137.944
21
-99.266
0
LINE
8
BLACK
6
CONTINUOUS
10
137.944
20
-99.266
11
137.957
21
-99.199
0
LINE
8
BLACK
6
CONTINUOUS
10
137.957
20
-99.199
11
137.995
21
-99.1423
0
LINE
8
BLACK
6
CONTINUOUS
10
137.995
20
-99.1423
11
138.052
21
-99.1043
0
LINE
8
BLACK
6
CONTINUOUS
10
138.052
20
-99.1043
11
138.119
21
-99.091
0
LINE
8
BLACK
6
CONTINUOUS
10
138.119
20
-99.091
11
139.769
21
-99.091
0
LINE
8
BLACK
6
CONTINUOUS
10
139.769
20
-99.091
11
139.836
21
-99.1043
0
LINE
8
BLACK
6
CONTINUOUS
10
150.178
20
-96.9206
11
150.289
21
-96.9747
0
LINE
8
BLACK
6
CONTINUOUS
10
150.289
20
-96.9747
11
150.376
21
-97.0617
0
LINE
8
BLACK
6
CONTINUOUS
10
150.376
20
-97.0617
11
150.43
21
-97.1722
0
LINE
8
BLACK
6
CONTINUOUS
10
150.43
20
-97.1722
11
150.446
21
-97.28
0
LINE
8
BLACK
6
CONTINUOUS
10
150.446
20
-97.28
11
150.446
21
-98.03
0
LINE
8
BLACK
6
CONTINUOUS
10
150.446
20
-98.03
11
150.43
21
-98.1371
0
LINE
8
BLACK
6
CONTINUOUS
10
150.43
20
-98.1371
11
150.376
21
-98.2478
0
LINE
8
BLACK
6
CONTINUOUS
10
150.376
20
-98.2478
11
150.289
21
-98.3349
0
LINE
8
BLACK
6
CONTINUOUS
10
150.289
20
-98.3349
11
150.179
21
-98.3892
0
LINE
8
BLACK
6
CONTINUOUS
10
150.179
20
-98.3892
11
150.071
21
-98.405
0
LINE
8
BLACK
6
CONTINUOUS
10
150.071
20
-98.405
11
147.421
21
-98.405
0
LINE
8
BLACK
6
CONTINUOUS
10
147.421
20
-98.405
11
147.314
21
-98.3894
0
LINE
8
BLACK
6
CONTINUOUS
10
147.314
20
-98.3894
11
147.203
21
-98.3353
0
LINE
8
BLACK
6
CONTINUOUS
10
147.203
20
-98.3353
11
147.116
21
-98.2483
0
LINE
8
BLACK
6
CONTINUOUS
10
147.116
20
-98.2483
11
147.062
21
-98.1378
0
LINE
8
BLACK
6
CONTINUOUS
10
147.062
20
-98.1378
11
147.046
21
-98.03
0
LINE
8
BLACK
6
CONTINUOUS
10
147.046
20
-98.03
11
147.046
21
-97.28
0
LINE
8
BLACK
6
CONTINUOUS
10
147.046
20
-97.28
11
147.062
21
-97.1729
0
LINE
8
BLACK
6
CONTINUOUS
10
147.062
20
-97.1729
11
147.116
21
-97.0622
0
LINE
8
BLACK
6
CONTINUOUS
10
147.116
20
-97.0622
11
147.203
21
-96.9751
0
LINE
8
BLACK
6
CONTINUOUS
10
147.203
20
-96.9751
11
147.313
21
-96.9208
0
LINE
8
BLACK
6
CONTINUOUS
10
147.313
20
-96.9208
11
147.421
21
-96.905
0
LINE
8
BLACK
6
CONTINUOUS
10
147.421
20
-96.905
11
150.071
21
-96.905
0
LINE
8
BLACK
6
CONTINUOUS
10
150.071
20
-96.905
11
150.178
21
-96.9206
0
LINE
8
BLACK
6
CONTINUOUS
10
149.946
20
-94.961
11
150.046
21
-95.0055
0
LINE
8
BLACK
6
CONTINUOUS
10
150.046
20
-95.0055
11
150.124
21
-95.0831
0
LINE
8
BLACK
6
CONTINUOUS
10
150.124
20
-95.0831
11
150.169
21
-95.1835
0
LINE
8
BLACK
6
CONTINUOUS
10
150.169
20
-95.1835
11
150.177
21
-95.253
0
LINE
8
BLACK
6
CONTINUOUS
10
150.177
20
-95.253
11
150.177
21
-95.853
0
LINE
8
BLACK
6
CONTINUOUS
10
150.177
20
-95.853
11
150.169
21
-95.922
0
LINE
8
BLACK
6
CONTINUOUS
10
150.169
20
-95.922
11
150.125
21
-96.0225
0
LINE
8
BLACK
6
CONTINUOUS
10
150.125
20
-96.0225
11
150.047
21
-96.1002
0
LINE
8
BLACK
6
CONTINUOUS
10
150.047
20
-96.1002
11
149.947
21
-96.1448
0
LINE
8
BLACK
6
CONTINUOUS
10
149.947
20
-96.1448
11
149.877
21
-96.153
0
LINE
8
BLACK
6
CONTINUOUS
10
149.877
20
-96.153
11
148.477
21
-96.153
0
LINE
8
BLACK
6
CONTINUOUS
10
148.477
20
-96.153
11
148.408
21
-96.145
0
LINE
8
BLACK
6
CONTINUOUS
10
148.408
20
-96.145
11
148.308
21
-96.1005
0
LINE
8
BLACK
6
CONTINUOUS
10
148.308
20
-96.1005
11
148.23
21
-96.0229
0
LINE
8
BLACK
6
CONTINUOUS
10
148.23
20
-96.0229
11
148.185
21
-95.9225
0
LINE
8
BLACK
6
CONTINUOUS
10
148.185
20
-95.9225
11
148.177
21
-95.853
0
LINE
8
BLACK
6
CONTINUOUS
10
148.177
20
-95.853
11
148.177
21
-95.253
0
LINE
8
BLACK
6
CONTINUOUS
10
148.177
20
-95.253
11
148.185
21
-95.184
0
LINE
8
BLACK
6
CONTINUOUS
10
148.185
20
-95.184
11
148.229
21
-95.0835
0
LINE
8
BLACK
6
CONTINUOUS
10
148.229
20
-95.0835
11
148.307
21
-95.0058
0
LINE
8
BLACK
6
CONTINUOUS
10
148.307
20
-95.0058
11
148.407
21
-94.9612
0
LINE
8
BLACK
6
CONTINUOUS
10
148.407
20
-94.9612
11
148.477
21
-94.953
0
LINE
8
BLACK
6
CONTINUOUS
10
148.477
20
-94.953
11
149.877
21
-94.953
0
LINE
8
BLACK
6
CONTINUOUS
10
149.877
20
-94.953
11
149.946
21
-94.961
0
LINE
8
BLACK
6
CONTINUOUS
10
110.926
20
-94.961
11
111.026
21
-95.0055
0
LINE
8
BLACK
6
CONTINUOUS
10
111.026
20
-95.0055
11
111.104
21
-95.0831
0
LINE
8
BLACK
6
CONTINUOUS
10
111.104
20
-95.0831
11
111.149
21
-95.1835
0
LINE
8
BLACK
6
CONTINUOUS
10
111.149
20
-95.1835
11
111.157
21
-95.253
0
LINE
8
BLACK
6
CONTINUOUS
10
111.157
20
-95.253
11
111.157
21
-95.853
0
LINE
8
BLACK
6
CONTINUOUS
10
111.157
20
-95.853
11
111.149
21
-95.922
0
LINE
8
BLACK
6
CONTINUOUS
10
111.149
20
-95.922
11
111.105
21
-96.0225
0
LINE
8
BLACK
6
CONTINUOUS
10
111.105
20
-96.0225
11
111.027
21
-96.1002
0
LINE
8
BLACK
6
CONTINUOUS
10
111.027
20
-96.1002
11
110.927
21
-96.1448
0
LINE
8
BLACK
6
CONTINUOUS
10
110.927
20
-96.1448
11
110.857
21
-96.153
0
LINE
8
BLACK
6
CONTINUOUS
10
110.857
20
-96.153
11
109.457
21
-96.153
0
LINE
8
BLACK
6
CONTINUOUS
10
109.457
20
-96.153
11
109.388
21
-96.145
0
LINE
8
BLACK
6
CONTINUOUS
10
109.388
20
-96.145
11
109.288
21
-96.1005
0
LINE
8
BLACK
6
CONTINUOUS
10
109.288
20
-96.1005
11
109.21
21
-96.0229
0
LINE
8
BLACK
6
CONTINUOUS
10
109.21
20
-96.0229
11
109.165
21
-95.9225
0
LINE
8
BLACK
6
CONTINUOUS
10
109.165
20
-95.9225
11
109.157
21
-95.853
0
LINE
8
BLACK
6
CONTINUOUS
10
109.157
20
-95.853
11
109.157
21
-95.253
0
LINE
8
BLACK
6
CONTINUOUS
10
109.157
20
-95.253
11
109.165
21
-95.184
0
LINE
8
BLACK
6
CONTINUOUS
10
109.165
20
-95.184
11
109.209
21
-95.0835
0
LINE
8
BLACK
6
CONTINUOUS
10
109.209
20
-95.0835
11
109.287
21
-95.0058
0
LINE
8
BLACK
6
CONTINUOUS
10
109.287
20
-95.0058
11
109.387
21
-94.9612
0
LINE
8
BLACK
6
CONTINUOUS
10
109.387
20
-94.9612
11
109.457
21
-94.953
0
LINE
8
BLACK
6
CONTINUOUS
10
109.457
20
-94.953
11
110.857
21
-94.953
0
LINE
8
BLACK
6
CONTINUOUS
10
110.857
20
-94.953
11
110.926
21
-94.961
0
LINE
8
BLACK
6
CONTINUOUS
10
114.764
20
-94.0644
11
114.813
21
-94.0969
0
LINE
8
BLACK
6
CONTINUOUS
10
114.813
20
-94.0969
11
114.846
21
-94.1456
0
LINE
8
BLACK
6
CONTINUOUS
10
114.846
20
-94.1456
11
114.857
21
-94.203
0
LINE
8
BLACK
6
CONTINUOUS
10
114.857
20
-94.203
11
114.857
21
-94.503
0
LINE
8
BLACK
6
CONTINUOUS
10
114.857
20
-94.503
11
114.846
21
-94.5604
0
LINE
8
BLACK
6
CONTINUOUS
10
114.846
20
-94.5604
11
114.813
21
-94.6091
0
LINE
8
BLACK
6
CONTINUOUS
10
114.813
20
-94.6091
11
114.764
21
-94.6416
0
LINE
8
BLACK
6
CONTINUOUS
10
114.764
20
-94.6416
11
114.707
21
-94.653
0
LINE
8
BLACK
6
CONTINUOUS
10
114.707
20
-94.653
11
113.407
21
-94.653
0
LINE
8
BLACK
6
CONTINUOUS
10
113.407
20
-94.653
11
113.35
21
-94.6416
0
LINE
8
BLACK
6
CONTINUOUS
10
113.35
20
-94.6416
11
113.301
21
-94.6091
0
LINE
8
BLACK
6
CONTINUOUS
10
113.301
20
-94.6091
11
113.268
21
-94.5604
0
LINE
8
BLACK
6
CONTINUOUS
10
113.268
20
-94.5604
11
113.257
21
-94.503
0
LINE
8
BLACK
6
CONTINUOUS
10
113.257
20
-94.503
11
113.257
21
-94.203
0
LINE
8
BLACK
6
CONTINUOUS
10
113.257
20
-94.203
11
113.268
21
-94.1456
0
LINE
8
BLACK
6
CONTINUOUS
10
113.268
20
-94.1456
11
113.301
21
-94.0969
0
LINE
8
BLACK
6
CONTINUOUS
10
113.301
20
-94.0969
11
113.35
21
-94.0644
0
LINE
8
BLACK
6
CONTINUOUS
10
113.35
20
-94.0644
11
113.407
21
-94.053
0
LINE
8
BLACK
6
CONTINUOUS
10
113.407
20
-94.053
11
114.707
21
-94.053
0
LINE
8
BLACK
6
CONTINUOUS
10
114.707
20
-94.053
11
114.764
21
-94.0644
0
LINE
8
BLACK
6
CONTINUOUS
10
145.984
20
-94.0644
11
146.033
21
-94.0969
0
LINE
8
BLACK
6
CONTINUOUS
10
146.033
20
-94.0969
11
146.066
21
-94.1456
0
LINE
8
BLACK
6
CONTINUOUS
10
146.066
20
-94.1456
11
146.077
21
-94.203
0
LINE
8
BLACK
6
CONTINUOUS
10
146.077
20
-94.203
11
146.077
21
-94.503
0
LINE
8
BLACK
6
CONTINUOUS
10
146.077
20
-94.503
11
146.066
21
-94.5604
0
LINE
8
BLACK
6
CONTINUOUS
10
146.066
20
-94.5604
11
146.033
21
-94.6091
0
LINE
8
BLACK
6
CONTINUOUS
10
146.033
20
-94.6091
11
145.984
21
-94.6416
0
LINE
8
BLACK
6
CONTINUOUS
10
145.984
20
-94.6416
11
145.927
21
-94.653
0
LINE
8
BLACK
6
CONTINUOUS
10
145.927
20
-94.653
11
144.627
21
-94.653
0
LINE
8
BLACK
6
CONTINUOUS
10
144.627
20
-94.653
11
144.57
21
-94.6416
0
LINE
8
BLACK
6
CONTINUOUS
10
144.57
20
-94.6416
11
144.521
21
-94.6091
0
LINE
8
BLACK
6
CONTINUOUS
10
144.521
20
-94.6091
11
144.488
21
-94.5604
0
LINE
8
BLACK
6
CONTINUOUS
10
144.488
20
-94.5604
11
144.477
21
-94.503
0
LINE
8
BLACK
6
CONTINUOUS
10
144.477
20
-94.503
11
144.477
21
-94.203
0
LINE
8
BLACK
6
CONTINUOUS
10
144.477
20
-94.203
11
144.488
21
-94.1456
0
LINE
8
BLACK
6
CONTINUOUS
10
144.488
20
-94.1456
11
144.521
21
-94.0969
0
LINE
8
BLACK
6
CONTINUOUS
10
144.521
20
-94.0969
11
144.57
21
-94.0644
0
LINE
8
BLACK
6
CONTINUOUS
10
144.57
20
-94.0644
11
144.627
21
-94.053
0
LINE
8
BLACK
6
CONTINUOUS
10
144.627
20
-94.053
11
145.927
21
-94.053
0
LINE
8
BLACK
6
CONTINUOUS
10
145.927
20
-94.053
11
145.984
21
-94.0644
0
LINE
8
BLACK
6
CONTINUOUS
10
145.984
20
-93.0644
11
146.033
21
-93.0969
0
LINE
8
BLACK
6
CONTINUOUS
10
146.033
20
-93.0969
11
146.066
21
-93.1456
0
LINE
8
BLACK
6
CONTINUOUS
10
146.066
20
-93.1456
11
146.077
21
-93.203
0
LINE
8
BLACK
6
CONTINUOUS
10
146.077
20
-93.203
11
146.077
21
-93.503
0
LINE
8
BLACK
6
CONTINUOUS
10
146.077
20
-93.503
11
146.066
21
-93.5604
0
LINE
8
BLACK
6
CONTINUOUS
10
146.066
20
-93.5604
11
146.033
21
-93.6091
0
LINE
8
BLACK
6
CONTINUOUS
10
146.033
20
-93.6091
11
145.984
21
-93.6416
0
LINE
8
BLACK
6
CONTINUOUS
10
145.984
20
-93.6416
11
145.927
21
-93.653
0
LINE
8
BLACK
6
CONTINUOUS
10
145.927
20
-93.653
11
144.627
21
-93.653
0
LINE
8
BLACK
6
CONTINUOUS
10
144.627
20
-93.653
11
144.57
21
-93.6416
0
LINE
8
BLACK
6
CONTINUOUS
10
144.57
20
-93.6416
11
144.521
21
-93.6091
0
LINE
8
BLACK
6
CONTINUOUS
10
144.521
20
-93.6091
11
144.488
21
-93.5604
0
LINE
8
BLACK
6
CONTINUOUS
10
144.488
20
-93.5604
11
144.477
21
-93.503
0
LINE
8
BLACK
6
CONTINUOUS
10
144.477
20
-93.503
11
144.477
21
-93.203
0
LINE
8
BLACK
6
CONTINUOUS
10
144.477
20
-93.203
11
144.488
21
-93.1456
0
LINE
8
BLACK
6
CONTINUOUS
10
144.488
20
-93.1456
11
144.521
21
-93.0969
0
LINE
8
BLACK
6
CONTINUOUS
10
144.521
20
-93.0969
11
144.57
21
-93.0644
0
LINE
8
BLACK
6
CONTINUOUS
10
144.57
20
-93.0644
11
144.627
21
-93.053
0
LINE
8
BLACK
6
CONTINUOUS
10
144.627
20
-93.053
11
145.927
21
-93.053
0
LINE
8
BLACK
6
CONTINUOUS
10
145.927
20
-93.053
11
145.984
21
-93.0644
0
LINE
8
BLACK
6
CONTINUOUS
10
114.764
20
-93.0644
11
114.813
21
-93.0969
0
LINE
8
BLACK
6
CONTINUOUS
10
114.813
20
-93.0969
11
114.846
21
-93.1456
0
LINE
8
BLACK
6
CONTINUOUS
10
114.846
20
-93.1456
11
114.857
21
-93.203
0
LINE
8
BLACK
6
CONTINUOUS
10
114.857
20
-93.203
11
114.857
21
-93.503
0
LINE
8
BLACK
6
CONTINUOUS
10
114.857
20
-93.503
11
114.846
21
-93.5604
0
LINE
8
BLACK
6
CONTINUOUS
10
114.846
20
-93.5604
11
114.813
21
-93.6091
0
LINE
8
BLACK
6
CONTINUOUS
10
114.813
20
-93.6091
11
114.764
21
-93.6416
0
LINE
8
BLACK
6
CONTINUOUS
10
114.764
20
-93.6416
11
114.707
21
-93.653
0
LINE
8
BLACK
6
CONTINUOUS
10
114.707
20
-93.653
11
113.407
21
-93.653
0
LINE
8
BLACK
6
CONTINUOUS
10
113.407
20
-93.653
11
113.35
21
-93.6416
0
LINE
8
BLACK
6
CONTINUOUS
10
113.35
20
-93.6416
11
113.301
21
-93.6091
0
LINE
8
BLACK
6
CONTINUOUS
10
113.301
20
-93.6091
11
113.268
21
-93.5604
0
LINE
8
BLACK
6
CONTINUOUS
10
113.268
20
-93.5604
11
113.257
21
-93.503
0
LINE
8
BLACK
6
CONTINUOUS
10
113.257
20
-93.503
11
113.257
21
-93.203
0
LINE
8
BLACK
6
CONTINUOUS
10
113.257
20
-93.203
11
113.268
21
-93.1456
0
LINE
8
BLACK
6
CONTINUOUS
10
113.268
20
-93.1456
11
113.301
21
-93.0969
0
LINE
8
BLACK
6
CONTINUOUS
10
113.301
20
-93.0969
11
113.35
21
-93.0644
0
LINE
8
BLACK
6
CONTINUOUS
10
113.35
20
-93.0644
11
113.407
21
-93.053
0
LINE
8
BLACK
6
CONTINUOUS
10
113.407
20
-93.053
11
114.707
21
-93.053
0
LINE
8
BLACK
6
CONTINUOUS
10
114.707
20
-93.053
11
114.764
21
-93.0644
0
LINE
8
BLACK
6
CONTINUOUS
10
110.926
20
-91.561
11
111.026
21
-91.6055
0
LINE
8
BLACK
6
CONTINUOUS
10
111.026
20
-91.6055
11
111.104
21
-91.6831
0
LINE
8
BLACK
6
CONTINUOUS
10
111.104
20
-91.6831
11
111.149
21
-91.7835
0
LINE
8
BLACK
6
CONTINUOUS
10
111.149
20
-91.7835
11
111.157
21
-91.853
0
LINE
8
BLACK
6
CONTINUOUS
10
111.157
20
-91.853
11
111.157
21
-92.453
0
LINE
8
BLACK
6
CONTINUOUS
10
111.157
20
-92.453
11
111.149
21
-92.522
0
LINE
8
BLACK
6
CONTINUOUS
10
111.149
20
-92.522
11
111.105
21
-92.6225
0
LINE
8
BLACK
6
CONTINUOUS
10
111.105
20
-92.6225
11
111.027
21
-92.7002
0
LINE
8
BLACK
6
CONTINUOUS
10
111.027
20
-92.7002
11
110.927
21
-92.7448
0
LINE
8
BLACK
6
CONTINUOUS
10
110.927
20
-92.7448
11
110.857
21
-92.753
0
LINE
8
BLACK
6
CONTINUOUS
10
110.857
20
-92.753
11
109.457
21
-92.753
0
LINE
8
BLACK
6
CONTINUOUS
10
109.457
20
-92.753
11
109.388
21
-92.745
0
LINE
8
BLACK
6
CONTINUOUS
10
109.388
20
-92.745
11
109.288
21
-92.7005
0
LINE
8
BLACK
6
CONTINUOUS
10
109.288
20
-92.7005
11
109.21
21
-92.6229
0
LINE
8
BLACK
6
CONTINUOUS
10
109.21
20
-92.6229
11
109.165
21
-92.5225
0
LINE
8
BLACK
6
CONTINUOUS
10
109.165
20
-92.5225
11
109.157
21
-92.453
0
LINE
8
BLACK
6
CONTINUOUS
10
109.157
20
-92.453
11
109.157
21
-91.853
0
LINE
8
BLACK
6
CONTINUOUS
10
109.157
20
-91.853
11
109.165
21
-91.784
0
LINE
8
BLACK
6
CONTINUOUS
10
109.165
20
-91.784
11
109.209
21
-91.6835
0
LINE
8
BLACK
6
CONTINUOUS
10
109.209
20
-91.6835
11
109.287
21
-91.6058
0
LINE
8
BLACK
6
CONTINUOUS
10
109.287
20
-91.6058
11
109.387
21
-91.5612
0
LINE
8
BLACK
6
CONTINUOUS
10
109.387
20
-91.5612
11
109.457
21
-91.553
0
LINE
8
BLACK
6
CONTINUOUS
10
109.457
20
-91.553
11
110.857
21
-91.553
0
LINE
8
BLACK
6
CONTINUOUS
10
110.857
20
-91.553
11
110.926
21
-91.561
0
LINE
8
BLACK
6
CONTINUOUS
10
149.946
20
-91.561
11
150.046
21
-91.6055
0
LINE
8
BLACK
6
CONTINUOUS
10
150.046
20
-91.6055
11
150.124
21
-91.6831
0
LINE
8
BLACK
6
CONTINUOUS
10
150.124
20
-91.6831
11
150.169
21
-91.7835
0
LINE
8
BLACK
6
CONTINUOUS
10
150.169
20
-91.7835
11
150.177
21
-91.853
0
LINE
8
BLACK
6
CONTINUOUS
10
150.177
20
-91.853
11
150.177
21
-92.453
0
LINE
8
BLACK
6
CONTINUOUS
10
150.177
20
-92.453
11
150.169
21
-92.522
0
LINE
8
BLACK
6
CONTINUOUS
10
150.169
20
-92.522
11
150.125
21
-92.6225
0
LINE
8
BLACK
6
CONTINUOUS
10
150.125
20
-92.6225
11
150.047
21
-92.7002
0
LINE
8
BLACK
6
CONTINUOUS
10
150.047
20
-92.7002
11
149.947
21
-92.7448
0
LINE
8
BLACK
6
CONTINUOUS
10
149.947
20
-92.7448
11
149.877
21
-92.753
0
LINE
8
BLACK
6
CONTINUOUS
10
149.877
20
-92.753
11
148.477
21
-92.753
0
LINE
8
BLACK
6
CONTINUOUS
10
148.477
20
-92.753
11
148.408
21
-92.745
0
LINE
8
BLACK
6
CONTINUOUS
10
148.408
20
-92.745
11
148.308
21
-92.7005
0
LINE
8
BLACK
6
CONTINUOUS
10
148.308
20
-92.7005
11
148.23
21
-92.6229
0
LINE
8
BLACK
6
CONTINUOUS
10
148.23
20
-92.6229
11
148.185
21
-92.5225
0
LINE
8
BLACK
6
CONTINUOUS
10
148.185
20
-92.5225
11
148.177
21
-92.453
0
LINE
8
BLACK
6
CONTINUOUS
10
148.177
20
-92.453
11
148.177
21
-91.853
0
LINE
8
BLACK
6
CONTINUOUS
10
148.177
20
-91.853
11
148.185
21
-91.784
0
LINE
8
BLACK
6
CONTINUOUS
10
148.185
20
-91.784
11
148.229
21
-91.6835
0
LINE
8
BLACK
6
CONTINUOUS
10
148.229
20
-91.6835
11
148.307
21
-91.6058
0
LINE
8
BLACK
6
CONTINUOUS
10
148.307
20
-91.6058
11
148.407
21
-91.5612
0
LINE
8
BLACK
6
CONTINUOUS
10
148.407
20
-91.5612
11
148.477
21
-91.553
0
LINE
8
BLACK
6
CONTINUOUS
10
148.477
20
-91.553
11
149.877
21
-91.553
0
LINE
8
BLACK
6
CONTINUOUS
10
149.877
20
-91.553
11
149.946
21
-91.561
0
LINE
8
BLACK
6
CONTINUOUS
10
116.898
20
-86.4313
11
116.941
21
-86.4605
0
LINE
8
BLACK
6
CONTINUOUS
10
116.941
20
-86.4605
11
116.971
21
-86.5043
0
LINE
8
BLACK
6
CONTINUOUS
10
116.971
20
-86.5043
11
116.981
21
-86.556
0
LINE
8
BLACK
6
CONTINUOUS
10
116.981
20
-86.556
11
116.981
21
-86.926
0
LINE
8
BLACK
6
CONTINUOUS
10
116.981
20
-86.926
11
116.971
21
-86.9777
0
LINE
8
BLACK
6
CONTINUOUS
10
116.971
20
-86.9777
11
116.941
21
-87.0215
0
LINE
8
BLACK
6
CONTINUOUS
10
116.941
20
-87.0215
11
116.898
21
-87.0507
0
LINE
8
BLACK
6
CONTINUOUS
10
116.898
20
-87.0507
11
116.846
21
-87.061
0
LINE
8
BLACK
6
CONTINUOUS
10
116.846
20
-87.061
11
116.576
21
-87.061
0
LINE
8
BLACK
6
CONTINUOUS
10
116.576
20
-87.061
11
116.524
21
-87.0507
0
LINE
8
BLACK
6
CONTINUOUS
10
116.524
20
-87.0507
11
116.481
21
-87.0215
0
LINE
8
BLACK
6
CONTINUOUS
10
116.481
20
-87.0215
11
116.451
21
-86.9777
0
LINE
8
BLACK
6
CONTINUOUS
10
116.451
20
-86.9777
11
116.441
21
-86.926
0
LINE
8
BLACK
6
CONTINUOUS
10
116.441
20
-86.926
11
116.441
21
-86.556
0
LINE
8
BLACK
6
CONTINUOUS
10
116.441
20
-86.556
11
116.451
21
-86.5043
0
LINE
8
BLACK
6
CONTINUOUS
10
116.451
20
-86.5043
11
116.481
21
-86.4605
0
LINE
8
BLACK
6
CONTINUOUS
10
116.481
20
-86.4605
11
116.524
21
-86.4313
0
LINE
8
BLACK
6
CONTINUOUS
10
116.524
20
-86.4313
11
116.576
21
-86.421
0
LINE
8
BLACK
6
CONTINUOUS
10
116.576
20
-86.421
11
116.846
21
-86.421
0
LINE
8
BLACK
6
CONTINUOUS
10
116.846
20
-86.421
11
116.898
21
-86.4313
0
LINE
8
BLACK
6
CONTINUOUS
10
117.918
20
-86.4313
11
117.961
21
-86.4605
0
LINE
8
BLACK
6
CONTINUOUS
10
117.961
20
-86.4605
11
117.991
21
-86.5043
0
LINE
8
BLACK
6
CONTINUOUS
10
117.991
20
-86.5043
11
118.001
21
-86.556
0
LINE
8
BLACK
6
CONTINUOUS
10
118.001
20
-86.556
11
118.001
21
-86.926
0
LINE
8
BLACK
6
CONTINUOUS
10
118.001
20
-86.926
11
117.991
21
-86.9777
0
LINE
8
BLACK
6
CONTINUOUS
10
117.991
20
-86.9777
11
117.961
21
-87.0215
0
LINE
8
BLACK
6
CONTINUOUS
10
117.961
20
-87.0215
11
117.918
21
-87.0507
0
LINE
8
BLACK
6
CONTINUOUS
10
117.918
20
-87.0507
11
117.866
21
-87.061
0
LINE
8
BLACK
6
CONTINUOUS
10
117.866
20
-87.061
11
117.596
21
-87.061
0
LINE
8
BLACK
6
CONTINUOUS
10
117.596
20
-87.061
11
117.544
21
-87.0507
0
LINE
8
BLACK
6
CONTINUOUS
10
117.544
20
-87.0507
11
117.501
21
-87.0215
0
LINE
8
BLACK
6
CONTINUOUS
10
117.501
20
-87.0215
11
117.471
21
-86.9777
0
LINE
8
BLACK
6
CONTINUOUS
10
117.471
20
-86.9777
11
117.461
21
-86.926
0
LINE
8
BLACK
6
CONTINUOUS
10
117.461
20
-86.926
11
117.461
21
-86.556
0
LINE
8
BLACK
6
CONTINUOUS
10
117.461
20
-86.556
11
117.471
21
-86.5043
0
LINE
8
BLACK
6
CONTINUOUS
10
117.471
20
-86.5043
11
117.501
21
-86.4605
0
LINE
8
BLACK
6
CONTINUOUS
10
117.501
20
-86.4605
11
117.544
21
-86.4313
0
LINE
8
BLACK
6
CONTINUOUS
10
117.544
20
-86.4313
11
117.596
21
-86.421
0
LINE
8
BLACK
6
CONTINUOUS
10
117.596
20
-86.421
11
117.866
21
-86.421
0
LINE
8
BLACK
6
CONTINUOUS
10
117.866
20
-86.421
11
117.918
21
-86.4313
0
LINE
8
BLACK
6
CONTINUOUS
10
122.389
20
-82.4074
11
122.438
21
-82.4399
0
LINE
8
BLACK
6
CONTINUOUS
10
122.438
20
-82.4399
11
122.471
21
-82.4886
0
LINE
8
BLACK
6
CONTINUOUS
10
122.471
20
-82.4886
11
122.482
21
-82.546
0
LINE
8
BLACK
6
CONTINUOUS
10
122.482
20
-82.546
11
122.482
21
-83.846
0
LINE
8
BLACK
6
CONTINUOUS
10
122.482
20
-83.846
11
122.471
21
-83.9034
0
LINE
8
BLACK
6
CONTINUOUS
10
122.471
20
-83.9034
11
122.438
21
-83.9521
0
LINE
8
BLACK
6
CONTINUOUS
10
122.438
20
-83.9521
11
122.389
21
-83.9846
0
LINE
8
BLACK
6
CONTINUOUS
10
122.389
20
-83.9846
11
122.332
21
-83.996
0
LINE
8
BLACK
6
CONTINUOUS
10
122.332
20
-83.996
11
122.032
21
-83.996
0
LINE
8
BLACK
6
CONTINUOUS
10
122.032
20
-83.996
11
121.975
21
-83.9846
0
LINE
8
BLACK
6
CONTINUOUS
10
121.975
20
-83.9846
11
121.926
21
-83.9521
0
LINE
8
BLACK
6
CONTINUOUS
10
121.926
20
-83.9521
11
121.893
21
-83.9034
0
LINE
8
BLACK
6
CONTINUOUS
10
121.893
20
-83.9034
11
121.882
21
-83.846
0
LINE
8
BLACK
6
CONTINUOUS
10
121.882
20
-83.846
11
121.882
21
-82.546
0
LINE
8
BLACK
6
CONTINUOUS
10
121.882
20
-82.546
11
121.893
21
-82.4886
0
LINE
8
BLACK
6
CONTINUOUS
10
121.893
20
-82.4886
11
121.926
21
-82.4399
0
LINE
8
BLACK
6
CONTINUOUS
10
121.926
20
-82.4399
11
121.975
21
-82.4074
0
LINE
8
BLACK
6
CONTINUOUS
10
121.975
20
-82.4074
11
122.032
21
-82.396
0
LINE
8
BLACK
6
CONTINUOUS
10
122.032
20
-82.396
11
122.332
21
-82.396
0
LINE
8
BLACK
6
CONTINUOUS
10
122.332
20
-82.396
11
122.389
21
-82.4074
0
LINE
8
BLACK
6
CONTINUOUS
10
123.389
20
-82.4074
11
123.438
21
-82.4399
0
LINE
8
BLACK
6
CONTINUOUS
10
123.438
20
-82.4399
11
123.471
21
-82.4886
0
LINE
8
BLACK
6
CONTINUOUS
10
123.471
20
-82.4886
11
123.482
21
-82.546
0
LINE
8
BLACK
6
CONTINUOUS
10
123.482
20
-82.546
11
123.482
21
-83.846
0
LINE
8
BLACK
6
CONTINUOUS
10
123.482
20
-83.846
11
123.471
21
-83.9034
0
LINE
8
BLACK
6
CONTINUOUS
10
123.471
20
-83.9034
11
123.438
21
-83.9521
0
LINE
8
BLACK
6
CONTINUOUS
10
123.438
20
-83.9521
11
123.389
21
-83.9846
0
LINE
8
BLACK
6
CONTINUOUS
10
123.389
20
-83.9846
11
123.332
21
-83.996
0
LINE
8
BLACK
6
CONTINUOUS
10
123.332
20
-83.996
11
123.032
21
-83.996
0
LINE
8
BLACK
6
CONTINUOUS
10
123.032
20
-83.996
11
122.975
21
-83.9846
0
LINE
8
BLACK
6
CONTINUOUS
10
122.975
20
-83.9846
11
122.926
21
-83.9521
0
LINE
8
BLACK
6
CONTINUOUS
10
122.926
20
-83.9521
11
122.893
21
-83.9034
0
LINE
8
BLACK
6
CONTINUOUS
10
122.893
20
-83.9034
11
122.882
21
-83.846
0
LINE
8
BLACK
6
CONTINUOUS
10
122.882
20
-83.846
11
122.882
21
-82.546
0
LINE
8
BLACK
6
CONTINUOUS
10
122.882
20
-82.546
11
122.893
21
-82.4886
0
LINE
8
BLACK
6
CONTINUOUS
10
122.893
20
-82.4886
11
122.926
21
-82.4399
0
LINE
8
BLACK
6
CONTINUOUS
10
122.926
20
-82.4399
11
122.975
21
-82.4074
0
LINE
8
BLACK
6
CONTINUOUS
10
122.975
20
-82.4074
11
123.032
21
-82.396
0
LINE
8
BLACK
6
CONTINUOUS
10
123.032
20
-82.396
11
123.332
21
-82.396
0
LINE
8
BLACK
6
CONTINUOUS
10
123.332
20
-82.396
11
123.389
21
-82.4074
0
LINE
8
BLACK
6
CONTINUOUS
10
124.389
20
-82.4074
11
124.438
21
-82.4399
0
LINE
8
BLACK
6
CONTINUOUS
10
124.438
20
-82.4399
11
124.471
21
-82.4886
0
LINE
8
BLACK
6
CONTINUOUS
10
124.471
20
-82.4886
11
124.482
21
-82.546
0
LINE
8
BLACK
6
CONTINUOUS
10
124.482
20
-82.546
11
124.482
21
-83.846
0
LINE
8
BLACK
6
CONTINUOUS
10
124.482
20
-83.846
11
124.471
21
-83.9034
0
LINE
8
BLACK
6
CONTINUOUS
10
124.471
20
-83.9034
11
124.438
21
-83.9521
0
LINE
8
BLACK
6
CONTINUOUS
10
124.438
20
-83.9521
11
124.389
21
-83.9846
0
LINE
8
BLACK
6
CONTINUOUS
10
124.389
20
-83.9846
11
124.332
21
-83.996
0
LINE
8
BLACK
6
CONTINUOUS
10
124.332
20
-83.996
11
124.032
21
-83.996
0
LINE
8
BLACK
6
CONTINUOUS
10
124.032
20
-83.996
11
123.975
21
-83.9846
0
LINE
8
BLACK
6
CONTINUOUS
10
123.975
20
-83.9846
11
123.926
21
-83.9521
0
LINE
8
BLACK
6
CONTINUOUS
10
123.926
20
-83.9521
11
123.893
21
-83.9034
0
LINE
8
BLACK
6
CONTINUOUS
10
123.893
20
-83.9034
11
123.882
21
-83.846
0
LINE
8
BLACK
6
CONTINUOUS
10
123.882
20
-83.846
11
123.882
21
-82.546
0
LINE
8
BLACK
6
CONTINUOUS
10
123.882
20
-82.546
11
123.893
21
-82.4886
0
LINE
8
BLACK
6
CONTINUOUS
10
123.893
20
-82.4886
11
123.926
21
-82.4399
0
LINE
8
BLACK
6
CONTINUOUS
10
123.926
20
-82.4399
11
123.975
21
-82.4074
0
LINE
8
BLACK
6
CONTINUOUS
10
123.975
20
-82.4074
11
124.032
21
-82.396
0
LINE
8
BLACK
6
CONTINUOUS
10
124.032
20
-82.396
11
124.332
21
-82.396
0
LINE
8
BLACK
6
CONTINUOUS
10
124.332
20
-82.396
11
124.389
21
-82.4074
0
LINE
8
BLACK
6
CONTINUOUS
10
121.389
20
-82.4074
11
121.438
21
-82.4399
0
LINE
8
BLACK
6
CONTINUOUS
10
121.438
20
-82.4399
11
121.471
21
-82.4886
0
LINE
8
BLACK
6
CONTINUOUS
10
121.471
20
-82.4886
11
121.482
21
-82.546
0
LINE
8
BLACK
6
CONTINUOUS
10
121.482
20
-82.546
11
121.482
21
-83.846
0
LINE
8
BLACK
6
CONTINUOUS
10
121.482
20
-83.846
11
121.471
21
-83.9034
0
LINE
8
BLACK
6
CONTINUOUS
10
121.471
20
-83.9034
11
121.438
21
-83.9521
0
LINE
8
BLACK
6
CONTINUOUS
10
121.438
20
-83.9521
11
121.389
21
-83.9846
0
LINE
8
BLACK
6
CONTINUOUS
10
121.389
20
-83.9846
11
121.332
21
-83.996
0
LINE
8
BLACK
6
CONTINUOUS
10
121.332
20
-83.996
11
121.032
21
-83.996
0
LINE
8
BLACK
6
CONTINUOUS
10
121.032
20
-83.996
11
120.975
21
-83.9846
0
LINE
8
BLACK
6
CONTINUOUS
10
120.975
20
-83.9846
11
120.926
21
-83.9521
0
LINE
8
BLACK
6
CONTINUOUS
10
120.926
20
-83.9521
11
120.893
21
-83.9034
0
LINE
8
BLACK
6
CONTINUOUS
10
120.893
20
-83.9034
11
120.882
21
-83.846
0
LINE
8
BLACK
6
CONTINUOUS
10
120.882
20
-83.846
11
120.882
21
-82.546
0
LINE
8
BLACK
6
CONTINUOUS
10
120.882
20
-82.546
11
120.893
21
-82.4886
0
LINE
8
BLACK
6
CONTINUOUS
10
120.893
20
-82.4886
11
120.926
21
-82.4399
0
LINE
8
BLACK
6
CONTINUOUS
10
120.926
20
-82.4399
11
120.975
21
-82.4074
0
LINE
8
BLACK
6
CONTINUOUS
10
120.975
20
-82.4074
11
121.032
21
-82.396
0
LINE
8
BLACK
6
CONTINUOUS
10
121.032
20
-82.396
11
121.332
21
-82.396
0
LINE
8
BLACK
6
CONTINUOUS
10
121.332
20
-82.396
11
121.389
21
-82.4074
0
LINE
8
BLACK
6
CONTINUOUS
10
129.128
20
-82.2624
11
129.177
21
-82.2949
0
LINE
8
BLACK
6
CONTINUOUS
10
129.177
20
-82.2949
11
129.21
21
-82.3436
0
LINE
8
BLACK
6
CONTINUOUS
10
129.21
20
-82.3436
11
129.221
21
-82.401
0
LINE
8
BLACK
6
CONTINUOUS
10
129.221
20
-82.401
11
129.221
21
-83.651
0
LINE
8
BLACK
6
CONTINUOUS
10
129.221
20
-83.651
11
129.21
21
-83.7084
0
LINE
8
BLACK
6
CONTINUOUS
10
129.21
20
-83.7084
11
129.177
21
-83.7571
0
LINE
8
BLACK
6
CONTINUOUS
10
129.177
20
-83.7571
11
129.128
21
-83.7896
0
LINE
8
BLACK
6
CONTINUOUS
10
129.128
20
-83.7896
11
129.071
21
-83.801
0
LINE
8
BLACK
6
CONTINUOUS
10
129.071
20
-83.801
11
128.771
21
-83.801
0
LINE
8
BLACK
6
CONTINUOUS
10
128.771
20
-83.801
11
128.714
21
-83.7896
0
LINE
8
BLACK
6
CONTINUOUS
10
128.714
20
-83.7896
11
128.665
21
-83.7571
0
LINE
8
BLACK
6
CONTINUOUS
10
128.665
20
-83.7571
11
128.632
21
-83.7084
0
LINE
8
BLACK
6
CONTINUOUS
10
128.632
20
-83.7084
11
128.621
21
-83.651
0
LINE
8
BLACK
6
CONTINUOUS
10
128.621
20
-83.651
11
128.621
21
-82.401
0
LINE
8
BLACK
6
CONTINUOUS
10
128.621
20
-82.401
11
128.632
21
-82.3436
0
LINE
8
BLACK
6
CONTINUOUS
10
128.632
20
-82.3436
11
128.665
21
-82.2949
0
LINE
8
BLACK
6
CONTINUOUS
10
128.665
20
-82.2949
11
128.714
21
-82.2624
0
LINE
8
BLACK
6
CONTINUOUS
10
128.714
20
-82.2624
11
128.771
21
-82.251
0
LINE
8
BLACK
6
CONTINUOUS
10
128.771
20
-82.251
11
129.071
21
-82.251
0
LINE
8
BLACK
6
CONTINUOUS
10
129.071
20
-82.251
11
129.128
21
-82.2624
0
LINE
8
BLACK
6
CONTINUOUS
10
130.128
20
-82.2624
11
130.177
21
-82.2949
0
LINE
8
BLACK
6
CONTINUOUS
10
130.177
20
-82.2949
11
130.21
21
-82.3436
0
LINE
8
BLACK
6
CONTINUOUS
10
130.21
20
-82.3436
11
130.221
21
-82.401
0
LINE
8
BLACK
6
CONTINUOUS
10
130.221
20
-82.401
11
130.221
21
-83.651
0
LINE
8
BLACK
6
CONTINUOUS
10
130.221
20
-83.651
11
130.21
21
-83.7084
0
LINE
8
BLACK
6
CONTINUOUS
10
130.21
20
-83.7084
11
130.177
21
-83.7571
0
LINE
8
BLACK
6
CONTINUOUS
10
130.177
20
-83.7571
11
130.128
21
-83.7896
0
LINE
8
BLACK
6
CONTINUOUS
10
130.128
20
-83.7896
11
130.071
21
-83.801
0
LINE
8
BLACK
6
CONTINUOUS
10
130.071
20
-83.801
11
129.771
21
-83.801
0
LINE
8
BLACK
6
CONTINUOUS
10
129.771
20
-83.801
11
129.714
21
-83.7896
0
LINE
8
BLACK
6
CONTINUOUS
10
129.714
20
-83.7896
11
129.665
21
-83.7571
0
LINE
8
BLACK
6
CONTINUOUS
10
129.665
20
-83.7571
11
129.632
21
-83.7084
0
LINE
8
BLACK
6
CONTINUOUS
10
129.632
20
-83.7084
11
129.621
21
-83.651
0
LINE
8
BLACK
6
CONTINUOUS
10
129.621
20
-83.651
11
129.621
21
-82.401
0
LINE
8
BLACK
6
CONTINUOUS
10
129.621
20
-82.401
11
129.632
21
-82.3436
0
LINE
8
BLACK
6
CONTINUOUS
10
129.632
20
-82.3436
11
129.665
21
-82.2949
0
LINE
8
BLACK
6
CONTINUOUS
10
129.665
20
-82.2949
11
129.714
21
-82.2624
0
LINE
8
BLACK
6
CONTINUOUS
10
129.714
20
-82.2624
11
129.771
21
-82.251
0
LINE
8
BLACK
6
CONTINUOUS
10
129.771
20
-82.251
11
130.071
21
-82.251
0
LINE
8
BLACK
6
CONTINUOUS
10
130.071
20
-82.251
11
130.128
21
-82.2624
0
LINE
8
BLACK
6
CONTINUOUS
10
131.128
20
-82.2624
11
131.177
21
-82.2949
0
LINE
8
BLACK
6
CONTINUOUS
10
131.177
20
-82.2949
11
131.21
21
-82.3436
0
LINE
8
BLACK
6
CONTINUOUS
10
131.21
20
-82.3436
11
131.221
21
-82.401
0
LINE
8
BLACK
6
CONTINUOUS
10
131.221
20
-82.401
11
131.221
21
-83.651
0
LINE
8
BLACK
6
CONTINUOUS
10
131.221
20
-83.651
11
131.21
21
-83.7084
0
LINE
8
BLACK
6
CONTINUOUS
10
131.21
20
-83.7084
11
131.177
21
-83.7571
0
LINE
8
BLACK
6
CONTINUOUS
10
131.177
20
-83.7571
11
131.128
21
-83.7896
0
LINE
8
BLACK
6
CONTINUOUS
10
131.128
20
-83.7896
11
131.071
21
-83.801
0
LINE
8
BLACK
6
CONTINUOUS
10
131.071
20
-83.801
11
130.771
21
-83.801
0
LINE
8
BLACK
6
CONTINUOUS
10
130.771
20
-83.801
11
130.714
21
-83.7896
0
LINE
8
BLACK
6
CONTINUOUS
10
130.714
20
-83.7896
11
130.665
21
-83.7571
0
LINE
8
BLACK
6
CONTINUOUS
10
130.665
20
-83.7571
11
130.632
21
-83.7084
0
LINE
8
BLACK
6
CONTINUOUS
10
130.632
20
-83.7084
11
130.621
21
-83.651
0
LINE
8
BLACK
6
CONTINUOUS
10
130.621
20
-83.651
11
130.621
21
-82.401
0
LINE
8
BLACK
6
CONTINUOUS
10
130.621
20
-82.401
11
130.632
21
-82.3436
0
LINE
8
BLACK
6
CONTINUOUS
10
130.632
20
-82.3436
11
130.665
21
-82.2949
0
LINE
8
BLACK
6
CONTINUOUS
10
130.665
20
-82.2949
11
130.714
21
-82.2624
0
LINE
8
BLACK
6
CONTINUOUS
10
130.714
20
-82.2624
11
130.771
21
-82.251
0
LINE
8
BLACK
6
CONTINUOUS
10
130.771
20
-82.251
11
131.071
21
-82.251
0
LINE
8
BLACK
6
CONTINUOUS
10
131.071
20
-82.251
11
131.128
21
-82.2624
0
LINE
8
BLACK
6
CONTINUOUS
10
138.568
20
-81.9661
11
138.645
21
-82.0176
0
LINE
8
BLACK
6
CONTINUOUS
10
138.645
20
-82.0176
11
138.697
21
-82.0946
0
LINE
8
BLACK
6
CONTINUOUS
10
138.697
20
-82.0946
11
138.715
21
-82.1855
0
LINE
8
BLACK
6
CONTINUOUS
10
138.715
20
-82.1855
11
138.715
21
-82.6605
0
LINE
8
BLACK
6
CONTINUOUS
10
138.715
20
-82.6605
11
138.697
21
-82.7514
0
LINE
8
BLACK
6
CONTINUOUS
10
138.697
20
-82.7514
11
138.645
21
-82.8284
0
LINE
8
BLACK
6
CONTINUOUS
10
138.645
20
-82.8284
11
138.568
21
-82.8799
0
LINE
8
BLACK
6
CONTINUOUS
10
138.568
20
-82.8799
11
138.477
21
-82.898
0
LINE
8
BLACK
6
CONTINUOUS
10
138.477
20
-82.898
11
137.903
21
-82.898
0
LINE
8
BLACK
6
CONTINUOUS
10
137.903
20
-82.898
11
137.812
21
-82.8799
0
LINE
8
BLACK
6
CONTINUOUS
10
137.812
20
-82.8799
11
137.735
21
-82.8284
0
LINE
8
BLACK
6
CONTINUOUS
10
137.735
20
-82.8284
11
137.683
21
-82.7514
0
LINE
8
BLACK
6
CONTINUOUS
10
137.683
20
-82.7514
11
137.665
21
-82.6605
0
LINE
8
BLACK
6
CONTINUOUS
10
137.665
20
-82.6605
11
137.665
21
-82.1855
0
LINE
8
BLACK
6
CONTINUOUS
10
137.665
20
-82.1855
11
137.683
21
-82.0946
0
LINE
8
BLACK
6
CONTINUOUS
10
137.683
20
-82.0946
11
137.735
21
-82.0176
0
LINE
8
BLACK
6
CONTINUOUS
10
137.735
20
-82.0176
11
137.812
21
-81.9661
0
LINE
8
BLACK
6
CONTINUOUS
10
137.812
20
-81.9661
11
137.903
21
-81.948
0
LINE
8
BLACK
6
CONTINUOUS
10
137.903
20
-81.948
11
138.477
21
-81.948
0
LINE
8
BLACK
6
CONTINUOUS
10
138.477
20
-81.948
11
138.568
21
-81.9661
0
LINE
8
BLACK
6
CONTINUOUS
10
134.758
20
-81.9661
11
134.835
21
-82.0176
0
LINE
8
BLACK
6
CONTINUOUS
10
134.835
20
-82.0176
11
134.887
21
-82.0946
0
LINE
8
BLACK
6
CONTINUOUS
10
134.887
20
-82.0946
11
134.905
21
-82.1855
0
LINE
8
BLACK
6
CONTINUOUS
10
134.905
20
-82.1855
11
134.905
21
-82.6605
0
LINE
8
BLACK
6
CONTINUOUS
10
134.905
20
-82.6605
11
134.887
21
-82.7514
0
LINE
8
BLACK
6
CONTINUOUS
10
134.887
20
-82.7514
11
134.835
21
-82.8284
0
LINE
8
BLACK
6
CONTINUOUS
10
134.835
20
-82.8284
11
134.758
21
-82.8799
0
LINE
8
BLACK
6
CONTINUOUS
10
134.758
20
-82.8799
11
134.667
21
-82.898
0
LINE
8
BLACK
6
CONTINUOUS
10
134.667
20
-82.898
11
134.093
21
-82.898
0
LINE
8
BLACK
6
CONTINUOUS
10
134.093
20
-82.898
11
134.002
21
-82.8799
0
LINE
8
BLACK
6
CONTINUOUS
10
134.002
20
-82.8799
11
133.925
21
-82.8284
0
LINE
8
BLACK
6
CONTINUOUS
10
133.925
20
-82.8284
11
133.873
21
-82.7514
0
LINE
8
BLACK
6
CONTINUOUS
10
133.873
20
-82.7514
11
133.855
21
-82.6605
0
LINE
8
BLACK
6
CONTINUOUS
10
133.855
20
-82.6605
11
133.855
21
-82.1855
0
LINE
8
BLACK
6
CONTINUOUS
10
133.855
20
-82.1855
11
133.873
21
-82.0946
0
LINE
8
BLACK
6
CONTINUOUS
10
133.873
20
-82.0946
11
133.925
21
-82.0176
0
LINE
8
BLACK
6
CONTINUOUS
10
133.925
20
-82.0176
11
134.002
21
-81.9661
0
LINE
8
BLACK
6
CONTINUOUS
10
134.002
20
-81.9661
11
134.093
21
-81.948
0
LINE
8
BLACK
6
CONTINUOUS
10
134.093
20
-81.948
11
134.667
21
-81.948
0
LINE
8
BLACK
6
CONTINUOUS
10
134.667
20
-81.948
11
134.758
21
-81.9661
0
LINE
8
BLACK
6
CONTINUOUS
10
136.508
20
-81.9661
11
136.585
21
-82.0176
0
LINE
8
BLACK
6
CONTINUOUS
10
136.585
20
-82.0176
11
136.637
21
-82.0946
0
LINE
8
BLACK
6
CONTINUOUS
10
136.637
20
-82.0946
11
136.655
21
-82.1855
0
LINE
8
BLACK
6
CONTINUOUS
10
136.655
20
-82.1855
11
136.655
21
-82.6605
0
LINE
8
BLACK
6
CONTINUOUS
10
136.655
20
-82.6605
11
136.637
21
-82.7514
0
LINE
8
BLACK
6
CONTINUOUS
10
136.637
20
-82.7514
11
136.585
21
-82.8284
0
LINE
8
BLACK
6
CONTINUOUS
10
136.585
20
-82.8284
11
136.508
21
-82.8799
0
LINE
8
BLACK
6
CONTINUOUS
10
136.508
20
-82.8799
11
136.417
21
-82.898
0
LINE
8
BLACK
6
CONTINUOUS
10
136.417
20
-82.898
11
135.843
21
-82.898
0
LINE
8
BLACK
6
CONTINUOUS
10
135.843
20
-82.898
11
135.752
21
-82.8799
0
LINE
8
BLACK
6
CONTINUOUS
10
135.752
20
-82.8799
11
135.675
21
-82.8284
0
LINE
8
BLACK
6
CONTINUOUS
10
135.675
20
-82.8284
11
135.623
21
-82.7514
0
LINE
8
BLACK
6
CONTINUOUS
10
135.623
20
-82.7514
11
135.605
21
-82.6605
0
LINE
8
BLACK
6
CONTINUOUS
10
135.605
20
-82.6605
11
135.605
21
-82.1855
0
LINE
8
BLACK
6
CONTINUOUS
10
135.605
20
-82.1855
11
135.623
21
-82.0946
0
LINE
8
BLACK
6
CONTINUOUS
10
135.623
20
-82.0946
11
135.675
21
-82.0176
0
LINE
8
BLACK
6
CONTINUOUS
10
135.675
20
-82.0176
11
135.752
21
-81.9661
0
LINE
8
BLACK
6
CONTINUOUS
10
135.752
20
-81.9661
11
135.843
21
-81.948
0
LINE
8
BLACK
6
CONTINUOUS
10
135.843
20
-81.948
11
136.417
21
-81.948
0
LINE
8
BLACK
6
CONTINUOUS
10
136.417
20
-81.948
11
136.508
21
-81.9661
0
LINE
8
BLACK
6
CONTINUOUS
10
140.318
20
-81.9661
11
140.395
21
-82.0176
0
LINE
8
BLACK
6
CONTINUOUS
10
140.395
20
-82.0176
11
140.447
21
-82.0946
0
LINE
8
BLACK
6
CONTINUOUS
10
140.447
20
-82.0946
11
140.465
21
-82.1855
0
LINE
8
BLACK
6
CONTINUOUS
10
140.465
20
-82.1855
11
140.465
21
-82.6605
0
LINE
8
BLACK
6
CONTINUOUS
10
140.465
20
-82.6605
11
140.447
21
-82.7514
0
LINE
8
BLACK
6
CONTINUOUS
10
140.447
20
-82.7514
11
140.395
21
-82.8284
0
LINE
8
BLACK
6
CONTINUOUS
10
140.395
20
-82.8284
11
140.318
21
-82.8799
0
LINE
8
BLACK
6
CONTINUOUS
10
140.318
20
-82.8799
11
140.227
21
-82.898
0
LINE
8
BLACK
6
CONTINUOUS
10
140.227
20
-82.898
11
139.653
21
-82.898
0
LINE
8
BLACK
6
CONTINUOUS
10
139.653
20
-82.898
11
139.562
21
-82.8799
0
LINE
8
BLACK
6
CONTINUOUS
10
139.562
20
-82.8799
11
139.485
21
-82.8284
0
LINE
8
BLACK
6
CONTINUOUS
10
139.485
20
-82.8284
11
139.433
21
-82.7514
0
LINE
8
BLACK
6
CONTINUOUS
10
139.433
20
-82.7514
11
139.415
21
-82.6605
0
LINE
8
BLACK
6
CONTINUOUS
10
139.415
20
-82.6605
11
139.415
21
-82.1855
0
LINE
8
BLACK
6
CONTINUOUS
10
139.415
20
-82.1855
11
139.433
21
-82.0946
0
LINE
8
BLACK
6
CONTINUOUS
10
139.433
20
-82.0946
11
139.485
21
-82.0176
0
LINE
8
BLACK
6
CONTINUOUS
10
139.485
20
-82.0176
11
139.562
21
-81.9661
0
LINE
8
BLACK
6
CONTINUOUS
10
139.562
20
-81.9661
11
139.653
21
-81.948
0
LINE
8
BLACK
6
CONTINUOUS
10
139.653
20
-81.948
11
140.227
21
-81.948
0
LINE
8
BLACK
6
CONTINUOUS
10
140.227
20
-81.948
11
140.318
21
-81.9661
0
LINE
8
BLACK
6
CONTINUOUS
10
120.051
20
-78.554
11
120.151
21
-78.5985
0
LINE
8
BLACK
6
CONTINUOUS
10
120.151
20
-78.5985
11
120.229
21
-78.6761
0
LINE
8
BLACK
6
CONTINUOUS
10
120.229
20
-78.6761
11
120.274
21
-78.7765
0
LINE
8
BLACK
6
CONTINUOUS
10
120.274
20
-78.7765
11
120.282
21
-78.846
0
LINE
8
BLACK
6
CONTINUOUS
10
120.282
20
-78.846
11
120.282
21
-81.626
0
LINE
8
BLACK
6
CONTINUOUS
10
120.282
20
-81.626
11
120.274
21
-81.695
0
LINE
8
BLACK
6
CONTINUOUS
10
120.274
20
-81.695
11
120.23
21
-81.7955
0
LINE
8
BLACK
6
CONTINUOUS
10
120.23
20
-81.7955
11
120.152
21
-81.8732
0
LINE
8
BLACK
6
CONTINUOUS
10
120.152
20
-81.8732
11
120.052
21
-81.9178
0
LINE
8
BLACK
6
CONTINUOUS
10
120.052
20
-81.9178
11
119.982
21
-81.926
0
LINE
8
BLACK
6
CONTINUOUS
10
119.982
20
-81.926
11
119.382
21
-81.926
0
LINE
8
BLACK
6
CONTINUOUS
10
119.382
20
-81.926
11
119.313
21
-81.918
0
LINE
8
BLACK
6
CONTINUOUS
10
119.313
20
-81.918
11
119.213
21
-81.8735
0
LINE
8
BLACK
6
CONTINUOUS
10
119.213
20
-81.8735
11
119.135
21
-81.7959
0
LINE
8
BLACK
6
CONTINUOUS
10
119.135
20
-81.7959
11
119.09
21
-81.6955
0
LINE
8
BLACK
6
CONTINUOUS
10
119.09
20
-81.6955
11
119.082
21
-81.626
0
LINE
8
BLACK
6
CONTINUOUS
10
119.082
20
-81.626
11
119.082
21
-78.846
0
LINE
8
BLACK
6
CONTINUOUS
10
119.082
20
-78.846
11
119.09
21
-78.777
0
LINE
8
BLACK
6
CONTINUOUS
10
119.09
20
-78.777
11
119.134
21
-78.6765
0
LINE
8
BLACK
6
CONTINUOUS
10
119.134
20
-78.6765
11
119.212
21
-78.5988
0
LINE
8
BLACK
6
CONTINUOUS
10
119.212
20
-78.5988
11
119.312
21
-78.5542
0
LINE
8
BLACK
6
CONTINUOUS
10
119.312
20
-78.5542
11
119.382
21
-78.546
0
LINE
8
BLACK
6
CONTINUOUS
10
119.382
20
-78.546
11
119.982
21
-78.546
0
LINE
8
BLACK
6
CONTINUOUS
10
119.982
20
-78.546
11
120.051
21
-78.554
0
LINE
8
BLACK
6
CONTINUOUS
10
126.051
20
-78.554
11
126.151
21
-78.5985
0
LINE
8
BLACK
6
CONTINUOUS
10
126.151
20
-78.5985
11
126.229
21
-78.6761
0
LINE
8
BLACK
6
CONTINUOUS
10
126.229
20
-78.6761
11
126.274
21
-78.7765
0
LINE
8
BLACK
6
CONTINUOUS
10
126.274
20
-78.7765
11
126.282
21
-78.846
0
LINE
8
BLACK
6
CONTINUOUS
10
126.282
20
-78.846
11
126.282
21
-81.626
0
LINE
8
BLACK
6
CONTINUOUS
10
126.282
20
-81.626
11
126.274
21
-81.695
0
LINE
8
BLACK
6
CONTINUOUS
10
126.274
20
-81.695
11
126.23
21
-81.7955
0
LINE
8
BLACK
6
CONTINUOUS
10
126.23
20
-81.7955
11
126.152
21
-81.8732
0
LINE
8
BLACK
6
CONTINUOUS
10
126.152
20
-81.8732
11
126.052
21
-81.9178
0
LINE
8
BLACK
6
CONTINUOUS
10
126.052
20
-81.9178
11
125.982
21
-81.926
0
LINE
8
BLACK
6
CONTINUOUS
10
125.982
20
-81.926
11
125.382
21
-81.926
0
LINE
8
BLACK
6
CONTINUOUS
10
125.382
20
-81.926
11
125.313
21
-81.918
0
LINE
8
BLACK
6
CONTINUOUS
10
125.313
20
-81.918
11
125.213
21
-81.8735
0
LINE
8
BLACK
6
CONTINUOUS
10
125.213
20
-81.8735
11
125.135
21
-81.7959
0
LINE
8
BLACK
6
CONTINUOUS
10
125.135
20
-81.7959
11
125.09
21
-81.6955
0
LINE
8
BLACK
6
CONTINUOUS
10
125.09
20
-81.6955
11
125.082
21
-81.626
0
LINE
8
BLACK
6
CONTINUOUS
10
125.082
20
-81.626
11
125.082
21
-78.846
0
LINE
8
BLACK
6
CONTINUOUS
10
125.082
20
-78.846
11
125.09
21
-78.777
0
LINE
8
BLACK
6
CONTINUOUS
10
125.09
20
-78.777
11
125.134
21
-78.6765
0
LINE
8
BLACK
6
CONTINUOUS
10
125.134
20
-78.6765
11
125.212
21
-78.5988
0
LINE
8
BLACK
6
CONTINUOUS
10
125.212
20
-78.5988
11
125.312
21
-78.5542
0
LINE
8
BLACK
6
CONTINUOUS
10
125.312
20
-78.5542
11
125.382
21
-78.546
0
LINE
8
BLACK
6
CONTINUOUS
10
125.382
20
-78.546
11
125.982
21
-78.546
0
LINE
8
BLACK
6
CONTINUOUS
10
125.982
20
-78.546
11
126.051
21
-78.554
0
LINE
8
BLACK
6
CONTINUOUS
10
132.667
20
-78.27
11
132.748
21
-78.3242
0
LINE
8
BLACK
6
CONTINUOUS
10
132.748
20
-78.3242
11
132.802
21
-78.4053
0
LINE
8
BLACK
6
CONTINUOUS
10
132.802
20
-78.4053
11
132.821
21
-78.501
0
LINE
8
BLACK
6
CONTINUOUS
10
132.821
20
-78.501
11
132.821
21
-79.801
0
LINE
8
BLACK
6
CONTINUOUS
10
132.821
20
-79.801
11
132.802
21
-79.8967
0
LINE
8
BLACK
6
CONTINUOUS
10
132.802
20
-79.8967
11
132.748
21
-79.9778
0
LINE
8
BLACK
6
CONTINUOUS
10
132.748
20
-79.9778
11
132.667
21
-80.032
0
LINE
8
BLACK
6
CONTINUOUS
10
132.667
20
-80.032
11
132.571
21
-80.051
0
LINE
8
BLACK
6
CONTINUOUS
10
132.571
20
-80.051
11
131.871
21
-80.051
0
LINE
8
BLACK
6
CONTINUOUS
10
131.871
20
-80.051
11
131.775
21
-80.032
0
LINE
8
BLACK
6
CONTINUOUS
10
131.775
20
-80.032
11
131.694
21
-79.9778
0
LINE
8
BLACK
6
CONTINUOUS
10
131.694
20
-79.9778
11
131.64
21
-79.8967
0
LINE
8
BLACK
6
CONTINUOUS
10
131.64
20
-79.8967
11
131.621
21
-79.801
0
LINE
8
BLACK
6
CONTINUOUS
10
131.621
20
-79.801
11
131.621
21
-78.501
0
LINE
8
BLACK
6
CONTINUOUS
10
131.621
20
-78.501
11
131.64
21
-78.4053
0
LINE
8
BLACK
6
CONTINUOUS
10
131.64
20
-78.4053
11
131.694
21
-78.3242
0
LINE
8
BLACK
6
CONTINUOUS
10
131.694
20
-78.3242
11
131.775
21
-78.27
0
LINE
8
BLACK
6
CONTINUOUS
10
131.775
20
-78.27
11
131.871
21
-78.251
0
LINE
8
BLACK
6
CONTINUOUS
10
131.871
20
-78.251
11
132.571
21
-78.251
0
LINE
8
BLACK
6
CONTINUOUS
10
132.571
20
-78.251
11
132.667
21
-78.27
0
LINE
8
BLACK
6
CONTINUOUS
10
128.067
20
-78.27
11
128.148
21
-78.3242
0
LINE
8
BLACK
6
CONTINUOUS
10
128.148
20
-78.3242
11
128.202
21
-78.4053
0
LINE
8
BLACK
6
CONTINUOUS
10
128.202
20
-78.4053
11
128.221
21
-78.501
0
LINE
8
BLACK
6
CONTINUOUS
10
128.221
20
-78.501
11
128.221
21
-79.801
0
LINE
8
BLACK
6
CONTINUOUS
10
128.221
20
-79.801
11
128.202
21
-79.8967
0
LINE
8
BLACK
6
CONTINUOUS
10
128.202
20
-79.8967
11
128.148
21
-79.9778
0
LINE
8
BLACK
6
CONTINUOUS
10
128.148
20
-79.9778
11
128.067
21
-80.032
0
LINE
8
BLACK
6
CONTINUOUS
10
128.067
20
-80.032
11
127.971
21
-80.051
0
LINE
8
BLACK
6
CONTINUOUS
10
127.971
20
-80.051
11
127.271
21
-80.051
0
LINE
8
BLACK
6
CONTINUOUS
10
127.271
20
-80.051
11
127.175
21
-80.032
0
LINE
8
BLACK
6
CONTINUOUS
10
127.175
20
-80.032
11
127.094
21
-79.9778
0
LINE
8
BLACK
6
CONTINUOUS
10
127.094
20
-79.9778
11
127.04
21
-79.8967
0
LINE
8
BLACK
6
CONTINUOUS
10
127.04
20
-79.8967
11
127.021
21
-79.801
0
LINE
8
BLACK
6
CONTINUOUS
10
127.021
20
-79.801
11
127.021
21
-78.501
0
LINE
8
BLACK
6
CONTINUOUS
10
127.021
20
-78.501
11
127.04
21
-78.4053
0
LINE
8
BLACK
6
CONTINUOUS
10
127.04
20
-78.4053
11
127.094
21
-78.3242
0
LINE
8
BLACK
6
CONTINUOUS
10
127.094
20
-78.3242
11
127.175
21
-78.27
0
LINE
8
BLACK
6
CONTINUOUS
10
127.175
20
-78.27
11
127.271
21
-78.251
0
LINE
8
BLACK
6
CONTINUOUS
10
127.271
20
-78.251
11
127.971
21
-78.251
0
LINE
8
BLACK
6
CONTINUOUS
10
127.971
20
-78.251
11
128.067
21
-78.27
0
LINE
8
BLACK
6
CONTINUOUS
10
145.683
20
-77.6782
11
145.688
21
-77.6779
0
LINE
8
BLACK
6
CONTINUOUS
10
145.688
20
-77.6779
11
145.69
21
-77.6792
0
LINE
8
BLACK
6
CONTINUOUS
10
145.69
20
-77.6792
11
145.697
21
-77.6801
0
LINE
8
BLACK
6
CONTINUOUS
10
145.697
20
-77.6801
11
145.722
21
-77.6968
0
LINE
8
BLACK
6
CONTINUOUS
10
145.722
20
-77.6968
11
145.749
21
-77.7116
0
LINE
8
BLACK
6
CONTINUOUS
10
145.749
20
-77.7116
11
150.749
21
-82.7116
0
LINE
8
BLACK
6
CONTINUOUS
10
150.749
20
-82.7116
11
150.763
21
-82.7294
0
LINE
8
BLACK
6
CONTINUOUS
10
150.763
20
-82.7294
11
150.766
21
-82.7325
0
LINE
8
BLACK
6
CONTINUOUS
10
150.766
20
-82.7325
11
150.767
21
-82.7352
0
LINE
8
BLACK
6
CONTINUOUS
10
150.767
20
-82.7352
11
150.771
21
-82.7404
0
LINE
8
BLACK
6
CONTINUOUS
10
150.771
20
-82.7404
11
150.777
21
-82.7705
0
LINE
8
BLACK
6
CONTINUOUS
10
150.777
20
-82.7705
11
150.786
21
-82.8
0
LINE
8
BLACK
6
CONTINUOUS
10
150.786
20
-82.8
11
150.786
21
-114.8
0
LINE
8
BLACK
6
CONTINUOUS
10
150.786
20
-114.8
11
150.783
21
-114.822
0
LINE
8
BLACK
6
CONTINUOUS
10
150.783
20
-114.822
11
150.783
21
-114.827
0
LINE
8
BLACK
6
CONTINUOUS
10
150.783
20
-114.827
11
150.782
21
-114.829
0
LINE
8
BLACK
6
CONTINUOUS
10
150.782
20
-114.829
11
150.781
21
-114.836
0
LINE
8
BLACK
6
CONTINUOUS
10
150.781
20
-114.836
11
150.764
21
-114.861
0
LINE
8
BLACK
6
CONTINUOUS
10
150.764
20
-114.861
11
150.749
21
-114.888
0
LINE
8
BLACK
6
CONTINUOUS
10
150.749
20
-114.888
11
145.749
21
-119.888
0
LINE
8
BLACK
6
CONTINUOUS
10
145.749
20
-119.888
11
145.732
21
-119.902
0
LINE
8
BLACK
6
CONTINUOUS
10
145.732
20
-119.902
11
145.729
21
-119.905
0
LINE
8
BLACK
6
CONTINUOUS
10
145.729
20
-119.905
11
145.726
21
-119.906
0
LINE
8
BLACK
6
CONTINUOUS
10
145.726
20
-119.906
11
145.721
21
-119.91
0
LINE
8
BLACK
6
CONTINUOUS
10
145.721
20
-119.91
11
145.691
21
-119.916
0
LINE
8
BLACK
6
CONTINUOUS
10
145.691
20
-119.916
11
145.661
21
-119.925
0
LINE
8
BLACK
6
CONTINUOUS
10
145.661
20
-119.925
11
113.661
21
-119.925
0
LINE
8
BLACK
6
CONTINUOUS
10
113.661
20
-119.925
11
113.639
21
-119.922
0
LINE
8
BLACK
6
CONTINUOUS
10
113.639
20
-119.922
11
113.634
21
-119.922
0
LINE
8
BLACK
6
CONTINUOUS
10
113.634
20
-119.922
11
113.632
21
-119.921
0
LINE
8
BLACK
6
CONTINUOUS
10
113.632
20
-119.921
11
113.625
21
-119.92
0
LINE
8
BLACK
6
CONTINUOUS
10
113.625
20
-119.92
11
113.6
21
-119.903
0
LINE
8
BLACK
6
CONTINUOUS
10
113.6
20
-119.903
11
113.573
21
-119.888
0
LINE
8
BLACK
6
CONTINUOUS
10
113.573
20
-119.888
11
108.573
21
-114.888
0
LINE
8
BLACK
6
CONTINUOUS
10
108.573
20
-114.888
11
108.559
21
-114.871
0
LINE
8
BLACK
6
CONTINUOUS
10
108.559
20
-114.871
11
108.556
21
-114.868
0
LINE
8
BLACK
6
CONTINUOUS
10
108.556
20
-114.868
11
108.555
21
-114.865
0
LINE
8
BLACK
6
CONTINUOUS
10
108.555
20
-114.865
11
108.551
21
-114.86
0
LINE
8
BLACK
6
CONTINUOUS
10
108.551
20
-114.86
11
108.545
21
-114.83
0
LINE
8
BLACK
6
CONTINUOUS
10
108.545
20
-114.83
11
108.536
21
-114.8
0
LINE
8
BLACK
6
CONTINUOUS
10
108.536
20
-114.8
11
108.536
21
-82.8
0
LINE
8
BLACK
6
CONTINUOUS
10
108.536
20
-82.8
11
108.539
21
-82.778
0
LINE
8
BLACK
6
CONTINUOUS
10
108.539
20
-82.778
11
108.539
21
-82.7734
0
LINE
8
BLACK
6
CONTINUOUS
10
108.539
20
-82.7734
11
108.54
21
-82.7709
0
LINE
8
BLACK
6
CONTINUOUS
10
108.54
20
-82.7709
11
108.541
21
-82.7645
0
LINE
8
BLACK
6
CONTINUOUS
10
108.541
20
-82.7645
11
108.558
21
-82.7386
0
LINE
8
BLACK
6
CONTINUOUS
10
108.558
20
-82.7386
11
108.573
21
-82.7116
0
LINE
8
BLACK
6
CONTINUOUS
10
108.573
20
-82.7116
11
113.573
21
-77.7116
0
LINE
8
BLACK
6
CONTINUOUS
10
113.573
20
-77.7116
11
113.59
21
-77.6983
0
LINE
8
BLACK
6
CONTINUOUS
10
113.59
20
-77.6983
11
113.593
21
-77.6948
0
LINE
8
BLACK
6
CONTINUOUS
10
113.593
20
-77.6948
11
113.596
21
-77.694
0
LINE
8
BLACK
6
CONTINUOUS
10
113.596
20
-77.694
11
113.601
21
-77.6901
0
LINE
8
BLACK
6
CONTINUOUS
10
113.601
20
-77.6901
11
113.631
21
-77.6837
0
LINE
8
BLACK
6
CONTINUOUS
10
113.631
20
-77.6837
11
113.661
21
-77.675
0
LINE
8
BLACK
6
CONTINUOUS
10
113.661
20
-77.675
11
145.661
21
-77.675
0
LINE
8
BLACK
6
CONTINUOUS
10
145.661
20
-77.675
11
145.683
21
-77.6782
0
LINE
8
BLACK
6
CONTINUOUS
10
113.713
20
-77.925
11
108.786
21
-82.8518
0
LINE
8
BLACK
6
CONTINUOUS
10
108.786
20
-82.8518
11
108.786
21
-114.748
0
LINE
8
BLACK
6
CONTINUOUS
10
108.786
20
-114.748
11
113.713
21
-119.675
0
LINE
8
BLACK
6
CONTINUOUS
10
113.713
20
-119.675
11
145.609
21
-119.675
0
LINE
8
BLACK
6
CONTINUOUS
10
145.609
20
-119.675
11
150.536
21
-114.748
0
LINE
8
BLACK
6
CONTINUOUS
10
150.536
20
-114.748
11
150.536
21
-82.8518
0
LINE
8
BLACK
6
CONTINUOUS
10
150.536
20
-82.8518
11
145.609
21
-77.925
0
LINE
8
BLACK
6
CONTINUOUS
10
145.609
20
-77.925
11
113.713
21
-77.925
0
LINE
8
BLACK
6
CONTINUOUS
10
143.462
20
-114
11
143.525
21
-113.753
0
LINE
8
BLACK
6
CONTINUOUS
10
143.525
20
-113.753
11
143.624
21
-113.517
0
LINE
8
BLACK
6
CONTINUOUS
10
143.624
20
-113.517
11
143.757
21
-113.298
0
LINE
8
BLACK
6
CONTINUOUS
10
143.757
20
-113.298
11
143.92
21
-113.102
0
LINE
8
BLACK
6
CONTINUOUS
10
143.92
20
-113.102
11
144.111
21
-112.931
0
LINE
8
BLACK
6
CONTINUOUS
10
144.111
20
-112.931
11
144.325
21
-112.791
0
LINE
8
BLACK
6
CONTINUOUS
10
144.325
20
-112.791
11
144.557
21
-112.684
0
LINE
8
BLACK
6
CONTINUOUS
10
144.557
20
-112.684
11
144.802
21
-112.613
0
LINE
8
BLACK
6
CONTINUOUS
10
144.802
20
-112.613
11
145.056
21
-112.578
0
LINE
8
BLACK
6
CONTINUOUS
10
145.056
20
-112.578
11
145.311
21
-112.582
0
LINE
8
BLACK
6
CONTINUOUS
10
145.311
20
-112.582
11
145.564
21
-112.623
0
LINE
8
BLACK
6
CONTINUOUS
10
145.564
20
-112.623
11
145.807
21
-112.701
0
LINE
8
BLACK
6
CONTINUOUS
10
145.807
20
-112.701
11
146.037
21
-112.814
0
LINE
8
BLACK
6
CONTINUOUS
10
146.037
20
-112.814
11
146.247
21
-112.959
0
LINE
8
BLACK
6
CONTINUOUS
10
146.247
20
-112.959
11
146.433
21
-113.135
0
LINE
8
BLACK
6
CONTINUOUS
10
146.433
20
-113.135
11
146.591
21
-113.335
0
LINE
8
BLACK
6
CONTINUOUS
10
146.591
20
-113.335
11
146.718
21
-113.557
0
LINE
8
BLACK
6
CONTINUOUS
10
146.718
20
-113.557
11
146.811
21
-113.796
0
LINE
8
BLACK
6
CONTINUOUS
10
146.811
20
-113.796
11
146.867
21
-114.045
0
LINE
8
BLACK
6
CONTINUOUS
10
146.867
20
-114.045
11
146.886
21
-114.3
0
LINE
8
BLACK
6
CONTINUOUS
10
146.886
20
-114.3
11
146.884
21
-114.39
0
LINE
8
BLACK
6
CONTINUOUS
10
146.884
20
-114.39
11
146.851
21
-114.644
0
LINE
8
BLACK
6
CONTINUOUS
10
146.851
20
-114.644
11
146.782
21
-114.89
0
LINE
8
BLACK
6
CONTINUOUS
10
146.782
20
-114.89
11
146.677
21
-115.123
0
LINE
8
BLACK
6
CONTINUOUS
10
146.677
20
-115.123
11
146.539
21
-115.338
0
LINE
8
BLACK
6
CONTINUOUS
10
146.539
20
-115.338
11
146.37
21
-115.53
0
LINE
8
BLACK
6
CONTINUOUS
10
146.37
20
-115.53
11
146.175
21
-115.696
0
LINE
8
BLACK
6
CONTINUOUS
10
146.175
20
-115.696
11
145.958
21
-115.83
0
LINE
8
BLACK
6
CONTINUOUS
10
145.958
20
-115.83
11
145.723
21
-115.931
0
LINE
8
BLACK
6
CONTINUOUS
10
145.723
20
-115.931
11
145.475
21
-115.996
0
LINE
8
BLACK
6
CONTINUOUS
10
145.475
20
-115.996
11
145.221
21
-116.024
0
LINE
8
BLACK
6
CONTINUOUS
10
145.221
20
-116.024
11
144.966
21
-116.014
0
LINE
8
BLACK
6
CONTINUOUS
10
144.966
20
-116.014
11
144.715
21
-115.966
0
LINE
8
BLACK
6
CONTINUOUS
10
144.715
20
-115.966
11
144.473
21
-115.882
0
LINE
8
BLACK
6
CONTINUOUS
10
144.473
20
-115.882
11
144.247
21
-115.763
0
LINE
8
BLACK
6
CONTINUOUS
10
144.247
20
-115.763
11
144.041
21
-115.612
0
LINE
8
BLACK
6
CONTINUOUS
10
144.041
20
-115.612
11
143.859
21
-115.432
0
LINE
8
BLACK
6
CONTINUOUS
10
143.859
20
-115.432
11
143.706
21
-115.227
0
LINE
8
BLACK
6
CONTINUOUS
10
143.706
20
-115.227
11
143.585
21
-115.002
0
LINE
8
BLACK
6
CONTINUOUS
10
143.585
20
-115.002
11
143.499
21
-114.761
0
LINE
8
BLACK
6
CONTINUOUS
10
143.499
20
-114.761
11
143.449
21
-114.51
0
LINE
8
BLACK
6
CONTINUOUS
10
143.449
20
-114.51
11
143.437
21
-114.264
0
LINE
8
BLACK
6
CONTINUOUS
10
143.437
20
-114.264
11
143.437
21
-114.255
0
LINE
8
BLACK
6
CONTINUOUS
10
143.437
20
-114.255
11
143.462
21
-114
0
LINE
8
BLACK
6
CONTINUOUS
10
143.749
20
-114.743
11
143.84
21
-114.967
0
LINE
8
BLACK
6
CONTINUOUS
10
143.84
20
-114.967
11
143.967
21
-115.174
0
LINE
8
BLACK
6
CONTINUOUS
10
143.967
20
-115.174
11
144.125
21
-115.357
0
LINE
8
BLACK
6
CONTINUOUS
10
144.125
20
-115.357
11
144.312
21
-115.512
0
LINE
8
BLACK
6
CONTINUOUS
10
144.312
20
-115.512
11
144.521
21
-115.635
0
LINE
8
BLACK
6
CONTINUOUS
10
144.521
20
-115.635
11
144.748
21
-115.721
0
LINE
8
BLACK
6
CONTINUOUS
10
144.748
20
-115.721
11
144.986
21
-115.77
0
LINE
8
BLACK
6
CONTINUOUS
10
144.986
20
-115.77
11
145.228
21
-115.779
0
LINE
8
BLACK
6
CONTINUOUS
10
145.228
20
-115.779
11
145.469
21
-115.748
0
LINE
8
BLACK
6
CONTINUOUS
10
145.469
20
-115.748
11
145.701
21
-115.678
0
LINE
8
BLACK
6
CONTINUOUS
10
145.701
20
-115.678
11
145.919
21
-115.571
0
LINE
8
BLACK
6
CONTINUOUS
10
145.919
20
-115.571
11
146.116
21
-115.43
0
LINE
8
BLACK
6
CONTINUOUS
10
146.116
20
-115.43
11
146.288
21
-115.259
0
LINE
8
BLACK
6
CONTINUOUS
10
146.288
20
-115.259
11
146.43
21
-115.062
0
LINE
8
BLACK
6
CONTINUOUS
10
146.43
20
-115.062
11
146.537
21
-114.845
0
LINE
8
BLACK
6
CONTINUOUS
10
146.537
20
-114.845
11
146.608
21
-114.613
0
LINE
8
BLACK
6
CONTINUOUS
10
146.608
20
-114.613
11
146.639
21
-114.372
0
LINE
8
BLACK
6
CONTINUOUS
10
146.639
20
-114.372
11
146.641
21
-114.3
0
LINE
8
BLACK
6
CONTINUOUS
10
146.641
20
-114.3
11
146.621
21
-114.058
0
LINE
8
BLACK
6
CONTINUOUS
10
146.621
20
-114.058
11
146.562
21
-113.823
0
LINE
8
BLACK
6
CONTINUOUS
10
146.562
20
-113.823
11
146.465
21
-113.601
0
LINE
8
BLACK
6
CONTINUOUS
10
146.465
20
-113.601
11
146.334
21
-113.397
0
LINE
8
BLACK
6
CONTINUOUS
10
146.334
20
-113.397
11
146.17
21
-113.218
0
LINE
8
BLACK
6
CONTINUOUS
10
146.17
20
-113.218
11
145.98
21
-113.067
0
LINE
8
BLACK
6
CONTINUOUS
10
145.98
20
-113.067
11
145.768
21
-112.95
0
LINE
8
BLACK
6
CONTINUOUS
10
145.768
20
-112.95
11
145.539
21
-112.869
0
LINE
8
BLACK
6
CONTINUOUS
10
145.539
20
-112.869
11
145.3
21
-112.827
0
LINE
8
BLACK
6
CONTINUOUS
10
145.3
20
-112.827
11
145.058
21
-112.824
0
LINE
8
BLACK
6
CONTINUOUS
10
145.058
20
-112.824
11
144.818
21
-112.86
0
LINE
8
BLACK
6
CONTINUOUS
10
144.818
20
-112.86
11
144.587
21
-112.936
0
LINE
8
BLACK
6
CONTINUOUS
10
144.587
20
-112.936
11
144.372
21
-113.048
0
LINE
8
BLACK
6
CONTINUOUS
10
144.372
20
-113.048
11
144.178
21
-113.193
0
LINE
8
BLACK
6
CONTINUOUS
10
144.178
20
-113.193
11
144.011
21
-113.369
0
LINE
8
BLACK
6
CONTINUOUS
10
144.011
20
-113.369
11
143.874
21
-113.569
0
LINE
8
BLACK
6
CONTINUOUS
10
143.874
20
-113.569
11
143.772
21
-113.789
0
LINE
8
BLACK
6
CONTINUOUS
10
143.772
20
-113.789
11
143.707
21
-114.023
0
LINE
8
BLACK
6
CONTINUOUS
10
143.707
20
-114.023
11
143.681
21
-114.264
0
LINE
8
BLACK
6
CONTINUOUS
10
143.681
20
-114.264
11
143.695
21
-114.506
0
LINE
8
BLACK
6
CONTINUOUS
10
143.695
20
-114.506
11
143.749
21
-114.743
0
LINE
8
BLACK
6
CONTINUOUS
10
112.462
20
-114
11
112.525
21
-113.753
0
LINE
8
BLACK
6
CONTINUOUS
10
112.525
20
-113.753
11
112.624
21
-113.517
0
LINE
8
BLACK
6
CONTINUOUS
10
112.624
20
-113.517
11
112.757
21
-113.298
0
LINE
8
BLACK
6
CONTINUOUS
10
112.757
20
-113.298
11
112.92
21
-113.102
0
LINE
8
BLACK
6
CONTINUOUS
10
112.92
20
-113.102
11
113.111
21
-112.931
0
LINE
8
BLACK
6
CONTINUOUS
10
113.111
20
-112.931
11
113.325
21
-112.791
0
LINE
8
BLACK
6
CONTINUOUS
10
113.325
20
-112.791
11
113.557
21
-112.684
0
LINE
8
BLACK
6
CONTINUOUS
10
113.557
20
-112.684
11
113.802
21
-112.613
0
LINE
8
BLACK
6
CONTINUOUS
10
113.802
20
-112.613
11
114.056
21
-112.578
0
LINE
8
BLACK
6
CONTINUOUS
10
114.056
20
-112.578
11
114.311
21
-112.582
0
LINE
8
BLACK
6
CONTINUOUS
10
114.311
20
-112.582
11
114.564
21
-112.623
0
LINE
8
BLACK
6
CONTINUOUS
10
114.564
20
-112.623
11
114.807
21
-112.701
0
LINE
8
BLACK
6
CONTINUOUS
10
114.807
20
-112.701
11
115.037
21
-112.814
0
LINE
8
BLACK
6
CONTINUOUS
10
115.037
20
-112.814
11
115.247
21
-112.959
0
LINE
8
BLACK
6
CONTINUOUS
10
115.247
20
-112.959
11
115.433
21
-113.135
0
LINE
8
BLACK
6
CONTINUOUS
10
115.433
20
-113.135
11
115.591
21
-113.335
0
LINE
8
BLACK
6
CONTINUOUS
10
115.591
20
-113.335
11
115.718
21
-113.557
0
LINE
8
BLACK
6
CONTINUOUS
10
115.718
20
-113.557
11
115.811
21
-113.796
0
LINE
8
BLACK
6
CONTINUOUS
10
115.811
20
-113.796
11
115.867
21
-114.045
0
LINE
8
BLACK
6
CONTINUOUS
10
115.867
20
-114.045
11
115.886
21
-114.3
0
LINE
8
BLACK
6
CONTINUOUS
10
115.886
20
-114.3
11
115.884
21
-114.39
0
LINE
8
BLACK
6
CONTINUOUS
10
115.884
20
-114.39
11
115.851
21
-114.644
0
LINE
8
BLACK
6
CONTINUOUS
10
115.851
20
-114.644
11
115.782
21
-114.89
0
LINE
8
BLACK
6
CONTINUOUS
10
115.782
20
-114.89
11
115.677
21
-115.123
0
LINE
8
BLACK
6
CONTINUOUS
10
115.677
20
-115.123
11
115.539
21
-115.338
0
LINE
8
BLACK
6
CONTINUOUS
10
115.539
20
-115.338
11
115.37
21
-115.53
0
LINE
8
BLACK
6
CONTINUOUS
10
115.37
20
-115.53
11
115.175
21
-115.696
0
LINE
8
BLACK
6
CONTINUOUS
10
115.175
20
-115.696
11
114.958
21
-115.83
0
LINE
8
BLACK
6
CONTINUOUS
10
114.958
20
-115.83
11
114.723
21
-115.931
0
LINE
8
BLACK
6
CONTINUOUS
10
114.723
20
-115.931
11
114.475
21
-115.996
0
LINE
8
BLACK
6
CONTINUOUS
10
114.475
20
-115.996
11
114.221
21
-116.024
0
LINE
8
BLACK
6
CONTINUOUS
10
114.221
20
-116.024
11
113.966
21
-116.014
0
LINE
8
BLACK
6
CONTINUOUS
10
113.966
20
-116.014
11
113.715
21
-115.966
0
LINE
8
BLACK
6
CONTINUOUS
10
113.715
20
-115.966
11
113.473
21
-115.882
0
LINE
8
BLACK
6
CONTINUOUS
10
113.473
20
-115.882
11
113.247
21
-115.763
0
LINE
8
BLACK
6
CONTINUOUS
10
113.247
20
-115.763
11
113.041
21
-115.612
0
LINE
8
BLACK
6
CONTINUOUS
10
113.041
20
-115.612
11
112.859
21
-115.432
0
LINE
8
BLACK
6
CONTINUOUS
10
112.859
20
-115.432
11
112.706
21
-115.227
0
LINE
8
BLACK
6
CONTINUOUS
10
112.706
20
-115.227
11
112.585
21
-115.002
0
LINE
8
BLACK
6
CONTINUOUS
10
112.585
20
-115.002
11
112.499
21
-114.761
0
LINE
8
BLACK
6
CONTINUOUS
10
112.499
20
-114.761
11
112.449
21
-114.51
0
LINE
8
BLACK
6
CONTINUOUS
10
112.449
20
-114.51
11
112.437
21
-114.264
0
LINE
8
BLACK
6
CONTINUOUS
10
112.437
20
-114.264
11
112.437
21
-114.255
0
LINE
8
BLACK
6
CONTINUOUS
10
112.437
20
-114.255
11
112.462
21
-114
0
LINE
8
BLACK
6
CONTINUOUS
10
112.749
20
-114.743
11
112.84
21
-114.967
0
LINE
8
BLACK
6
CONTINUOUS
10
112.84
20
-114.967
11
112.967
21
-115.174
0
LINE
8
BLACK
6
CONTINUOUS
10
112.967
20
-115.174
11
113.125
21
-115.357
0
LINE
8
BLACK
6
CONTINUOUS
10
113.125
20
-115.357
11
113.312
21
-115.512
0
LINE
8
BLACK
6
CONTINUOUS
10
113.312
20
-115.512
11
113.521
21
-115.635
0
LINE
8
BLACK
6
CONTINUOUS
10
113.521
20
-115.635
11
113.748
21
-115.721
0
LINE
8
BLACK
6
CONTINUOUS
10
113.748
20
-115.721
11
113.986
21
-115.77
0
LINE
8
BLACK
6
CONTINUOUS
10
113.986
20
-115.77
11
114.228
21
-115.779
0
LINE
8
BLACK
6
CONTINUOUS
10
114.228
20
-115.779
11
114.469
21
-115.748
0
LINE
8
BLACK
6
CONTINUOUS
10
114.469
20
-115.748
11
114.701
21
-115.678
0
LINE
8
BLACK
6
CONTINUOUS
10
114.701
20
-115.678
11
114.919
21
-115.571
0
LINE
8
BLACK
6
CONTINUOUS
10
114.919
20
-115.571
11
115.116
21
-115.43
0
LINE
8
BLACK
6
CONTINUOUS
10
115.116
20
-115.43
11
115.288
21
-115.259
0
LINE
8
BLACK
6
CONTINUOUS
10
115.288
20
-115.259
11
115.43
21
-115.062
0
LINE
8
BLACK
6
CONTINUOUS
10
115.43
20
-115.062
11
115.537
21
-114.845
0
LINE
8
BLACK
6
CONTINUOUS
10
115.537
20
-114.845
11
115.608
21
-114.613
0
LINE
8
BLACK
6
CONTINUOUS
10
115.608
20
-114.613
11
115.639
21
-114.372
0
LINE
8
BLACK
6
CONTINUOUS
10
115.639
20
-114.372
11
115.641
21
-114.3
0
LINE
8
BLACK
6
CONTINUOUS
10
115.641
20
-114.3
11
115.621
21
-114.058
0
LINE
8
BLACK
6
CONTINUOUS
10
115.621
20
-114.058
11
115.562
21
-113.823
0
LINE
8
BLACK
6
CONTINUOUS
10
115.562
20
-113.823
11
115.465
21
-113.601
0
LINE
8
BLACK
6
CONTINUOUS
10
115.465
20
-113.601
11
115.334
21
-113.397
0
LINE
8
BLACK
6
CONTINUOUS
10
115.334
20
-113.397
11
115.17
21
-113.218
0
LINE
8
BLACK
6
CONTINUOUS
10
115.17
20
-113.218
11
114.98
21
-113.067
0
LINE
8
BLACK
6
CONTINUOUS
10
114.98
20
-113.067
11
114.768
21
-112.95
0
LINE
8
BLACK
6
CONTINUOUS
10
114.768
20
-112.95
11
114.539
21
-112.869
0
LINE
8
BLACK
6
CONTINUOUS
10
114.539
20
-112.869
11
114.3
21
-112.827
0
LINE
8
BLACK
6
CONTINUOUS
10
114.3
20
-112.827
11
114.058
21
-112.824
0
LINE
8
BLACK
6
CONTINUOUS
10
114.058
20
-112.824
11
113.818
21
-112.86
0
LINE
8
BLACK
6
CONTINUOUS
10
113.818
20
-112.86
11
113.587
21
-112.936
0
LINE
8
BLACK
6
CONTINUOUS
10
113.587
20
-112.936
11
113.372
21
-113.048
0
LINE
8
BLACK
6
CONTINUOUS
10
113.372
20
-113.048
11
113.178
21
-113.193
0
LINE
8
BLACK
6
CONTINUOUS
10
113.178
20
-113.193
11
113.011
21
-113.369
0
LINE
8
BLACK
6
CONTINUOUS
10
113.011
20
-113.369
11
112.874
21
-113.569
0
LINE
8
BLACK
6
CONTINUOUS
10
112.874
20
-113.569
11
112.772
21
-113.789
0
LINE
8
BLACK
6
CONTINUOUS
10
112.772
20
-113.789
11
112.707
21
-114.023
0
LINE
8
BLACK
6
CONTINUOUS
10
112.707
20
-114.023
11
112.681
21
-114.264
0
LINE
8
BLACK
6
CONTINUOUS
10
112.681
20
-114.264
11
112.695
21
-114.506
0
LINE
8
BLACK
6
CONTINUOUS
10
112.695
20
-114.506
11
112.749
21
-114.743
0
LINE
8
BLACK
6
CONTINUOUS
10
112.462
20
-83.0005
11
112.525
21
-82.7526
0
LINE
8
BLACK
6
CONTINUOUS
10
112.525
20
-82.7526
11
112.624
21
-82.5169
0
LINE
8
BLACK
6
CONTINUOUS
10
112.624
20
-82.5169
11
112.757
21
-82.2983
0
LINE
8
BLACK
6
CONTINUOUS
10
112.757
20
-82.2983
11
112.92
21
-82.1017
0
LINE
8
BLACK
6
CONTINUOUS
10
112.92
20
-82.1017
11
113.111
21
-81.9315
0
LINE
8
BLACK
6
CONTINUOUS
10
113.111
20
-81.9315
11
113.325
21
-81.7913
0
LINE
8
BLACK
6
CONTINUOUS
10
113.325
20
-81.7913
11
113.557
21
-81.6842
0
LINE
8
BLACK
6
CONTINUOUS
10
113.557
20
-81.6842
11
113.802
21
-81.6127
0
LINE
8
BLACK
6
CONTINUOUS
10
113.802
20
-81.6127
11
114.056
21
-81.5782
0
LINE
8
BLACK
6
CONTINUOUS
10
114.056
20
-81.5782
11
114.311
21
-81.5816
0
LINE
8
BLACK
6
CONTINUOUS
10
114.311
20
-81.5816
11
114.564
21
-81.6227
0
LINE
8
BLACK
6
CONTINUOUS
10
114.564
20
-81.6227
11
114.807
21
-81.7006
0
LINE
8
BLACK
6
CONTINUOUS
10
114.807
20
-81.7006
11
115.037
21
-81.8137
0
LINE
8
BLACK
6
CONTINUOUS
10
115.037
20
-81.8137
11
115.247
21
-81.9594
0
LINE
8
BLACK
6
CONTINUOUS
10
115.247
20
-81.9594
11
115.433
21
-82.1346
0
LINE
8
BLACK
6
CONTINUOUS
10
115.433
20
-82.1346
11
115.591
21
-82.3354
0
LINE
8
BLACK
6
CONTINUOUS
10
115.591
20
-82.3354
11
115.718
21
-82.5574
0
LINE
8
BLACK
6
CONTINUOUS
10
115.718
20
-82.5574
11
115.811
21
-82.7957
0
LINE
8
BLACK
6
CONTINUOUS
10
115.811
20
-82.7957
11
115.867
21
-83.045
0
LINE
8
BLACK
6
CONTINUOUS
10
115.867
20
-83.045
11
115.886
21
-83.3
0
LINE
8
BLACK
6
CONTINUOUS
10
115.886
20
-83.3
11
115.884
21
-83.3903
0
LINE
8
BLACK
6
CONTINUOUS
10
115.884
20
-83.3903
11
115.851
21
-83.6439
0
LINE
8
BLACK
6
CONTINUOUS
10
115.851
20
-83.6439
11
115.782
21
-83.89
0
LINE
8
BLACK
6
CONTINUOUS
10
115.782
20
-83.89
11
115.677
21
-84.1231
0
LINE
8
BLACK
6
CONTINUOUS
10
115.677
20
-84.1231
11
115.539
21
-84.3381
0
LINE
8
BLACK
6
CONTINUOUS
10
115.539
20
-84.3381
11
115.37
21
-84.5304
0
LINE
8
BLACK
6
CONTINUOUS
10
115.37
20
-84.5304
11
115.175
21
-84.6956
0
LINE
8
BLACK
6
CONTINUOUS
10
115.175
20
-84.6956
11
114.958
21
-84.8301
0
LINE
8
BLACK
6
CONTINUOUS
10
114.958
20
-84.8301
11
114.723
21
-84.931
0
LINE
8
BLACK
6
CONTINUOUS
10
114.723
20
-84.931
11
114.475
21
-84.9961
0
LINE
8
BLACK
6
CONTINUOUS
10
114.475
20
-84.9961
11
114.221
21
-85.0239
0
LINE
8
BLACK
6
CONTINUOUS
10
114.221
20
-85.0239
11
113.966
21
-85.0139
0
LINE
8
BLACK
6
CONTINUOUS
10
113.966
20
-85.0139
11
113.715
21
-84.9662
0
LINE
8
BLACK
6
CONTINUOUS
10
113.715
20
-84.9662
11
113.473
21
-84.8819
0
LINE
8
BLACK
6
CONTINUOUS
10
113.473
20
-84.8819
11
113.247
21
-84.7629
0
LINE
8
BLACK
6
CONTINUOUS
10
113.247
20
-84.7629
11
113.041
21
-84.6117
0
LINE
8
BLACK
6
CONTINUOUS
10
113.041
20
-84.6117
11
112.859
21
-84.4317
0
LINE
8
BLACK
6
CONTINUOUS
10
112.859
20
-84.4317
11
112.706
21
-84.2268
0
LINE
8
BLACK
6
CONTINUOUS
10
112.706
20
-84.2268
11
112.585
21
-84.0016
0
LINE
8
BLACK
6
CONTINUOUS
10
112.585
20
-84.0016
11
112.499
21
-83.761
0
LINE
8
BLACK
6
CONTINUOUS
10
112.499
20
-83.761
11
112.449
21
-83.5102
0
LINE
8
BLACK
6
CONTINUOUS
10
112.449
20
-83.5102
11
112.437
21
-83.2638
0
LINE
8
BLACK
6
CONTINUOUS
10
112.437
20
-83.2638
11
112.437
21
-83.2548
0
LINE
8
BLACK
6
CONTINUOUS
10
112.437
20
-83.2548
11
112.462
21
-83.0005
0
LINE
8
BLACK
6
CONTINUOUS
10
112.749
20
-83.7426
11
112.84
21
-83.9673
0
LINE
8
BLACK
6
CONTINUOUS
10
112.84
20
-83.9673
11
112.967
21
-84.1741
0
LINE
8
BLACK
6
CONTINUOUS
10
112.967
20
-84.1741
11
113.125
21
-84.3575
0
LINE
8
BLACK
6
CONTINUOUS
10
113.125
20
-84.3575
11
113.312
21
-84.5124
0
LINE
8
BLACK
6
CONTINUOUS
10
113.312
20
-84.5124
11
113.521
21
-84.6348
0
LINE
8
BLACK
6
CONTINUOUS
10
113.521
20
-84.6348
11
113.748
21
-84.7213
0
LINE
8
BLACK
6
CONTINUOUS
10
113.748
20
-84.7213
11
113.986
21
-84.7696
0
LINE
8
BLACK
6
CONTINUOUS
10
113.986
20
-84.7696
11
114.228
21
-84.7785
0
LINE
8
BLACK
6
CONTINUOUS
10
114.228
20
-84.7785
11
114.469
21
-84.7477
0
LINE
8
BLACK
6
CONTINUOUS
10
114.469
20
-84.7477
11
114.701
21
-84.678
0
LINE
8
BLACK
6
CONTINUOUS
10
114.701
20
-84.678
11
114.919
21
-84.5713
0
LINE
8
BLACK
6
CONTINUOUS
10
114.919
20
-84.5713
11
115.116
21
-84.4305
0
LINE
8
BLACK
6
CONTINUOUS
10
115.116
20
-84.4305
11
115.288
21
-84.2593
0
LINE
8
BLACK
6
CONTINUOUS
10
115.288
20
-84.2593
11
115.43
21
-84.0623
0
LINE
8
BLACK
6
CONTINUOUS
10
115.43
20
-84.0623
11
115.537
21
-83.8448
0
LINE
8
BLACK
6
CONTINUOUS
10
115.537
20
-83.8448
11
115.608
21
-83.6128
0
LINE
8
BLACK
6
CONTINUOUS
10
115.608
20
-83.6128
11
115.639
21
-83.3723
0
LINE
8
BLACK
6
CONTINUOUS
10
115.639
20
-83.3723
11
115.641
21
-83.3
0
LINE
8
BLACK
6
CONTINUOUS
10
115.641
20
-83.3
11
115.621
21
-83.0583
0
LINE
8
BLACK
6
CONTINUOUS
10
115.621
20
-83.0583
11
115.562
21
-82.823
0
LINE
8
BLACK
6
CONTINUOUS
10
115.562
20
-82.823
11
115.465
21
-82.6006
0
LINE
8
BLACK
6
CONTINUOUS
10
115.465
20
-82.6006
11
115.334
21
-82.397
0
LINE
8
BLACK
6
CONTINUOUS
10
115.334
20
-82.397
11
115.17
21
-82.2176
0
LINE
8
BLACK
6
CONTINUOUS
10
115.17
20
-82.2176
11
114.98
21
-82.0672
0
LINE
8
BLACK
6
CONTINUOUS
10
114.98
20
-82.0672
11
114.768
21
-81.95
0
LINE
8
BLACK
6
CONTINUOUS
10
114.768
20
-81.95
11
114.539
21
-81.869
0
LINE
8
BLACK
6
CONTINUOUS
10
114.539
20
-81.869
11
114.3
21
-81.8265
0
LINE
8
BLACK
6
CONTINUOUS
10
114.3
20
-81.8265
11
114.058
21
-81.8235
0
LINE
8
BLACK
6
CONTINUOUS
10
114.058
20
-81.8235
11
113.818
21
-81.8602
0
LINE
8
BLACK
6
CONTINUOUS
10
113.818
20
-81.8602
11
113.587
21
-81.9356
0
LINE
8
BLACK
6
CONTINUOUS
10
113.587
20
-81.9356
11
113.372
21
-82.0476
0
LINE
8
BLACK
6
CONTINUOUS
10
113.372
20
-82.0476
11
113.178
21
-82.1932
0
LINE
8
BLACK
6
CONTINUOUS
10
113.178
20
-82.1932
11
113.011
21
-82.3686
0
LINE
8
BLACK
6
CONTINUOUS
10
113.011
20
-82.3686
11
112.874
21
-82.5689
0
LINE
8
BLACK
6
CONTINUOUS
10
112.874
20
-82.5689
11
112.772
21
-82.7889
0
LINE
8
BLACK
6
CONTINUOUS
10
112.772
20
-82.7889
11
112.707
21
-83.0227
0
LINE
8
BLACK
6
CONTINUOUS
10
112.707
20
-83.0227
11
112.681
21
-83.2638
0
LINE
8
BLACK
6
CONTINUOUS
10
112.681
20
-83.2638
11
112.695
21
-83.506
0
LINE
8
BLACK
6
CONTINUOUS
10
112.695
20
-83.506
11
112.749
21
-83.7426
0
LINE
8
BLACK
6
CONTINUOUS
10
143.462
20
-83.0005
11
143.525
21
-82.7526
0
LINE
8
BLACK
6
CONTINUOUS
10
143.525
20
-82.7526
11
143.624
21
-82.5169
0
LINE
8
BLACK
6
CONTINUOUS
10
143.624
20
-82.5169
11
143.757
21
-82.2983
0
LINE
8
BLACK
6
CONTINUOUS
10
143.757
20
-82.2983
11
143.92
21
-82.1017
0
LINE
8
BLACK
6
CONTINUOUS
10
143.92
20
-82.1017
11
144.111
21
-81.9315
0
LINE
8
BLACK
6
CONTINUOUS
10
144.111
20
-81.9315
11
144.325
21
-81.7913
0
LINE
8
BLACK
6
CONTINUOUS
10
144.325
20
-81.7913
11
144.557
21
-81.6842
0
LINE
8
BLACK
6
CONTINUOUS
10
144.557
20
-81.6842
11
144.802
21
-81.6127
0
LINE
8
BLACK
6
CONTINUOUS
10
144.802
20
-81.6127
11
145.056
21
-81.5782
0
LINE
8
BLACK
6
CONTINUOUS
10
145.056
20
-81.5782
11
145.311
21
-81.5816
0
LINE
8
BLACK
6
CONTINUOUS
10
145.311
20
-81.5816
11
145.564
21
-81.6227
0
LINE
8
BLACK
6
CONTINUOUS
10
145.564
20
-81.6227
11
145.807
21
-81.7006
0
LINE
8
BLACK
6
CONTINUOUS
10
145.807
20
-81.7006
11
146.037
21
-81.8137
0
LINE
8
BLACK
6
CONTINUOUS
10
146.037
20
-81.8137
11
146.247
21
-81.9594
0
LINE
8
BLACK
6
CONTINUOUS
10
146.247
20
-81.9594
11
146.433
21
-82.1346
0
LINE
8
BLACK
6
CONTINUOUS
10
146.433
20
-82.1346
11
146.591
21
-82.3354
0
LINE
8
BLACK
6
CONTINUOUS
10
146.591
20
-82.3354
11
146.718
21
-82.5574
0
LINE
8
BLACK
6
CONTINUOUS
10
146.718
20
-82.5574
11
146.811
21
-82.7957
0
LINE
8
BLACK
6
CONTINUOUS
10
146.811
20
-82.7957
11
146.867
21
-83.045
0
LINE
8
BLACK
6
CONTINUOUS
10
146.867
20
-83.045
11
146.886
21
-83.3
0
LINE
8
BLACK
6
CONTINUOUS
10
146.886
20
-83.3
11
146.884
21
-83.3903
0
LINE
8
BLACK
6
CONTINUOUS
10
146.884
20
-83.3903
11
146.851
21
-83.6439
0
LINE
8
BLACK
6
CONTINUOUS
10
146.851
20
-83.6439
11
146.782
21
-83.89
0
LINE
8
BLACK
6
CONTINUOUS
10
146.782
20
-83.89
11
146.677
21
-84.1231
0
LINE
8
BLACK
6
CONTINUOUS
10
146.677
20
-84.1231
11
146.539
21
-84.3381
0
LINE
8
BLACK
6
CONTINUOUS
10
146.539
20
-84.3381
11
146.37
21
-84.5304
0
LINE
8
BLACK
6
CONTINUOUS
10
146.37
20
-84.5304
11
146.175
21
-84.6956
0
LINE
8
BLACK
6
CONTINUOUS
10
146.175
20
-84.6956
11
145.958
21
-84.8301
0
LINE
8
BLACK
6
CONTINUOUS
10
145.958
20
-84.8301
11
145.723
21
-84.931
0
LINE
8
BLACK
6
CONTINUOUS
10
145.723
20
-84.931
11
145.475
21
-84.9961
0
LINE
8
BLACK
6
CONTINUOUS
10
145.475
20
-84.9961
11
145.221
21
-85.0239
0
LINE
8
BLACK
6
CONTINUOUS
10
145.221
20
-85.0239
11
144.966
21
-85.0139
0
LINE
8
BLACK
6
CONTINUOUS
10
144.966
20
-85.0139
11
144.715
21
-84.9662
0
LINE
8
BLACK
6
CONTINUOUS
10
144.715
20
-84.9662
11
144.473
21
-84.8819
0
LINE
8
BLACK
6
CONTINUOUS
10
144.473
20
-84.8819
11
144.247
21
-84.7629
0
LINE
8
BLACK
6
CONTINUOUS
10
144.247
20
-84.7629
11
144.041
21
-84.6117
0
LINE
8
BLACK
6
CONTINUOUS
10
144.041
20
-84.6117
11
143.859
21
-84.4317
0
LINE
8
BLACK
6
CONTINUOUS
10
143.859
20
-84.4317
11
143.706
21
-84.2268
0
LINE
8
BLACK
6
CONTINUOUS
10
143.706
20
-84.2268
11
143.585
21
-84.0016
0
LINE
8
BLACK
6
CONTINUOUS
10
143.585
20
-84.0016
11
143.499
21
-83.761
0
LINE
8
BLACK
6
CONTINUOUS
10
143.499
20
-83.761
11
143.449
21
-83.5102
0
LINE
8
BLACK
6
CONTINUOUS
10
143.449
20
-83.5102
11
143.437
21
-83.2638
0
LINE
8
BLACK
6
CONTINUOUS
10
143.437
20
-83.2638
11
143.437
21
-83.2548
0
LINE
8
BLACK
6
CONTINUOUS
10
143.437
20
-83.2548
11
143.462
21
-83.0005
0
LINE
8
BLACK
6
CONTINUOUS
10
143.749
20
-83.7426
11
143.84
21
-83.9673
0
LINE
8
BLACK
6
CONTINUOUS
10
143.84
20
-83.9673
11
143.967
21
-84.1741
0
LINE
8
BLACK
6
CONTINUOUS
10
143.967
20
-84.1741
11
144.125
21
-84.3575
0
LINE
8
BLACK
6
CONTINUOUS
10
144.125
20
-84.3575
11
144.312
21
-84.5124
0
LINE
8
BLACK
6
CONTINUOUS
10
144.312
20
-84.5124
11
144.521
21
-84.6348
0
LINE
8
BLACK
6
CONTINUOUS
10
144.521
20
-84.6348
11
144.748
21
-84.7213
0
LINE
8
BLACK
6
CONTINUOUS
10
144.748
20
-84.7213
11
144.986
21
-84.7696
0
LINE
8
BLACK
6
CONTINUOUS
10
144.986
20
-84.7696
11
145.228
21
-84.7785
0
LINE
8
BLACK
6
CONTINUOUS
10
145.228
20
-84.7785
11
145.469
21
-84.7477
0
LINE
8
BLACK
6
CONTINUOUS
10
145.469
20
-84.7477
11
145.701
21
-84.678
0
LINE
8
BLACK
6
CONTINUOUS
10
145.701
20
-84.678
11
145.919
21
-84.5713
0
LINE
8
BLACK
6
CONTINUOUS
10
145.919
20
-84.5713
11
146.116
21
-84.4305
0
LINE
8
BLACK
6
CONTINUOUS
10
146.116
20
-84.4305
11
146.288
21
-84.2593
0
LINE
8
BLACK
6
CONTINUOUS
10
146.288
20
-84.2593
11
146.43
21
-84.0623
0
LINE
8
BLACK
6
CONTINUOUS
10
146.43
20
-84.0623
11
146.537
21
-83.8448
0
LINE
8
BLACK
6
CONTINUOUS
10
146.537
20
-83.8448
11
146.608
21
-83.6128
0
LINE
8
BLACK
6
CONTINUOUS
10
146.608
20
-83.6128
11
146.639
21
-83.3723
0
LINE
8
BLACK
6
CONTINUOUS
10
146.639
20
-83.3723
11
146.641
21
-83.3
0
LINE
8
BLACK
6
CONTINUOUS
10
146.641
20
-83.3
11
146.621
21
-83.0583
0
LINE
8
BLACK
6
CONTINUOUS
10
146.621
20
-83.0583
11
146.562
21
-82.823
0
LINE
8
BLACK
6
CONTINUOUS
10
146.562
20
-82.823
11
146.465
21
-82.6006
0
LINE
8
BLACK
6
CONTINUOUS
10
146.465
20
-82.6006
11
146.334
21
-82.397
0
LINE
8
BLACK
6
CONTINUOUS
10
146.334
20
-82.397
11
146.17
21
-82.2176
0
LINE
8
BLACK
6
CONTINUOUS
10
146.17
20
-82.2176
11
145.98
21
-82.0672
0
LINE
8
BLACK
6
CONTINUOUS
10
145.98
20
-82.0672
11
145.768
21
-81.95
0
LINE
8
BLACK
6
CONTINUOUS
10
145.768
20
-81.95
11
145.539
21
-81.869
0
LINE
8
BLACK
6
CONTINUOUS
10
145.539
20
-81.869
11
145.3
21
-81.8265
0
LINE
8
BLACK
6
CONTINUOUS
10
145.3
20
-81.8265
11
145.058
21
-81.8235
0
LINE
8
BLACK
6
CONTINUOUS
10
145.058
20
-81.8235
11
144.818
21
-81.8602
0
LINE
8
BLACK
6
CONTINUOUS
10
144.818
20
-81.8602
11
144.587
21
-81.9356
0
LINE
8
BLACK
6
CONTINUOUS
10
144.587
20
-81.9356
11
144.372
21
-82.0476
0
LINE
8
BLACK
6
CONTINUOUS
10
144.372
20
-82.0476
11
144.178
21
-82.1932
0
LINE
8
BLACK
6
CONTINUOUS
10
144.178
20
-82.1932
11
144.011
21
-82.3686
0
LINE
8
BLACK
6
CONTINUOUS
10
144.011
20
-82.3686
11
143.874
21
-82.5689
0
LINE
8
BLACK
6
CONTINUOUS
10
143.874
20
-82.5689
11
143.772
21
-82.7889
0
LINE
8
BLACK
6
CONTINUOUS
10
143.772
20
-82.7889
11
143.707
21
-83.0227
0
LINE
8
BLACK
6
CONTINUOUS
10
143.707
20
-83.0227
11
143.681
21
-83.2638
0
LINE
8
BLACK
6
CONTINUOUS
10
143.681
20
-83.2638
11
143.695
21
-83.506
0
LINE
8
BLACK
6
CONTINUOUS
10
143.695
20
-83.506
11
143.749
21
-83.7426
  0
ENDSEC
  0
EOF
