  0
SECTION
  2
HEADER
  9
$ANGBASE
  50
0.0
  9
$ANGDIR
  70
1
  9
$MEASUREMENT
  70
0
  0
ENDSEC
  0
SECTION
  2
TABLES
  0
TABLE
  2
LTYPE
  70
4
  0
LTYPE
  5
40F
  2
CONTINUOUS
  70
0
  3
Solid line
  72
65
  73
0
  40
0.0
  0
LTYPE
  5
410
  2
DASHDOT
 70
0
  3
Dash Dot ____ _ ____ _
 72
65
 73
4
 40
2.0
 49
1.25
 49
-0.25
 49
0.25
 49
-0.25
  0
LTYPE
  5
411
  2
DASHED
 70
0
  3
Dashed __ __ __ __ __
 72
65
 73
2
 40
0.75
 49
0.5
 49
-0.25
  0
LTYPE
  5
43B
  2
DOTTED
 70
0
  3
Dotted .  .  .  .
 72
65
 73
2
 40
0.2
 49
0.0
 49
-0.2
  0
ENDTAB
  0
TABLE
  2
STYLE
  70
4
  0
STYLE
  2
KICAD
  70
0
  40
0
  41
1
  42
1
  50
0
  71
0
  3
isocp.shx
  0
STYLE
  2
KICADB
  70
0
  40
0
  41
1
  42
1
  50
0
  71
0
  3
isocp.shx
  0
STYLE
  2
KICADI
  70
0
  40
0
  41
1
  42
1
  50
15
  71
0
  3
isocp.shx
  0
STYLE
  2
KICADBI
  70
0
  40
0
  41
1
  42
1
  50
15
  71
0
  3
isocp.shx
  0
ENDTAB
  0
TABLE
  2
LAYER
  70
1
  0
LAYER
  2
BLACK
  70
0
  62
7
  6
CONTINUOUS
  0
ENDTAB
  0
ENDSEC
  0
SECTION
  2
ENTITIES
0
LINE
8
BLACK
6
CONTINUOUS
10
5.73555
20
-3.0582
11
5.73573
21
-3.05818
0
LINE
8
BLACK
6
CONTINUOUS
10
5.73573
20
-3.05818
11
5.73583
21
-3.05824
0
LINE
8
BLACK
6
CONTINUOUS
10
5.73583
20
-3.05824
11
5.73608
21
-3.05827
0
LINE
8
BLACK
6
CONTINUOUS
10
5.73608
20
-3.05827
11
5.7371
21
-3.05893
0
LINE
8
BLACK
6
CONTINUOUS
10
5.7371
20
-3.05893
11
5.73816
21
-3.05951
0
LINE
8
BLACK
6
CONTINUOUS
10
5.73816
20
-3.05951
11
5.93502
21
-3.25636
0
LINE
8
BLACK
6
CONTINUOUS
10
5.93502
20
-3.25636
11
5.93554
21
-3.25706
0
LINE
8
BLACK
6
CONTINUOUS
10
5.93554
20
-3.25706
11
5.93568
21
-3.25718
0
LINE
8
BLACK
6
CONTINUOUS
10
5.93568
20
-3.25718
11
5.93571
21
-3.25729
0
LINE
8
BLACK
6
CONTINUOUS
10
5.93571
20
-3.25729
11
5.93586
21
-3.25749
0
LINE
8
BLACK
6
CONTINUOUS
10
5.93586
20
-3.25749
11
5.93612
21
-3.25868
0
LINE
8
BLACK
6
CONTINUOUS
10
5.93612
20
-3.25868
11
5.93646
21
-3.25984
0
LINE
8
BLACK
6
CONTINUOUS
10
5.93646
20
-3.25984
11
5.93646
21
-4.51969
0
LINE
8
BLACK
6
CONTINUOUS
10
5.93646
20
-4.51969
11
5.93633
21
-4.52055
0
LINE
8
BLACK
6
CONTINUOUS
10
5.93633
20
-4.52055
11
5.93634
21
-4.52073
0
LINE
8
BLACK
6
CONTINUOUS
10
5.93634
20
-4.52073
11
5.93629
21
-4.52083
0
LINE
8
BLACK
6
CONTINUOUS
10
5.93629
20
-4.52083
11
5.93625
21
-4.52108
0
LINE
8
BLACK
6
CONTINUOUS
10
5.93625
20
-4.52108
11
5.9356
21
-4.5221
0
LINE
8
BLACK
6
CONTINUOUS
10
5.9356
20
-4.5221
11
5.93502
21
-4.52316
0
LINE
8
BLACK
6
CONTINUOUS
10
5.93502
20
-4.52316
11
5.73816
21
-4.72002
0
LINE
8
BLACK
6
CONTINUOUS
10
5.73816
20
-4.72002
11
5.73746
21
-4.72054
0
LINE
8
BLACK
6
CONTINUOUS
10
5.73746
20
-4.72054
11
5.73734
21
-4.72068
0
LINE
8
BLACK
6
CONTINUOUS
10
5.73734
20
-4.72068
11
5.73724
21
-4.72071
0
LINE
8
BLACK
6
CONTINUOUS
10
5.73724
20
-4.72071
11
5.73703
21
-4.72086
0
LINE
8
BLACK
6
CONTINUOUS
10
5.73703
20
-4.72086
11
5.73585
21
-4.72112
0
LINE
8
BLACK
6
CONTINUOUS
10
5.73585
20
-4.72112
11
5.73469
21
-4.72146
0
LINE
8
BLACK
6
CONTINUOUS
10
5.73469
20
-4.72146
11
4.47484
21
-4.72146
0
LINE
8
BLACK
6
CONTINUOUS
10
4.47484
20
-4.72146
11
4.47398
21
-4.72133
0
LINE
8
BLACK
6
CONTINUOUS
10
4.47398
20
-4.72133
11
4.47379
21
-4.72134
0
LINE
8
BLACK
6
CONTINUOUS
10
4.47379
20
-4.72134
11
4.4737
21
-4.72129
0
LINE
8
BLACK
6
CONTINUOUS
10
4.4737
20
-4.72129
11
4.47344
21
-4.72125
0
LINE
8
BLACK
6
CONTINUOUS
10
4.47344
20
-4.72125
11
4.47243
21
-4.7206
0
LINE
8
BLACK
6
CONTINUOUS
10
4.47243
20
-4.7206
11
4.47136
21
-4.72002
0
LINE
8
BLACK
6
CONTINUOUS
10
4.47136
20
-4.72002
11
4.27451
21
-4.52316
0
LINE
8
BLACK
6
CONTINUOUS
10
4.27451
20
-4.52316
11
4.27399
21
-4.52246
0
LINE
8
BLACK
6
CONTINUOUS
10
4.27399
20
-4.52246
11
4.27385
21
-4.52234
0
LINE
8
BLACK
6
CONTINUOUS
10
4.27385
20
-4.52234
11
4.27382
21
-4.52224
0
LINE
8
BLACK
6
CONTINUOUS
10
4.27382
20
-4.52224
11
4.27367
21
-4.52203
0
LINE
8
BLACK
6
CONTINUOUS
10
4.27367
20
-4.52203
11
4.27341
21
-4.52085
0
LINE
8
BLACK
6
CONTINUOUS
10
4.27341
20
-4.52085
11
4.27307
21
-4.51969
0
LINE
8
BLACK
6
CONTINUOUS
10
4.27307
20
-4.51969
11
4.27307
21
-3.25984
0
LINE
8
BLACK
6
CONTINUOUS
10
4.27307
20
-3.25984
11
4.2732
21
-3.25898
0
LINE
8
BLACK
6
CONTINUOUS
10
4.2732
20
-3.25898
11
4.27318
21
-3.25879
0
LINE
8
BLACK
6
CONTINUOUS
10
4.27318
20
-3.25879
11
4.27324
21
-3.2587
0
LINE
8
BLACK
6
CONTINUOUS
10
4.27324
20
-3.2587
11
4.27327
21
-3.25844
0
LINE
8
BLACK
6
CONTINUOUS
10
4.27327
20
-3.25844
11
4.27393
21
-3.25743
0
LINE
8
BLACK
6
CONTINUOUS
10
4.27393
20
-3.25743
11
4.27451
21
-3.25636
0
LINE
8
BLACK
6
CONTINUOUS
10
4.27451
20
-3.25636
11
4.47136
21
-3.05951
0
LINE
8
BLACK
6
CONTINUOUS
10
4.47136
20
-3.05951
11
4.47206
21
-3.05899
0
LINE
8
BLACK
6
CONTINUOUS
10
4.47206
20
-3.05899
11
4.47218
21
-3.05885
0
LINE
8
BLACK
6
CONTINUOUS
10
4.47218
20
-3.05885
11
4.47229
21
-3.05882
0
LINE
8
BLACK
6
CONTINUOUS
10
4.47229
20
-3.05882
11
4.47249
21
-3.05867
0
LINE
8
BLACK
6
CONTINUOUS
10
4.47249
20
-3.05867
11
4.47368
21
-3.05841
0
LINE
8
BLACK
6
CONTINUOUS
10
4.47368
20
-3.05841
11
4.47484
21
-3.05807
0
LINE
8
BLACK
6
CONTINUOUS
10
4.47484
20
-3.05807
11
5.73469
21
-3.05807
0
LINE
8
BLACK
6
CONTINUOUS
10
5.73469
20
-3.05807
11
5.73555
21
-3.0582
0
LINE
8
BLACK
6
CONTINUOUS
10
4.47688
20
-3.06791
11
4.28291
21
-3.26188
0
LINE
8
BLACK
6
CONTINUOUS
10
4.28291
20
-3.26188
11
4.28291
21
-4.51765
0
LINE
8
BLACK
6
CONTINUOUS
10
4.28291
20
-4.51765
11
4.47688
21
-4.71161
0
LINE
8
BLACK
6
CONTINUOUS
10
4.47688
20
-4.71161
11
5.73265
21
-4.71161
0
LINE
8
BLACK
6
CONTINUOUS
10
5.73265
20
-4.71161
11
5.92661
21
-4.51765
0
LINE
8
BLACK
6
CONTINUOUS
10
5.92661
20
-4.51765
11
5.92661
21
-3.26188
0
LINE
8
BLACK
6
CONTINUOUS
10
5.92661
20
-3.26188
11
5.73265
21
-3.06791
0
LINE
8
BLACK
6
CONTINUOUS
10
5.73265
20
-3.06791
11
4.47688
21
-3.06791
0
LINE
8
BLACK
6
CONTINUOUS
10
5.64812
20
-4.48821
11
5.6506
21
-4.47845
0
LINE
8
BLACK
6
CONTINUOUS
10
5.6506
20
-4.47845
11
5.65449
21
-4.46917
0
LINE
8
BLACK
6
CONTINUOUS
10
5.65449
20
-4.46917
11
5.65971
21
-4.46056
0
LINE
8
BLACK
6
CONTINUOUS
10
5.65971
20
-4.46056
11
5.66615
21
-4.45282
0
LINE
8
BLACK
6
CONTINUOUS
10
5.66615
20
-4.45282
11
5.67366
21
-4.44612
0
LINE
8
BLACK
6
CONTINUOUS
10
5.67366
20
-4.44612
11
5.68207
21
-4.4406
0
LINE
8
BLACK
6
CONTINUOUS
10
5.68207
20
-4.4406
11
5.69122
21
-4.43639
0
LINE
8
BLACK
6
CONTINUOUS
10
5.69122
20
-4.43639
11
5.70088
21
-4.43357
0
LINE
8
BLACK
6
CONTINUOUS
10
5.70088
20
-4.43357
11
5.71085
21
-4.43221
0
LINE
8
BLACK
6
CONTINUOUS
10
5.71085
20
-4.43221
11
5.72092
21
-4.43235
0
LINE
8
BLACK
6
CONTINUOUS
10
5.72092
20
-4.43235
11
5.73085
21
-4.43396
0
LINE
8
BLACK
6
CONTINUOUS
10
5.73085
20
-4.43396
11
5.74044
21
-4.43703
0
LINE
8
BLACK
6
CONTINUOUS
10
5.74044
20
-4.43703
11
5.74947
21
-4.44148
0
LINE
8
BLACK
6
CONTINUOUS
10
5.74947
20
-4.44148
11
5.75774
21
-4.44722
0
LINE
8
BLACK
6
CONTINUOUS
10
5.75774
20
-4.44722
11
5.76507
21
-4.45412
0
LINE
8
BLACK
6
CONTINUOUS
10
5.76507
20
-4.45412
11
5.7713
21
-4.46202
0
LINE
8
BLACK
6
CONTINUOUS
10
5.7713
20
-4.46202
11
5.7763
21
-4.47076
0
LINE
8
BLACK
6
CONTINUOUS
10
5.7763
20
-4.47076
11
5.77995
21
-4.48014
0
LINE
8
BLACK
6
CONTINUOUS
10
5.77995
20
-4.48014
11
5.78217
21
-4.48996
0
LINE
8
BLACK
6
CONTINUOUS
10
5.78217
20
-4.48996
11
5.78291
21
-4.5
0
LINE
8
BLACK
6
CONTINUOUS
10
5.78291
20
-4.5
11
5.78282
21
-4.50355
0
LINE
8
BLACK
6
CONTINUOUS
10
5.78282
20
-4.50355
11
5.78155
21
-4.51354
0
LINE
8
BLACK
6
CONTINUOUS
10
5.78155
20
-4.51354
11
5.77882
21
-4.52323
0
LINE
8
BLACK
6
CONTINUOUS
10
5.77882
20
-4.52323
11
5.77468
21
-4.53241
0
LINE
8
BLACK
6
CONTINUOUS
10
5.77468
20
-4.53241
11
5.76924
21
-4.54087
0
LINE
8
BLACK
6
CONTINUOUS
10
5.76924
20
-4.54087
11
5.7626
21
-4.54844
0
LINE
8
BLACK
6
CONTINUOUS
10
5.7626
20
-4.54844
11
5.75492
21
-4.55494
0
LINE
8
BLACK
6
CONTINUOUS
10
5.75492
20
-4.55494
11
5.74636
21
-4.56024
0
LINE
8
BLACK
6
CONTINUOUS
10
5.74636
20
-4.56024
11
5.73711
21
-4.56421
0
LINE
8
BLACK
6
CONTINUOUS
10
5.73711
20
-4.56421
11
5.72738
21
-4.56678
0
LINE
8
BLACK
6
CONTINUOUS
10
5.72738
20
-4.56678
11
5.71737
21
-4.56787
0
LINE
8
BLACK
6
CONTINUOUS
10
5.71737
20
-4.56787
11
5.70731
21
-4.56748
0
LINE
8
BLACK
6
CONTINUOUS
10
5.70731
20
-4.56748
11
5.69742
21
-4.5656
0
LINE
8
BLACK
6
CONTINUOUS
10
5.69742
20
-4.5656
11
5.68792
21
-4.56228
0
LINE
8
BLACK
6
CONTINUOUS
10
5.68792
20
-4.56228
11
5.67901
21
-4.55759
0
LINE
8
BLACK
6
CONTINUOUS
10
5.67901
20
-4.55759
11
5.67089
21
-4.55164
0
LINE
8
BLACK
6
CONTINUOUS
10
5.67089
20
-4.55164
11
5.66375
21
-4.54456
0
LINE
8
BLACK
6
CONTINUOUS
10
5.66375
20
-4.54456
11
5.65772
21
-4.53649
0
LINE
8
BLACK
6
CONTINUOUS
10
5.65772
20
-4.53649
11
5.65296
21
-4.52762
0
LINE
8
BLACK
6
CONTINUOUS
10
5.65296
20
-4.52762
11
5.64956
21
-4.51815
0
LINE
8
BLACK
6
CONTINUOUS
10
5.64956
20
-4.51815
11
5.64759
21
-4.50828
0
LINE
8
BLACK
6
CONTINUOUS
10
5.64759
20
-4.50828
11
5.64713
21
-4.49858
0
LINE
8
BLACK
6
CONTINUOUS
10
5.64713
20
-4.49858
11
5.64711
21
-4.49822
0
LINE
8
BLACK
6
CONTINUOUS
10
5.64711
20
-4.49822
11
5.64812
21
-4.48821
0
LINE
8
BLACK
6
CONTINUOUS
10
5.6594
20
-4.51743
11
5.66299
21
-4.52627
0
LINE
8
BLACK
6
CONTINUOUS
10
5.66299
20
-4.52627
11
5.66798
21
-4.53441
0
LINE
8
BLACK
6
CONTINUOUS
10
5.66798
20
-4.53441
11
5.67423
21
-4.54163
0
LINE
8
BLACK
6
CONTINUOUS
10
5.67423
20
-4.54163
11
5.68158
21
-4.54773
0
LINE
8
BLACK
6
CONTINUOUS
10
5.68158
20
-4.54773
11
5.68982
21
-4.55255
0
LINE
8
BLACK
6
CONTINUOUS
10
5.68982
20
-4.55255
11
5.69874
21
-4.55596
0
LINE
8
BLACK
6
CONTINUOUS
10
5.69874
20
-4.55596
11
5.7081
21
-4.55786
0
LINE
8
BLACK
6
CONTINUOUS
10
5.7081
20
-4.55786
11
5.71764
21
-4.55821
0
LINE
8
BLACK
6
CONTINUOUS
10
5.71764
20
-4.55821
11
5.72711
21
-4.557
0
LINE
8
BLACK
6
CONTINUOUS
10
5.72711
20
-4.557
11
5.73626
21
-4.55425
0
LINE
8
BLACK
6
CONTINUOUS
10
5.73626
20
-4.55425
11
5.74484
21
-4.55005
0
LINE
8
BLACK
6
CONTINUOUS
10
5.74484
20
-4.55005
11
5.75261
21
-4.54451
0
LINE
8
BLACK
6
CONTINUOUS
10
5.75261
20
-4.54451
11
5.75937
21
-4.53777
0
LINE
8
BLACK
6
CONTINUOUS
10
5.75937
20
-4.53777
11
5.76495
21
-4.53001
0
LINE
8
BLACK
6
CONTINUOUS
10
5.76495
20
-4.53001
11
5.76918
21
-4.52145
0
LINE
8
BLACK
6
CONTINUOUS
10
5.76918
20
-4.52145
11
5.77195
21
-4.51231
0
LINE
8
BLACK
6
CONTINUOUS
10
5.77195
20
-4.51231
11
5.7732
21
-4.50285
0
LINE
8
BLACK
6
CONTINUOUS
10
5.7732
20
-4.50285
11
5.77327
21
-4.5
0
LINE
8
BLACK
6
CONTINUOUS
10
5.77327
20
-4.5
11
5.77249
21
-4.49048
0
LINE
8
BLACK
6
CONTINUOUS
10
5.77249
20
-4.49048
11
5.77016
21
-4.48122
0
LINE
8
BLACK
6
CONTINUOUS
10
5.77016
20
-4.48122
11
5.76635
21
-4.47246
0
LINE
8
BLACK
6
CONTINUOUS
10
5.76635
20
-4.47246
11
5.76117
21
-4.46445
0
LINE
8
BLACK
6
CONTINUOUS
10
5.76117
20
-4.46445
11
5.75474
21
-4.45738
0
LINE
8
BLACK
6
CONTINUOUS
10
5.75474
20
-4.45738
11
5.74725
21
-4.45147
0
LINE
8
BLACK
6
CONTINUOUS
10
5.74725
20
-4.45147
11
5.73889
21
-4.44685
0
LINE
8
BLACK
6
CONTINUOUS
10
5.73889
20
-4.44685
11
5.72988
21
-4.44366
0
LINE
8
BLACK
6
CONTINUOUS
10
5.72988
20
-4.44366
11
5.72048
21
-4.44199
0
LINE
8
BLACK
6
CONTINUOUS
10
5.72048
20
-4.44199
11
5.71094
21
-4.44187
0
LINE
8
BLACK
6
CONTINUOUS
10
5.71094
20
-4.44187
11
5.7015
21
-4.44332
0
LINE
8
BLACK
6
CONTINUOUS
10
5.7015
20
-4.44332
11
5.69242
21
-4.44628
0
LINE
8
BLACK
6
CONTINUOUS
10
5.69242
20
-4.44628
11
5.68395
21
-4.45069
0
LINE
8
BLACK
6
CONTINUOUS
10
5.68395
20
-4.45069
11
5.67631
21
-4.45643
0
LINE
8
BLACK
6
CONTINUOUS
10
5.67631
20
-4.45643
11
5.66972
21
-4.46333
0
LINE
8
BLACK
6
CONTINUOUS
10
5.66972
20
-4.46333
11
5.66433
21
-4.47122
0
LINE
8
BLACK
6
CONTINUOUS
10
5.66433
20
-4.47122
11
5.66031
21
-4.47988
0
LINE
8
BLACK
6
CONTINUOUS
10
5.66031
20
-4.47988
11
5.65776
21
-4.48908
0
LINE
8
BLACK
6
CONTINUOUS
10
5.65776
20
-4.48908
11
5.65675
21
-4.49858
0
LINE
8
BLACK
6
CONTINUOUS
10
5.65675
20
-4.49858
11
5.6573
21
-4.50811
0
LINE
8
BLACK
6
CONTINUOUS
10
5.6573
20
-4.50811
11
5.6594
21
-4.51743
0
LINE
8
BLACK
6
CONTINUOUS
10
4.42765
20
-4.48821
11
4.43012
21
-4.47845
0
LINE
8
BLACK
6
CONTINUOUS
10
4.43012
20
-4.47845
11
4.43402
21
-4.46917
0
LINE
8
BLACK
6
CONTINUOUS
10
4.43402
20
-4.46917
11
4.43924
21
-4.46056
0
LINE
8
BLACK
6
CONTINUOUS
10
4.43924
20
-4.46056
11
4.44567
21
-4.45282
0
LINE
8
BLACK
6
CONTINUOUS
10
4.44567
20
-4.45282
11
4.45318
21
-4.44612
0
LINE
8
BLACK
6
CONTINUOUS
10
4.45318
20
-4.44612
11
4.4616
21
-4.4406
0
LINE
8
BLACK
6
CONTINUOUS
10
4.4616
20
-4.4406
11
4.47074
21
-4.43639
0
LINE
8
BLACK
6
CONTINUOUS
10
4.47074
20
-4.43639
11
4.48041
21
-4.43357
0
LINE
8
BLACK
6
CONTINUOUS
10
4.48041
20
-4.43357
11
4.49038
21
-4.43221
0
LINE
8
BLACK
6
CONTINUOUS
10
4.49038
20
-4.43221
11
4.50045
21
-4.43235
0
LINE
8
BLACK
6
CONTINUOUS
10
4.50045
20
-4.43235
11
4.51038
21
-4.43396
0
LINE
8
BLACK
6
CONTINUOUS
10
4.51038
20
-4.43396
11
4.51997
21
-4.43703
0
LINE
8
BLACK
6
CONTINUOUS
10
4.51997
20
-4.43703
11
4.529
21
-4.44148
0
LINE
8
BLACK
6
CONTINUOUS
10
4.529
20
-4.44148
11
4.53727
21
-4.44722
0
LINE
8
BLACK
6
CONTINUOUS
10
4.53727
20
-4.44722
11
4.5446
21
-4.45412
0
LINE
8
BLACK
6
CONTINUOUS
10
4.5446
20
-4.45412
11
4.55083
21
-4.46202
0
LINE
8
BLACK
6
CONTINUOUS
10
4.55083
20
-4.46202
11
4.55583
21
-4.47076
0
LINE
8
BLACK
6
CONTINUOUS
10
4.55583
20
-4.47076
11
4.55947
21
-4.48014
0
LINE
8
BLACK
6
CONTINUOUS
10
4.55947
20
-4.48014
11
4.56169
21
-4.48996
0
LINE
8
BLACK
6
CONTINUOUS
10
4.56169
20
-4.48996
11
4.56244
21
-4.5
0
LINE
8
BLACK
6
CONTINUOUS
10
4.56244
20
-4.5
11
4.56235
21
-4.50355
0
LINE
8
BLACK
6
CONTINUOUS
10
4.56235
20
-4.50355
11
4.56108
21
-4.51354
0
LINE
8
BLACK
6
CONTINUOUS
10
4.56108
20
-4.51354
11
4.55835
21
-4.52323
0
LINE
8
BLACK
6
CONTINUOUS
10
4.55835
20
-4.52323
11
4.55421
21
-4.53241
0
LINE
8
BLACK
6
CONTINUOUS
10
4.55421
20
-4.53241
11
4.54877
21
-4.54087
0
LINE
8
BLACK
6
CONTINUOUS
10
4.54877
20
-4.54087
11
4.54213
21
-4.54844
0
LINE
8
BLACK
6
CONTINUOUS
10
4.54213
20
-4.54844
11
4.53445
21
-4.55494
0
LINE
8
BLACK
6
CONTINUOUS
10
4.53445
20
-4.55494
11
4.52589
21
-4.56024
0
LINE
8
BLACK
6
CONTINUOUS
10
4.52589
20
-4.56024
11
4.51664
21
-4.56421
0
LINE
8
BLACK
6
CONTINUOUS
10
4.51664
20
-4.56421
11
4.5069
21
-4.56678
0
LINE
8
BLACK
6
CONTINUOUS
10
4.5069
20
-4.56678
11
4.4969
21
-4.56787
0
LINE
8
BLACK
6
CONTINUOUS
10
4.4969
20
-4.56787
11
4.48684
21
-4.56748
0
LINE
8
BLACK
6
CONTINUOUS
10
4.48684
20
-4.56748
11
4.47695
21
-4.5656
0
LINE
8
BLACK
6
CONTINUOUS
10
4.47695
20
-4.5656
11
4.46745
21
-4.56228
0
LINE
8
BLACK
6
CONTINUOUS
10
4.46745
20
-4.56228
11
4.45854
21
-4.55759
0
LINE
8
BLACK
6
CONTINUOUS
10
4.45854
20
-4.55759
11
4.45042
21
-4.55164
0
LINE
8
BLACK
6
CONTINUOUS
10
4.45042
20
-4.55164
11
4.44327
21
-4.54456
0
LINE
8
BLACK
6
CONTINUOUS
10
4.44327
20
-4.54456
11
4.43725
21
-4.53649
0
LINE
8
BLACK
6
CONTINUOUS
10
4.43725
20
-4.53649
11
4.43249
21
-4.52762
0
LINE
8
BLACK
6
CONTINUOUS
10
4.43249
20
-4.52762
11
4.42908
21
-4.51815
0
LINE
8
BLACK
6
CONTINUOUS
10
4.42908
20
-4.51815
11
4.42712
21
-4.50828
0
LINE
8
BLACK
6
CONTINUOUS
10
4.42712
20
-4.50828
11
4.42665
21
-4.49858
0
LINE
8
BLACK
6
CONTINUOUS
10
4.42665
20
-4.49858
11
4.42664
21
-4.49822
0
LINE
8
BLACK
6
CONTINUOUS
10
4.42664
20
-4.49822
11
4.42765
21
-4.48821
0
LINE
8
BLACK
6
CONTINUOUS
10
4.43892
20
-4.51743
11
4.44252
21
-4.52627
0
LINE
8
BLACK
6
CONTINUOUS
10
4.44252
20
-4.52627
11
4.44751
21
-4.53441
0
LINE
8
BLACK
6
CONTINUOUS
10
4.44751
20
-4.53441
11
4.45376
21
-4.54163
0
LINE
8
BLACK
6
CONTINUOUS
10
4.45376
20
-4.54163
11
4.46111
21
-4.54773
0
LINE
8
BLACK
6
CONTINUOUS
10
4.46111
20
-4.54773
11
4.46935
21
-4.55255
0
LINE
8
BLACK
6
CONTINUOUS
10
4.46935
20
-4.55255
11
4.47827
21
-4.55596
0
LINE
8
BLACK
6
CONTINUOUS
10
4.47827
20
-4.55596
11
4.48763
21
-4.55786
0
LINE
8
BLACK
6
CONTINUOUS
10
4.48763
20
-4.55786
11
4.49717
21
-4.55821
0
LINE
8
BLACK
6
CONTINUOUS
10
4.49717
20
-4.55821
11
4.50664
21
-4.557
0
LINE
8
BLACK
6
CONTINUOUS
10
4.50664
20
-4.557
11
4.51579
21
-4.55425
0
LINE
8
BLACK
6
CONTINUOUS
10
4.51579
20
-4.55425
11
4.52436
21
-4.55005
0
LINE
8
BLACK
6
CONTINUOUS
10
4.52436
20
-4.55005
11
4.53214
21
-4.54451
0
LINE
8
BLACK
6
CONTINUOUS
10
4.53214
20
-4.54451
11
4.5389
21
-4.53777
0
LINE
8
BLACK
6
CONTINUOUS
10
4.5389
20
-4.53777
11
4.54447
21
-4.53001
0
LINE
8
BLACK
6
CONTINUOUS
10
4.54447
20
-4.53001
11
4.54871
21
-4.52145
0
LINE
8
BLACK
6
CONTINUOUS
10
4.54871
20
-4.52145
11
4.55148
21
-4.51231
0
LINE
8
BLACK
6
CONTINUOUS
10
4.55148
20
-4.51231
11
4.55273
21
-4.50285
0
LINE
8
BLACK
6
CONTINUOUS
10
4.55273
20
-4.50285
11
4.5528
21
-4.5
0
LINE
8
BLACK
6
CONTINUOUS
10
4.5528
20
-4.5
11
4.55201
21
-4.49048
0
LINE
8
BLACK
6
CONTINUOUS
10
4.55201
20
-4.49048
11
4.54969
21
-4.48122
0
LINE
8
BLACK
6
CONTINUOUS
10
4.54969
20
-4.48122
11
4.54588
21
-4.47246
0
LINE
8
BLACK
6
CONTINUOUS
10
4.54588
20
-4.47246
11
4.54069
21
-4.46445
0
LINE
8
BLACK
6
CONTINUOUS
10
4.54069
20
-4.46445
11
4.53427
21
-4.45738
0
LINE
8
BLACK
6
CONTINUOUS
10
4.53427
20
-4.45738
11
4.52677
21
-4.45147
0
LINE
8
BLACK
6
CONTINUOUS
10
4.52677
20
-4.45147
11
4.51841
21
-4.44685
0
LINE
8
BLACK
6
CONTINUOUS
10
4.51841
20
-4.44685
11
4.50941
21
-4.44366
0
LINE
8
BLACK
6
CONTINUOUS
10
4.50941
20
-4.44366
11
4.50001
21
-4.44199
0
LINE
8
BLACK
6
CONTINUOUS
10
4.50001
20
-4.44199
11
4.49046
21
-4.44187
0
LINE
8
BLACK
6
CONTINUOUS
10
4.49046
20
-4.44187
11
4.48102
21
-4.44332
0
LINE
8
BLACK
6
CONTINUOUS
10
4.48102
20
-4.44332
11
4.47195
21
-4.44628
0
LINE
8
BLACK
6
CONTINUOUS
10
4.47195
20
-4.44628
11
4.46348
21
-4.45069
0
LINE
8
BLACK
6
CONTINUOUS
10
4.46348
20
-4.45069
11
4.45584
21
-4.45643
0
LINE
8
BLACK
6
CONTINUOUS
10
4.45584
20
-4.45643
11
4.44924
21
-4.46333
0
LINE
8
BLACK
6
CONTINUOUS
10
4.44924
20
-4.46333
11
4.44386
21
-4.47122
0
LINE
8
BLACK
6
CONTINUOUS
10
4.44386
20
-4.47122
11
4.43984
21
-4.47988
0
LINE
8
BLACK
6
CONTINUOUS
10
4.43984
20
-4.47988
11
4.43729
21
-4.48908
0
LINE
8
BLACK
6
CONTINUOUS
10
4.43729
20
-4.48908
11
4.43628
21
-4.49858
0
LINE
8
BLACK
6
CONTINUOUS
10
4.43628
20
-4.49858
11
4.43682
21
-4.50811
0
LINE
8
BLACK
6
CONTINUOUS
10
4.43682
20
-4.50811
11
4.43892
21
-4.51743
0
LINE
8
BLACK
6
CONTINUOUS
10
4.42765
20
-3.26773
11
4.43012
21
-3.25798
0
LINE
8
BLACK
6
CONTINUOUS
10
4.43012
20
-3.25798
11
4.43402
21
-3.2487
0
LINE
8
BLACK
6
CONTINUOUS
10
4.43402
20
-3.2487
11
4.43924
21
-3.24009
0
LINE
8
BLACK
6
CONTINUOUS
10
4.43924
20
-3.24009
11
4.44567
21
-3.23235
0
LINE
8
BLACK
6
CONTINUOUS
10
4.44567
20
-3.23235
11
4.45318
21
-3.22565
0
LINE
8
BLACK
6
CONTINUOUS
10
4.45318
20
-3.22565
11
4.4616
21
-3.22013
0
LINE
8
BLACK
6
CONTINUOUS
10
4.4616
20
-3.22013
11
4.47074
21
-3.21591
0
LINE
8
BLACK
6
CONTINUOUS
10
4.47074
20
-3.21591
11
4.48041
21
-3.2131
0
LINE
8
BLACK
6
CONTINUOUS
10
4.48041
20
-3.2131
11
4.49038
21
-3.21174
0
LINE
8
BLACK
6
CONTINUOUS
10
4.49038
20
-3.21174
11
4.50045
21
-3.21187
0
LINE
8
BLACK
6
CONTINUOUS
10
4.50045
20
-3.21187
11
4.51038
21
-3.21349
0
LINE
8
BLACK
6
CONTINUOUS
10
4.51038
20
-3.21349
11
4.51997
21
-3.21656
0
LINE
8
BLACK
6
CONTINUOUS
10
4.51997
20
-3.21656
11
4.529
21
-3.22101
0
LINE
8
BLACK
6
CONTINUOUS
10
4.529
20
-3.22101
11
4.53727
21
-3.22675
0
LINE
8
BLACK
6
CONTINUOUS
10
4.53727
20
-3.22675
11
4.5446
21
-3.23365
0
LINE
8
BLACK
6
CONTINUOUS
10
4.5446
20
-3.23365
11
4.55083
21
-3.24155
0
LINE
8
BLACK
6
CONTINUOUS
10
4.55083
20
-3.24155
11
4.55583
21
-3.25029
0
LINE
8
BLACK
6
CONTINUOUS
10
4.55583
20
-3.25029
11
4.55947
21
-3.25967
0
LINE
8
BLACK
6
CONTINUOUS
10
4.55947
20
-3.25967
11
4.56169
21
-3.26949
0
LINE
8
BLACK
6
CONTINUOUS
10
4.56169
20
-3.26949
11
4.56244
21
-3.27953
0
LINE
8
BLACK
6
CONTINUOUS
10
4.56244
20
-3.27953
11
4.56235
21
-3.28308
0
LINE
8
BLACK
6
CONTINUOUS
10
4.56235
20
-3.28308
11
4.56108
21
-3.29307
0
LINE
8
BLACK
6
CONTINUOUS
10
4.56108
20
-3.29307
11
4.55835
21
-3.30276
0
LINE
8
BLACK
6
CONTINUOUS
10
4.55835
20
-3.30276
11
4.55421
21
-3.31193
0
LINE
8
BLACK
6
CONTINUOUS
10
4.55421
20
-3.31193
11
4.54877
21
-3.3204
0
LINE
8
BLACK
6
CONTINUOUS
10
4.54877
20
-3.3204
11
4.54213
21
-3.32797
0
LINE
8
BLACK
6
CONTINUOUS
10
4.54213
20
-3.32797
11
4.53445
21
-3.33447
0
LINE
8
BLACK
6
CONTINUOUS
10
4.53445
20
-3.33447
11
4.52589
21
-3.33977
0
LINE
8
BLACK
6
CONTINUOUS
10
4.52589
20
-3.33977
11
4.51664
21
-3.34374
0
LINE
8
BLACK
6
CONTINUOUS
10
4.51664
20
-3.34374
11
4.5069
21
-3.3463
0
LINE
8
BLACK
6
CONTINUOUS
10
4.5069
20
-3.3463
11
4.4969
21
-3.3474
0
LINE
8
BLACK
6
CONTINUOUS
10
4.4969
20
-3.3474
11
4.48684
21
-3.347
0
LINE
8
BLACK
6
CONTINUOUS
10
4.48684
20
-3.347
11
4.47695
21
-3.34513
0
LINE
8
BLACK
6
CONTINUOUS
10
4.47695
20
-3.34513
11
4.46745
21
-3.34181
0
LINE
8
BLACK
6
CONTINUOUS
10
4.46745
20
-3.34181
11
4.45854
21
-3.33712
0
LINE
8
BLACK
6
CONTINUOUS
10
4.45854
20
-3.33712
11
4.45042
21
-3.33117
0
LINE
8
BLACK
6
CONTINUOUS
10
4.45042
20
-3.33117
11
4.44327
21
-3.32408
0
LINE
8
BLACK
6
CONTINUOUS
10
4.44327
20
-3.32408
11
4.43725
21
-3.31602
0
LINE
8
BLACK
6
CONTINUOUS
10
4.43725
20
-3.31602
11
4.43249
21
-3.30715
0
LINE
8
BLACK
6
CONTINUOUS
10
4.43249
20
-3.30715
11
4.42908
21
-3.29768
0
LINE
8
BLACK
6
CONTINUOUS
10
4.42908
20
-3.29768
11
4.42712
21
-3.2878
0
LINE
8
BLACK
6
CONTINUOUS
10
4.42712
20
-3.2878
11
4.42665
21
-3.2781
0
LINE
8
BLACK
6
CONTINUOUS
10
4.42665
20
-3.2781
11
4.42664
21
-3.27775
0
LINE
8
BLACK
6
CONTINUOUS
10
4.42664
20
-3.27775
11
4.42765
21
-3.26773
0
LINE
8
BLACK
6
CONTINUOUS
10
4.43892
20
-3.29695
11
4.44252
21
-3.3058
0
LINE
8
BLACK
6
CONTINUOUS
10
4.44252
20
-3.3058
11
4.44751
21
-3.31394
0
LINE
8
BLACK
6
CONTINUOUS
10
4.44751
20
-3.31394
11
4.45376
21
-3.32116
0
LINE
8
BLACK
6
CONTINUOUS
10
4.45376
20
-3.32116
11
4.46111
21
-3.32726
0
LINE
8
BLACK
6
CONTINUOUS
10
4.46111
20
-3.32726
11
4.46935
21
-3.33208
0
LINE
8
BLACK
6
CONTINUOUS
10
4.46935
20
-3.33208
11
4.47827
21
-3.33548
0
LINE
8
BLACK
6
CONTINUOUS
10
4.47827
20
-3.33548
11
4.48763
21
-3.33739
0
LINE
8
BLACK
6
CONTINUOUS
10
4.48763
20
-3.33739
11
4.49717
21
-3.33774
0
LINE
8
BLACK
6
CONTINUOUS
10
4.49717
20
-3.33774
11
4.50664
21
-3.33652
0
LINE
8
BLACK
6
CONTINUOUS
10
4.50664
20
-3.33652
11
4.51579
21
-3.33378
0
LINE
8
BLACK
6
CONTINUOUS
10
4.51579
20
-3.33378
11
4.52436
21
-3.32958
0
LINE
8
BLACK
6
CONTINUOUS
10
4.52436
20
-3.32958
11
4.53214
21
-3.32403
0
LINE
8
BLACK
6
CONTINUOUS
10
4.53214
20
-3.32403
11
4.5389
21
-3.31729
0
LINE
8
BLACK
6
CONTINUOUS
10
4.5389
20
-3.31729
11
4.54447
21
-3.30954
0
LINE
8
BLACK
6
CONTINUOUS
10
4.54447
20
-3.30954
11
4.54871
21
-3.30098
0
LINE
8
BLACK
6
CONTINUOUS
10
4.54871
20
-3.30098
11
4.55148
21
-3.29184
0
LINE
8
BLACK
6
CONTINUOUS
10
4.55148
20
-3.29184
11
4.55273
21
-3.28237
0
LINE
8
BLACK
6
CONTINUOUS
10
4.55273
20
-3.28237
11
4.5528
21
-3.27953
0
LINE
8
BLACK
6
CONTINUOUS
10
4.5528
20
-3.27953
11
4.55201
21
-3.27001
0
LINE
8
BLACK
6
CONTINUOUS
10
4.55201
20
-3.27001
11
4.54969
21
-3.26075
0
LINE
8
BLACK
6
CONTINUOUS
10
4.54969
20
-3.26075
11
4.54588
21
-3.25199
0
LINE
8
BLACK
6
CONTINUOUS
10
4.54588
20
-3.25199
11
4.54069
21
-3.24397
0
LINE
8
BLACK
6
CONTINUOUS
10
4.54069
20
-3.24397
11
4.53427
21
-3.23691
0
LINE
8
BLACK
6
CONTINUOUS
10
4.53427
20
-3.23691
11
4.52677
21
-3.23099
0
LINE
8
BLACK
6
CONTINUOUS
10
4.52677
20
-3.23099
11
4.51841
21
-3.22638
0
LINE
8
BLACK
6
CONTINUOUS
10
4.51841
20
-3.22638
11
4.50941
21
-3.22319
0
LINE
8
BLACK
6
CONTINUOUS
10
4.50941
20
-3.22319
11
4.50001
21
-3.22152
0
LINE
8
BLACK
6
CONTINUOUS
10
4.50001
20
-3.22152
11
4.49046
21
-3.2214
0
LINE
8
BLACK
6
CONTINUOUS
10
4.49046
20
-3.2214
11
4.48102
21
-3.22284
0
LINE
8
BLACK
6
CONTINUOUS
10
4.48102
20
-3.22284
11
4.47195
21
-3.22581
0
LINE
8
BLACK
6
CONTINUOUS
10
4.47195
20
-3.22581
11
4.46348
21
-3.23022
0
LINE
8
BLACK
6
CONTINUOUS
10
4.46348
20
-3.23022
11
4.45584
21
-3.23595
0
LINE
8
BLACK
6
CONTINUOUS
10
4.45584
20
-3.23595
11
4.44924
21
-3.24286
0
LINE
8
BLACK
6
CONTINUOUS
10
4.44924
20
-3.24286
11
4.44386
21
-3.25075
0
LINE
8
BLACK
6
CONTINUOUS
10
4.44386
20
-3.25075
11
4.43984
21
-3.25941
0
LINE
8
BLACK
6
CONTINUOUS
10
4.43984
20
-3.25941
11
4.43729
21
-3.26861
0
LINE
8
BLACK
6
CONTINUOUS
10
4.43729
20
-3.26861
11
4.43628
21
-3.2781
0
LINE
8
BLACK
6
CONTINUOUS
10
4.43628
20
-3.2781
11
4.43682
21
-3.28764
0
LINE
8
BLACK
6
CONTINUOUS
10
4.43682
20
-3.28764
11
4.43892
21
-3.29695
0
LINE
8
BLACK
6
CONTINUOUS
10
5.64812
20
-3.26773
11
5.6506
21
-3.25798
0
LINE
8
BLACK
6
CONTINUOUS
10
5.6506
20
-3.25798
11
5.65449
21
-3.2487
0
LINE
8
BLACK
6
CONTINUOUS
10
5.65449
20
-3.2487
11
5.65971
21
-3.24009
0
LINE
8
BLACK
6
CONTINUOUS
10
5.65971
20
-3.24009
11
5.66615
21
-3.23235
0
LINE
8
BLACK
6
CONTINUOUS
10
5.66615
20
-3.23235
11
5.67366
21
-3.22565
0
LINE
8
BLACK
6
CONTINUOUS
10
5.67366
20
-3.22565
11
5.68207
21
-3.22013
0
LINE
8
BLACK
6
CONTINUOUS
10
5.68207
20
-3.22013
11
5.69122
21
-3.21591
0
LINE
8
BLACK
6
CONTINUOUS
10
5.69122
20
-3.21591
11
5.70088
21
-3.2131
0
LINE
8
BLACK
6
CONTINUOUS
10
5.70088
20
-3.2131
11
5.71085
21
-3.21174
0
LINE
8
BLACK
6
CONTINUOUS
10
5.71085
20
-3.21174
11
5.72092
21
-3.21187
0
LINE
8
BLACK
6
CONTINUOUS
10
5.72092
20
-3.21187
11
5.73085
21
-3.21349
0
LINE
8
BLACK
6
CONTINUOUS
10
5.73085
20
-3.21349
11
5.74044
21
-3.21656
0
LINE
8
BLACK
6
CONTINUOUS
10
5.74044
20
-3.21656
11
5.74947
21
-3.22101
0
LINE
8
BLACK
6
CONTINUOUS
10
5.74947
20
-3.22101
11
5.75774
21
-3.22675
0
LINE
8
BLACK
6
CONTINUOUS
10
5.75774
20
-3.22675
11
5.76507
21
-3.23365
0
LINE
8
BLACK
6
CONTINUOUS
10
5.76507
20
-3.23365
11
5.7713
21
-3.24155
0
LINE
8
BLACK
6
CONTINUOUS
10
5.7713
20
-3.24155
11
5.7763
21
-3.25029
0
LINE
8
BLACK
6
CONTINUOUS
10
5.7763
20
-3.25029
11
5.77995
21
-3.25967
0
LINE
8
BLACK
6
CONTINUOUS
10
5.77995
20
-3.25967
11
5.78217
21
-3.26949
0
LINE
8
BLACK
6
CONTINUOUS
10
5.78217
20
-3.26949
11
5.78291
21
-3.27953
0
LINE
8
BLACK
6
CONTINUOUS
10
5.78291
20
-3.27953
11
5.78282
21
-3.28308
0
LINE
8
BLACK
6
CONTINUOUS
10
5.78282
20
-3.28308
11
5.78155
21
-3.29307
0
LINE
8
BLACK
6
CONTINUOUS
10
5.78155
20
-3.29307
11
5.77882
21
-3.30276
0
LINE
8
BLACK
6
CONTINUOUS
10
5.77882
20
-3.30276
11
5.77468
21
-3.31193
0
LINE
8
BLACK
6
CONTINUOUS
10
5.77468
20
-3.31193
11
5.76924
21
-3.3204
0
LINE
8
BLACK
6
CONTINUOUS
10
5.76924
20
-3.3204
11
5.7626
21
-3.32797
0
LINE
8
BLACK
6
CONTINUOUS
10
5.7626
20
-3.32797
11
5.75492
21
-3.33447
0
LINE
8
BLACK
6
CONTINUOUS
10
5.75492
20
-3.33447
11
5.74636
21
-3.33977
0
LINE
8
BLACK
6
CONTINUOUS
10
5.74636
20
-3.33977
11
5.73711
21
-3.34374
0
LINE
8
BLACK
6
CONTINUOUS
10
5.73711
20
-3.34374
11
5.72738
21
-3.3463
0
LINE
8
BLACK
6
CONTINUOUS
10
5.72738
20
-3.3463
11
5.71737
21
-3.3474
0
LINE
8
BLACK
6
CONTINUOUS
10
5.71737
20
-3.3474
11
5.70731
21
-3.347
0
LINE
8
BLACK
6
CONTINUOUS
10
5.70731
20
-3.347
11
5.69742
21
-3.34513
0
LINE
8
BLACK
6
CONTINUOUS
10
5.69742
20
-3.34513
11
5.68792
21
-3.34181
0
LINE
8
BLACK
6
CONTINUOUS
10
5.68792
20
-3.34181
11
5.67901
21
-3.33712
0
LINE
8
BLACK
6
CONTINUOUS
10
5.67901
20
-3.33712
11
5.67089
21
-3.33117
0
LINE
8
BLACK
6
CONTINUOUS
10
5.67089
20
-3.33117
11
5.66375
21
-3.32408
0
LINE
8
BLACK
6
CONTINUOUS
10
5.66375
20
-3.32408
11
5.65772
21
-3.31602
0
LINE
8
BLACK
6
CONTINUOUS
10
5.65772
20
-3.31602
11
5.65296
21
-3.30715
0
LINE
8
BLACK
6
CONTINUOUS
10
5.65296
20
-3.30715
11
5.64956
21
-3.29768
0
LINE
8
BLACK
6
CONTINUOUS
10
5.64956
20
-3.29768
11
5.64759
21
-3.2878
0
LINE
8
BLACK
6
CONTINUOUS
10
5.64759
20
-3.2878
11
5.64713
21
-3.2781
0
LINE
8
BLACK
6
CONTINUOUS
10
5.64713
20
-3.2781
11
5.64711
21
-3.27775
0
LINE
8
BLACK
6
CONTINUOUS
10
5.64711
20
-3.27775
11
5.64812
21
-3.26773
0
LINE
8
BLACK
6
CONTINUOUS
10
5.6594
20
-3.29695
11
5.66299
21
-3.3058
0
LINE
8
BLACK
6
CONTINUOUS
10
5.66299
20
-3.3058
11
5.66798
21
-3.31394
0
LINE
8
BLACK
6
CONTINUOUS
10
5.66798
20
-3.31394
11
5.67423
21
-3.32116
0
LINE
8
BLACK
6
CONTINUOUS
10
5.67423
20
-3.32116
11
5.68158
21
-3.32726
0
LINE
8
BLACK
6
CONTINUOUS
10
5.68158
20
-3.32726
11
5.68982
21
-3.33208
0
LINE
8
BLACK
6
CONTINUOUS
10
5.68982
20
-3.33208
11
5.69874
21
-3.33548
0
LINE
8
BLACK
6
CONTINUOUS
10
5.69874
20
-3.33548
11
5.7081
21
-3.33739
0
LINE
8
BLACK
6
CONTINUOUS
10
5.7081
20
-3.33739
11
5.71764
21
-3.33774
0
LINE
8
BLACK
6
CONTINUOUS
10
5.71764
20
-3.33774
11
5.72711
21
-3.33652
0
LINE
8
BLACK
6
CONTINUOUS
10
5.72711
20
-3.33652
11
5.73626
21
-3.33378
0
LINE
8
BLACK
6
CONTINUOUS
10
5.73626
20
-3.33378
11
5.74484
21
-3.32958
0
LINE
8
BLACK
6
CONTINUOUS
10
5.74484
20
-3.32958
11
5.75261
21
-3.32403
0
LINE
8
BLACK
6
CONTINUOUS
10
5.75261
20
-3.32403
11
5.75937
21
-3.31729
0
LINE
8
BLACK
6
CONTINUOUS
10
5.75937
20
-3.31729
11
5.76495
21
-3.30954
0
LINE
8
BLACK
6
CONTINUOUS
10
5.76495
20
-3.30954
11
5.76918
21
-3.30098
0
LINE
8
BLACK
6
CONTINUOUS
10
5.76918
20
-3.30098
11
5.77195
21
-3.29184
0
LINE
8
BLACK
6
CONTINUOUS
10
5.77195
20
-3.29184
11
5.7732
21
-3.28237
0
LINE
8
BLACK
6
CONTINUOUS
10
5.7732
20
-3.28237
11
5.77327
21
-3.27953
0
LINE
8
BLACK
6
CONTINUOUS
10
5.77327
20
-3.27953
11
5.77249
21
-3.27001
0
LINE
8
BLACK
6
CONTINUOUS
10
5.77249
20
-3.27001
11
5.77016
21
-3.26075
0
LINE
8
BLACK
6
CONTINUOUS
10
5.77016
20
-3.26075
11
5.76635
21
-3.25199
0
LINE
8
BLACK
6
CONTINUOUS
10
5.76635
20
-3.25199
11
5.76117
21
-3.24397
0
LINE
8
BLACK
6
CONTINUOUS
10
5.76117
20
-3.24397
11
5.75474
21
-3.23691
0
LINE
8
BLACK
6
CONTINUOUS
10
5.75474
20
-3.23691
11
5.74725
21
-3.23099
0
LINE
8
BLACK
6
CONTINUOUS
10
5.74725
20
-3.23099
11
5.73889
21
-3.22638
0
LINE
8
BLACK
6
CONTINUOUS
10
5.73889
20
-3.22638
11
5.72988
21
-3.22319
0
LINE
8
BLACK
6
CONTINUOUS
10
5.72988
20
-3.22319
11
5.72048
21
-3.22152
0
LINE
8
BLACK
6
CONTINUOUS
10
5.72048
20
-3.22152
11
5.71094
21
-3.2214
0
LINE
8
BLACK
6
CONTINUOUS
10
5.71094
20
-3.2214
11
5.7015
21
-3.22284
0
LINE
8
BLACK
6
CONTINUOUS
10
5.7015
20
-3.22284
11
5.69242
21
-3.22581
0
LINE
8
BLACK
6
CONTINUOUS
10
5.69242
20
-3.22581
11
5.68395
21
-3.23022
0
LINE
8
BLACK
6
CONTINUOUS
10
5.68395
20
-3.23022
11
5.67631
21
-3.23595
0
LINE
8
BLACK
6
CONTINUOUS
10
5.67631
20
-3.23595
11
5.66972
21
-3.24286
0
LINE
8
BLACK
6
CONTINUOUS
10
5.66972
20
-3.24286
11
5.66433
21
-3.25075
0
LINE
8
BLACK
6
CONTINUOUS
10
5.66433
20
-3.25075
11
5.66031
21
-3.25941
0
LINE
8
BLACK
6
CONTINUOUS
10
5.66031
20
-3.25941
11
5.65776
21
-3.26861
0
LINE
8
BLACK
6
CONTINUOUS
10
5.65776
20
-3.26861
11
5.65675
21
-3.2781
0
LINE
8
BLACK
6
CONTINUOUS
10
5.65675
20
-3.2781
11
5.6573
21
-3.28764
0
LINE
8
BLACK
6
CONTINUOUS
10
5.6573
20
-3.28764
11
5.6594
21
-3.29695
  0
ENDSEC
  0
EOF
