%TF.GenerationSoftware,KiCad,Pcbnew,(6.0.5)*%
%TF.CreationDate,2023-01-06T15:20:20+08:00*%
%TF.ProjectId,Step_Ctrl_V1,53746570-5f43-4747-926c-5f56312e6b69,rev?*%
%TF.SameCoordinates,Original*%
%TF.FileFunction,Legend,Top*%
%TF.FilePolarity,Positive*%
%FSLAX46Y46*%
G04 Gerber Fmt 4.6, Leading zero omitted, Abs format (unit mm)*
G04 Created by KiCad (PCBNEW (6.0.5)) date 2023-01-06 15:20:20*
%MOMM*%
%LPD*%
G01*
G04 APERTURE LIST*
%ADD10C,0.150000*%
%ADD11C,0.140000*%
%ADD12C,0.250000*%
%ADD13C,0.130000*%
%ADD14C,0.120000*%
%ADD15C,0.360000*%
G04 APERTURE END LIST*
D10*
G36*
X133858000Y-115951000D02*
G01*
X133350000Y-114935000D01*
X134366000Y-114935000D01*
X133858000Y-115951000D01*
G37*
X133858000Y-115951000D02*
X133350000Y-114935000D01*
X134366000Y-114935000D01*
X133858000Y-115951000D01*
G36*
X126238000Y-115951000D02*
G01*
X125222000Y-115951000D01*
X125730000Y-114935000D01*
X126238000Y-115951000D01*
G37*
X126238000Y-115951000D02*
X125222000Y-115951000D01*
X125730000Y-114935000D01*
X126238000Y-115951000D01*
G36*
X122301000Y-98933000D02*
G01*
X121539000Y-98933000D01*
X121539000Y-94234000D01*
X122301000Y-94234000D01*
X122301000Y-98933000D01*
G37*
X122301000Y-98933000D02*
X121539000Y-98933000D01*
X121539000Y-94234000D01*
X122301000Y-94234000D01*
X122301000Y-98933000D01*
D11*
X122663380Y-98913904D02*
X122663380Y-98113904D01*
X122930047Y-98685333D01*
X123196714Y-98113904D01*
X123196714Y-98913904D01*
X123920523Y-98913904D02*
X123920523Y-98494857D01*
X123882428Y-98418666D01*
X123806238Y-98380571D01*
X123653857Y-98380571D01*
X123577666Y-98418666D01*
X123920523Y-98875809D02*
X123844333Y-98913904D01*
X123653857Y-98913904D01*
X123577666Y-98875809D01*
X123539571Y-98799619D01*
X123539571Y-98723428D01*
X123577666Y-98647238D01*
X123653857Y-98609142D01*
X123844333Y-98609142D01*
X123920523Y-98571047D01*
X124644333Y-98913904D02*
X124644333Y-98113904D01*
X124644333Y-98875809D02*
X124568142Y-98913904D01*
X124415761Y-98913904D01*
X124339571Y-98875809D01*
X124301476Y-98837714D01*
X124263380Y-98761523D01*
X124263380Y-98532952D01*
X124301476Y-98456761D01*
X124339571Y-98418666D01*
X124415761Y-98380571D01*
X124568142Y-98380571D01*
X124644333Y-98418666D01*
X125330047Y-98875809D02*
X125253857Y-98913904D01*
X125101476Y-98913904D01*
X125025285Y-98875809D01*
X124987190Y-98799619D01*
X124987190Y-98494857D01*
X125025285Y-98418666D01*
X125101476Y-98380571D01*
X125253857Y-98380571D01*
X125330047Y-98418666D01*
X125368142Y-98494857D01*
X125368142Y-98571047D01*
X124987190Y-98647238D01*
X126320523Y-98913904D02*
X126320523Y-98113904D01*
X126701476Y-98380571D02*
X126701476Y-98913904D01*
X126701476Y-98456761D02*
X126739571Y-98418666D01*
X126815761Y-98380571D01*
X126930047Y-98380571D01*
X127006238Y-98418666D01*
X127044333Y-98494857D01*
X127044333Y-98913904D01*
X128034809Y-98913904D02*
X128034809Y-98113904D01*
X128225285Y-98113904D01*
X128339571Y-98152000D01*
X128415761Y-98228190D01*
X128453857Y-98304380D01*
X128491952Y-98456761D01*
X128491952Y-98571047D01*
X128453857Y-98723428D01*
X128415761Y-98799619D01*
X128339571Y-98875809D01*
X128225285Y-98913904D01*
X128034809Y-98913904D01*
X129139571Y-98875809D02*
X129063380Y-98913904D01*
X128911000Y-98913904D01*
X128834809Y-98875809D01*
X128796714Y-98799619D01*
X128796714Y-98494857D01*
X128834809Y-98418666D01*
X128911000Y-98380571D01*
X129063380Y-98380571D01*
X129139571Y-98418666D01*
X129177666Y-98494857D01*
X129177666Y-98571047D01*
X128796714Y-98647238D01*
X129634809Y-98913904D02*
X129558619Y-98875809D01*
X129520523Y-98799619D01*
X129520523Y-98113904D01*
X122618904Y-96589904D02*
X122885571Y-97389904D01*
X123152238Y-96589904D01*
X123723666Y-97351809D02*
X123647476Y-97389904D01*
X123495095Y-97389904D01*
X123418904Y-97351809D01*
X123380809Y-97275619D01*
X123380809Y-96970857D01*
X123418904Y-96894666D01*
X123495095Y-96856571D01*
X123647476Y-96856571D01*
X123723666Y-96894666D01*
X123761761Y-96970857D01*
X123761761Y-97047047D01*
X123380809Y-97123238D01*
X124104619Y-97389904D02*
X124104619Y-96856571D01*
X124104619Y-97008952D02*
X124142714Y-96932761D01*
X124180809Y-96894666D01*
X124257000Y-96856571D01*
X124333190Y-96856571D01*
X124561761Y-97351809D02*
X124637952Y-97389904D01*
X124790333Y-97389904D01*
X124866523Y-97351809D01*
X124904619Y-97275619D01*
X124904619Y-97237523D01*
X124866523Y-97161333D01*
X124790333Y-97123238D01*
X124676047Y-97123238D01*
X124599857Y-97085142D01*
X124561761Y-97008952D01*
X124561761Y-96970857D01*
X124599857Y-96894666D01*
X124676047Y-96856571D01*
X124790333Y-96856571D01*
X124866523Y-96894666D01*
X125247476Y-97389904D02*
X125247476Y-96856571D01*
X125247476Y-96589904D02*
X125209380Y-96628000D01*
X125247476Y-96666095D01*
X125285571Y-96628000D01*
X125247476Y-96589904D01*
X125247476Y-96666095D01*
X125742714Y-97389904D02*
X125666523Y-97351809D01*
X125628428Y-97313714D01*
X125590333Y-97237523D01*
X125590333Y-97008952D01*
X125628428Y-96932761D01*
X125666523Y-96894666D01*
X125742714Y-96856571D01*
X125857000Y-96856571D01*
X125933190Y-96894666D01*
X125971285Y-96932761D01*
X126009380Y-97008952D01*
X126009380Y-97237523D01*
X125971285Y-97313714D01*
X125933190Y-97351809D01*
X125857000Y-97389904D01*
X125742714Y-97389904D01*
X126352238Y-96856571D02*
X126352238Y-97389904D01*
X126352238Y-96932761D02*
X126390333Y-96894666D01*
X126466523Y-96856571D01*
X126580809Y-96856571D01*
X126657000Y-96894666D01*
X126695095Y-96970857D01*
X126695095Y-97389904D01*
X127076047Y-97313714D02*
X127114142Y-97351809D01*
X127076047Y-97389904D01*
X127037952Y-97351809D01*
X127076047Y-97313714D01*
X127076047Y-97389904D01*
X127076047Y-96894666D02*
X127114142Y-96932761D01*
X127076047Y-96970857D01*
X127037952Y-96932761D01*
X127076047Y-96894666D01*
X127076047Y-96970857D01*
X127876047Y-97389904D02*
X127418904Y-97389904D01*
X127647476Y-97389904D02*
X127647476Y-96589904D01*
X127571285Y-96704190D01*
X127495095Y-96780380D01*
X127418904Y-96818476D01*
X128218904Y-97313714D02*
X128257000Y-97351809D01*
X128218904Y-97389904D01*
X128180809Y-97351809D01*
X128218904Y-97313714D01*
X128218904Y-97389904D01*
X128752238Y-96589904D02*
X128828428Y-96589904D01*
X128904619Y-96628000D01*
X128942714Y-96666095D01*
X128980809Y-96742285D01*
X129018904Y-96894666D01*
X129018904Y-97085142D01*
X128980809Y-97237523D01*
X128942714Y-97313714D01*
X128904619Y-97351809D01*
X128828428Y-97389904D01*
X128752238Y-97389904D01*
X128676047Y-97351809D01*
X128637952Y-97313714D01*
X128599857Y-97237523D01*
X128561761Y-97085142D01*
X128561761Y-96894666D01*
X128599857Y-96742285D01*
X128637952Y-96666095D01*
X128676047Y-96628000D01*
X128752238Y-96589904D01*
D12*
X122669857Y-95649190D02*
X122855571Y-95711095D01*
X123165095Y-95711095D01*
X123288904Y-95649190D01*
X123350809Y-95587285D01*
X123412714Y-95463476D01*
X123412714Y-95339666D01*
X123350809Y-95215857D01*
X123288904Y-95153952D01*
X123165095Y-95092047D01*
X122917476Y-95030142D01*
X122793666Y-94968238D01*
X122731761Y-94906333D01*
X122669857Y-94782523D01*
X122669857Y-94658714D01*
X122731761Y-94534904D01*
X122793666Y-94473000D01*
X122917476Y-94411095D01*
X123227000Y-94411095D01*
X123412714Y-94473000D01*
X123784142Y-94844428D02*
X124279380Y-94844428D01*
X123969857Y-94411095D02*
X123969857Y-95525380D01*
X124031761Y-95649190D01*
X124155571Y-95711095D01*
X124279380Y-95711095D01*
X125207952Y-95649190D02*
X125084142Y-95711095D01*
X124836523Y-95711095D01*
X124712714Y-95649190D01*
X124650809Y-95525380D01*
X124650809Y-95030142D01*
X124712714Y-94906333D01*
X124836523Y-94844428D01*
X125084142Y-94844428D01*
X125207952Y-94906333D01*
X125269857Y-95030142D01*
X125269857Y-95153952D01*
X124650809Y-95277761D01*
X125827000Y-94844428D02*
X125827000Y-96144428D01*
X125827000Y-94906333D02*
X125950809Y-94844428D01*
X126198428Y-94844428D01*
X126322238Y-94906333D01*
X126384142Y-94968238D01*
X126446047Y-95092047D01*
X126446047Y-95463476D01*
X126384142Y-95587285D01*
X126322238Y-95649190D01*
X126198428Y-95711095D01*
X125950809Y-95711095D01*
X125827000Y-95649190D01*
X127003190Y-95215857D02*
X127993666Y-95215857D01*
X129355571Y-95587285D02*
X129293666Y-95649190D01*
X129107952Y-95711095D01*
X128984142Y-95711095D01*
X128798428Y-95649190D01*
X128674619Y-95525380D01*
X128612714Y-95401571D01*
X128550809Y-95153952D01*
X128550809Y-94968238D01*
X128612714Y-94720619D01*
X128674619Y-94596809D01*
X128798428Y-94473000D01*
X128984142Y-94411095D01*
X129107952Y-94411095D01*
X129293666Y-94473000D01*
X129355571Y-94534904D01*
X129727000Y-94844428D02*
X130222238Y-94844428D01*
X129912714Y-94411095D02*
X129912714Y-95525380D01*
X129974619Y-95649190D01*
X130098428Y-95711095D01*
X130222238Y-95711095D01*
X130655571Y-95711095D02*
X130655571Y-94844428D01*
X130655571Y-95092047D02*
X130717476Y-94968238D01*
X130779380Y-94906333D01*
X130903190Y-94844428D01*
X131027000Y-94844428D01*
X131646047Y-95711095D02*
X131522238Y-95649190D01*
X131460333Y-95525380D01*
X131460333Y-94411095D01*
D13*
X131120333Y-84613000D02*
X131053666Y-84579666D01*
X130953666Y-84579666D01*
X130853666Y-84613000D01*
X130787000Y-84679666D01*
X130753666Y-84746333D01*
X130720333Y-84879666D01*
X130720333Y-84979666D01*
X130753666Y-85113000D01*
X130787000Y-85179666D01*
X130853666Y-85246333D01*
X130953666Y-85279666D01*
X131020333Y-85279666D01*
X131120333Y-85246333D01*
X131153666Y-85213000D01*
X131153666Y-84979666D01*
X131020333Y-84979666D01*
X130137666Y-85279666D02*
X129904333Y-84946333D01*
X129737666Y-85279666D02*
X129737666Y-84579666D01*
X130004333Y-84579666D01*
X130071000Y-84613000D01*
X130104333Y-84646333D01*
X130137666Y-84713000D01*
X130137666Y-84813000D01*
X130104333Y-84879666D01*
X130071000Y-84913000D01*
X130004333Y-84946333D01*
X129737666Y-84946333D01*
X128705000Y-84579666D02*
X129105000Y-84579666D01*
X128905000Y-85279666D02*
X128905000Y-84579666D01*
X123972666Y-84579666D02*
X124206000Y-85279666D01*
X124439333Y-84579666D01*
X123406666Y-85213000D02*
X123373333Y-85246333D01*
X123273333Y-85279666D01*
X123206666Y-85279666D01*
X123106666Y-85246333D01*
X123040000Y-85179666D01*
X123006666Y-85113000D01*
X122973333Y-84979666D01*
X122973333Y-84879666D01*
X123006666Y-84746333D01*
X123040000Y-84679666D01*
X123106666Y-84613000D01*
X123206666Y-84579666D01*
X123273333Y-84579666D01*
X123373333Y-84613000D01*
X123406666Y-84646333D01*
X121990666Y-85279666D02*
X121990666Y-84579666D01*
X122157333Y-84579666D01*
X122257333Y-84613000D01*
X122324000Y-84679666D01*
X122357333Y-84746333D01*
X122390666Y-84879666D01*
X122390666Y-84979666D01*
X122357333Y-85113000D01*
X122324000Y-85179666D01*
X122257333Y-85246333D01*
X122157333Y-85279666D01*
X121990666Y-85279666D01*
X121341333Y-84613000D02*
X121274666Y-84579666D01*
X121174666Y-84579666D01*
X121074666Y-84613000D01*
X121008000Y-84679666D01*
X120974666Y-84746333D01*
X120941333Y-84879666D01*
X120941333Y-84979666D01*
X120974666Y-85113000D01*
X121008000Y-85179666D01*
X121074666Y-85246333D01*
X121174666Y-85279666D01*
X121241333Y-85279666D01*
X121341333Y-85246333D01*
X121374666Y-85213000D01*
X121374666Y-84979666D01*
X121241333Y-84979666D01*
D10*
G36*
X115443000Y-92456000D02*
G01*
X114427000Y-91948000D01*
X115443000Y-91440000D01*
X115443000Y-92456000D01*
G37*
X115443000Y-92456000D02*
X114427000Y-91948000D01*
X115443000Y-91440000D01*
X115443000Y-92456000D01*
G36*
X115443000Y-95758000D02*
G01*
X114427000Y-96266000D01*
X114427000Y-95250000D01*
X115443000Y-95758000D01*
G37*
X115443000Y-95758000D02*
X114427000Y-96266000D01*
X114427000Y-95250000D01*
X115443000Y-95758000D01*
X116228857Y-93210142D02*
X116181238Y-93162523D01*
X116133619Y-93019666D01*
X116133619Y-92924428D01*
X116181238Y-92781571D01*
X116276476Y-92686333D01*
X116371714Y-92638714D01*
X116562190Y-92591095D01*
X116705047Y-92591095D01*
X116895523Y-92638714D01*
X116990761Y-92686333D01*
X117086000Y-92781571D01*
X117133619Y-92924428D01*
X117133619Y-93019666D01*
X117086000Y-93162523D01*
X117038380Y-93210142D01*
X116419333Y-93591095D02*
X116419333Y-94067285D01*
X116133619Y-93495857D02*
X117133619Y-93829190D01*
X116133619Y-94162523D01*
X116133619Y-94495857D02*
X117133619Y-94495857D01*
X116133619Y-95067285D01*
X117133619Y-95067285D01*
X142978142Y-94495857D02*
X143025761Y-94543476D01*
X143073380Y-94686333D01*
X143073380Y-94781571D01*
X143025761Y-94924428D01*
X142930523Y-95019666D01*
X142835285Y-95067285D01*
X142644809Y-95114904D01*
X142501952Y-95114904D01*
X142311476Y-95067285D01*
X142216238Y-95019666D01*
X142121000Y-94924428D01*
X142073380Y-94781571D01*
X142073380Y-94686333D01*
X142121000Y-94543476D01*
X142168619Y-94495857D01*
X142787666Y-94114904D02*
X142787666Y-93638714D01*
X143073380Y-94210142D02*
X142073380Y-93876809D01*
X143073380Y-93543476D01*
X143073380Y-93210142D02*
X142073380Y-93210142D01*
X143073380Y-92638714D01*
X142073380Y-92638714D01*
G36*
X145034000Y-96266000D02*
G01*
X144018000Y-95758000D01*
X145034000Y-95250000D01*
X145034000Y-96266000D01*
G37*
X145034000Y-96266000D02*
X144018000Y-95758000D01*
X145034000Y-95250000D01*
X145034000Y-96266000D01*
G36*
X145034000Y-91948000D02*
G01*
X144018000Y-92456000D01*
X144018000Y-91440000D01*
X145034000Y-91948000D01*
G37*
X145034000Y-91948000D02*
X144018000Y-92456000D01*
X144018000Y-91440000D01*
X145034000Y-91948000D01*
X143768771Y-94234047D02*
X143768771Y-94995952D01*
X143768771Y-92710047D02*
X143768771Y-93471952D01*
X143387819Y-93091000D02*
X144149723Y-93091000D01*
G36*
X117606153Y-87967121D02*
G01*
X116844153Y-87967121D01*
X117225153Y-87332121D01*
X117606153Y-87967121D01*
G37*
X117606153Y-87967121D02*
X116844153Y-87967121D01*
X117225153Y-87332121D01*
X117606153Y-87967121D01*
X115514428Y-94995952D02*
X115514428Y-94234047D01*
X115895380Y-94615000D02*
X115133476Y-94615000D01*
X115514428Y-93471952D02*
X115514428Y-92710047D01*
D13*
X116404333Y-88886466D02*
X116004333Y-88886466D01*
X116204333Y-88886466D02*
X116204333Y-88186466D01*
X116137666Y-88286466D01*
X116071000Y-88353133D01*
X116004333Y-88386466D01*
X116671000Y-88253133D02*
X116704333Y-88219800D01*
X116771000Y-88186466D01*
X116937666Y-88186466D01*
X117004333Y-88219800D01*
X117037666Y-88253133D01*
X117071000Y-88319800D01*
X117071000Y-88386466D01*
X117037666Y-88486466D01*
X116637666Y-88886466D01*
X117071000Y-88886466D01*
X117504333Y-88186466D02*
X117571000Y-88186466D01*
X117637666Y-88219800D01*
X117671000Y-88253133D01*
X117704333Y-88319800D01*
X117737666Y-88453133D01*
X117737666Y-88619800D01*
X117704333Y-88753133D01*
X117671000Y-88819800D01*
X117637666Y-88853133D01*
X117571000Y-88886466D01*
X117504333Y-88886466D01*
X117437666Y-88853133D01*
X117404333Y-88819800D01*
X117371000Y-88753133D01*
X117337666Y-88619800D01*
X117337666Y-88453133D01*
X117371000Y-88319800D01*
X117404333Y-88253133D01*
X117437666Y-88219800D01*
X117504333Y-88186466D01*
X118437666Y-88886466D02*
X118204333Y-88553133D01*
X118037666Y-88886466D02*
X118037666Y-88186466D01*
X118304333Y-88186466D01*
X118371000Y-88219800D01*
X118404333Y-88253133D01*
X118437666Y-88319800D01*
X118437666Y-88419800D01*
X118404333Y-88486466D01*
X118371000Y-88519800D01*
X118304333Y-88553133D01*
X118037666Y-88553133D01*
D14*
%TO.C,J8*%
X114057000Y-92964000D02*
X114057000Y-91313000D01*
X108977000Y-96393000D02*
X114057000Y-96393000D01*
X108977000Y-91313000D02*
X108977000Y-96393000D01*
X114057000Y-96393000D02*
X114057000Y-94742000D01*
X114057000Y-91313000D02*
X108977000Y-91313000D01*
%TO.C,J7*%
X145277000Y-96393000D02*
X150357000Y-96393000D01*
X145277000Y-91313000D02*
X145277000Y-92964000D01*
X150357000Y-96393000D02*
X150357000Y-91313000D01*
X150357000Y-91313000D02*
X145277000Y-91313000D01*
X145277000Y-94742000D02*
X145277000Y-96393000D01*
%TO.C,J5*%
X119634000Y-82942000D02*
X119634000Y-82053000D01*
X119634000Y-82942000D02*
X120682000Y-82942000D01*
X124682000Y-82942000D02*
X125730000Y-82942000D01*
X125682000Y-78370000D02*
X119682000Y-78370000D01*
X125730000Y-82942000D02*
X125730000Y-82053000D01*
%TO.C,SW2*%
X131584200Y-116459000D02*
X135902200Y-116459000D01*
X131584200Y-119507000D02*
X135902200Y-119507000D01*
X131584200Y-119126000D02*
X131584200Y-119507000D01*
X131584200Y-116840000D02*
X131584200Y-116459000D01*
X135902200Y-116459000D02*
X135902200Y-116840000D01*
X135902200Y-119507000D02*
X135902200Y-119126000D01*
%TO.C,SW1*%
X123584200Y-116459000D02*
X127902200Y-116459000D01*
X123584200Y-119507000D02*
X127902200Y-119507000D01*
X123584200Y-119126000D02*
X123584200Y-119507000D01*
X123584200Y-116840000D02*
X123584200Y-116459000D01*
X127902200Y-116459000D02*
X127902200Y-116840000D01*
X127902200Y-119507000D02*
X127902200Y-119126000D01*
%TO.C,U7*%
D15*
X133530000Y-104157500D02*
G75*
G03*
X133530000Y-104157500I-180000J0D01*
G01*
D14*
X134379000Y-104330500D02*
X137922000Y-104330500D01*
X137922000Y-109410500D02*
X134366000Y-109410500D01*
%TO.C,U6*%
D15*
X133530000Y-98633000D02*
G75*
G03*
X133530000Y-98633000I-180000J0D01*
G01*
D14*
X134379000Y-98806000D02*
X137922000Y-98806000D01*
X137922000Y-103886000D02*
X134366000Y-103886000D01*
%TO.C,R11*%
X117067359Y-86361000D02*
X117374641Y-86361000D01*
X117067359Y-87121000D02*
X117374641Y-87121000D01*
%TO.C,J13*%
X150546000Y-110205000D02*
X141046000Y-110205000D01*
X141046000Y-96805000D02*
X150546000Y-96805000D01*
X141046000Y-110205000D02*
X141046000Y-96805000D01*
X150546000Y-96805000D02*
X150546000Y-110205000D01*
%TO.C,J6*%
X131361000Y-78341000D02*
X128481000Y-78341000D01*
X127311000Y-82811000D02*
X128361000Y-82811000D01*
X132531000Y-82811000D02*
X131481000Y-82811000D01*
X132531000Y-80311000D02*
X132531000Y-82811000D01*
X131481000Y-82811000D02*
X131481000Y-83801000D01*
X127311000Y-80311000D02*
X127311000Y-82811000D01*
%TO.C,D3*%
X137405000Y-81688000D02*
X137405000Y-83158000D01*
X137405000Y-83158000D02*
X139865000Y-83158000D01*
X139865000Y-81688000D02*
X137405000Y-81688000D01*
%TO.C,D2*%
X136915000Y-83158000D02*
X136915000Y-81688000D01*
X136915000Y-81688000D02*
X134455000Y-81688000D01*
X134455000Y-83158000D02*
X136915000Y-83158000D01*
%TD*%
M02*
