%TF.GenerationSoftware,KiCad,Pcbnew,(6.0.5)*%
%TF.CreationDate,2023-01-06T15:20:20+08:00*%
%TF.ProjectId,Step_Ctrl_V1,53746570-5f43-4747-926c-5f56312e6b69,rev?*%
%TF.SameCoordinates,Original*%
%TF.FileFunction,Soldermask,Bot*%
%TF.FilePolarity,Negative*%
%FSLAX46Y46*%
G04 Gerber Fmt 4.6, Leading zero omitted, Abs format (unit mm)*
G04 Created by KiCad (PCBNEW (6.0.5)) date 2023-01-06 15:20:20*
%MOMM*%
%LPD*%
G01*
G04 APERTURE LIST*
G04 Aperture macros list*
%AMRoundRect*
0 Rectangle with rounded corners*
0 $1 Rounding radius*
0 $2 $3 $4 $5 $6 $7 $8 $9 X,Y pos of 4 corners*
0 Add a 4 corners polygon primitive as box body*
4,1,4,$2,$3,$4,$5,$6,$7,$8,$9,$2,$3,0*
0 Add four circle primitives for the rounded corners*
1,1,$1+$1,$2,$3*
1,1,$1+$1,$4,$5*
1,1,$1+$1,$6,$7*
1,1,$1+$1,$8,$9*
0 Add four rect primitives between the rounded corners*
20,1,$1+$1,$2,$3,$4,$5,0*
20,1,$1+$1,$4,$5,$6,$7,0*
20,1,$1+$1,$6,$7,$8,$9,0*
20,1,$1+$1,$8,$9,$2,$3,0*%
G04 Aperture macros list end*
%ADD10RoundRect,0.237500X0.250000X0.237500X-0.250000X0.237500X-0.250000X-0.237500X0.250000X-0.237500X0*%
%ADD11RoundRect,0.237500X-0.250000X-0.237500X0.250000X-0.237500X0.250000X0.237500X-0.250000X0.237500X0*%
%ADD12RoundRect,0.237500X-0.300000X-0.237500X0.300000X-0.237500X0.300000X0.237500X-0.300000X0.237500X0*%
%ADD13RoundRect,0.137500X0.525000X0.137500X-0.525000X0.137500X-0.525000X-0.137500X0.525000X-0.137500X0*%
%ADD14RoundRect,0.137500X-0.137500X0.525000X-0.137500X-0.525000X0.137500X-0.525000X0.137500X0.525000X0*%
%ADD15RoundRect,0.381000X0.762000X0.381000X-0.762000X0.381000X-0.762000X-0.381000X0.762000X-0.381000X0*%
%ADD16RoundRect,0.381000X-0.762000X-0.381000X0.762000X-0.381000X0.762000X0.381000X-0.762000X0.381000X0*%
%ADD17R,1.400000X1.200000*%
%ADD18RoundRect,0.150000X0.150000X-0.825000X0.150000X0.825000X-0.150000X0.825000X-0.150000X-0.825000X0*%
%ADD19RoundRect,0.175000X0.575000X0.175000X-0.575000X0.175000X-0.575000X-0.175000X0.575000X-0.175000X0*%
%ADD20RoundRect,0.075000X0.075000X0.662500X-0.075000X0.662500X-0.075000X-0.662500X0.075000X-0.662500X0*%
%ADD21RoundRect,0.075000X0.662500X0.075000X-0.662500X0.075000X-0.662500X-0.075000X0.662500X-0.075000X0*%
%ADD22RoundRect,0.250000X0.312500X0.625000X-0.312500X0.625000X-0.312500X-0.625000X0.312500X-0.625000X0*%
%ADD23RoundRect,0.237500X0.237500X-0.250000X0.237500X0.250000X-0.237500X0.250000X-0.237500X-0.250000X0*%
%ADD24RoundRect,0.450000X-0.650000X0.450000X-0.650000X-0.450000X0.650000X-0.450000X0.650000X0.450000X0*%
%ADD25R,2.500000X1.800000*%
%ADD26R,2.500000X2.300000*%
%ADD27R,1.800000X2.500000*%
%ADD28RoundRect,0.237500X0.300000X0.237500X-0.300000X0.237500X-0.300000X-0.237500X0.300000X-0.237500X0*%
%ADD29RoundRect,0.237500X-0.237500X0.300000X-0.237500X-0.300000X0.237500X-0.300000X0.237500X0.300000X0*%
%ADD30RoundRect,0.250000X1.100000X-0.325000X1.100000X0.325000X-1.100000X0.325000X-1.100000X-0.325000X0*%
%ADD31RoundRect,0.250000X-1.100000X0.325000X-1.100000X-0.325000X1.100000X-0.325000X1.100000X0.325000X0*%
%ADD32RoundRect,0.250000X-0.325000X-1.100000X0.325000X-1.100000X0.325000X1.100000X-0.325000X1.100000X0*%
G04 APERTURE END LIST*
D10*
%TO.C,TH1*%
X136374500Y-111506000D03*
X138199500Y-111506000D03*
%TD*%
D11*
%TO.C,R17*%
X138199500Y-114554000D03*
X136374500Y-114554000D03*
%TD*%
D12*
%TO.C,C31*%
X138149500Y-113030000D03*
X136424500Y-113030000D03*
%TD*%
D13*
%TO.C,U1*%
X122295500Y-96332000D03*
X122295500Y-97282000D03*
X122295500Y-98232000D03*
X120020500Y-98232000D03*
X120020500Y-96332000D03*
%TD*%
D14*
%TO.C,U2*%
X132400000Y-85857500D03*
X133350000Y-85857500D03*
X134300000Y-85857500D03*
X134300000Y-88132500D03*
X133350000Y-88132500D03*
X132400000Y-88132500D03*
%TD*%
D15*
%TO.C,J4*%
X148717000Y-92075000D03*
%TD*%
D16*
%TO.C,J3*%
X110617000Y-95504000D03*
%TD*%
%TO.C,J2*%
X110617000Y-92075000D03*
%TD*%
%TO.C,J1*%
X148717000Y-95504000D03*
%TD*%
D17*
%TO.C,Y1*%
X128440000Y-108800000D03*
X130640000Y-108800000D03*
X130640000Y-107100000D03*
X128440000Y-107100000D03*
%TD*%
D18*
%TO.C,U5*%
X120142000Y-94042000D03*
X118872000Y-94042000D03*
X117602000Y-94042000D03*
X116332000Y-94042000D03*
X116332000Y-89092000D03*
X117602000Y-89092000D03*
X118872000Y-89092000D03*
X120142000Y-89092000D03*
%TD*%
D19*
%TO.C,U4*%
X126943200Y-96951800D03*
X126943200Y-98221800D03*
X126943200Y-99491800D03*
X126943200Y-100761800D03*
X132543200Y-100761800D03*
X132543200Y-99491800D03*
X132543200Y-98221800D03*
X132543200Y-96951800D03*
%TD*%
D20*
%TO.C,U3*%
X123400000Y-103279500D03*
X122900000Y-103279500D03*
X122400000Y-103279500D03*
X121900000Y-103279500D03*
X121400000Y-103279500D03*
X120900000Y-103279500D03*
X120400000Y-103279500D03*
X119900000Y-103279500D03*
X119400000Y-103279500D03*
X118900000Y-103279500D03*
X118400000Y-103279500D03*
X117900000Y-103279500D03*
D21*
X116487500Y-104692000D03*
X116487500Y-105192000D03*
X116487500Y-105692000D03*
X116487500Y-106192000D03*
X116487500Y-106692000D03*
X116487500Y-107192000D03*
X116487500Y-107692000D03*
X116487500Y-108192000D03*
X116487500Y-108692000D03*
X116487500Y-109192000D03*
X116487500Y-109692000D03*
X116487500Y-110192000D03*
D20*
X117900000Y-111604500D03*
X118400000Y-111604500D03*
X118900000Y-111604500D03*
X119400000Y-111604500D03*
X119900000Y-111604500D03*
X120400000Y-111604500D03*
X120900000Y-111604500D03*
X121400000Y-111604500D03*
X121900000Y-111604500D03*
X122400000Y-111604500D03*
X122900000Y-111604500D03*
X123400000Y-111604500D03*
D21*
X124812500Y-110192000D03*
X124812500Y-109692000D03*
X124812500Y-109192000D03*
X124812500Y-108692000D03*
X124812500Y-108192000D03*
X124812500Y-107692000D03*
X124812500Y-107192000D03*
X124812500Y-106692000D03*
X124812500Y-106192000D03*
X124812500Y-105692000D03*
X124812500Y-105192000D03*
X124812500Y-104692000D03*
%TD*%
D10*
%TO.C,R18*%
X122023500Y-115570000D03*
X123848500Y-115570000D03*
%TD*%
%TO.C,R16*%
X125452500Y-115570000D03*
X127277500Y-115570000D03*
%TD*%
D22*
%TO.C,R15*%
X136459500Y-106299000D03*
X139384500Y-106299000D03*
%TD*%
%TO.C,R14*%
X136459500Y-100711000D03*
X139384500Y-100711000D03*
%TD*%
D11*
%TO.C,R13*%
X134643500Y-111506000D03*
X132818500Y-111506000D03*
%TD*%
%TO.C,R12*%
X134643500Y-105410000D03*
X132818500Y-105410000D03*
%TD*%
D10*
%TO.C,R10*%
X132818500Y-114554000D03*
X134643500Y-114554000D03*
%TD*%
%TO.C,R9*%
X132818500Y-108458000D03*
X134643500Y-108458000D03*
%TD*%
%TO.C,R8*%
X118768500Y-86741000D03*
X116943500Y-86741000D03*
%TD*%
D11*
%TO.C,R7*%
X136167500Y-83947000D03*
X134342500Y-83947000D03*
%TD*%
%TO.C,R6*%
X132738500Y-82423000D03*
X130913500Y-82423000D03*
%TD*%
D23*
%TO.C,R5*%
X135890000Y-90066500D03*
X135890000Y-88241500D03*
%TD*%
D10*
%TO.C,R4*%
X116308500Y-100838000D03*
X118133500Y-100838000D03*
%TD*%
%TO.C,R3*%
X129008500Y-112268000D03*
X130833500Y-112268000D03*
%TD*%
%TO.C,R2*%
X138152500Y-82423000D03*
X139977500Y-82423000D03*
%TD*%
D11*
%TO.C,R1*%
X136167500Y-82423000D03*
X134342500Y-82423000D03*
%TD*%
D24*
%TO.C,L1*%
X126873000Y-94325000D03*
X126873000Y-89825000D03*
%TD*%
D25*
%TO.C,D5*%
X124111000Y-86741000D03*
X128111000Y-86741000D03*
%TD*%
D26*
%TO.C,D4*%
X135119000Y-93218000D03*
X130819000Y-93218000D03*
%TD*%
D27*
%TO.C,D1*%
X145288000Y-95116400D03*
X145288000Y-91116400D03*
%TD*%
D28*
%TO.C,C30*%
X122073500Y-114046000D03*
X123798500Y-114046000D03*
%TD*%
%TO.C,C29*%
X137694500Y-108839000D03*
X139419500Y-108839000D03*
%TD*%
%TO.C,C28*%
X137694500Y-103251000D03*
X139419500Y-103251000D03*
%TD*%
%TO.C,C27*%
X132868500Y-102362000D03*
X134593500Y-102362000D03*
%TD*%
D12*
%TO.C,C26*%
X134593500Y-109982000D03*
X132868500Y-109982000D03*
%TD*%
%TO.C,C25*%
X134593500Y-103886000D03*
X132868500Y-103886000D03*
%TD*%
D28*
%TO.C,C24*%
X132868500Y-113030000D03*
X134593500Y-113030000D03*
%TD*%
%TO.C,C23*%
X132868500Y-106934000D03*
X134593500Y-106934000D03*
%TD*%
D29*
%TO.C,C22*%
X114173000Y-106526500D03*
X114173000Y-104801500D03*
%TD*%
D30*
%TO.C,C21*%
X141732000Y-89994000D03*
X141732000Y-87044000D03*
%TD*%
D12*
%TO.C,C20*%
X130783500Y-103886000D03*
X129058500Y-103886000D03*
%TD*%
%TO.C,C19*%
X130783500Y-105410000D03*
X129058500Y-105410000D03*
%TD*%
%TO.C,C18*%
X130783500Y-110490000D03*
X129058500Y-110490000D03*
%TD*%
D30*
%TO.C,C17*%
X138430000Y-89994000D03*
X138430000Y-87044000D03*
%TD*%
D28*
%TO.C,C16*%
X125502500Y-114046000D03*
X127227500Y-114046000D03*
%TD*%
%TO.C,C15*%
X123671500Y-92964000D03*
X121946500Y-92964000D03*
%TD*%
D12*
%TO.C,C14*%
X129058500Y-102362000D03*
X130783500Y-102362000D03*
%TD*%
D31*
%TO.C,C13*%
X141732000Y-94693000D03*
X141732000Y-91743000D03*
%TD*%
D28*
%TO.C,C12*%
X123671500Y-91440000D03*
X121946500Y-91440000D03*
%TD*%
D12*
%TO.C,C11*%
X120369500Y-114046000D03*
X118644500Y-114046000D03*
%TD*%
D28*
%TO.C,C10*%
X130963500Y-83947000D03*
X132688500Y-83947000D03*
%TD*%
D31*
%TO.C,C9*%
X138430000Y-94693000D03*
X138430000Y-91743000D03*
%TD*%
D32*
%TO.C,C8*%
X147271000Y-87757000D03*
X144321000Y-87757000D03*
%TD*%
D29*
%TO.C,C7*%
X130683000Y-87984500D03*
X130683000Y-86259500D03*
%TD*%
D28*
%TO.C,C6*%
X118083500Y-97663000D03*
X116358500Y-97663000D03*
%TD*%
%TO.C,C5*%
X118083500Y-96139000D03*
X116358500Y-96139000D03*
%TD*%
%TO.C,C4*%
X118083500Y-99314000D03*
X116358500Y-99314000D03*
%TD*%
%TO.C,C3*%
X134212500Y-90043000D03*
X132487500Y-90043000D03*
%TD*%
D12*
%TO.C,C2*%
X130783500Y-114046000D03*
X129058500Y-114046000D03*
%TD*%
D28*
%TO.C,C1*%
X123671500Y-94488000D03*
X121946500Y-94488000D03*
%TD*%
M02*
