<?xml version="1.0" standalone="no"?>
 <!DOCTYPE svg PUBLIC "-//W3C//DTD SVG 1.1//EN" 
 "http://www.w3.org/Graphics/SVG/1.1/DTD/svg11.dtd"> 
<svg
  xmlns:svg="http://www.w3.org/2000/svg"
  xmlns="http://www.w3.org/2000/svg"
  xmlns:xlink="http://www.w3.org/1999/xlink"
  version="1.1"
  width="29.700220cm" height="21.000720cm" viewBox="0 0 297002200 210007200">
<title>SVG Picture created as Step_Ctrl_V1-F_Paste.svg date 2023/01/12 15:02:00 </title>
  <desc>Picture generated by PCBNEW </desc>
<g style="fill:#000000; fill-opacity:1.000000;stroke:#000000; stroke-opacity:1.000000;
stroke-linecap:round; stroke-linejoin:round;"
 transform="translate(0 0) scale(1 1)">
</g>
<g style="fill:#000000; fill-opacity:0.0; 
stroke:#000000; stroke-width:0.000000; stroke-opacity:1; 
stroke-linecap:round; stroke-linejoin:round;">
<g >
</g>
<g style="fill:#000000; fill-opacity:0.0; 
stroke:#000000; stroke-width:1.000000; stroke-opacity:1; 
stroke-linecap:round; stroke-linejoin:round;">
</g>
<g style="fill:#000000; fill-opacity:1.0; 
stroke:#000000; stroke-width:1.000000; stroke-opacity:1; 
stroke-linecap:round; stroke-linejoin:round;">
<path style="fill:#000000; fill-opacity:1.0; 
stroke:#000000; stroke-width:1.000000; stroke-opacity:1; 
stroke-linecap:round; stroke-linejoin:round;fill-rule:evenodd;"
d="M 114707000.000000,93053000.000000
114764403.000000,93064418.000000
114813066.000000,93096934.000000
114845582.000000,93145597.000000
114857000.000000,93203000.000000
114857000.000000,93503000.000000
114845582.000000,93560403.000000
114813066.000000,93609066.000000
114764403.000000,93641582.000000
114707000.000000,93653000.000000
113407000.000000,93653000.000000
113349597.000000,93641582.000000
113300934.000000,93609066.000000
113268418.000000,93560403.000000
113257000.000000,93503000.000000
113257000.000000,93203000.000000
113268418.000000,93145597.000000
113300934.000000,93096934.000000
113349597.000000,93064418.000000
113407000.000000,93053000.000000
Z" /> 
<path style="fill:#000000; fill-opacity:1.0; 
stroke:#000000; stroke-width:1.000000; stroke-opacity:1; 
stroke-linecap:round; stroke-linejoin:round;fill-rule:evenodd;"
d="M 114707000.000000,94053000.000000
114764403.000000,94064418.000000
114813066.000000,94096934.000000
114845582.000000,94145597.000000
114857000.000000,94203000.000000
114857000.000000,94503000.000000
114845582.000000,94560403.000000
114813066.000000,94609066.000000
114764403.000000,94641582.000000
114707000.000000,94653000.000000
113407000.000000,94653000.000000
113349597.000000,94641582.000000
113300934.000000,94609066.000000
113268418.000000,94560403.000000
113257000.000000,94503000.000000
113257000.000000,94203000.000000
113268418.000000,94145597.000000
113300934.000000,94096934.000000
113349597.000000,94064418.000000
113407000.000000,94053000.000000
Z" /> 
<path style="fill:#000000; fill-opacity:1.0; 
stroke:#000000; stroke-width:1.000000; stroke-opacity:1; 
stroke-linecap:round; stroke-linejoin:round;fill-rule:evenodd;"
d="M 110857000.000000,91553000.000000
110926015.000000,91561046.000000
111026490.000000,91605466.000000
111104238.000000,91683078.000000
111148833.000000,91783476.000000
111157000.000000,91853000.000000
111157000.000000,92453000.000000
111148954.000000,92522015.000000
111104534.000000,92622490.000000
111026922.000000,92700238.000000
110926524.000000,92744833.000000
110857000.000000,92753000.000000
109457000.000000,92753000.000000
109387985.000000,92744954.000000
109287510.000000,92700534.000000
109209762.000000,92622922.000000
109165167.000000,92522524.000000
109157000.000000,92453000.000000
109157000.000000,91853000.000000
109165046.000000,91783985.000000
109209466.000000,91683510.000000
109287078.000000,91605762.000000
109387476.000000,91561167.000000
109457000.000000,91553000.000000
Z" /> 
<path style="fill:#000000; fill-opacity:1.0; 
stroke:#000000; stroke-width:1.000000; stroke-opacity:1; 
stroke-linecap:round; stroke-linejoin:round;fill-rule:evenodd;"
d="M 110857000.000000,94953000.000000
110926015.000000,94961046.000000
111026490.000000,95005466.000000
111104238.000000,95083078.000000
111148833.000000,95183476.000000
111157000.000000,95253000.000000
111157000.000000,95853000.000000
111148954.000000,95922015.000000
111104534.000000,96022490.000000
111026922.000000,96100238.000000
110926524.000000,96144833.000000
110857000.000000,96153000.000000
109457000.000000,96153000.000000
109387985.000000,96144954.000000
109287510.000000,96100534.000000
109209762.000000,96022922.000000
109165167.000000,95922524.000000
109157000.000000,95853000.000000
109157000.000000,95253000.000000
109165046.000000,95183985.000000
109209466.000000,95083510.000000
109287078.000000,95005762.000000
109387476.000000,94961167.000000
109457000.000000,94953000.000000
Z" /> 
</g>
<g >
</g>
<g style="fill:#000000; fill-opacity:1.0; 
stroke:#000000; stroke-width:1.000000; stroke-opacity:1; 
stroke-linecap:round; stroke-linejoin:round;">
<path style="fill:#000000; fill-opacity:1.0; 
stroke:#000000; stroke-width:1.000000; stroke-opacity:1; 
stroke-linecap:round; stroke-linejoin:round;fill-rule:evenodd;"
d="M 144627000.000000,94653000.000000
144569597.000000,94641582.000000
144520934.000000,94609066.000000
144488418.000000,94560403.000000
144477000.000000,94503000.000000
144477000.000000,94203000.000000
144488418.000000,94145597.000000
144520934.000000,94096934.000000
144569597.000000,94064418.000000
144627000.000000,94053000.000000
145927000.000000,94053000.000000
145984403.000000,94064418.000000
146033066.000000,94096934.000000
146065582.000000,94145597.000000
146077000.000000,94203000.000000
146077000.000000,94503000.000000
146065582.000000,94560403.000000
146033066.000000,94609066.000000
145984403.000000,94641582.000000
145927000.000000,94653000.000000
Z" /> 
<path style="fill:#000000; fill-opacity:1.0; 
stroke:#000000; stroke-width:1.000000; stroke-opacity:1; 
stroke-linecap:round; stroke-linejoin:round;fill-rule:evenodd;"
d="M 144627000.000000,93653000.000000
144569597.000000,93641582.000000
144520934.000000,93609066.000000
144488418.000000,93560403.000000
144477000.000000,93503000.000000
144477000.000000,93203000.000000
144488418.000000,93145597.000000
144520934.000000,93096934.000000
144569597.000000,93064418.000000
144627000.000000,93053000.000000
145927000.000000,93053000.000000
145984403.000000,93064418.000000
146033066.000000,93096934.000000
146065582.000000,93145597.000000
146077000.000000,93203000.000000
146077000.000000,93503000.000000
146065582.000000,93560403.000000
146033066.000000,93609066.000000
145984403.000000,93641582.000000
145927000.000000,93653000.000000
Z" /> 
<path style="fill:#000000; fill-opacity:1.0; 
stroke:#000000; stroke-width:1.000000; stroke-opacity:1; 
stroke-linecap:round; stroke-linejoin:round;fill-rule:evenodd;"
d="M 148477000.000000,96153000.000000
148407985.000000,96144954.000000
148307510.000000,96100534.000000
148229762.000000,96022922.000000
148185167.000000,95922524.000000
148177000.000000,95853000.000000
148177000.000000,95253000.000000
148185046.000000,95183985.000000
148229466.000000,95083510.000000
148307078.000000,95005762.000000
148407476.000000,94961167.000000
148477000.000000,94953000.000000
149877000.000000,94953000.000000
149946015.000000,94961046.000000
150046490.000000,95005466.000000
150124238.000000,95083078.000000
150168833.000000,95183476.000000
150177000.000000,95253000.000000
150177000.000000,95853000.000000
150168954.000000,95922015.000000
150124534.000000,96022490.000000
150046922.000000,96100238.000000
149946524.000000,96144833.000000
149877000.000000,96153000.000000
Z" /> 
<path style="fill:#000000; fill-opacity:1.0; 
stroke:#000000; stroke-width:1.000000; stroke-opacity:1; 
stroke-linecap:round; stroke-linejoin:round;fill-rule:evenodd;"
d="M 148477000.000000,92753000.000000
148407985.000000,92744954.000000
148307510.000000,92700534.000000
148229762.000000,92622922.000000
148185167.000000,92522524.000000
148177000.000000,92453000.000000
148177000.000000,91853000.000000
148185046.000000,91783985.000000
148229466.000000,91683510.000000
148307078.000000,91605762.000000
148407476.000000,91561167.000000
148477000.000000,91553000.000000
149877000.000000,91553000.000000
149946015.000000,91561046.000000
150046490.000000,91605466.000000
150124238.000000,91683078.000000
150168833.000000,91783476.000000
150177000.000000,91853000.000000
150177000.000000,92453000.000000
150168954.000000,92522015.000000
150124534.000000,92622490.000000
150046922.000000,92700238.000000
149946524.000000,92744833.000000
149877000.000000,92753000.000000
Z" /> 
</g>
<g >
</g>
<g style="fill:#000000; fill-opacity:1.0; 
stroke:#000000; stroke-width:1.000000; stroke-opacity:1; 
stroke-linecap:round; stroke-linejoin:round;">
<path style="fill:#000000; fill-opacity:1.0; 
stroke:#000000; stroke-width:1.000000; stroke-opacity:1; 
stroke-linecap:round; stroke-linejoin:round;fill-rule:evenodd;"
d="M 122543200.000000,117433000.000000
122551171.000000,117348678.000000
122595505.000000,117222432.000000
122675002.000000,117114802.000000
122782632.000000,117035305.000000
122908878.000000,116990971.000000
122993200.000000,116983000.000000
123893200.000000,116983000.000000
123977522.000000,116990971.000000
124103768.000000,117035305.000000
124211398.000000,117114802.000000
124290895.000000,117222432.000000
124335229.000000,117348678.000000
124343200.000000,117433000.000000
124343200.000000,118533000.000000
124335229.000000,118617322.000000
124290895.000000,118743568.000000
124211398.000000,118851198.000000
124103768.000000,118930695.000000
123977522.000000,118975029.000000
123893200.000000,118983000.000000
122993200.000000,118983000.000000
122908878.000000,118975029.000000
122782632.000000,118930695.000000
122675002.000000,118851198.000000
122595505.000000,118743568.000000
122551171.000000,118617322.000000
122543200.000000,118533000.000000
Z" /> 
<path style="fill:#000000; fill-opacity:1.0; 
stroke:#000000; stroke-width:1.000000; stroke-opacity:1; 
stroke-linecap:round; stroke-linejoin:round;fill-rule:evenodd;"
d="M 127143200.000000,117433000.000000
127151171.000000,117348678.000000
127195505.000000,117222432.000000
127275002.000000,117114802.000000
127382632.000000,117035305.000000
127508878.000000,116990971.000000
127593200.000000,116983000.000000
128493200.000000,116983000.000000
128577522.000000,116990971.000000
128703768.000000,117035305.000000
128811398.000000,117114802.000000
128890895.000000,117222432.000000
128935229.000000,117348678.000000
128943200.000000,117433000.000000
128943200.000000,118533000.000000
128935229.000000,118617322.000000
128890895.000000,118743568.000000
128811398.000000,118851198.000000
128703768.000000,118930695.000000
128577522.000000,118975029.000000
128493200.000000,118983000.000000
127593200.000000,118983000.000000
127508878.000000,118975029.000000
127382632.000000,118930695.000000
127275002.000000,118851198.000000
127195505.000000,118743568.000000
127151171.000000,118617322.000000
127143200.000000,118533000.000000
Z" /> 
</g>
<g >
</g>
<g style="fill:#000000; fill-opacity:1.0; 
stroke:#000000; stroke-width:1.000000; stroke-opacity:1; 
stroke-linecap:round; stroke-linejoin:round;">
<path style="fill:#000000; fill-opacity:1.0; 
stroke:#000000; stroke-width:1.000000; stroke-opacity:1; 
stroke-linecap:round; stroke-linejoin:round;fill-rule:evenodd;"
d="M 130543200.000000,117433000.000000
130551171.000000,117348678.000000
130595505.000000,117222432.000000
130675002.000000,117114802.000000
130782632.000000,117035305.000000
130908878.000000,116990971.000000
130993200.000000,116983000.000000
131893200.000000,116983000.000000
131977522.000000,116990971.000000
132103768.000000,117035305.000000
132211398.000000,117114802.000000
132290895.000000,117222432.000000
132335229.000000,117348678.000000
132343200.000000,117433000.000000
132343200.000000,118533000.000000
132335229.000000,118617322.000000
132290895.000000,118743568.000000
132211398.000000,118851198.000000
132103768.000000,118930695.000000
131977522.000000,118975029.000000
131893200.000000,118983000.000000
130993200.000000,118983000.000000
130908878.000000,118975029.000000
130782632.000000,118930695.000000
130675002.000000,118851198.000000
130595505.000000,118743568.000000
130551171.000000,118617322.000000
130543200.000000,118533000.000000
Z" /> 
<path style="fill:#000000; fill-opacity:1.0; 
stroke:#000000; stroke-width:1.000000; stroke-opacity:1; 
stroke-linecap:round; stroke-linejoin:round;fill-rule:evenodd;"
d="M 135143200.000000,117433000.000000
135151171.000000,117348678.000000
135195505.000000,117222432.000000
135275002.000000,117114802.000000
135382632.000000,117035305.000000
135508878.000000,116990971.000000
135593200.000000,116983000.000000
136493200.000000,116983000.000000
136577522.000000,116990971.000000
136703768.000000,117035305.000000
136811398.000000,117114802.000000
136890895.000000,117222432.000000
136935229.000000,117348678.000000
136943200.000000,117433000.000000
136943200.000000,118533000.000000
136935229.000000,118617322.000000
136890895.000000,118743568.000000
136811398.000000,118851198.000000
136703768.000000,118930695.000000
136577522.000000,118975029.000000
136493200.000000,118983000.000000
135593200.000000,118983000.000000
135508878.000000,118975029.000000
135382632.000000,118930695.000000
135275002.000000,118851198.000000
135195505.000000,118743568.000000
135151171.000000,118617322.000000
135143200.000000,118533000.000000
Z" /> 
</g>
<g >
</g>
<g style="fill:#000000; fill-opacity:1.0; 
stroke:#000000; stroke-width:1.000000; stroke-opacity:1; 
stroke-linecap:round; stroke-linejoin:round;">
<path style="fill:#000000; fill-opacity:1.0; 
stroke:#000000; stroke-width:1.000000; stroke-opacity:1; 
stroke-linecap:round; stroke-linejoin:round;fill-rule:evenodd;"
d="M 131221000.000000,83651000.000000
131209582.000000,83708403.000000
131177066.000000,83757066.000000
131128403.000000,83789582.000000
131071000.000000,83801000.000000
130771000.000000,83801000.000000
130713597.000000,83789582.000000
130664934.000000,83757066.000000
130632418.000000,83708403.000000
130621000.000000,83651000.000000
130621000.000000,82401000.000000
130632418.000000,82343597.000000
130664934.000000,82294934.000000
130713597.000000,82262418.000000
130771000.000000,82251000.000000
131071000.000000,82251000.000000
131128403.000000,82262418.000000
131177066.000000,82294934.000000
131209582.000000,82343597.000000
131221000.000000,82401000.000000
Z" /> 
<path style="fill:#000000; fill-opacity:1.0; 
stroke:#000000; stroke-width:1.000000; stroke-opacity:1; 
stroke-linecap:round; stroke-linejoin:round;fill-rule:evenodd;"
d="M 130221000.000000,83651000.000000
130209582.000000,83708403.000000
130177066.000000,83757066.000000
130128403.000000,83789582.000000
130071000.000000,83801000.000000
129771000.000000,83801000.000000
129713597.000000,83789582.000000
129664934.000000,83757066.000000
129632418.000000,83708403.000000
129621000.000000,83651000.000000
129621000.000000,82401000.000000
129632418.000000,82343597.000000
129664934.000000,82294934.000000
129713597.000000,82262418.000000
129771000.000000,82251000.000000
130071000.000000,82251000.000000
130128403.000000,82262418.000000
130177066.000000,82294934.000000
130209582.000000,82343597.000000
130221000.000000,82401000.000000
Z" /> 
<path style="fill:#000000; fill-opacity:1.0; 
stroke:#000000; stroke-width:1.000000; stroke-opacity:1; 
stroke-linecap:round; stroke-linejoin:round;fill-rule:evenodd;"
d="M 129221000.000000,83651000.000000
129209582.000000,83708403.000000
129177066.000000,83757066.000000
129128403.000000,83789582.000000
129071000.000000,83801000.000000
128771000.000000,83801000.000000
128713597.000000,83789582.000000
128664934.000000,83757066.000000
128632418.000000,83708403.000000
128621000.000000,83651000.000000
128621000.000000,82401000.000000
128632418.000000,82343597.000000
128664934.000000,82294934.000000
128713597.000000,82262418.000000
128771000.000000,82251000.000000
129071000.000000,82251000.000000
129128403.000000,82262418.000000
129177066.000000,82294934.000000
129209582.000000,82343597.000000
129221000.000000,82401000.000000
Z" /> 
<path style="fill:#000000; fill-opacity:1.0; 
stroke:#000000; stroke-width:1.000000; stroke-opacity:1; 
stroke-linecap:round; stroke-linejoin:round;fill-rule:evenodd;"
d="M 128221000.000000,79801000.000000
128201970.000000,79896671.000000
128147777.000000,79977777.000000
128066671.000000,80031970.000000
127971000.000000,80051000.000000
127271000.000000,80051000.000000
127175329.000000,80031970.000000
127094223.000000,79977777.000000
127040030.000000,79896671.000000
127021000.000000,79801000.000000
127021000.000000,78501000.000000
127040030.000000,78405329.000000
127094223.000000,78324223.000000
127175329.000000,78270030.000000
127271000.000000,78251000.000000
127971000.000000,78251000.000000
128066671.000000,78270030.000000
128147777.000000,78324223.000000
128201970.000000,78405329.000000
128221000.000000,78501000.000000
Z" /> 
<path style="fill:#000000; fill-opacity:1.0; 
stroke:#000000; stroke-width:1.000000; stroke-opacity:1; 
stroke-linecap:round; stroke-linejoin:round;fill-rule:evenodd;"
d="M 132821000.000000,79801000.000000
132801970.000000,79896671.000000
132747777.000000,79977777.000000
132666671.000000,80031970.000000
132571000.000000,80051000.000000
131871000.000000,80051000.000000
131775329.000000,80031970.000000
131694223.000000,79977777.000000
131640030.000000,79896671.000000
131621000.000000,79801000.000000
131621000.000000,78501000.000000
131640030.000000,78405329.000000
131694223.000000,78324223.000000
131775329.000000,78270030.000000
131871000.000000,78251000.000000
132571000.000000,78251000.000000
132666671.000000,78270030.000000
132747777.000000,78324223.000000
132801970.000000,78405329.000000
132821000.000000,78501000.000000
Z" /> 
</g>
<g >
</g>
<g style="fill:#000000; fill-opacity:1.0; 
stroke:#000000; stroke-width:1.000000; stroke-opacity:1; 
stroke-linecap:round; stroke-linejoin:round;">
<path style="fill:#000000; fill-opacity:1.0; 
stroke:#000000; stroke-width:1.000000; stroke-opacity:1; 
stroke-linecap:round; stroke-linejoin:round;fill-rule:evenodd;"
d="M 136655000.000000,82660500.000000
136636921.000000,82751387.000000
136585438.000000,82828438.000000
136508387.000000,82879921.000000
136417500.000000,82898000.000000
135842500.000000,82898000.000000
135751613.000000,82879921.000000
135674562.000000,82828438.000000
135623079.000000,82751387.000000
135605000.000000,82660500.000000
135605000.000000,82185500.000000
135623079.000000,82094613.000000
135674562.000000,82017562.000000
135751613.000000,81966079.000000
135842500.000000,81948000.000000
136417500.000000,81948000.000000
136508387.000000,81966079.000000
136585438.000000,82017562.000000
136636921.000000,82094613.000000
136655000.000000,82185500.000000
Z" /> 
<path style="fill:#000000; fill-opacity:1.0; 
stroke:#000000; stroke-width:1.000000; stroke-opacity:1; 
stroke-linecap:round; stroke-linejoin:round;fill-rule:evenodd;"
d="M 134905000.000000,82660500.000000
134886921.000000,82751387.000000
134835438.000000,82828438.000000
134758387.000000,82879921.000000
134667500.000000,82898000.000000
134092500.000000,82898000.000000
134001613.000000,82879921.000000
133924562.000000,82828438.000000
133873079.000000,82751387.000000
133855000.000000,82660500.000000
133855000.000000,82185500.000000
133873079.000000,82094613.000000
133924562.000000,82017562.000000
134001613.000000,81966079.000000
134092500.000000,81948000.000000
134667500.000000,81948000.000000
134758387.000000,81966079.000000
134835438.000000,82017562.000000
134886921.000000,82094613.000000
134905000.000000,82185500.000000
Z" /> 
</g>
<g >
</g>
<g style="fill:#000000; fill-opacity:1.0; 
stroke:#000000; stroke-width:1.000000; stroke-opacity:1; 
stroke-linecap:round; stroke-linejoin:round;">
<path style="fill:#000000; fill-opacity:1.0; 
stroke:#000000; stroke-width:1.000000; stroke-opacity:1; 
stroke-linecap:round; stroke-linejoin:round;fill-rule:evenodd;"
d="M 137665000.000000,82185500.000000
137683079.000000,82094613.000000
137734562.000000,82017562.000000
137811613.000000,81966079.000000
137902500.000000,81948000.000000
138477500.000000,81948000.000000
138568387.000000,81966079.000000
138645438.000000,82017562.000000
138696921.000000,82094613.000000
138715000.000000,82185500.000000
138715000.000000,82660500.000000
138696921.000000,82751387.000000
138645438.000000,82828438.000000
138568387.000000,82879921.000000
138477500.000000,82898000.000000
137902500.000000,82898000.000000
137811613.000000,82879921.000000
137734562.000000,82828438.000000
137683079.000000,82751387.000000
137665000.000000,82660500.000000
Z" /> 
<path style="fill:#000000; fill-opacity:1.0; 
stroke:#000000; stroke-width:1.000000; stroke-opacity:1; 
stroke-linecap:round; stroke-linejoin:round;fill-rule:evenodd;"
d="M 139415000.000000,82185500.000000
139433079.000000,82094613.000000
139484562.000000,82017562.000000
139561613.000000,81966079.000000
139652500.000000,81948000.000000
140227500.000000,81948000.000000
140318387.000000,81966079.000000
140395438.000000,82017562.000000
140446921.000000,82094613.000000
140465000.000000,82185500.000000
140465000.000000,82660500.000000
140446921.000000,82751387.000000
140395438.000000,82828438.000000
140318387.000000,82879921.000000
140227500.000000,82898000.000000
139652500.000000,82898000.000000
139561613.000000,82879921.000000
139484562.000000,82828438.000000
139433079.000000,82751387.000000
139415000.000000,82660500.000000
Z" /> 
</g>
<g >
</g>
<g style="fill:#000000; fill-opacity:1.0; 
stroke:#000000; stroke-width:1.000000; stroke-opacity:1; 
stroke-linecap:round; stroke-linejoin:round;">
<path style="fill:#000000; fill-opacity:1.0; 
stroke:#000000; stroke-width:1.000000; stroke-opacity:1; 
stroke-linecap:round; stroke-linejoin:round;fill-rule:evenodd;"
d="M 116441000.000000,86556000.000000
116451276.000000,86504338.000000
116480541.000000,86460541.000000
116524338.000000,86431276.000000
116576000.000000,86421000.000000
116846000.000000,86421000.000000
116897662.000000,86431276.000000
116941459.000000,86460541.000000
116970724.000000,86504338.000000
116981000.000000,86556000.000000
116981000.000000,86926000.000000
116970724.000000,86977662.000000
116941459.000000,87021459.000000
116897662.000000,87050724.000000
116846000.000000,87061000.000000
116576000.000000,87061000.000000
116524338.000000,87050724.000000
116480541.000000,87021459.000000
116451276.000000,86977662.000000
116441000.000000,86926000.000000
Z" /> 
<path style="fill:#000000; fill-opacity:1.0; 
stroke:#000000; stroke-width:1.000000; stroke-opacity:1; 
stroke-linecap:round; stroke-linejoin:round;fill-rule:evenodd;"
d="M 117461000.000000,86556000.000000
117471276.000000,86504338.000000
117500541.000000,86460541.000000
117544338.000000,86431276.000000
117596000.000000,86421000.000000
117866000.000000,86421000.000000
117917662.000000,86431276.000000
117961459.000000,86460541.000000
117990724.000000,86504338.000000
118001000.000000,86556000.000000
118001000.000000,86926000.000000
117990724.000000,86977662.000000
117961459.000000,87021459.000000
117917662.000000,87050724.000000
117866000.000000,87061000.000000
117596000.000000,87061000.000000
117544338.000000,87050724.000000
117500541.000000,87021459.000000
117471276.000000,86977662.000000
117461000.000000,86926000.000000
Z" /> 
</g>
<g >
</g>
<g style="fill:#000000; fill-opacity:1.0; 
stroke:#000000; stroke-width:1.000000; stroke-opacity:1; 
stroke-linecap:round; stroke-linejoin:round;">
<path style="fill:#000000; fill-opacity:1.0; 
stroke:#000000; stroke-width:1.000000; stroke-opacity:1; 
stroke-linecap:round; stroke-linejoin:round;fill-rule:evenodd;"
d="M 132344000.000000,104790500.000000
132357321.000000,104723530.000000
132395256.000000,104666756.000000
132452030.000000,104628821.000000
132519000.000000,104615500.000000
134169000.000000,104615500.000000
134235970.000000,104628821.000000
134292744.000000,104666756.000000
134330679.000000,104723530.000000
134344000.000000,104790500.000000
134344000.000000,105140500.000000
134330679.000000,105207470.000000
134292744.000000,105264244.000000
134235970.000000,105302179.000000
134169000.000000,105315500.000000
132519000.000000,105315500.000000
132452030.000000,105302179.000000
132395256.000000,105264244.000000
132357321.000000,105207470.000000
132344000.000000,105140500.000000
Z" /> 
<path style="fill:#000000; fill-opacity:1.0; 
stroke:#000000; stroke-width:1.000000; stroke-opacity:1; 
stroke-linecap:round; stroke-linejoin:round;fill-rule:evenodd;"
d="M 132344000.000000,106060500.000000
132357321.000000,105993530.000000
132395256.000000,105936756.000000
132452030.000000,105898821.000000
132519000.000000,105885500.000000
134169000.000000,105885500.000000
134235970.000000,105898821.000000
134292744.000000,105936756.000000
134330679.000000,105993530.000000
134344000.000000,106060500.000000
134344000.000000,106410500.000000
134330679.000000,106477470.000000
134292744.000000,106534244.000000
134235970.000000,106572179.000000
134169000.000000,106585500.000000
132519000.000000,106585500.000000
132452030.000000,106572179.000000
132395256.000000,106534244.000000
132357321.000000,106477470.000000
132344000.000000,106410500.000000
Z" /> 
<path style="fill:#000000; fill-opacity:1.0; 
stroke:#000000; stroke-width:1.000000; stroke-opacity:1; 
stroke-linecap:round; stroke-linejoin:round;fill-rule:evenodd;"
d="M 132344000.000000,107330500.000000
132357321.000000,107263530.000000
132395256.000000,107206756.000000
132452030.000000,107168821.000000
132519000.000000,107155500.000000
134169000.000000,107155500.000000
134235970.000000,107168821.000000
134292744.000000,107206756.000000
134330679.000000,107263530.000000
134344000.000000,107330500.000000
134344000.000000,107680500.000000
134330679.000000,107747470.000000
134292744.000000,107804244.000000
134235970.000000,107842179.000000
134169000.000000,107855500.000000
132519000.000000,107855500.000000
132452030.000000,107842179.000000
132395256.000000,107804244.000000
132357321.000000,107747470.000000
132344000.000000,107680500.000000
Z" /> 
<path style="fill:#000000; fill-opacity:1.0; 
stroke:#000000; stroke-width:1.000000; stroke-opacity:1; 
stroke-linecap:round; stroke-linejoin:round;fill-rule:evenodd;"
d="M 132344000.000000,108600500.000000
132357321.000000,108533530.000000
132395256.000000,108476756.000000
132452030.000000,108438821.000000
132519000.000000,108425500.000000
134169000.000000,108425500.000000
134235970.000000,108438821.000000
134292744.000000,108476756.000000
134330679.000000,108533530.000000
134344000.000000,108600500.000000
134344000.000000,108950500.000000
134330679.000000,109017470.000000
134292744.000000,109074244.000000
134235970.000000,109112179.000000
134169000.000000,109125500.000000
132519000.000000,109125500.000000
132452030.000000,109112179.000000
132395256.000000,109074244.000000
132357321.000000,109017470.000000
132344000.000000,108950500.000000
Z" /> 
<path style="fill:#000000; fill-opacity:1.0; 
stroke:#000000; stroke-width:1.000000; stroke-opacity:1; 
stroke-linecap:round; stroke-linejoin:round;fill-rule:evenodd;"
d="M 137944000.000000,108600500.000000
137957321.000000,108533530.000000
137995256.000000,108476756.000000
138052030.000000,108438821.000000
138119000.000000,108425500.000000
139769000.000000,108425500.000000
139835970.000000,108438821.000000
139892744.000000,108476756.000000
139930679.000000,108533530.000000
139944000.000000,108600500.000000
139944000.000000,108950500.000000
139930679.000000,109017470.000000
139892744.000000,109074244.000000
139835970.000000,109112179.000000
139769000.000000,109125500.000000
138119000.000000,109125500.000000
138052030.000000,109112179.000000
137995256.000000,109074244.000000
137957321.000000,109017470.000000
137944000.000000,108950500.000000
Z" /> 
<path style="fill:#000000; fill-opacity:1.0; 
stroke:#000000; stroke-width:1.000000; stroke-opacity:1; 
stroke-linecap:round; stroke-linejoin:round;fill-rule:evenodd;"
d="M 137944000.000000,107330500.000000
137957321.000000,107263530.000000
137995256.000000,107206756.000000
138052030.000000,107168821.000000
138119000.000000,107155500.000000
139769000.000000,107155500.000000
139835970.000000,107168821.000000
139892744.000000,107206756.000000
139930679.000000,107263530.000000
139944000.000000,107330500.000000
139944000.000000,107680500.000000
139930679.000000,107747470.000000
139892744.000000,107804244.000000
139835970.000000,107842179.000000
139769000.000000,107855500.000000
138119000.000000,107855500.000000
138052030.000000,107842179.000000
137995256.000000,107804244.000000
137957321.000000,107747470.000000
137944000.000000,107680500.000000
Z" /> 
<path style="fill:#000000; fill-opacity:1.0; 
stroke:#000000; stroke-width:1.000000; stroke-opacity:1; 
stroke-linecap:round; stroke-linejoin:round;fill-rule:evenodd;"
d="M 137944000.000000,106060500.000000
137957321.000000,105993530.000000
137995256.000000,105936756.000000
138052030.000000,105898821.000000
138119000.000000,105885500.000000
139769000.000000,105885500.000000
139835970.000000,105898821.000000
139892744.000000,105936756.000000
139930679.000000,105993530.000000
139944000.000000,106060500.000000
139944000.000000,106410500.000000
139930679.000000,106477470.000000
139892744.000000,106534244.000000
139835970.000000,106572179.000000
139769000.000000,106585500.000000
138119000.000000,106585500.000000
138052030.000000,106572179.000000
137995256.000000,106534244.000000
137957321.000000,106477470.000000
137944000.000000,106410500.000000
Z" /> 
<path style="fill:#000000; fill-opacity:1.0; 
stroke:#000000; stroke-width:1.000000; stroke-opacity:1; 
stroke-linecap:round; stroke-linejoin:round;fill-rule:evenodd;"
d="M 137944000.000000,104790500.000000
137957321.000000,104723530.000000
137995256.000000,104666756.000000
138052030.000000,104628821.000000
138119000.000000,104615500.000000
139769000.000000,104615500.000000
139835970.000000,104628821.000000
139892744.000000,104666756.000000
139930679.000000,104723530.000000
139944000.000000,104790500.000000
139944000.000000,105140500.000000
139930679.000000,105207470.000000
139892744.000000,105264244.000000
139835970.000000,105302179.000000
139769000.000000,105315500.000000
138119000.000000,105315500.000000
138052030.000000,105302179.000000
137995256.000000,105264244.000000
137957321.000000,105207470.000000
137944000.000000,105140500.000000
Z" /> 
<path style="fill:#000000; fill-opacity:1.0; 
stroke:#000000; stroke-width:1.000000; stroke-opacity:1; 
stroke-linecap:round; stroke-linejoin:round;fill-rule:evenodd;"
d="M 135039000.000000,105873000.000000
135054948.000000,105741210.000000
135110154.000000,105601776.000000
135200824.000000,105482324.000000
135320276.000000,105391654.000000
135459710.000000,105336448.000000
135591500.000000,105320500.000000
136696500.000000,105320500.000000
136828290.000000,105336448.000000
136967724.000000,105391654.000000
137087176.000000,105482324.000000
137177846.000000,105601776.000000
137233052.000000,105741210.000000
137249000.000000,105873000.000000
137249000.000000,107868000.000000
137233052.000000,107999790.000000
137177846.000000,108139224.000000
137087176.000000,108258676.000000
136967724.000000,108349346.000000
136828290.000000,108404552.000000
136696500.000000,108420500.000000
135591500.000000,108420500.000000
135459710.000000,108404552.000000
135320276.000000,108349346.000000
135200824.000000,108258676.000000
135110154.000000,108139224.000000
135054948.000000,107999790.000000
135039000.000000,107868000.000000
Z" /> 
</g>
<g >
</g>
<g style="fill:#000000; fill-opacity:1.0; 
stroke:#000000; stroke-width:1.000000; stroke-opacity:1; 
stroke-linecap:round; stroke-linejoin:round;">
<path style="fill:#000000; fill-opacity:1.0; 
stroke:#000000; stroke-width:1.000000; stroke-opacity:1; 
stroke-linecap:round; stroke-linejoin:round;fill-rule:evenodd;"
d="M 150071000.000000,108605000.000000
150178133.000000,108620629.000000
150288764.000000,108674707.000000
150375913.000000,108761704.000000
150430183.000000,108872240.000000
150446000.000000,108980000.000000
150446000.000000,109730000.000000
150430371.000000,109837133.000000
150376293.000000,109947764.000000
150289296.000000,110034913.000000
150178760.000000,110089183.000000
150071000.000000,110105000.000000
147421000.000000,110105000.000000
147313867.000000,110089371.000000
147203236.000000,110035293.000000
147116087.000000,109948296.000000
147061817.000000,109837760.000000
147046000.000000,109730000.000000
147046000.000000,108980000.000000
147061629.000000,108872867.000000
147115707.000000,108762236.000000
147202704.000000,108675087.000000
147313240.000000,108620817.000000
147421000.000000,108605000.000000
Z" /> 
<path style="fill:#000000; fill-opacity:1.0; 
stroke:#000000; stroke-width:1.000000; stroke-opacity:1; 
stroke-linecap:round; stroke-linejoin:round;fill-rule:evenodd;"
d="M 150071007.000000,96904999.000000
150178140.000000,96920628.000000
150288771.000000,96974706.000000
150375920.000000,97061703.000000
150430190.000000,97172239.000000
150446007.000000,97279999.000000
150446007.000000,98029999.000000
150430378.000000,98137132.000000
150376300.000000,98247763.000000
150289303.000000,98334912.000000
150178767.000000,98389182.000000
150071007.000000,98404999.000000
147421007.000000,98404999.000000
147313874.000000,98389370.000000
147203243.000000,98335292.000000
147116094.000000,98248295.000000
147061824.000000,98137759.000000
147046007.000000,98029999.000000
147046007.000000,97279999.000000
147061636.000000,97172866.000000
147115714.000000,97062235.000000
147202711.000000,96975086.000000
147313247.000000,96920816.000000
147421007.000000,96904999.000000
Z" /> 
<path style="fill:#000000; fill-opacity:1.0; 
stroke:#000000; stroke-width:1.000000; stroke-opacity:1; 
stroke-linecap:round; stroke-linejoin:round;fill-rule:evenodd;"
d="M 144696000.000000,100005000.000000
144791671.000000,100024030.000000
144872777.000000,100078223.000000
144926970.000000,100159329.000000
144946000.000000,100255000.000000
144946000.000000,100755000.000000
144926970.000000,100850671.000000
144872777.000000,100931777.000000
144791671.000000,100985970.000000
144696000.000000,101005000.000000
141396000.000000,101005000.000000
141300329.000000,100985970.000000
141219223.000000,100931777.000000
141165030.000000,100850671.000000
141146000.000000,100755000.000000
141146000.000000,100255000.000000
141165030.000000,100159329.000000
141219223.000000,100078223.000000
141300329.000000,100024030.000000
141396000.000000,100005000.000000
Z" /> 
<path style="fill:#000000; fill-opacity:1.0; 
stroke:#000000; stroke-width:1.000000; stroke-opacity:1; 
stroke-linecap:round; stroke-linejoin:round;fill-rule:evenodd;"
d="M 144696000.000000,102005000.000000
144791671.000000,102024030.000000
144872777.000000,102078223.000000
144926970.000000,102159329.000000
144946000.000000,102255000.000000
144946000.000000,102755000.000000
144926970.000000,102850671.000000
144872777.000000,102931777.000000
144791671.000000,102985970.000000
144696000.000000,103005000.000000
141396000.000000,103005000.000000
141300329.000000,102985970.000000
141219223.000000,102931777.000000
141165030.000000,102850671.000000
141146000.000000,102755000.000000
141146000.000000,102255000.000000
141165030.000000,102159329.000000
141219223.000000,102078223.000000
141300329.000000,102024030.000000
141396000.000000,102005000.000000
Z" /> 
<path style="fill:#000000; fill-opacity:1.0; 
stroke:#000000; stroke-width:1.000000; stroke-opacity:1; 
stroke-linecap:round; stroke-linejoin:round;fill-rule:evenodd;"
d="M 144696000.000000,104005000.000000
144791671.000000,104024030.000000
144872777.000000,104078223.000000
144926970.000000,104159329.000000
144946000.000000,104255000.000000
144946000.000000,104755000.000000
144926970.000000,104850671.000000
144872777.000000,104931777.000000
144791671.000000,104985970.000000
144696000.000000,105005000.000000
141396000.000000,105005000.000000
141300329.000000,104985970.000000
141219223.000000,104931777.000000
141165030.000000,104850671.000000
141146000.000000,104755000.000000
141146000.000000,104255000.000000
141165030.000000,104159329.000000
141219223.000000,104078223.000000
141300329.000000,104024030.000000
141396000.000000,104005000.000000
Z" /> 
<path style="fill:#000000; fill-opacity:1.0; 
stroke:#000000; stroke-width:1.000000; stroke-opacity:1; 
stroke-linecap:round; stroke-linejoin:round;fill-rule:evenodd;"
d="M 144696000.000000,106005000.000000
144791671.000000,106024030.000000
144872777.000000,106078223.000000
144926970.000000,106159329.000000
144946000.000000,106255000.000000
144946000.000000,106755000.000000
144926970.000000,106850671.000000
144872777.000000,106931777.000000
144791671.000000,106985970.000000
144696000.000000,107005000.000000
141396000.000000,107005000.000000
141300329.000000,106985970.000000
141219223.000000,106931777.000000
141165030.000000,106850671.000000
141146000.000000,106755000.000000
141146000.000000,106255000.000000
141165030.000000,106159329.000000
141219223.000000,106078223.000000
141300329.000000,106024030.000000
141396000.000000,106005000.000000
Z" /> 
</g>
<g >
</g>
<g style="fill:#000000; fill-opacity:1.0; 
stroke:#000000; stroke-width:1.000000; stroke-opacity:1; 
stroke-linecap:round; stroke-linejoin:round;">
<path style="fill:#000000; fill-opacity:1.0; 
stroke:#000000; stroke-width:1.000000; stroke-opacity:1; 
stroke-linecap:round; stroke-linejoin:round;fill-rule:evenodd;"
d="M 119082000.000000,78846000.000000
119090046.000000,78776985.000000
119134466.000000,78676510.000000
119212078.000000,78598762.000000
119312476.000000,78554167.000000
119382000.000000,78546000.000000
119982000.000000,78546000.000000
120051015.000000,78554046.000000
120151490.000000,78598466.000000
120229238.000000,78676078.000000
120273833.000000,78776476.000000
120282000.000000,78846000.000000
120282000.000000,81626000.000000
120273954.000000,81695015.000000
120229534.000000,81795490.000000
120151922.000000,81873238.000000
120051524.000000,81917833.000000
119982000.000000,81926000.000000
119382000.000000,81926000.000000
119312985.000000,81917954.000000
119212510.000000,81873534.000000
119134762.000000,81795922.000000
119090167.000000,81695524.000000
119082000.000000,81626000.000000
Z" /> 
<path style="fill:#000000; fill-opacity:1.0; 
stroke:#000000; stroke-width:1.000000; stroke-opacity:1; 
stroke-linecap:round; stroke-linejoin:round;fill-rule:evenodd;"
d="M 125082000.000000,78846000.000000
125090046.000000,78776985.000000
125134466.000000,78676510.000000
125212078.000000,78598762.000000
125312476.000000,78554167.000000
125382000.000000,78546000.000000
125982000.000000,78546000.000000
126051015.000000,78554046.000000
126151490.000000,78598466.000000
126229238.000000,78676078.000000
126273833.000000,78776476.000000
126282000.000000,78846000.000000
126282000.000000,81626000.000000
126273954.000000,81695015.000000
126229534.000000,81795490.000000
126151922.000000,81873238.000000
126051524.000000,81917833.000000
125982000.000000,81926000.000000
125382000.000000,81926000.000000
125312985.000000,81917954.000000
125212510.000000,81873534.000000
125134762.000000,81795922.000000
125090167.000000,81695524.000000
125082000.000000,81626000.000000
Z" /> 
<path style="fill:#000000; fill-opacity:1.0; 
stroke:#000000; stroke-width:1.000000; stroke-opacity:1; 
stroke-linecap:round; stroke-linejoin:round;fill-rule:evenodd;"
d="M 120882000.000000,82546000.000000
120893418.000000,82488597.000000
120925934.000000,82439934.000000
120974597.000000,82407418.000000
121032000.000000,82396000.000000
121332000.000000,82396000.000000
121389403.000000,82407418.000000
121438066.000000,82439934.000000
121470582.000000,82488597.000000
121482000.000000,82546000.000000
121482000.000000,83846000.000000
121470582.000000,83903403.000000
121438066.000000,83952066.000000
121389403.000000,83984582.000000
121332000.000000,83996000.000000
121032000.000000,83996000.000000
120974597.000000,83984582.000000
120925934.000000,83952066.000000
120893418.000000,83903403.000000
120882000.000000,83846000.000000
Z" /> 
<path style="fill:#000000; fill-opacity:1.0; 
stroke:#000000; stroke-width:1.000000; stroke-opacity:1; 
stroke-linecap:round; stroke-linejoin:round;fill-rule:evenodd;"
d="M 121882000.000000,82546000.000000
121893418.000000,82488597.000000
121925934.000000,82439934.000000
121974597.000000,82407418.000000
122032000.000000,82396000.000000
122332000.000000,82396000.000000
122389403.000000,82407418.000000
122438066.000000,82439934.000000
122470582.000000,82488597.000000
122482000.000000,82546000.000000
122482000.000000,83846000.000000
122470582.000000,83903403.000000
122438066.000000,83952066.000000
122389403.000000,83984582.000000
122332000.000000,83996000.000000
122032000.000000,83996000.000000
121974597.000000,83984582.000000
121925934.000000,83952066.000000
121893418.000000,83903403.000000
121882000.000000,83846000.000000
Z" /> 
<path style="fill:#000000; fill-opacity:1.0; 
stroke:#000000; stroke-width:1.000000; stroke-opacity:1; 
stroke-linecap:round; stroke-linejoin:round;fill-rule:evenodd;"
d="M 122882000.000000,82546000.000000
122893418.000000,82488597.000000
122925934.000000,82439934.000000
122974597.000000,82407418.000000
123032000.000000,82396000.000000
123332000.000000,82396000.000000
123389403.000000,82407418.000000
123438066.000000,82439934.000000
123470582.000000,82488597.000000
123482000.000000,82546000.000000
123482000.000000,83846000.000000
123470582.000000,83903403.000000
123438066.000000,83952066.000000
123389403.000000,83984582.000000
123332000.000000,83996000.000000
123032000.000000,83996000.000000
122974597.000000,83984582.000000
122925934.000000,83952066.000000
122893418.000000,83903403.000000
122882000.000000,83846000.000000
Z" /> 
<path style="fill:#000000; fill-opacity:1.0; 
stroke:#000000; stroke-width:1.000000; stroke-opacity:1; 
stroke-linecap:round; stroke-linejoin:round;fill-rule:evenodd;"
d="M 123882000.000000,82546000.000000
123893418.000000,82488597.000000
123925934.000000,82439934.000000
123974597.000000,82407418.000000
124032000.000000,82396000.000000
124332000.000000,82396000.000000
124389403.000000,82407418.000000
124438066.000000,82439934.000000
124470582.000000,82488597.000000
124482000.000000,82546000.000000
124482000.000000,83846000.000000
124470582.000000,83903403.000000
124438066.000000,83952066.000000
124389403.000000,83984582.000000
124332000.000000,83996000.000000
124032000.000000,83996000.000000
123974597.000000,83984582.000000
123925934.000000,83952066.000000
123893418.000000,83903403.000000
123882000.000000,83846000.000000
Z" /> 
</g>
<g >
</g>
<g style="fill:#000000; fill-opacity:1.0; 
stroke:#000000; stroke-width:1.000000; stroke-opacity:1; 
stroke-linecap:round; stroke-linejoin:round;">
<path style="fill:#000000; fill-opacity:1.0; 
stroke:#000000; stroke-width:1.000000; stroke-opacity:1; 
stroke-linecap:round; stroke-linejoin:round;fill-rule:evenodd;"
d="M 132344000.000000,99266000.000000
132357321.000000,99199030.000000
132395256.000000,99142256.000000
132452030.000000,99104321.000000
132519000.000000,99091000.000000
134169000.000000,99091000.000000
134235970.000000,99104321.000000
134292744.000000,99142256.000000
134330679.000000,99199030.000000
134344000.000000,99266000.000000
134344000.000000,99616000.000000
134330679.000000,99682970.000000
134292744.000000,99739744.000000
134235970.000000,99777679.000000
134169000.000000,99791000.000000
132519000.000000,99791000.000000
132452030.000000,99777679.000000
132395256.000000,99739744.000000
132357321.000000,99682970.000000
132344000.000000,99616000.000000
Z" /> 
<path style="fill:#000000; fill-opacity:1.0; 
stroke:#000000; stroke-width:1.000000; stroke-opacity:1; 
stroke-linecap:round; stroke-linejoin:round;fill-rule:evenodd;"
d="M 132344000.000000,100536000.000000
132357321.000000,100469030.000000
132395256.000000,100412256.000000
132452030.000000,100374321.000000
132519000.000000,100361000.000000
134169000.000000,100361000.000000
134235970.000000,100374321.000000
134292744.000000,100412256.000000
134330679.000000,100469030.000000
134344000.000000,100536000.000000
134344000.000000,100886000.000000
134330679.000000,100952970.000000
134292744.000000,101009744.000000
134235970.000000,101047679.000000
134169000.000000,101061000.000000
132519000.000000,101061000.000000
132452030.000000,101047679.000000
132395256.000000,101009744.000000
132357321.000000,100952970.000000
132344000.000000,100886000.000000
Z" /> 
<path style="fill:#000000; fill-opacity:1.0; 
stroke:#000000; stroke-width:1.000000; stroke-opacity:1; 
stroke-linecap:round; stroke-linejoin:round;fill-rule:evenodd;"
d="M 132344000.000000,101806000.000000
132357321.000000,101739030.000000
132395256.000000,101682256.000000
132452030.000000,101644321.000000
132519000.000000,101631000.000000
134169000.000000,101631000.000000
134235970.000000,101644321.000000
134292744.000000,101682256.000000
134330679.000000,101739030.000000
134344000.000000,101806000.000000
134344000.000000,102156000.000000
134330679.000000,102222970.000000
134292744.000000,102279744.000000
134235970.000000,102317679.000000
134169000.000000,102331000.000000
132519000.000000,102331000.000000
132452030.000000,102317679.000000
132395256.000000,102279744.000000
132357321.000000,102222970.000000
132344000.000000,102156000.000000
Z" /> 
<path style="fill:#000000; fill-opacity:1.0; 
stroke:#000000; stroke-width:1.000000; stroke-opacity:1; 
stroke-linecap:round; stroke-linejoin:round;fill-rule:evenodd;"
d="M 132344000.000000,103076000.000000
132357321.000000,103009030.000000
132395256.000000,102952256.000000
132452030.000000,102914321.000000
132519000.000000,102901000.000000
134169000.000000,102901000.000000
134235970.000000,102914321.000000
134292744.000000,102952256.000000
134330679.000000,103009030.000000
134344000.000000,103076000.000000
134344000.000000,103426000.000000
134330679.000000,103492970.000000
134292744.000000,103549744.000000
134235970.000000,103587679.000000
134169000.000000,103601000.000000
132519000.000000,103601000.000000
132452030.000000,103587679.000000
132395256.000000,103549744.000000
132357321.000000,103492970.000000
132344000.000000,103426000.000000
Z" /> 
<path style="fill:#000000; fill-opacity:1.0; 
stroke:#000000; stroke-width:1.000000; stroke-opacity:1; 
stroke-linecap:round; stroke-linejoin:round;fill-rule:evenodd;"
d="M 137944000.000000,103076000.000000
137957321.000000,103009030.000000
137995256.000000,102952256.000000
138052030.000000,102914321.000000
138119000.000000,102901000.000000
139769000.000000,102901000.000000
139835970.000000,102914321.000000
139892744.000000,102952256.000000
139930679.000000,103009030.000000
139944000.000000,103076000.000000
139944000.000000,103426000.000000
139930679.000000,103492970.000000
139892744.000000,103549744.000000
139835970.000000,103587679.000000
139769000.000000,103601000.000000
138119000.000000,103601000.000000
138052030.000000,103587679.000000
137995256.000000,103549744.000000
137957321.000000,103492970.000000
137944000.000000,103426000.000000
Z" /> 
<path style="fill:#000000; fill-opacity:1.0; 
stroke:#000000; stroke-width:1.000000; stroke-opacity:1; 
stroke-linecap:round; stroke-linejoin:round;fill-rule:evenodd;"
d="M 137944000.000000,101806000.000000
137957321.000000,101739030.000000
137995256.000000,101682256.000000
138052030.000000,101644321.000000
138119000.000000,101631000.000000
139769000.000000,101631000.000000
139835970.000000,101644321.000000
139892744.000000,101682256.000000
139930679.000000,101739030.000000
139944000.000000,101806000.000000
139944000.000000,102156000.000000
139930679.000000,102222970.000000
139892744.000000,102279744.000000
139835970.000000,102317679.000000
139769000.000000,102331000.000000
138119000.000000,102331000.000000
138052030.000000,102317679.000000
137995256.000000,102279744.000000
137957321.000000,102222970.000000
137944000.000000,102156000.000000
Z" /> 
<path style="fill:#000000; fill-opacity:1.0; 
stroke:#000000; stroke-width:1.000000; stroke-opacity:1; 
stroke-linecap:round; stroke-linejoin:round;fill-rule:evenodd;"
d="M 137944000.000000,100536000.000000
137957321.000000,100469030.000000
137995256.000000,100412256.000000
138052030.000000,100374321.000000
138119000.000000,100361000.000000
139769000.000000,100361000.000000
139835970.000000,100374321.000000
139892744.000000,100412256.000000
139930679.000000,100469030.000000
139944000.000000,100536000.000000
139944000.000000,100886000.000000
139930679.000000,100952970.000000
139892744.000000,101009744.000000
139835970.000000,101047679.000000
139769000.000000,101061000.000000
138119000.000000,101061000.000000
138052030.000000,101047679.000000
137995256.000000,101009744.000000
137957321.000000,100952970.000000
137944000.000000,100886000.000000
Z" /> 
<path style="fill:#000000; fill-opacity:1.0; 
stroke:#000000; stroke-width:1.000000; stroke-opacity:1; 
stroke-linecap:round; stroke-linejoin:round;fill-rule:evenodd;"
d="M 137944000.000000,99266000.000000
137957321.000000,99199030.000000
137995256.000000,99142256.000000
138052030.000000,99104321.000000
138119000.000000,99091000.000000
139769000.000000,99091000.000000
139835970.000000,99104321.000000
139892744.000000,99142256.000000
139930679.000000,99199030.000000
139944000.000000,99266000.000000
139944000.000000,99616000.000000
139930679.000000,99682970.000000
139892744.000000,99739744.000000
139835970.000000,99777679.000000
139769000.000000,99791000.000000
138119000.000000,99791000.000000
138052030.000000,99777679.000000
137995256.000000,99739744.000000
137957321.000000,99682970.000000
137944000.000000,99616000.000000
Z" /> 
<path style="fill:#000000; fill-opacity:1.0; 
stroke:#000000; stroke-width:1.000000; stroke-opacity:1; 
stroke-linecap:round; stroke-linejoin:round;fill-rule:evenodd;"
d="M 135039000.000000,100348500.000000
135054948.000000,100216710.000000
135110154.000000,100077276.000000
135200824.000000,99957824.000000
135320276.000000,99867154.000000
135459710.000000,99811948.000000
135591500.000000,99796000.000000
136696500.000000,99796000.000000
136828290.000000,99811948.000000
136967724.000000,99867154.000000
137087176.000000,99957824.000000
137177846.000000,100077276.000000
137233052.000000,100216710.000000
137249000.000000,100348500.000000
137249000.000000,102343500.000000
137233052.000000,102475290.000000
137177846.000000,102614724.000000
137087176.000000,102734176.000000
136967724.000000,102824846.000000
136828290.000000,102880052.000000
136696500.000000,102896000.000000
135591500.000000,102896000.000000
135459710.000000,102880052.000000
135320276.000000,102824846.000000
135200824.000000,102734176.000000
135110154.000000,102614724.000000
135054948.000000,102475290.000000
135039000.000000,102343500.000000
Z" /> 
</g>
<g >
</g>
<g >
</g>
<g >
</g>
<g >
</g>
<g >
</g>
<g >
</g>
<g >
</g>
<g >
</g>
<g >
</g>
<g >
</g>
<g >
</g>
<g >
</g>
<g >
</g>
<g >
</g>
<g >
</g>
<g >
</g>
<g >
</g>
<g >
</g>
<g >
</g>
<g >
</g>
<g >
</g>
<g >
</g>
<g >
</g>
<g >
</g>
<g >
</g>
<g >
</g>
<g >
</g>
<g >
</g>
<g >
</g>
<g >
</g>
<g >
</g>
<g >
</g>
<g >
</g>
<g >
</g>
<g >
</g>
<g >
</g>
<g >
</g>
<g >
</g>
<g >
</g>
<g >
</g>
<g >
</g>
<g >
</g>
<g >
</g>
<g >
</g>
<g >
</g>
<g >
</g>
<g >
</g>
<g >
</g>
<g >
</g>
<g >
</g>
<g >
</g>
<g >
</g>
<g >
</g>
<g >
</g>
<g >
</g>
<g >
</g>
<g >
</g>
<g >
</g>
<g >
</g>
<g >
</g>
<g >
</g>
<g >
</g>
<g >
</g>
<g >
</g>
<g >
</g>
<g >
</g>
</g> 
</svg>
